<COLLADA xmlns="http://www.collada.org/2005/11/COLLADASchema" version="1.4.1">
  <asset>
    <created>2026-02-10T22:53:39.222340</created>
    <modified>2026-02-10T22:53:39.222348</modified>
    <up_axis>Y_UP</up_axis>
  </asset>
  <library_effects>
    <effect id="4999e27245834c4785ffa838a4fe9888" name="4999e27245834c4785ffa838a4fe9888">
      <profile_COMMON>
        <technique sid="common">
          <phong>
            <emission>
              <color>0.0 0.0 0.0 1.0</color>
            </emission>
            <ambient>
              <color>0.300000 0.300000 0.300000 1.0</color>
            </ambient>
            <diffuse>
              <color>1.000000 1.000000 1.000000 1.0</color>
            </diffuse>
            <specular>
              <color>0.196000 0.196000 0.196000 1.0</color>
            </specular>
            <shininess>
              <float>20.0</float>
            </shininess>
            <reflective>
              <color>0.0 0.0 0.0 1.0</color>
            </reflective>
            <reflectivity>
              <float>0.0</float>
            </reflectivity>
            <transparent>
              <color>0.0 0.0 0.0 1.0</color>
            </transparent>
            <transparency>
              <float>1.0</float>
            </transparency>
          </phong>
        </technique>
        <extra>
          <technique profile="GOOGLEEARTH">
            <double_sided>0</double_sided>
          </technique>
        </extra>
      </profile_COMMON>
    </effect>
  </library_effects>
  <library_geometries>
    <geometry id="06ccafce5e2c4051921d63f24f19ff66" name="77450159570c46a2b71a0a92b7a3bb89">
      <mesh>
        <source id="verts-array">
          <float_array count="453" id="verts-array-array">0.000707107 -0.00494975 -2.86235e-07 0.0247564 -0.0289837 0.000254418 0.00076058 -0.00494222 0.000505882 0.000912046 -0.00491653 0.000990457 0.0248172 -0.0289229 0.000755934 0.0249371 -0.0288031 0.0012357 0.00114504 -0.00486748 0.00143915 0.0251125 -0.0286276 0.00167992 0.00144141 -0.00478785 0.00184408 0.00178565 -0.00467036 0.00219986 0.0253386 -0.0284016 0.00207582 0.0256086 -0.0281315 0.00241199 0.00216329 -0.00450792 0.00250033 0.025915 -0.0278251 0.00267878 0.00256064 -0.00429484 0.00273808 0.00296144 -0.00402841 0.00290367 0.0262489 -0.0274912 0.0028685 0.0266006 -0.0271395 0.0029757 0.00335118 -0.00371055 0.00298921 0.0269601 -0.02678 0.0029973 0.00371048 -0.00335109 0.00298913 0.00402774 -0.00296206 0.00290368 0.027317 -0.0264231 0.00293267 0.027661 -0.0260791 0.00278367 0.00429359 -0.00256142 0.00273838 0.0279823 -0.0257578 0.00255459 0.0045064 -0.00216559 0.00250199 0.00466914 -0.00178827 0.00220233 0.0282716 -0.0254686 0.00225202 0.0285205 -0.0252196 0.00188466 0.00478676 -0.00144367 0.00184721 0.028722 -0.0250181 0.00146308 0.00486658 -0.00114554 0.00144132 0.00491591 -0.000911779 0.000992257 0.0288702 -0.0248699 0.000999419 0.0289609 -0.0247793 0.000507002 0.00494221 -0.000760297 0.000505956 0.0289914 -0.0247487 0 0.00494975 -0.000707107 -2.66454e-18 0.0247564 -0.0289837 -0.000254418 0.000759994 -0.00494204 -0.000505514 0.0248172 -0.0289229 -0.000755934 0.000911021 -0.00491598 -0.000990427 0.0249371 -0.0288031 -0.0012357 0.0251125 -0.0286276 -0.00167992 0.00114501 -0.00486677 -0.00144039 0.00144269 -0.00478706 -0.00184608 0.0253386 -0.0284016 -0.00207582 0.0017875 -0.00466944 -0.00220163 0.0256086 -0.0281315 -0.00241199 0.025915 -0.0278251 -0.00267878 0.0021644 -0.00450698 -0.00250114 0.00256049 -0.00429416 -0.00273793 0.0262489 -0.0274912 -0.0028685 0.00296103 -0.00402847 -0.00290333 0.0266006 -0.0271395 -0.0029757 0.0269601 -0.02678 -0.0029973 0.00335012 -0.00371147 -0.00298902 0.00370969 -0.00335191 -0.00298931 0.027317 -0.0264231 -0.00293267 0.00402785 -0.00296245 -0.00290398 0.027661 -0.0260791 -0.00278367 0.0279823 -0.0257578 -0.00255459 0.0042939 -0.00256198 -0.00273873 0.0045076 -0.00216407 -0.00250088 0.0282716 -0.0254686 -0.00225202 0.00466995 -0.00178666 -0.00220079 0.0285205 -0.0252196 -0.00188466 0.028722 -0.0250181 -0.00146308 0.00478764 -0.00144214 -0.00184494 0.00486729 -0.00114585 -0.0014404 0.0288702 -0.0248699 -0.000999419 0.00491647 -0.000912407 -0.000991373 0.0289609 -0.0247793 -0.000507002 0.00494225 -0.000760795 -0.000506527 0.000412897 -0.00498292 -0.006 -0.000412897 -0.00498292 0.006 -0.000412897 -0.00498292 -0.006 0.005 3.06162e-19 0.006 0.005 2.52661e-18 -0.006 0.00493181 0.000822973 -0.006 -0.00122743 -0.004847 -0.006 -0.00122743 -0.004847 0.006 -0.00200848 -0.00457887 0.006 -0.00200848 -0.00457887 -0.006 -0.00273474 -0.00418583 0.006 -0.00273474 -0.00418583 -0.006 -0.00338641 -0.00367862 -0.006 -0.00338641 -0.00367862 0.006 -0.0039457 -0.00307106 0.006 -0.0039457 -0.00307106 -0.006 -0.00439737 -0.00237974 0.006 -0.00439737 -0.00237974 -0.006 -0.00472909 -0.0016235 -0.006 -0.00472909 -0.0016235 0.006 -0.00493181 -0.000822973 0.006 -0.00493181 -0.000822973 -0.006 -0.005 -1.53081e-18 0.006 -0.005 -1.53081e-18 -0.006 0.000412897 -0.00498292 0.006 0.00122743 -0.004847 -0.006 0.00200848 -0.00457887 -0.006 0.00273474 -0.00418583 -0.006 0.00338641 -0.00367862 -0.006 0.00338641 -0.00367862 0.006 0.0039457 -0.00307106 -0.006 0.00439737 -0.00237974 -0.006 0.00472909 -0.0016235 -0.006 0.00493181 -0.000822973 -0.006 0.00472909 0.0016235 0.006 0.00493181 0.000822973 0.006 0.00472909 0.0016235 -0.006 0.00493181 -0.000822973 0.006 0.00338641 0.00367862 0.006 0.0039457 0.00307106 0.006 0.00338641 0.00367862 -0.006 0.00439737 0.00237974 0.006 0.00439737 0.00237974 -0.006 0.0039457 0.00307106 -0.006 0.00200848 0.00457887 0.006 0.00122743 0.004847 -0.006 0.00122743 0.004847 0.006 0.00273474 0.00418583 -0.006 0.00200848 0.00457887 -0.006 0.00273474 0.00418583 0.006 -0.00122743 0.004847 -0.006 -0.00122743 0.004847 0.006 -0.000412897 0.00498292 0.006 -0.000412897 0.00498292 -0.006 0.000412897 0.00498292 0.006 0.000412897 0.00498292 -0.006 -0.00338641 0.00367862 0.006 -0.00273474 0.00418583 0.006 -0.00338641 0.00367862 -0.006 -0.00200848 0.00457887 0.006 -0.00200848 0.00457887 -0.006 -0.00273474 0.00418583 -0.006 -0.00439737 0.00237974 -0.006 -0.0039457 0.00307106 0.006 -0.0039457 0.00307106 -0.006 -0.00472909 0.0016235 -0.006 -0.00439737 0.00237974 0.006 -0.00472909 0.0016235 0.006 -0.00493181 0.000822973 -0.006 -0.00493181 0.000822973 0.006 0.00472909 -0.0016235 0.006 0.00439737 -0.00237974 0.006 0.0039457 -0.00307106 0.006 0.00273474 -0.00418583 0.006 0.00200848 -0.00457887 0.006 0.00122743 -0.004847 0.006</float_array>
          <technique_common>
            <accessor count="151" source="#verts-array-array" stride="3">
              <param type="float" name="X" />
              <param type="float" name="Y" />
              <param type="float" name="Z" />
            </accessor>
          </technique_common>
        </source>
        <source id="normals-array">
          <float_array count="453" id="normals-array-array">-0.3043463 -0.9525614 8.77772e-05 -0.02395935 -0.9978202 0.06148816 -0.291829 -0.9525538 0.08647 -0.2666391 -0.9478912 0.1743725 -0.009269613 -0.9831285 0.1826812 0.01983842 -0.9541879 0.2985495 -0.2222244 -0.9390643 0.262249 0.06194171 -0.9116924 0.4061775 -0.1602602 -0.92223 0.3518643 -0.08134219 -0.8938374 0.4409515 0.1174612 -0.8572422 0.5013368 0.1820012 -0.7918182 0.5830091 0.02389031 -0.8503572 0.5256633 0.2560605 -0.7177246 0.6475372 0.1454362 -0.7849223 0.6022833 0.2881985 -0.6925398 0.6613094 0.3367884 -0.6370494 0.6933553 0.4217782 -0.5520437 0.7192711 0.4338058 -0.5737841 0.6946829 0.5086683 -0.4651518 0.7244932 0.5738034 -0.4343133 0.6943498 0.6931505 -0.2859631 0.6616399 0.594941 -0.3788738 0.7088722 0.6780931 -0.2957234 0.6728576 0.7843099 -0.1484083 0.6023561 0.7557139 -0.218046 0.6175375 0.849903 -0.02283721 0.5264441 0.8939737 0.07837308 0.4412126 0.825698 -0.1481395 0.5443138 0.8858677 -0.08788162 0.4555384 0.9215345 0.1623633 0.3527213 0.9345448 -0.03918883 0.353681 0.9390295 0.2214562 0.2630222 0.9498634 0.2600859 0.1735364 0.9703672 -0.003337582 0.2416118 0.9922832 0.01849484 0.122605 0.953638 0.2883983 0.08602871 0.9996603 0.02606187 -4.367184e-05 0.9461235 0.3238059 -0.00013068 -0.02395895 -0.9978204 -0.0614858 -0.2902367 -0.9530389 -0.08648386 -0.009315987 -0.9831348 -0.182645 -0.2653192 -0.9482491 -0.17444 0.01975918 -0.9541581 -0.2986502 0.0620594 -0.9117392 -0.4060545 -0.2220605 -0.9390578 -0.2624109 -0.1603612 -0.9220727 -0.3522304 0.1167942 -0.8571164 -0.5017076 -0.08103415 -0.893593 -0.4415032 0.1820124 -0.7917869 -0.583048 0.2560891 -0.7177379 -0.6475111 0.02467505 -0.8500528 -0.5261191 0.1457564 -0.7848727 -0.6022706 0.3367798 -0.6370509 -0.6933581 0.2874933 -0.6928873 -0.6612525 0.4217729 -0.5520374 -0.719279 0.5086659 -0.4651535 -0.7244937 0.4331922 -0.5742811 -0.6946551 0.5733025 -0.4350051 -0.6943305 0.5949341 -0.3788673 -0.7088815 0.6927809 -0.2865328 -0.6617806 0.6780976 -0.2957255 -0.6728522 0.7557518 -0.2180496 -0.6174897 0.7843726 -0.1481758 -0.6023318 0.8501809 -0.02206791 -0.526028 0.8258466 -0.1487951 -0.5439094 0.8942348 0.07866551 -0.4406312 0.8858518 -0.08793185 -0.4555596 0.9345448 -0.03918678 -0.3536813 0.9217308 0.1621249 -0.3523179 0.9389973 0.2218707 -0.2627879 0.9703536 -0.003246376 -0.241668 0.9493503 0.2620148 -0.1734424 0.9922939 0.01847251 -0.1225215 0.953255 0.2896225 -0.08616121 0.0590763 -0.7218361 -0.689538 -0.05985093 -0.7223011 0.688984 -0.05985093 -0.7223011 -0.688984 0.7245556 0.0003180112 0.6892163 0.7245556 0.0003180112 -0.6892163 0.7148923 0.1192925 -0.6889835 -0.1779195 -0.702599 -0.6889842 -0.1779195 -0.702599 0.6889842 -0.291141 -0.6637321 0.6889824 -0.291141 -0.6637321 -0.6889824 -0.3964155 -0.606757 0.6889852 -0.3964155 -0.606757 -0.6889852 -0.4908795 -0.5332359 -0.6889825 -0.4908795 -0.5332359 0.6889825 -0.5719493 -0.4451663 0.6889855 -0.5719493 -0.4451663 -0.6889855 -0.6374208 -0.3449593 0.6889832 -0.6374208 -0.3449593 -0.6889832 -0.6855065 -0.2353352 -0.6889834 -0.6855065 -0.2353352 0.6889834 -0.7148923 -0.1192925 0.6889835 -0.7148923 -0.1192925 -0.6889835 -0.7247759 -1.670619e-16 0.6889847 -0.7247759 -1.094808e-16 -0.6889847 0.05904205 -0.7218167 0.6895613 0.1775378 -0.701534 -0.6901669 0.2906319 -0.6626359 -0.6902513 0.3954755 -0.6057352 -0.6904231 0.4896856 -0.5321822 -0.6906447 0.4896876 -0.5321647 0.6906567 0.5709814 -0.4439798 -0.6905521 0.6362568 -0.3443517 -0.6903616 0.6843458 -0.2348357 -0.6903064 0.7141472 -0.1186364 -0.689869 0.6855065 0.2353352 0.6889834 0.7148923 0.1192925 0.6889835 0.6855065 0.2353352 -0.6889834 0.714169 -0.118679 0.6898391 0.4908795 0.5332359 0.6889825 0.5719493 0.4451663 0.6889855 0.4908795 0.5332359 -0.6889825 0.6374208 0.3449593 0.6889832 0.6374208 0.3449593 -0.6889832 0.5719493 0.4451663 -0.6889855 0.291141 0.6637321 0.6889824 0.1779195 0.702599 -0.6889842 0.1779195 0.702599 0.6889842 0.3964155 0.606757 -0.6889852 0.291141 0.6637321 -0.6889824 0.3964155 0.606757 0.6889852 -0.1779195 0.702599 -0.6889842 -0.1779195 0.702599 0.6889842 -0.05985093 0.7223011 0.688984 -0.05985093 0.7223011 -0.688984 0.05985093 0.7223011 0.688984 0.05985093 0.7223011 -0.688984 -0.4908795 0.5332359 0.6889825 -0.3964155 0.606757 0.6889852 -0.4908795 0.5332359 -0.6889825 -0.291141 0.6637321 0.6889824 -0.291141 0.6637321 -0.6889824 -0.3964155 0.606757 -0.6889852 -0.6374208 0.3449593 -0.6889832 -0.5719493 0.4451663 0.6889855 -0.5719493 0.4451663 -0.6889855 -0.6855065 0.2353352 -0.6889834 -0.6374208 0.3449593 0.6889832 -0.6855065 0.2353352 0.6889834 -0.7148923 0.1192925 -0.6889835 -0.7148923 0.1192925 0.6889835 0.6843946 -0.2348453 0.6902548 0.6362997 -0.3443843 0.6903058 0.5710286 -0.4439637 0.6905234 0.3954764 -0.6056782 0.6904725 0.2905857 -0.6626078 0.6902976 0.1775449 -0.7014936 0.6902062</float_array>
          <technique_common>
            <accessor count="151" source="#normals-array-array" stride="3">
              <param type="float" name="X" />
              <param type="float" name="Y" />
              <param type="float" name="Z" />
            </accessor>
          </technique_common>
        </source>
        <vertices id="verts-array-vertices">
          <input semantic="POSITION" source="#verts-array" />
        </vertices>
        <triangles count="298" material="material0">
          <input offset="0" semantic="VERTEX" source="#verts-array-vertices" />
          <input offset="1" semantic="NORMAL" source="#normals-array" />
          <p>0 0 1 1 2 2 3 3 2 2 4 4 1 1 4 4 2 2 5 5 6 6 3 3 3 3 4 4 5 5 6 6 7 7 8 8 7 7 6 6 5 5 9 9 8 8 10 10 7 7 10 10 8 8 11 11 12 12 9 9 9 9 10 10 11 11 12 12 13 13 14 14 13 13 12 12 11 11 15 15 14 14 16 16 13 13 16 16 14 14 17 17 18 18 15 15 15 15 16 16 17 17 18 18 19 19 20 20 19 19 18 18 17 17 21 21 20 20 22 22 19 19 22 22 20 20 23 23 24 24 21 21 21 21 22 22 23 23 24 24 25 25 26 26 25 25 24 24 23 23 27 27 26 26 28 28 25 25 28 28 26 26 29 29 30 30 27 27 27 27 28 28 29 29 30 30 31 31 32 32 31 31 30 30 29 29 33 33 32 32 34 34 31 31 34 34 32 32 35 35 36 36 33 33 33 33 34 34 35 35 37 37 36 36 35 35 37 37 38 38 36 36 1 1 0 0 39 39 40 40 41 41 39 39 39 39 0 0 40 40 41 41 42 42 43 43 42 42 41 41 40 40 44 44 43 43 45 45 42 42 45 45 43 43 46 46 47 47 44 44 44 44 45 45 46 46 47 47 48 48 49 49 48 48 47 47 46 46 50 50 49 49 51 51 48 48 51 51 49 49 52 52 53 53 50 50 50 50 51 51 52 52 53 53 54 54 55 55 54 54 53 53 52 52 56 56 55 55 57 57 54 54 57 57 55 55 58 58 59 59 56 56 56 56 57 57 58 58 59 59 60 60 61 61 60 60 59 59 58 58 62 62 61 61 63 63 60 60 63 63 61 61 64 64 65 65 62 62 62 62 63 63 64 64 65 65 66 66 67 67 66 66 65 65 64 64 68 68 67 67 69 69 66 66 69 69 67 67 70 70 71 71 68 68 68 68 69 69 70 70 71 71 72 72 73 73 72 72 71 71 70 70 73 73 74 74 38 38 72 72 74 74 73 73 73 73 38 38 37 37 49 49 50 50 31 31 67 67 68 68 62 62 67 67 62 62 65 65 71 71 61 61 68 68 62 62 68 68 61 61 59 59 71 71 73 73 71 71 59 59 61 61 73 73 37 37 56 56 56 56 59 59 73 73 53 53 35 35 34 34 56 56 37 37 55 55 44 44 25 25 43 43 28 28 47 47 29 29 41 41 23 23 22 22 4 4 17 17 16 16 1 1 39 39 19 19 7 7 11 11 10 10 13 13 7 7 5 5 5 5 16 16 13 13 7 7 13 13 11 11 1 1 17 17 4 4 4 4 16 16 5 5 19 19 17 17 1 1 41 41 22 22 39 39 22 22 19 19 39 39 25 25 23 23 43 43 23 23 41 41 43 43 28 28 44 44 47 47 25 25 44 44 28 28 29 29 49 49 31 31 47 47 49 49 29 29 50 50 53 53 34 34 50 50 34 34 31 31 37 37 35 35 55 55 55 55 35 35 53 53 75 75 76 76 77 77 78 78 79 79 80 80 81 81 77 77 82 82 76 76 82 82 77 77 83 83 84 84 81 81 81 81 82 82 83 83 84 84 85 85 86 86 85 85 84 84 83 83 87 87 86 86 88 88 85 85 88 88 86 86 89 89 90 90 87 87 87 87 88 88 89 89 90 90 91 91 92 92 91 91 90 90 89 89 93 93 92 92 94 94 91 91 94 94 92 92 95 95 96 96 93 93 93 93 94 94 95 95 97 97 96 96 95 95 97 97 98 98 96 96 76 76 75 75 99 99 46 46 45 45 100 100 100 100 45 45 42 42 101 101 51 51 48 48 48 48 100 100 101 101 52 52 102 102 54 54 102 102 52 52 101 101 58 58 57 57 103 103 103 103 57 57 54 54 20 20 104 104 18 18 58 58 105 105 60 60 63 63 106 106 64 64 106 106 63 63 105 105 69 69 66 66 107 107 107 107 66 66 64 64 108 108 74 74 72 72 70 70 108 108 72 72 108 108 79 79 38 38 109 109 110 110 111 111 38 38 78 78 112 112 113 113 114 114 115 115 116 116 117 117 118 118 119 119 120 120 121 121 122 122 123 123 124 124 125 125 126 126 127 127 128 128 129 129 130 130 131 131 132 132 133 133 134 134 135 135 136 136 137 137 138 138 139 139 131 131 139 139 138 138 137 137 140 140 141 141 141 141 138 138 137 137 142 142 140 140 143 143 140 140 142 142 141 141 98 98 144 144 143 143 142 142 143 143 144 144 97 97 144 144 98 98 132 132 136 136 133 133 131 131 133 133 139 139 134 134 126 126 135 135 132 132 134 134 136 136 125 125 127 127 128 128 135 135 126 126 125 125 130 130 129 129 121 121 128 128 127 127 129 129 123 123 120 120 119 119 120 120 130 130 121 121 113 113 122 122 124 124 124 124 123 123 119 119 114 114 118 118 115 115 113 113 115 115 122 122 116 116 109 109 117 117 114 114 116 116 118 118 111 111 110 110 80 80 117 117 109 109 111 111 78 78 80 80 110 110 78 78 38 38 79 79 33 33 36 36 112 112 108 108 38 38 74 74 32 32 145 145 30 30 108 108 70 70 107 107 27 27 30 30 145 145 107 107 70 70 69 69 24 24 26 26 146 146 107 107 64 64 106 106 26 26 27 27 145 145 21 21 24 24 147 147 105 105 63 63 60 60 147 147 20 20 21 21 103 103 105 105 58 58 14 14 15 15 148 148 103 103 54 54 102 102 15 15 18 18 104 104 12 12 14 14 149 149 101 101 52 52 51 51 149 149 9 9 12 12 6 6 8 8 150 150 100 100 48 48 46 46 9 9 149 149 150 150 99 99 0 0 2 2 100 100 42 42 75 75 3 3 6 6 150 150 0 0 75 75 40 40 75 75 42 42 40 40 2 2 3 3 99 99 99 99 75 75 0 0 99 99 3 3 150 150 150 150 8 8 9 9 149 149 14 14 148 148 104 104 148 148 15 15 147 147 104 104 20 20 147 147 24 24 146 146 145 145 146 146 26 26 145 145 32 32 112 112 112 112 32 32 33 33 38 38 112 112 36 36 78 78 126 126 134 134 119 119 114 114 113 113 113 113 124 124 119 119 114 114 121 121 116 116 121 121 114 114 119 119 109 109 116 116 129 129 121 121 129 129 116 116 127 127 110 110 109 109 109 109 129 129 127 127 110 110 126 126 78 78 126 126 110 110 127 127 146 146 145 145 131 131 134 134 132 132 112 112 138 138 141 141 147 147 149 149 144 144 97 97 104 104 142 142 148 148 94 94 91 91 76 76 95 95 99 99 150 150 88 88 85 85 83 83 83 83 82 82 89 89 91 91 89 89 82 82 89 89 88 88 83 83 76 76 91 91 82 82 95 95 94 94 99 99 99 99 94 94 76 76 149 149 97 97 150 150 150 150 97 97 95 95 148 148 142 142 144 144 149 149 148 148 144 144 104 104 147 147 141 141 142 142 104 104 141 141 138 138 146 146 131 131 138 138 147 147 146 146 132 132 145 145 112 112 132 132 131 131 145 145 112 112 78 78 134 134 79 79 135 135 125 125 123 123 115 115 118 118 115 115 123 123 122 122 118 118 117 117 120 120 120 120 123 123 118 118 111 111 130 130 117 117 120 120 117 117 130 130 128 128 111 111 80 80 111 111 128 128 130 130 80 80 79 79 125 125 125 125 128 128 80 80 106 106 133 133 107 107 135 135 108 108 136 136 139 139 105 105 137 137 101 101 98 98 143 143 103 103 102 102 140 140 93 93 77 77 92 92 96 96 100 100 75 75 87 87 84 84 86 86 84 84 90 90 81 81 92 92 81 81 90 90 90 90 84 84 87 87 77 77 81 81 92 92 96 96 75 75 93 93 75 75 77 77 93 93 101 101 100 100 98 98 100 100 96 96 98 98 102 102 143 143 140 140 101 101 143 143 102 102 103 103 137 137 105 105 140 140 137 137 103 103 139 139 133 133 106 106 139 139 106 106 105 105 136 136 108 108 107 107 136 136 107 107 133 133 108 108 135 135 79 79</p>
        </triangles>
      </mesh>
    </geometry>
  </library_geometries>
  <library_materials>
    <material id="66e06d3a75e34bc5977f020b346b27f2" name="defaultmaterial">
      <instance_effect url="#4999e27245834c4785ffa838a4fe9888" />
    </material>
  </library_materials>
  <library_visual_scenes>
    <visual_scene id="scene">
      <node id="node0" name="node0">
        <instance_geometry url="#06ccafce5e2c4051921d63f24f19ff66">
          <bind_material>
            <technique_common>
              <instance_material symbol="material0" target="#66e06d3a75e34bc5977f020b346b27f2" />
            </technique_common>
          </bind_material>
        </instance_geometry>
      </node>
    </visual_scene>
  </library_visual_scenes>
  <scene>
    <instance_visual_scene url="#scene" />
  </scene>
</COLLADA>