<COLLADA xmlns="http://www.collada.org/2005/11/COLLADASchema" version="1.4.1">
  <asset>
    <created>2026-02-10T22:53:39.208581</created>
    <modified>2026-02-10T22:53:39.208588</modified>
    <up_axis>Y_UP</up_axis>
  </asset>
  <library_effects>
    <effect id="64aec62ce3f64860806e1b6f3bf05111" name="64aec62ce3f64860806e1b6f3bf05111">
      <profile_COMMON>
        <technique sid="common">
          <phong>
            <emission>
              <color>0.0 0.0 0.0 1.0</color>
            </emission>
            <ambient>
              <color>0.300000 0.300000 0.300000 1.0</color>
            </ambient>
            <diffuse>
              <color>1.000000 1.000000 1.000000 1.0</color>
            </diffuse>
            <specular>
              <color>0.196000 0.196000 0.196000 1.0</color>
            </specular>
            <shininess>
              <float>20.0</float>
            </shininess>
            <reflective>
              <color>0.0 0.0 0.0 1.0</color>
            </reflective>
            <reflectivity>
              <float>0.0</float>
            </reflectivity>
            <transparent>
              <color>0.0 0.0 0.0 1.0</color>
            </transparent>
            <transparency>
              <float>1.0</float>
            </transparency>
          </phong>
        </technique>
        <extra>
          <technique profile="GOOGLEEARTH">
            <double_sided>0</double_sided>
          </technique>
        </extra>
      </profile_COMMON>
    </effect>
  </library_effects>
  <library_geometries>
    <geometry id="41b7d54e45914b31bbb59669b97184ed" name="e8f23bda5a7b4123b15fce5f215c8429">
      <mesh>
        <source id="verts-array">
          <float_array count="453" id="verts-array-array">0.000707107 0.00494975 -2.86235e-07 0.0247564 0.0289837 -0.000254418 0.000760663 0.00494221 -0.000506334 0.000912234 0.00491652 -0.000990969 0.0248172 0.0289229 -0.000755934 0.0249371 0.0288031 -0.0012357 0.0011464 0.00486718 -0.0014412 0.0251125 0.0286276 -0.00167992 0.00144317 0.00478736 -0.00184612 0.00178768 0.00466953 -0.00220172 0.0253386 0.0284016 -0.00207582 0.0256086 0.0281315 -0.00241199 0.00216516 0.00450717 -0.00250161 0.025915 0.0278251 -0.00267878 0.00256167 0.00429421 -0.00273857 0.00296193 0.00402823 -0.00290379 0.0262489 0.0274912 -0.0028685 0.0266006 0.0271395 -0.0029757 0.00335064 0.0037112 -0.00298915 0.0269601 0.02678 -0.0029973 0.00371007 0.00335133 -0.00298916 0.00402791 0.00296177 -0.0029036 0.027317 0.0264231 -0.00293267 0.027661 0.0260791 -0.00278367 0.0042939 0.00256068 -0.00273808 0.0279823 0.0257578 -0.00255459 0.0045075 0.00216315 -0.00250028 0.00466983 0.00178652 -0.00220074 0.0282716 0.0254686 -0.00225202 0.0285205 0.0252196 -0.00188466 0.00478734 0.00144165 -0.00184486 0.028722 0.0250181 -0.00146308 0.00486684 0.00114457 -0.00143976 0.00491595 0.00091119 -0.00099093 0.0288702 0.0248699 -0.000999419 0.0289609 0.0247793 -0.000507002 0.0049421 0.000760082 -0.000505565 0.0289914 0.0247487 0 0.00494975 0.000707107 -2.66454e-18 0.0247564 0.0289837 0.000254418 0.000759897 0.00494205 0.000505049 0.0248172 0.0289229 0.000755934 0.000910744 0.00491602 0.000989805 0.0249371 0.0288031 0.0012357 0.0251125 0.0286276 0.00167992 0.00114388 0.00486701 0.00143871 0.00144084 0.00478757 0.00184389 0.0253386 0.0284016 0.00207582 0.00178551 0.00467025 0.0021998 0.0256086 0.0281315 0.00241199 0.025915 0.0278251 0.00267878 0.00216224 0.00450786 0.00249968 0.00255969 0.0042946 0.00273759 0.0262489 0.0274912 0.0028685 0.0029605 0.00402873 0.00290316 0.0266006 0.0271395 0.0029757 0.0269601 0.02678 0.0029973 0.0033506 0.00371087 0.00298908 0.00371013 0.00335165 0.00298927 0.027317 0.0264231 0.00293267 0.00402764 0.00296284 0.00290408 0.027661 0.0260791 0.00278367 0.0279823 0.0257578 0.00255459 0.00429351 0.00256276 0.00273911 0.00450667 0.00216621 0.00250235 0.0282716 0.0254686 0.00225202 0.00466921 0.0017885 0.00220245 0.0285205 0.0252196 0.00188466 0.028722 0.0250181 0.00146308 0.00478704 0.00144427 0.00184738 0.00486704 0.00114687 0.00144204 0.0288702 0.0248699 0.000999419 0.00491642 0.000912893 0.000992507 0.0289609 0.0247793 0.000507002 0.00494235 0.000761049 0.000507056 0.000412897 -0.00498292 -0.006 -0.000412897 -0.00498292 0.006 -0.000412897 -0.00498292 -0.006 0.005 9.18485e-19 -0.006 0.00493181 0.000822973 -0.006 -0.00122743 -0.004847 -0.006 -0.00122743 -0.004847 0.006 -0.00200848 -0.00457887 0.006 -0.00200848 -0.00457887 -0.006 -0.00273474 -0.00418583 0.006 -0.00273474 -0.00418583 -0.006 -0.00338641 -0.00367862 -0.006 -0.00338641 -0.00367862 0.006 -0.0039457 -0.00307106 0.006 -0.0039457 -0.00307106 -0.006 -0.00439737 -0.00237974 0.006 -0.00439737 -0.00237974 -0.006 -0.00472909 -0.0016235 -0.006 -0.00472909 -0.0016235 0.006 -0.00493181 -0.000822973 0.006 -0.00493181 -0.000822973 -0.006 -0.005 -9.18485e-19 0.006 -0.005 -9.18485e-19 -0.006 0.000412897 -0.00498292 0.006 0.00122743 -0.004847 -0.006 0.00122743 -0.004847 0.006 0.00200848 -0.00457887 -0.006 0.00200848 -0.00457887 0.006 0.00273474 -0.00418583 0.006 0.00273474 -0.00418583 -0.006 0.00338641 -0.00367862 -0.006 0.00338641 -0.00367862 0.006 0.0039457 -0.00307106 -0.006 0.0039457 -0.00307106 0.006 0.00439737 -0.00237974 0.006 0.00439737 -0.00237974 -0.006 0.00472909 -0.0016235 -0.006 0.00472909 -0.0016235 0.006 0.00493181 -0.000822973 -0.006 0.00493181 -0.000822973 0.006 0.00493181 0.000822973 0.006 0.005 9.18485e-19 0.006 0.0039457 0.00307106 0.006 0.00439737 0.00237974 0.006 0.00122743 0.004847 0.006 0.00200848 0.00457887 0.006 0.00273474 0.00418583 0.006 -0.00122743 0.004847 -0.006 -0.00122743 0.004847 0.006 -0.000412897 0.00498292 0.006 -0.000412897 0.00498292 -0.006 0.000412897 0.00498292 0.006 0.000412897 0.00498292 -0.006 -0.00338641 0.00367862 0.006 -0.00273474 0.00418583 0.006 -0.00338641 0.00367862 -0.006 -0.00200848 0.00457887 0.006 -0.00200848 0.00457887 -0.006 -0.00273474 0.00418583 -0.006 -0.00439737 0.00237974 -0.006 -0.0039457 0.00307106 0.006 -0.0039457 0.00307106 -0.006 -0.00472909 0.0016235 -0.006 -0.00439737 0.00237974 0.006 -0.00472909 0.0016235 0.006 -0.00493181 0.000822973 -0.006 -0.00493181 0.000822973 0.006 0.00338641 0.00367862 0.006 0.00338641 0.00367862 -0.006 0.00472909 0.0016235 0.006 0.00472909 0.0016235 -0.006 0.00439737 0.00237974 -0.006 0.0039457 0.00307106 -0.006 0.00273474 0.00418583 -0.006 0.00200848 0.00457887 -0.006 0.00122743 0.004847 -0.006</float_array>
          <technique_common>
            <accessor count="151" source="#verts-array-array" stride="3">
              <param type="float" name="X" />
              <param type="float" name="Y" />
              <param type="float" name="Z" />
            </accessor>
          </technique_common>
        </source>
        <source id="normals-array">
          <float_array count="453" id="normals-array-array">-0.304349 0.9525606 -0.000167228 -0.02395927 0.9978202 -0.06148807 -0.2918326 0.9525467 -0.08653628 -0.2665733 0.9478824 -0.1745214 -0.009269284 0.9831285 -0.182681 0.01983862 0.9541878 -0.2985499 -0.2220043 0.9390139 -0.2626155 0.06194165 0.9116926 -0.4061771 -0.1598976 0.9221149 -0.3523305 -0.08082214 0.8936704 -0.4413852 0.1174618 0.8572424 -0.5013364 0.1820021 0.7918187 -0.5830081 0.02423227 0.8500861 -0.526086 0.2560617 0.7177245 -0.6475369 0.1458718 0.784675 -0.6025002 0.2881396 0.692482 -0.6613957 0.3367886 0.6370495 -0.6933552 0.4217783 0.5520435 -0.7192712 0.4337926 0.5737155 -0.6947478 0.5086682 0.4651515 -0.7244935 0.5738353 0.4344071 -0.6942647 0.6931768 0.2858675 -0.6616538 0.5949408 0.378874 -0.7088723 0.6780931 0.2957241 -0.6728574 0.784591 0.1481041 -0.602065 0.755714 0.2180472 -0.6175369 0.8501514 0.02239109 -0.5260621 0.8941514 -0.07890714 -0.4407572 0.8256983 0.1481412 -0.5443129 0.8858679 0.08788413 -0.4555376 0.9216524 -0.1626679 -0.3522727 0.9345452 0.03919116 -0.3536798 0.9390375 -0.221848 -0.2626633 0.9498147 -0.2604178 -0.1733048 0.9703674 0.003339247 -0.2416111 0.9922833 -0.01849389 -0.1226045 0.9540935 -0.2869058 -0.08596839 0.9996603 -0.02606157 4.39496e-05 0.9461257 -0.3237995 0.0001734821 -0.02395898 0.9978204 0.06148583 -0.2902342 0.953048 0.08639193 -0.009315993 0.9831348 0.182645 -0.2653932 0.9482579 0.1742798 0.01975936 0.9541581 0.29865 0.06205934 0.9117389 0.4060552 -0.2222145 0.9391045 0.2621136 -0.1607298 0.9221748 0.3517949 0.1167932 0.8571163 0.5017081 -0.08158721 0.8937756 0.4410314 0.1820115 0.7917864 0.583049 0.256088 0.7177382 0.6475112 0.02432086 0.8503388 0.5256732 0.1453727 0.7851291 0.6020292 0.3367799 0.6370505 0.6933584 0.287487 0.6929213 0.6612196 0.4217724 0.5520377 0.7192791 0.5086661 0.4651537 0.7244935 0.4332184 0.5743747 0.6945614 0.5732531 0.4349266 0.6944204 0.5949344 0.378867 0.7088814 0.6927204 0.2865978 0.6618158 0.6780975 0.2957251 0.6728524 0.7557519 0.2180485 0.6174901 0.7841341 0.1485384 0.6025529 0.8499421 0.02242683 0.5263985 0.8258464 0.1487931 0.5439102 0.8940617 -0.0781028 0.4410824 0.8858516 0.08792901 0.4555605 0.9345443 0.0391844 0.3536828 0.9215985 -0.1617857 0.3528195 0.9389749 -0.2215519 0.2631366 0.9703534 0.003244882 0.2416688 0.949424 -0.2616104 0.1736491 0.9922938 -0.01847303 0.1225221 0.9528162 -0.2910413 0.08623338 0.05985093 -0.7223011 -0.688984 -0.05985093 -0.7223011 0.688984 -0.05985093 -0.7223011 -0.688984 0.7245556 -0.0003180112 -0.6892163 0.714169 0.1186786 -0.6898392 -0.1779195 -0.702599 -0.6889842 -0.1779195 -0.702599 0.6889842 -0.291141 -0.6637321 0.6889824 -0.291141 -0.6637321 -0.6889824 -0.3964155 -0.606757 0.6889852 -0.3964155 -0.606757 -0.6889852 -0.4908795 -0.5332359 -0.6889825 -0.4908795 -0.5332359 0.6889825 -0.5719493 -0.4451663 0.6889855 -0.5719493 -0.4451663 -0.6889855 -0.6374208 -0.3449593 0.6889832 -0.6374208 -0.3449593 -0.6889832 -0.6855065 -0.2353352 -0.6889834 -0.6855065 -0.2353352 0.6889834 -0.7148923 -0.1192925 0.6889835 -0.7148923 -0.1192925 -0.6889835 -0.7247759 -1.228396e-16 0.6889847 -0.7247759 -5.927011e-17 -0.6889847 0.05985093 -0.7223011 0.688984 0.1779195 -0.702599 -0.6889842 0.1779195 -0.702599 0.6889842 0.291141 -0.6637321 -0.6889824 0.291141 -0.6637321 0.6889824 0.3964155 -0.606757 0.6889852 0.3964155 -0.606757 -0.6889852 0.4908795 -0.5332359 -0.6889825 0.4908795 -0.5332359 0.6889825 0.5719493 -0.4451663 -0.6889855 0.5719493 -0.4451663 0.6889855 0.6374208 -0.3449593 0.6889832 0.6374208 -0.3449593 -0.6889832 0.6855065 -0.2353352 -0.6889834 0.6855065 -0.2353352 0.6889834 0.7148923 -0.1192925 -0.6889835 0.7148923 -0.1192925 0.6889835 0.7141467 0.1186356 0.6898696 0.7245556 -0.0003180112 0.6892163 0.5709733 0.4439682 0.6905663 0.636254 0.3443432 0.6903685 0.17753 0.701532 0.6901709 0.2906366 0.6626299 0.690255 0.3954868 0.6057356 0.6904162 -0.1779195 0.702599 -0.6889842 -0.1779195 0.702599 0.6889842 -0.05985093 0.7223011 0.688984 -0.05985093 0.7223011 -0.688984 0.05907669 0.7218363 0.6895378 0.05904097 0.721816 -0.689562 -0.4908795 0.5332359 0.6889825 -0.3964155 0.606757 0.6889852 -0.4908795 0.5332359 -0.6889825 -0.291141 0.6637321 0.6889824 -0.291141 0.6637321 -0.6889824 -0.3964155 0.606757 -0.6889852 -0.6374208 0.3449593 -0.6889832 -0.5719493 0.4451663 0.6889855 -0.5719493 0.4451663 -0.6889855 -0.6855065 0.2353352 -0.6889834 -0.6374208 0.3449593 0.6889832 -0.6855065 0.2353352 0.6889834 -0.7148923 0.1192925 -0.6889835 -0.7148923 0.1192925 0.6889835 0.4896707 0.5321958 0.6906448 0.4897026 0.532148 -0.690659 0.6843448 0.2348352 0.6903076 0.6843939 0.234844 -0.690256 0.6363006 0.344398 -0.6902982 0.5710399 0.4439731 -0.690508 0.3954597 0.6056822 -0.6904785 0.2905855 0.6626149 -0.6902909 0.1775536 0.7014951 -0.6902024</float_array>
          <technique_common>
            <accessor count="151" source="#normals-array-array" stride="3">
              <param type="float" name="X" />
              <param type="float" name="Y" />
              <param type="float" name="Z" />
            </accessor>
          </technique_common>
        </source>
        <vertices id="verts-array-vertices">
          <input semantic="POSITION" source="#verts-array" />
        </vertices>
        <triangles count="298" material="material0">
          <input offset="0" semantic="VERTEX" source="#verts-array-vertices" />
          <input offset="1" semantic="NORMAL" source="#normals-array" />
          <p>0 0 1 1 2 2 3 3 2 2 4 4 1 1 4 4 2 2 5 5 6 6 3 3 3 3 4 4 5 5 6 6 7 7 8 8 7 7 6 6 5 5 9 9 8 8 10 10 7 7 10 10 8 8 11 11 12 12 9 9 9 9 10 10 11 11 12 12 13 13 14 14 13 13 12 12 11 11 15 15 14 14 16 16 13 13 16 16 14 14 17 17 18 18 15 15 15 15 16 16 17 17 18 18 19 19 20 20 19 19 18 18 17 17 21 21 20 20 22 22 19 19 22 22 20 20 23 23 24 24 21 21 21 21 22 22 23 23 24 24 25 25 26 26 25 25 24 24 23 23 27 27 26 26 28 28 25 25 28 28 26 26 29 29 30 30 27 27 27 27 28 28 29 29 30 30 31 31 32 32 31 31 30 30 29 29 33 33 32 32 34 34 31 31 34 34 32 32 35 35 36 36 33 33 33 33 34 34 35 35 37 37 36 36 35 35 37 37 38 38 36 36 1 1 0 0 39 39 40 40 41 41 39 39 39 39 0 0 40 40 41 41 42 42 43 43 42 42 41 41 40 40 44 44 43 43 45 45 42 42 45 45 43 43 46 46 47 47 44 44 44 44 45 45 46 46 47 47 48 48 49 49 48 48 47 47 46 46 50 50 49 49 51 51 48 48 51 51 49 49 52 52 53 53 50 50 50 50 51 51 52 52 53 53 54 54 55 55 54 54 53 53 52 52 56 56 55 55 57 57 54 54 57 57 55 55 58 58 59 59 56 56 56 56 57 57 58 58 59 59 60 60 61 61 60 60 59 59 58 58 62 62 61 61 63 63 60 60 63 63 61 61 64 64 65 65 62 62 62 62 63 63 64 64 65 65 66 66 67 67 66 66 65 65 64 64 68 68 67 67 69 69 66 66 69 69 67 67 70 70 71 71 68 68 68 68 69 69 70 70 71 71 72 72 73 73 72 72 71 71 70 70 73 73 74 74 38 38 72 72 74 74 73 73 73 73 38 38 37 37 49 49 50 50 31 31 67 67 68 68 62 62 67 67 62 62 65 65 71 71 61 61 68 68 62 62 68 68 61 61 59 59 71 71 73 73 71 71 59 59 61 61 73 73 37 37 56 56 56 56 59 59 73 73 53 53 35 35 34 34 56 56 37 37 55 55 44 44 25 25 43 43 28 28 47 47 29 29 41 41 23 23 22 22 4 4 17 17 16 16 1 1 39 39 19 19 7 7 11 11 10 10 13 13 7 7 5 5 5 5 16 16 13 13 7 7 13 13 11 11 1 1 17 17 4 4 4 4 16 16 5 5 19 19 17 17 1 1 41 41 22 22 39 39 22 22 19 19 39 39 25 25 23 23 43 43 23 23 41 41 43 43 28 28 44 44 47 47 25 25 44 44 28 28 29 29 49 49 31 31 47 47 49 49 29 29 50 50 53 53 34 34 50 50 34 34 31 31 37 37 35 35 55 55 55 55 35 35 53 53 75 75 76 76 77 77 78 78 79 79 38 38 80 80 77 77 81 81 76 76 81 81 77 77 82 82 83 83 80 80 80 80 81 81 82 82 83 83 84 84 85 85 84 84 83 83 82 82 86 86 85 85 87 87 84 84 87 87 85 85 88 88 89 89 86 86 86 86 87 87 88 88 89 89 90 90 91 91 90 90 89 89 88 88 92 92 91 91 93 93 90 90 93 93 91 91 94 94 95 95 92 92 92 92 93 93 94 94 96 96 95 95 94 94 96 96 97 97 95 95 76 76 75 75 98 98 99 99 100 100 98 98 98 98 75 75 99 99 100 100 101 101 102 102 101 101 100 100 99 99 103 103 102 102 104 104 101 101 104 104 102 102 105 105 106 106 103 103 103 103 104 104 105 105 106 106 107 107 108 108 107 107 106 106 105 105 109 109 108 108 110 110 107 107 110 110 108 108 111 111 112 112 109 109 109 109 110 110 111 111 112 112 113 113 114 114 113 113 112 112 111 111 113 113 78 78 114 114 72 72 70 70 115 115 114 114 78 78 116 116 60 60 58 58 117 117 64 64 63 63 118 118 48 48 119 119 120 120 52 52 121 121 54 54 122 122 123 123 124 124 125 125 126 126 127 127 128 128 129 129 130 130 131 131 132 132 133 133 134 134 135 135 136 136 128 128 136 136 135 135 134 134 137 137 138 138 138 138 135 135 134 134 139 139 137 137 140 140 137 137 139 139 138 138 97 97 141 141 140 140 139 139 140 140 141 141 96 96 141 141 97 97 129 129 133 133 130 130 128 128 130 130 136 136 131 131 123 123 132 132 129 129 131 131 133 133 122 122 124 124 125 125 132 132 123 123 122 122 119 119 45 45 42 42 125 125 124 124 126 126 48 48 120 120 51 51 45 45 119 119 46 46 54 54 142 142 57 57 52 52 120 120 121 121 143 143 18 18 20 20 58 58 57 57 142 142 66 66 64 64 144 144 118 118 63 63 117 117 115 115 74 74 72 72 144 144 69 69 66 66 79 79 33 33 36 36 115 115 116 116 38 38 78 78 38 38 116 116 115 115 38 38 74 74 32 32 145 145 30 30 115 115 70 70 144 144 27 27 30 30 145 145 144 144 70 70 69 69 24 24 26 26 146 146 144 144 64 64 118 118 26 26 27 27 145 145 21 21 24 24 147 147 117 117 63 63 60 60 147 147 20 20 21 21 142 142 117 117 58 58 14 14 15 15 148 148 142 142 54 54 121 121 15 15 18 18 143 143 12 12 14 14 149 149 120 120 52 52 51 51 149 149 9 9 12 12 8 8 9 9 150 150 119 119 48 48 46 46 150 150 6 6 8 8 127 127 0 0 2 2 119 119 42 42 126 126 3 3 6 6 150 150 0 0 126 126 40 40 126 126 42 42 40 40 2 2 3 3 127 127 127 127 126 126 0 0 127 127 3 3 150 150 150 150 9 9 149 149 149 149 14 14 148 148 143 143 148 148 15 15 147 147 143 143 20 20 147 147 24 24 146 146 145 145 146 146 26 26 145 145 32 32 79 79 79 79 32 32 33 33 38 38 79 79 36 36 116 116 123 123 131 131 120 120 117 117 142 142 142 142 121 121 120 120 117 117 119 119 118 118 119 119 117 117 120 120 144 144 118 118 126 126 119 119 126 126 118 118 124 124 115 115 144 144 144 144 126 126 124 124 115 115 123 123 116 116 123 123 115 115 124 124 109 109 112 112 128 128 131 131 129 129 114 114 135 135 138 138 108 108 102 102 141 141 96 96 106 106 139 139 103 103 93 93 90 90 76 76 94 94 98 98 100 100 87 87 84 84 82 82 82 82 81 81 88 88 90 90 88 88 81 81 88 88 87 87 82 82 76 76 90 90 81 81 94 94 93 93 98 98 98 98 93 93 76 76 102 102 96 96 100 100 100 100 96 96 94 94 103 103 139 139 141 141 102 102 103 103 141 141 106 106 108 108 138 138 139 139 106 106 138 138 135 135 109 109 128 128 135 135 108 108 109 109 129 129 112 112 114 114 129 129 128 128 112 112 114 114 116 116 131 131 78 78 132 132 122 122 149 149 143 143 147 147 143 143 149 149 148 148 147 147 146 146 150 150 150 150 149 149 147 147 145 145 127 127 146 146 150 150 146 146 127 127 125 125 145 145 79 79 145 145 125 125 127 127 79 79 78 78 122 122 122 122 125 125 79 79 110 110 130 130 111 111 132 132 113 113 133 133 136 136 107 107 134 134 101 101 97 97 140 140 105 105 104 104 137 137 92 92 77 77 91 91 95 95 99 99 75 75 86 86 83 83 85 85 83 83 89 89 80 80 91 91 80 80 89 89 89 89 83 83 86 86 77 77 80 80 91 91 95 95 75 75 92 92 75 75 77 77 92 92 101 101 99 99 97 97 99 99 95 95 97 97 104 104 140 140 137 137 101 101 140 140 104 104 105 105 134 134 107 107 137 137 134 134 105 105 136 136 130 130 110 110 136 136 110 110 107 107 133 133 113 113 111 111 133 133 111 111 130 130 113 113 132 132 78 78</p>
        </triangles>
      </mesh>
    </geometry>
  </library_geometries>
  <library_materials>
    <material id="b807dd445ad04c01ab8f586007b426bb" name="defaultmaterial">
      <instance_effect url="#64aec62ce3f64860806e1b6f3bf05111" />
    </material>
  </library_materials>
  <library_visual_scenes>
    <visual_scene id="scene">
      <node id="node0" name="node0">
        <instance_geometry url="#41b7d54e45914b31bbb59669b97184ed">
          <bind_material>
            <technique_common>
              <instance_material symbol="material0" target="#b807dd445ad04c01ab8f586007b426bb" />
            </technique_common>
          </bind_material>
        </instance_geometry>
      </node>
    </visual_scene>
  </library_visual_scenes>
  <scene>
    <instance_visual_scene url="#scene" />
  </scene>
</COLLADA>