<COLLADA xmlns="http://www.collada.org/2005/11/COLLADASchema" version="1.4.1">
  <asset>
    <created>2026-02-10T22:53:39.021088</created>
    <modified>2026-02-10T22:53:39.021096</modified>
    <up_axis>Y_UP</up_axis>
  </asset>
  <library_effects>
    <effect id="04131ce34ec341db9d46bdcabaac233a" name="04131ce34ec341db9d46bdcabaac233a">
      <profile_COMMON>
        <technique sid="common">
          <phong>
            <emission>
              <color>0.0 0.0 0.0 1.0</color>
            </emission>
            <ambient>
              <color>0.300000 0.300000 0.300000 1.0</color>
            </ambient>
            <diffuse>
              <color>1.000000 1.000000 1.000000 1.0</color>
            </diffuse>
            <specular>
              <color>0.196000 0.196000 0.196000 1.0</color>
            </specular>
            <shininess>
              <float>20.0</float>
            </shininess>
            <reflective>
              <color>0.0 0.0 0.0 1.0</color>
            </reflective>
            <reflectivity>
              <float>0.0</float>
            </reflectivity>
            <transparent>
              <color>0.0 0.0 0.0 1.0</color>
            </transparent>
            <transparency>
              <float>1.0</float>
            </transparency>
          </phong>
        </technique>
        <extra>
          <technique profile="GOOGLEEARTH">
            <double_sided>0</double_sided>
          </technique>
        </extra>
      </profile_COMMON>
    </effect>
  </library_effects>
  <library_geometries>
    <geometry id="651efee0dce74634808cfd991249f4e3" name="553b44a2f9dd47bc861d22b6b49090fd">
      <mesh>
        <source id="verts-array">
          <float_array count="426" id="verts-array-array">-0.00298919 0.000254418 0.023 -0.00298919 0.000254418 6.705523e-10 -0.00298919 -0.000254418 6.705523e-10 -0.0029032 0.000755934 0.023 -0.0029032 0.000755934 6.705523e-10 -0.00273369 0.0012357 6.705523e-10 -0.00273369 0.0012357 0.023 -0.00248553 0.00167992 0.023 -0.00248553 0.00167992 6.705523e-10 -0.00216587 0.00207582 0.023 -0.00216587 0.00207582 6.705523e-10 -0.0017839 0.00241199 6.705523e-10 -0.0017839 0.00241199 0.023 -0.00135061 0.00267878 0.023 -0.00135061 0.00267878 6.705523e-10 -0.000878468 0.0028685 0.023 -0.000878468 0.0028685 6.705523e-10 -0.000381053 0.0029757 6.705523e-10 -0.000381053 0.0029757 0.023 0.000127324 0.0029973 0.023 0.000127324 0.0029973 6.705523e-10 0.000632038 0.00293267 0.023 0.000632038 0.00293267 6.705523e-10 0.00111857 0.00278367 6.705523e-10 0.00111857 0.00278367 0.023 0.00157292 0.00255459 0.023 0.00157292 0.00255459 6.705523e-10 0.00198202 0.00225202 0.023 0.00198202 0.00225202 6.705523e-10 0.00233411 0.00188466 6.705523e-10 0.00233411 0.00188466 0.023 0.00261904 0.00146308 0.023 0.00261904 0.00146308 6.705523e-10 0.00282863 0.000999419 0.023 0.00282863 0.000999419 6.705523e-10 0.00295685 0.000507002 6.705523e-10 0.00295685 0.000507002 0.023 0.003 -5.51091e-19 0.023 0.003 1.83697e-19 6.705523e-10 -0.00298919 -0.000254418 0.023 -0.0029032 -0.000755934 6.705523e-10 -0.0029032 -0.000755934 0.023 -0.00273369 -0.0012357 6.705523e-10 -0.00273369 -0.0012357 0.023 -0.00248553 -0.00167992 0.023 -0.00248553 -0.00167992 6.705523e-10 -0.00216587 -0.00207582 6.705523e-10 -0.00216587 -0.00207582 0.023 -0.0017839 -0.00241199 6.705523e-10 -0.0017839 -0.00241199 0.023 -0.00135061 -0.00267878 0.023 -0.00135061 -0.00267878 6.705523e-10 -0.000878468 -0.0028685 6.705523e-10 -0.000878468 -0.0028685 0.023 -0.000381053 -0.0029757 6.705523e-10 -0.000381053 -0.0029757 0.023 0.000127324 -0.0029973 0.023 0.000127324 -0.0029973 6.705523e-10 0.000632038 -0.00293267 6.705523e-10 0.000632038 -0.00293267 0.023 0.00111857 -0.00278367 6.705523e-10 0.00111857 -0.00278367 0.023 0.00157292 -0.00255459 0.023 0.00157292 -0.00255459 6.705523e-10 0.00198202 -0.00225202 6.705523e-10 0.00198202 -0.00225202 0.023 0.00233411 -0.00188466 6.705523e-10 0.00233411 -0.00188466 0.023 0.00261904 -0.00146308 0.023 0.00261904 -0.00146308 6.705523e-10 0.00282863 -0.000999419 6.705523e-10 0.00282863 -0.000999419 0.023 0.00295685 -0.000507002 6.705523e-10 0.00295685 -0.000507002 0.023 -0.00526523 -0.00850158 0.03 -0.00602852 -0.00797827 0.03 -0.00445966 -0.00895024 0.03 -0.00361412 -0.009324 0.03 -0.00183989 -0.00982917 0.03 -0.00273848 -0.00961752 0.03 -0.000923474 -0.00995717 0.03 -2.81569e-06 -0.00999983 0.03 0.000922244 -0.00995738 0.03 0.00273539 -0.00961858 0.03 0.00183464 -0.00983004 0.03 0.00360997 -0.00932542 0.03 0.00445554 -0.00895247 0.03 0.00602422 -0.00798162 0.03 0.00526275 -0.00850293 0.03 0.00673661 -0.00739033 0.03 0.00738802 -0.00673894 0.03 0.00797977 -0.00602687 0.03 0.00895094 -0.00445869 0.03 0.00850049 -0.0052666 0.03 0.00932365 -0.00361455 0.03 0.00961758 -0.0027387 0.03 0.00995695 -0.000925328 0.03 0.00982931 -0.0018389 0.03 0.01 -1.13311e-17 0.03 -0.00673712 -0.00738994 0.03 -0.00739182 -0.00673481 0.03 -0.00798076 -0.00602535 0.03 -0.00850331 -0.00526229 0.03 -0.00895242 -0.00445532 0.03 -0.00932528 -0.00361084 0.03 -0.00961879 -0.00273392 0.03 -0.00982988 -0.00183663 0.03 -0.00995695 -0.000925328 0.03 -0.01 5.66554e-18 0.03 -0.00995695 0.000925328 0.03 -0.00982931 0.0018389 0.03 -0.00961758 0.0027387 0.03 -0.00932365 0.00361455 0.03 -0.00895094 0.00445869 0.03 -0.00850049 0.0052666 0.03 -0.00738802 0.00673894 0.03 -0.00797977 0.00602687 0.03 -0.00673661 0.00739033 0.03 -0.00602422 0.00798162 0.03 -0.00526275 0.00850293 0.03 -0.00360997 0.00932542 0.03 -0.00445554 0.00895247 0.03 -0.00273539 0.00961858 0.03 -0.00183464 0.00983004 0.03 -0.000922244 0.00995738 0.03 2.81569e-06 0.00999983 0.03 0.000923474 0.00995717 0.03 0.00183989 0.00982917 0.03 0.00273848 0.00961752 0.03 0.00361412 0.009324 0.03 0.00445966 0.00895024 0.03 0.00526523 0.00850158 0.03 0.00602852 0.00797827 0.03 0.00673712 0.00738994 0.03 0.00739182 0.00673481 0.03 0.00798076 0.00602535 0.03 0.00850331 0.00526229 0.03 0.00932528 0.00361084 0.03 0.00895242 0.00445532 0.03 0.00961879 0.00273392 0.03 0.00982988 0.00183663 0.03 0.00995695 0.000925328 0.03</float_array>
          <technique_common>
            <accessor count="142" source="#verts-array-array" stride="3">
              <param type="float" name="X" />
              <param type="float" name="Y" />
              <param type="float" name="Z" />
            </accessor>
          </technique_common>
        </source>
        <source id="normals-array">
          <float_array count="426" id="normals-array-array">-0.9169343 0.07805679 -0.3913294 -0.7226158 0.06150113 -0.6885085 -0.7226158 -0.06150113 -0.6885085 -0.8905758 0.2319307 -0.391258 -0.7018293 0.1827381 -0.6885074 -0.6608499 0.298724 -0.6885067 -0.838608 0.3791581 -0.3911211 -0.7625254 0.5154991 -0.3909165 -0.6008586 0.4061077 -0.6885096 -0.6646218 0.6366809 -0.3910438 -0.5235854 0.501815 -0.6885057 -0.4312432 0.5830818 -0.6885092 -0.5472267 0.7398718 -0.3913216 -0.4142904 0.82172 -0.3913308 -0.3265014 0.6475763 -0.6885069 -0.2694362 0.8799489 -0.3912724 -0.2123614 0.6934403 -0.6885079 -0.09211907 0.7193536 -0.6885089 -0.1168322 0.9128819 -0.3911482 0.03915555 0.919575 -0.3909588 0.03077559 0.7245763 -0.6885071 0.1937135 0.8997484 -0.3910599 0.1527907 0.7089519 -0.6885072 0.270408 0.6729314 -0.6885077 0.3431039 0.8539057 -0.3913115 0.4824997 0.7836151 -0.3913329 0.3802443 0.6175526 -0.6885078 0.6080231 0.6907981 -0.3912875 0.479139 0.5444095 -0.6885086 0.5642574 0.4556023 -0.6885057 0.7160805 0.578108 -0.3911775 0.8035625 0.4487855 -0.3909973 0.6331354 0.3536865 -0.6885096 0.8677281 0.3067694 -0.3910761 0.6838 0.2416067 -0.6885083 0.7147982 0.1225661 -0.6885064 0.9070193 0.1555565 -0.3913032 0.9202482 6.745306e-17 -0.3913353 0.7252281 -1.749838e-16 -0.6885087 -0.9169332 -0.07805434 -0.3913323 -0.7018293 -0.1827381 -0.6885074 -0.8906212 -0.2321506 -0.3910242 -0.6608499 -0.298724 -0.6885067 -0.8387776 -0.3790338 -0.3908778 -0.7625662 -0.5153047 -0.3910932 -0.6008586 -0.4061077 -0.6885096 -0.5235854 -0.501815 -0.6885057 -0.6644426 -0.6367438 -0.3912459 -0.4312432 -0.5830818 -0.6885092 -0.547227 -0.73987 -0.3913247 -0.4142902 -0.8217173 -0.3913366 -0.3265014 -0.6475763 -0.6885069 -0.2123614 -0.6934403 -0.6885079 -0.2694356 -0.8799458 -0.3912797 -0.09211907 -0.7193536 -0.6885089 -0.1167883 -0.9129077 -0.3911011 0.03897097 -0.919536 -0.3910688 0.03077559 -0.7245763 -0.6885071 0.1527907 -0.7089519 -0.6885072 0.1938339 -0.8996499 -0.3912269 0.270408 -0.6729314 -0.6885077 0.343103 -0.8539044 -0.3913153 0.4824988 -0.7836136 -0.391337 0.3802443 -0.6175526 -0.6885078 0.479139 -0.5444095 -0.6885086 0.6080223 -0.6907967 -0.3912913 0.5642574 -0.4556023 -0.6885057 0.7161561 -0.578072 -0.3910923 0.8034604 -0.4489354 -0.3910349 0.6331354 -0.3536865 -0.6885096 0.6838 -0.2416067 -0.6885083 0.8677129 -0.306651 -0.3912026 0.7147982 -0.1225661 -0.6885064 0.9070193 -0.1555561 -0.3913034 -0.4884832 -0.7886489 0.3733861 -0.5592225 -0.7401395 0.3734484 -0.4136126 -0.8303363 0.3734517 -0.3353848 -0.8649278 0.3733857 -0.1708667 -0.9118062 0.3733819 -0.2538743 -0.8922489 0.3734164 -0.08539163 -0.9237698 0.3733065 -0.0005497349 -0.9276944 0.3733401 0.08570774 -0.9237306 0.3733308 0.253833 -0.8922815 0.3733665 0.1700808 -0.9119383 0.3734182 0.334851 -0.8651097 0.3734433 0.4133354 -0.8304993 0.3733962 0.5588034 -0.7404698 0.3734209 0.4882293 -0.7887866 0.3734272 0.6249984 -0.685546 0.373368 0.6853082 -0.6252176 0.3734376 0.7404697 -0.5589132 0.3732568 0.8304735 -0.4134553 0.3733209 0.7884591 -0.4888126 0.3733557 0.8648764 -0.3354987 0.3734026 0.8922453 -0.2539424 0.3733787 0.9236823 -0.08577619 0.3734346 0.9118229 -0.170724 0.3734064 0.9276925 -5.758246e-16 0.3733453 -0.6249736 -0.685565 0.3733746 -0.6858471 -0.6246536 0.3733922 -0.7402533 -0.5591159 0.3733825 -0.7890435 -0.4879079 0.3733045 -0.8303636 -0.4136412 0.3733593 -0.8653283 -0.334542 0.3732139 -0.8922285 -0.2541232 0.3732958 -0.9118918 -0.1703561 0.373406 -0.9236823 -0.08576656 0.3734368 -0.9276818 2.62955e-16 0.3733719 -0.9236815 0.08589088 0.3734103 -0.9118543 0.1705026 0.3734309 -0.8921641 0.2542674 0.3733515 -0.8650273 0.3350804 0.3734285 -0.830237 0.4139575 0.3732903 -0.7887992 0.4882411 0.3733851 -0.6857356 0.6248315 0.3732991 -0.740014 0.5595401 0.3732214 -0.624802 0.6857107 0.3733942 -0.558924 0.7403914 0.3733961 -0.4881952 0.7887966 0.3734507 -0.3350219 0.8650336 0.3734664 -0.4132709 0.830543 0.3733705 -0.25355 0.8923735 0.3733389 -0.1704795 0.9118537 0.373443 -0.08519388 0.9237904 0.3733005 -7.929927e-05 0.9276827 0.3733696 0.08612741 0.9237148 0.3732735 0.170316 0.911958 0.3732627 0.2541524 0.8921594 0.373441 0.3352201 0.865003 0.3733594 0.4136721 0.8302965 0.3734743 0.4885222 0.788637 0.37336 0.5590976 0.7402224 0.3734712 0.6251729 0.6853981 0.3733476 0.685589 0.6249214 0.3734179 0.7405517 0.5587391 0.3733547 0.7887214 0.488405 0.3733351 0.8650215 0.3352943 0.3732499 0.8306874 0.4130184 0.3733286 0.8923243 0.2535542 0.3734537 0.9118613 0.1705752 0.3733806 0.9236834 0.0856539 0.37346</float_array>
          <technique_common>
            <accessor count="142" source="#normals-array-array" stride="3">
              <param type="float" name="X" />
              <param type="float" name="Y" />
              <param type="float" name="Z" />
            </accessor>
          </technique_common>
        </source>
        <vertices id="verts-array-vertices">
          <input semantic="POSITION" source="#verts-array" />
        </vertices>
        <triangles count="280" material="material0">
          <input offset="0" semantic="VERTEX" source="#verts-array-vertices" />
          <input offset="1" semantic="NORMAL" source="#normals-array" />
          <p>0 0 1 1 2 2 1 1 3 3 4 4 3 3 1 1 0 0 5 5 4 4 6 6 3 3 6 6 4 4 7 7 8 8 5 5 5 5 6 6 7 7 8 8 9 9 10 10 9 9 8 8 7 7 11 11 10 10 12 12 9 9 12 12 10 10 13 13 14 14 11 11 11 11 12 12 13 13 14 14 15 15 16 16 15 15 14 14 13 13 17 17 16 16 18 18 15 15 18 18 16 16 19 19 20 20 17 17 17 17 18 18 19 19 20 20 21 21 22 22 21 21 20 20 19 19 23 23 22 22 24 24 21 21 24 24 22 22 25 25 26 26 23 23 23 23 24 24 25 25 26 26 27 27 28 28 27 27 26 26 25 25 29 29 28 28 30 30 27 27 30 30 28 28 31 31 32 32 29 29 29 29 30 30 31 31 32 32 33 33 34 34 33 33 32 32 31 31 35 35 34 34 36 36 33 33 36 36 34 34 37 37 38 38 35 35 35 35 36 36 37 37 0 0 2 2 39 39 40 40 41 41 39 39 39 39 2 2 40 40 41 41 42 42 43 43 42 42 41 41 40 40 44 44 43 43 45 45 42 42 45 45 43 43 46 46 47 47 44 44 44 44 45 45 46 46 47 47 48 48 49 49 48 48 47 47 46 46 50 50 49 49 51 51 48 48 51 51 49 49 52 52 53 53 50 50 50 50 51 51 52 52 53 53 54 54 55 55 54 54 53 53 52 52 56 56 55 55 57 57 54 54 57 57 55 55 58 58 59 59 56 56 56 56 57 57 58 58 59 59 60 60 61 61 60 60 59 59 58 58 62 62 61 61 63 63 60 60 63 63 61 61 64 64 65 65 62 62 62 62 63 63 64 64 65 65 66 66 67 67 66 66 65 65 64 64 68 68 67 67 69 69 66 66 69 69 67 67 70 70 71 71 68 68 68 68 69 69 70 70 71 71 72 72 73 73 72 72 71 71 70 70 72 72 38 38 73 73 73 73 38 38 37 37 11 11 14 14 69 69 29 29 32 32 26 26 29 29 26 26 28 28 34 34 23 23 32 32 26 26 32 32 23 23 22 22 34 34 35 35 34 34 22 22 23 23 35 35 38 38 20 20 20 20 22 22 35 35 16 16 72 72 70 70 20 20 38 38 17 17 8 8 63 63 5 5 64 64 10 10 66 66 4 4 60 60 58 58 40 40 54 54 52 52 2 2 1 1 57 57 45 45 48 48 46 46 51 51 45 45 42 42 42 42 52 52 51 51 45 45 51 51 48 48 2 2 54 54 40 40 40 40 52 52 42 42 57 57 54 54 2 2 4 4 58 58 1 1 58 58 57 57 1 1 63 63 60 60 5 5 60 60 4 4 5 5 64 64 8 8 10 10 63 63 8 8 64 64 66 66 11 11 69 69 10 10 11 11 66 66 14 14 16 16 70 70 14 14 70 70 69 69 38 38 72 72 17 17 17 17 72 72 16 16 74 74 75 75 49 49 50 50 76 76 74 74 74 74 49 49 50 50 77 77 50 50 53 53 50 50 77 77 76 76 53 53 78 78 79 79 77 77 53 53 79 79 78 78 55 55 80 80 55 55 78 78 53 53 81 81 80 80 56 56 55 55 56 56 80 80 56 56 59 59 82 82 82 82 81 81 56 56 83 83 84 84 59 59 59 59 84 84 82 82 61 61 85 85 83 83 83 83 59 59 61 61 86 86 61 61 62 62 61 61 86 86 85 85 62 62 87 87 88 88 86 86 62 62 88 88 87 87 65 65 89 89 65 65 87 87 62 62 67 67 90 90 65 65 89 89 65 65 90 90 67 67 68 68 91 91 91 91 90 90 67 67 92 92 93 93 68 68 68 68 93 93 91 91 71 71 94 94 92 92 92 92 68 68 71 71 95 95 71 71 73 73 71 71 95 95 94 94 73 73 96 96 97 97 95 95 73 73 97 97 37 37 96 96 73 73 37 37 98 98 96 96 49 49 75 75 99 99 99 99 100 100 47 47 47 47 49 49 99 99 47 47 101 101 44 44 101 101 47 47 100 100 44 44 102 102 103 103 101 101 102 102 44 44 104 104 43 43 103 103 44 44 103 103 43 43 105 105 41 41 43 43 43 43 104 104 105 105 41 41 106 106 39 39 106 106 41 41 105 105 39 39 107 107 108 108 106 106 107 107 39 39 109 109 0 0 108 108 39 39 108 108 0 0 110 110 3 3 0 0 0 0 109 109 110 110 111 111 112 112 3 3 111 111 3 3 110 110 6 6 112 112 113 113 112 112 6 6 3 3 7 7 6 6 114 114 113 113 114 114 6 6 115 115 7 7 116 116 7 7 114 114 116 116 115 115 117 117 9 9 9 9 7 7 115 115 12 12 117 117 118 118 117 117 12 12 9 9 13 13 12 12 119 119 118 118 119 119 12 12 120 120 13 13 121 121 13 13 119 119 121 121 120 120 122 122 15 15 15 15 13 13 120 120 15 15 123 123 18 18 123 123 15 15 122 122 18 18 124 124 125 125 123 123 124 124 18 18 126 126 19 19 125 125 18 18 125 125 19 19 127 127 21 21 19 19 19 19 126 126 127 127 21 21 128 128 24 24 128 128 21 21 127 127 24 24 129 129 130 130 128 128 129 129 24 24 131 131 25 25 130 130 24 24 130 130 25 25 132 132 27 27 25 25 25 25 131 131 132 132 133 133 134 134 27 27 133 133 27 27 132 132 30 30 134 134 135 135 134 134 30 30 27 27 31 31 30 30 136 136 135 135 136 136 30 30 137 137 31 31 138 138 31 31 136 136 138 138 137 137 139 139 33 33 33 33 31 31 137 137 36 36 139 139 140 140 139 139 36 36 33 33 37 37 36 36 141 141 140 140 141 141 36 36 37 37 141 141 98 98 99 99 75 75 100 100 120 120 98 98 122 122 100 100 75 75 76 76 79 79 76 76 77 77 79 79 100 100 76 76 74 74 76 76 75 75 79 79 102 102 101 101 101 101 100 100 79 79 103 103 79 79 78 78 79 79 103 103 102 102 78 78 80 80 103 103 81 81 104 104 103 103 103 103 80 80 81 81 105 105 81 81 82 82 81 81 105 105 104 104 106 106 105 105 84 84 82 82 84 84 105 105 84 84 83 83 107 107 107 107 106 106 84 84 108 108 83 83 85 85 83 83 108 108 107 107 88 88 111 111 110 110 110 110 109 109 86 86 114 114 113 113 90 90 112 112 87 87 89 89 115 115 92 92 117 117 91 91 93 93 116 116 96 96 121 121 97 97 95 95 118 118 94 94 123 123 122 122 141 141 120 120 96 96 98 98 137 137 138 138 125 125 139 139 124 124 123 123 136 136 128 128 138 138 134 134 133 133 132 132 135 135 134 134 128 128 129 129 128 128 130 130 132 132 130 130 134 134 134 134 130 130 128 128 132 132 131 131 130 130 128 128 127 127 138 138 136 136 135 135 128 128 138 138 126 126 125 125 127 127 126 126 138 138 124 124 139 139 125 125 125 125 139 139 137 137 123 123 141 141 140 140 123 123 140 140 139 139 120 120 121 121 96 96 141 141 122 122 98 98 119 119 95 95 97 97 121 121 119 119 97 97 117 117 94 94 118 118 118 118 95 95 119 119 115 115 93 93 92 92 117 117 92 92 94 94 115 115 116 116 93 93 114 114 90 90 91 91 116 116 114 114 91 91 113 113 112 112 89 89 90 90 113 113 89 89 87 87 111 111 88 88 87 87 112 112 111 111 109 109 85 85 86 86 86 86 88 88 110 110 85 85 109 109 108 108</p>
        </triangles>
      </mesh>
    </geometry>
  </library_geometries>
  <library_materials>
    <material id="cdcc1e53e66d4473b53280d8771fd6be" name="defaultmaterial">
      <instance_effect url="#04131ce34ec341db9d46bdcabaac233a" />
    </material>
  </library_materials>
  <library_visual_scenes>
    <visual_scene id="scene">
      <node id="node0" name="node0">
        <instance_geometry url="#651efee0dce74634808cfd991249f4e3">
          <bind_material>
            <technique_common>
              <instance_material symbol="material0" target="#cdcc1e53e66d4473b53280d8771fd6be" />
            </technique_common>
          </bind_material>
        </instance_geometry>
      </node>
    </visual_scene>
  </library_visual_scenes>
  <scene>
    <instance_visual_scene url="#scene" />
  </scene>
</COLLADA>