<COLLADA xmlns="http://www.collada.org/2005/11/COLLADASchema" version="1.4.1">
  <asset>
    <created>2026-02-10T22:53:39.071861</created>
    <modified>2026-02-10T22:53:39.071869</modified>
    <up_axis>Y_UP</up_axis>
  </asset>
  <library_effects>
    <effect id="373eae0cc64a4689aa22c803e4b4d769" name="373eae0cc64a4689aa22c803e4b4d769">
      <profile_COMMON>
        <technique sid="common">
          <phong>
            <emission>
              <color>0.0 0.0 0.0 1.0</color>
            </emission>
            <ambient>
              <color>0.300000 0.300000 0.300000 1.0</color>
            </ambient>
            <diffuse>
              <color>1.000000 1.000000 1.000000 1.0</color>
            </diffuse>
            <specular>
              <color>0.196000 0.196000 0.196000 1.0</color>
            </specular>
            <shininess>
              <float>20.0</float>
            </shininess>
            <reflective>
              <color>0.0 0.0 0.0 1.0</color>
            </reflective>
            <reflectivity>
              <float>0.0</float>
            </reflectivity>
            <transparent>
              <color>0.0 0.0 0.0 1.0</color>
            </transparent>
            <transparency>
              <float>1.0</float>
            </transparency>
          </phong>
        </technique>
        <extra>
          <technique profile="GOOGLEEARTH">
            <double_sided>0</double_sided>
          </technique>
        </extra>
      </profile_COMMON>
    </effect>
  </library_effects>
  <library_geometries>
    <geometry id="db00b41d56814b7c91f420d5899b41af" name="71cb060916764d489abb1536f1787f20">
      <mesh>
        <source id="verts-array">
          <float_array count="1377" id="verts-array-array">-0.000620881 -0.00293503 0.169021 -0.00031129 -0.00298379 0.168711 0.0140031 -0.00298958 0.16865 0.0144605 3.31633e-07 0.1714 0.0144477 0.000497234 0.171358 -0.00296788 0.000437826 0.171368 -5.27048e-12 -0.003 0.1684 0.0140031 -0.00298931 0.168151 0.000311331 -0.0029838 0.168089 0.000620951 -0.00293503 0.167779 0.0140274 -0.00290733 0.16766 0.000927055 -0.00285316 0.167473 0.00122763 -0.00273731 0.167172 0.0140734 -0.00274519 0.167191 0.00152025 -0.00258626 0.16688 0.0141361 -0.00250946 0.166756 0.00180204 -0.00239845 0.166598 0.0142087 -0.00220622 0.166367 0.00206929 -0.00217208 0.166331 0.0023172 -0.00190538 0.166083 0.00253961 -0.00159695 0.16586 0.014284 -0.0018439 0.166034 0.00272861 -0.00124684 0.165671 0.0143538 -0.00143109 0.165764 0.0140274 -0.00290695 0.16914 0.0028747 -0.000857923 0.165525 0.0144106 -0.000978129 0.165564 0.00296788 -0.000437826 0.165432 0.0144476 -0.000496435 0.165442 0.0144606 4.77798e-18 0.1654 0.003 -5.51091e-19 0.1654 -0.00092697 -0.00285318 0.169327 -0.00122753 -0.00273735 0.169628 0.0140734 -0.00274539 0.169609 0.014136 -0.00250938 0.170044 -0.00152017 -0.00258631 0.16992 -0.00180195 -0.00239852 0.170202 0.0142087 -0.00220654 0.170433 -0.00231712 -0.00190549 0.170717 -0.00206921 -0.00217217 0.170469 0.0142839 -0.00184395 0.170766 -0.00253952 -0.00159712 0.17094 -0.00272851 -0.00124705 0.171128 0.0143538 -0.0014312 0.171037 0.0144105 -0.000977869 0.171236 -0.00287462 -0.00085818 0.171275 0.0144477 -0.000495888 0.171359 -0.00296783 -0.000438031 0.171368 -0.003 5.88016e-18 0.1714 -0.00272861 0.00124684 0.171129 -0.0028747 0.000857923 0.171275 0.0144105 0.000978329 0.171236 -0.00180204 0.00239845 0.170202 -0.00206929 0.00217208 0.170469 0.0142087 0.00220659 0.170432 -0.00253961 0.00159695 0.17094 0.0142839 0.00184406 0.170766 -0.0023172 0.00190538 0.170717 0.0140274 0.00290702 0.16914 0.0140031 0.00298968 0.168648 -0.000620951 0.00293503 0.169021 0.0140733 0.00274567 0.169609 -0.00122763 0.00273731 0.169628 -0.00152025 0.00258626 0.16992 0.0140275 0.00290704 0.167659 0.00092697 0.00285318 0.167473 0.000620881 0.00293503 0.167779 0.0140031 0.00298929 0.16815 -4.76796e-12 0.003 0.1684 0.0142088 0.00220616 0.166367 0.00180195 0.00239852 0.166598 0.0141361 0.00250931 0.166756 0.00152017 0.00258631 0.16688 0.00122753 0.00273735 0.167172 0.0140734 0.00274512 0.16719 0.0143538 0.00143088 0.165764 0.00253952 0.00159712 0.165861 0.0142841 0.00184378 0.166033 0.00231712 0.00190549 0.166083 0.0144107 0.00097737 0.165564 0.00272851 0.00124705 0.165672 0.00287462 0.00085818 0.165525 0.0144476 0.000496224 0.165442 0.00296783 0.000438031 0.165432 -0.000927055 0.00285316 0.169327 0.00206921 0.00217217 0.166331 0.00031129 0.00298379 0.168089 -0.000311331 0.0029838 0.168711 0.014136 0.00250944 0.170043 0.0143538 0.00143161 0.171036 -5.38971e-11 0.003 0.00499994 -0.000458308 0.00296449 0.00497883 -0.00299099 -0.000229166 0.00400681 -0.00299097 0.000230416 0.00400674 0.000481937 0.00296061 0.00497677 0.000947292 0.00284659 0.00490964 0.00138194 0.00266254 0.00480547 0.00177795 0.00241639 0.00467346 0.00212637 0.00211621 0.00452532 0.0024242 0.00176723 0.00437322 0.00266601 0.00137527 0.0042303 0.00284739 0.000943988 0.00411043 0.00296066 0.000481304 0.00402944 0.003 1.83697e-19 0.004 -0.000903083 0.00286064 0.00491754 -0.00132083 0.00269331 0.00482203 -0.0017037 0.00246916 0.00470038 -0.00204585 0.00219408 0.00456184 -0.00234274 0.00187405 0.00441677 -0.00259097 0.00151209 0.00427594 -0.0027861 0.00111243 0.00415156 -0.00292108 0.000683142 0.00405787 -0.00259237 -0.00150966 0.00427592 -0.00278631 -0.0011114 0.00415207 -0.0029212 -0.00068196 0.00405815 -0.00204844 -0.0021919 0.00456154 -0.00170618 -0.00246747 0.00470021 -0.00234479 -0.00187127 0.00441654 -0.000904508 -0.00286029 0.00491764 -0.000458542 -0.00296431 0.00497895 -0.00132206 -0.00269294 0.00482225 0.000946395 -0.00284659 0.00490935 -1.06695e-12 -0.003 0.005 0.00177529 -0.00241826 0.00467405 0.00138099 -0.00266302 0.00480521 0.00242228 -0.0017699 0.00437375 0.00212436 -0.00211823 0.00452627 0.00266569 -0.00137628 0.00422971 0.00284727 -0.000945078 0.00410981 0.00296067 -0.000480817 0.00402909 0.000481781 -0.00296072 0.00497656 0.00304393 -0.006 0.00396667 0.00353614 -0.006 0.00353489 0.00353614 0.006 0.00353489 0.00304393 0.006 0.00396667 0.00482971 0.006 0.00129379 0.00482971 -0.006 0.00129379 0.00495732 -0.006 0.000651632 0.00250078 -0.006 0.00432956 0.00191469 -0.006 0.00461875 0.00129533 -0.006 0.00482923 0.00250078 0.006 0.00432956 0.000653371 -0.006 0.00495711 0 -0.006 0.005 0.00396753 -0.006 0.00304268 0.00396753 0.006 0.00304268 0.00433072 -0.006 0.00249874 0.00495732 0.006 0.000651632 0.00461961 -0.006 0.00191268 0.00461961 0.006 0.00191268 0.00461921 -0.006 -0.00191384 0.00482943 0.006 -0.00129461 0.00482943 -0.006 -0.00129461 0.00495694 -0.006 -0.000653927 0.00499991 0.006 -1.40784e-06 0.00499991 -0.006 -1.40784e-06 0.00396582 0.006 -0.00304489 0.00353458 -0.006 -0.00353632 0.00353458 0.006 -0.00353632 0.00461921 0.006 -0.00191384 0.00432953 -0.006 -0.00250094 0.00432953 0.006 -0.00250094 0.00129267 -0.006 -0.0048299 0.00191228 0.006 -0.00461981 0.00191228 -0.006 -0.00461981 0.00249947 -0.006 -0.00433042 0.00304355 0.006 -0.00396692 0.00304355 -0.006 -0.00396692 6.12323e-19 0.006 -0.005 6.12323e-19 -0.006 -0.005 -0.000653371 -0.006 -0.00495711 0.00129267 0.006 -0.0048299 0.000653371 -0.006 -0.00495711 0.000653371 0.006 -0.00495711 -0.00250078 -0.006 -0.00432956 -0.00250078 0.006 -0.00432956 -0.00191469 0.006 -0.00461875 -0.00191469 -0.006 -0.00461875 -0.00129533 0.006 -0.00482923 -0.00129533 -0.006 -0.00482923 -0.00396753 0.006 -0.00304268 -0.00396753 -0.006 -0.00304268 -0.00433072 -0.006 -0.00249874 -0.00304393 0.006 -0.00396667 -0.00353614 -0.006 -0.00353489 -0.00353614 0.006 -0.00353489 -0.00495732 -0.006 -0.000651632 -0.00495732 0.006 -0.000651632 -0.00482971 0.006 -0.00129379 -0.00461961 -0.006 -0.00191268 -0.00461961 0.006 -0.00191268 -0.00433072 0.006 -0.00249874 -0.00482943 -0.006 0.00129461 -0.00495694 0.006 0.000653927 -0.00495694 -0.006 0.000653927 -0.00191228 0.006 0.00461981 -0.00461921 -0.006 0.00191384 -0.00482943 0.006 0.00129461 -0.00249947 0.006 0.00433042 -0.00432953 0.006 0.00250094 -0.00432953 -0.006 0.00250094 -0.00396582 -0.006 0.00304489 -0.00304355 0.006 0.00396692 -0.00304355 -0.006 0.00396692 -0.00353458 0.006 0.00353632 -0.00249947 -0.006 0.00433042 -0.00191228 -0.006 0.00461981 -0.00129267 -0.006 0.0048299 -0.000653371 -0.006 0.00495711 -0.00396582 0.006 0.00304489 -0.00353458 -0.006 0.00353632 -0.00129267 0.006 0.0048299 -0.00461921 0.006 0.00191384 -0.00499991 -0.006 1.40784e-06 -0.00499991 0.006 1.40784e-06 -0.000653371 0.006 0.00495711 -1.22465e-18 0.006 0.005 -0.00482971 -0.006 -0.00129379 -0.00304393 -0.006 -0.00396667 -0.000653371 0.006 -0.00495711 0.00249947 0.006 -0.00433042 0.00396582 -0.006 -0.00304489 0.00495694 0.006 -0.000653927 0.00433072 0.006 0.00249874 0.00191469 0.006 0.00461875 0.00129533 0.006 0.00482923 0.000653371 0.006 0.00495711 0.0140428 -0.006 0.169323 0.024 -0.006 0.1584 0.024 0.006 0.1584 0.0249253 0.006 0.158443 0.0141708 -0.006 0.17024 0.0140002 0.006 0.168403 0.0141708 0.006 0.17024 0.0140428 0.006 0.169323 0.0143825 0.006 0.171138 0.014676 -0.006 0.172014 0.0150498 -0.006 0.17286 0.014676 0.006 0.172014 0.0150498 0.006 0.17286 0.0154984 -0.006 0.173665 0.0160217 -0.006 0.174429 0.0154984 0.006 0.173665 0.0166101 -0.006 0.175137 0.0160217 0.006 0.174429 0.0166101 0.006 0.175137 0.0172652 -0.006 0.175792 0.0179746 -0.006 0.176381 0.0172652 0.006 0.175792 0.0187377 -0.006 0.176903 0.0179746 0.006 0.176381 0.0187377 0.006 0.176903 0.0195447 -0.006 0.177352 0.0203892 -0.006 0.177725 0.0195447 0.006 0.177352 0.0212661 -0.006 0.178019 0.0203892 0.006 0.177725 0.0212661 0.006 0.178019 0.0221634 -0.006 0.17823 0.0230747 -0.006 0.178357 0.0221634 0.006 0.17823 0.024 -0.006 0.1784 0.0230747 0.006 0.178357 0.024 0.006 0.1784 0.0140426 0.006 0.167478 0.01417 0.006 0.166565 0.0143814 0.006 0.165665 0.0146746 0.006 0.16479 0.0146746 -0.006 0.16479 0.0150475 0.006 0.163944 0.0143814 -0.006 0.165665 0.0154971 0.006 0.163137 0.0150475 -0.006 0.163944 0.0160184 0.006 0.162376 0.0154971 -0.006 0.163137 0.0160184 -0.006 0.162376 0.0166097 0.006 0.161663 0.0172611 0.006 0.161012 0.0166097 -0.006 0.161663 0.0179731 0.006 0.16042 0.0172611 -0.006 0.161012 0.0179731 -0.006 0.16042 0.0187334 0.006 0.1599 0.0195413 0.006 0.159449 0.0187334 -0.006 0.1599 0.0203854 0.006 0.159076 0.0195413 -0.006 0.159449 0.0203854 -0.006 0.159076 0.0212613 0.006 0.158782 0.0221611 0.006 0.158571 0.0212613 -0.006 0.158782 0.0230747 0.006 0.158443 0.0221611 -0.006 0.158571 0.0230747 -0.006 0.158443 0.0258366 -0.006 0.15857 0.0249253 -0.006 0.158443 0.0258366 0.006 0.15857 0.0284553 -0.006 0.159448 0.0276108 -0.006 0.159075 0.0284553 0.006 0.159448 0.0267339 -0.006 0.158781 0.0267339 0.006 0.158781 0.0276108 0.006 0.159075 0.0300253 -0.006 0.160419 0.0307348 0.006 0.161008 0.0307348 -0.006 0.161008 0.0292623 0.006 0.159897 0.0300253 0.006 0.160419 0.0292623 -0.006 0.159897 0.0325016 0.006 0.163135 0.0325016 -0.006 0.163135 0.0319783 -0.006 0.162371 0.0319783 0.006 0.162371 0.0313899 -0.006 0.161663 0.0313899 0.006 0.161663 0.0336175 -0.006 0.165662 0.033324 -0.006 0.164786 0.0336175 0.006 0.165662 0.0329502 -0.006 0.16394 0.0329502 0.006 0.16394 0.033324 0.006 0.164786 0.0339572 -0.006 0.167477 0.0339998 0.006 0.168397 0.0339998 -0.006 0.168397 0.0338292 0.006 0.16656 0.0339572 0.006 0.167477 0.0338292 -0.006 0.16656 0.0336186 0.006 0.171135 0.0336186 -0.006 0.171135 0.03383 -0.006 0.170235 0.03383 0.006 0.170235 0.0339574 -0.006 0.169322 0.0339574 0.006 0.169322 0.0325029 -0.006 0.173663 0.0329525 -0.006 0.172856 0.0325029 0.006 0.173663 0.0333254 -0.006 0.17201 0.0333254 0.006 0.17201 0.0329525 0.006 0.172856 0.0313903 -0.006 0.175137 0.0307389 0.006 0.175788 0.0307389 -0.006 0.175788 0.0319816 0.006 0.174424 0.0313903 0.006 0.175137 0.0319816 -0.006 0.174424 0.0300269 -0.006 0.17638 0.0300269 0.006 0.17638 0.0292666 0.006 0.1769 0.0292666 -0.006 0.1769 0.0284587 0.006 0.177351 0.0284587 -0.006 0.177351 0.0276146 -0.006 0.177724 0.0276146 0.006 0.177724 0.0267387 0.006 0.178018 0.0267387 -0.006 0.178018 0.0258389 0.006 0.178229 0.0258389 -0.006 0.178229 0.0249253 -0.006 0.178357 0.0249253 0.006 0.178357 0.01417 -0.006 0.166565 0.0140426 -0.006 0.167478 0.0140002 -0.006 0.168403 0.0143825 -0.006 0.171138 0.0209551 -0.006 0.172366 0.0214988 -0.006 0.172729 0.0279663 -0.006 0.171444 0.0227056 -0.006 0.17323 0.0288294 -0.006 0.169695 0.0246516 -0.006 0.173357 0.0239985 -0.006 0.1734 0.0283293 -0.006 0.170901 0.0252939 -0.006 0.17323 0.0270428 -0.006 0.172367 0.0264986 -0.006 0.172731 0.0275352 -0.006 0.171936 0.0259123 -0.006 0.17302 0.023346 -0.006 0.173357 0.0286188 -0.006 0.170315 0.0220859 -0.006 0.173019 0.0289572 -0.006 0.169053 0.0289999 -0.006 0.168401 0.0204639 -0.006 0.171935 0.0289573 -0.006 0.167749 0.020033 -0.006 0.171443 0.0288299 -0.006 0.167107 0.0286195 -0.006 0.166487 0.0196693 -0.006 0.170899 0.0283305 -0.006 0.165901 0.0279676 -0.006 0.165358 0.0275364 -0.006 0.164865 0.0193801 -0.006 0.170312 0.0270443 -0.006 0.164434 0.0191702 -0.006 0.169693 0.0190428 -0.006 0.169053 0.019 -0.006 0.168399 0.0252955 -0.006 0.163571 0.0190431 -0.006 0.167746 0.0246535 -0.006 0.163443 0.0191709 -0.006 0.167105 0.024 -0.006 0.1634 0.0196702 -0.006 0.165899 0.0233465 -0.006 0.163443 0.0220877 -0.006 0.16378 0.0200341 -0.006 0.165355 0.0204656 -0.006 0.164863 0.020957 -0.006 0.164433 0.0215003 -0.006 0.16407 0.0227074 -0.006 0.16357 0.0193808 -0.006 0.166486 0.0259147 -0.006 0.163781 0.0265005 -0.006 0.16407 0.0215014 0.006 0.172731 0.0209572 0.006 0.172367 0.027967 0.006 0.171443 0.0227061 0.006 0.17323 0.0288298 0.006 0.169693 0.024654 0.006 0.173357 0.0240015 0.006 0.1734 0.0283307 0.006 0.170899 0.0252944 0.006 0.17323 0.0270449 0.006 0.172366 0.0265012 0.006 0.172729 0.0275361 0.006 0.171935 0.0259141 0.006 0.173019 0.0233484 0.006 0.173357 0.0286199 0.006 0.170312 0.0220877 0.006 0.17302 0.0289572 0.006 0.169053 0.029 0.006 0.168399 0.0204648 0.006 0.171936 0.0289569 0.006 0.167746 0.0200337 0.006 0.171444 0.0288291 0.006 0.167105 0.0286192 0.006 0.166486 0.0196707 0.006 0.170901 0.0283298 0.006 0.165899 0.0279659 0.006 0.165355 0.0275344 0.006 0.164863 0.0193812 0.006 0.170315 0.027043 0.006 0.164433 0.0191706 0.006 0.169695 0.0190428 0.006 0.169053 0.0190001 0.006 0.168401 0.0252926 0.006 0.16357 0.0190427 0.006 0.167749 0.0246535 0.006 0.163443 0.0191701 0.006 0.167107 0.024 0.006 0.1634 0.0196695 0.006 0.165901 0.0233465 0.006 0.163443 0.0220853 0.006 0.163781 0.0200324 0.006 0.165358 0.0204636 0.006 0.164865 0.0209557 0.006 0.164434 0.0214995 0.006 0.16407 0.0227045 0.006 0.163571 0.0193805 0.006 0.166487 0.0259123 0.006 0.16378 0.0264997 0.006 0.16407</float_array>
          <technique_common>
            <accessor count="459" source="#verts-array-array" stride="3">
              <param type="float" name="X" />
              <param type="float" name="Y" />
              <param type="float" name="Z" />
            </accessor>
          </technique_common>
        </source>
        <source id="normals-array">
          <float_array count="1377" id="normals-array-array">-0.117932 -0.986011 0.1177893 -0.06508204 -0.9957465 0.06521698 -0.7194086 -0.6901936 0.07800066 -0.6002061 0.0005435058 0.7998452 -0.61443 0.09797365 0.7828646 -0.693735 0.1935891 0.6937255 -0.01308582 -0.9998307 0.01293728 -0.7191019 -0.6905407 -0.07775581 0.03907075 -0.9984662 -0.03922678 0.09185107 -0.991562 -0.09147798 -0.7121913 -0.6645777 -0.2260973 0.1453093 -0.9786073 -0.1456468 0.2010165 -0.9587977 -0.2007472 -0.6976882 -0.6166075 -0.3647279 0.2585517 -0.9306547 -0.2589072 -0.681456 -0.5501359 -0.4826678 0.3191243 -0.8923179 -0.3192623 -0.661796 -0.4704853 -0.5836692 0.3829386 -0.8404972 -0.3833048 0.4498444 -0.7716331 -0.4496915 0.518891 -0.6795637 -0.5185994 -0.6449548 -0.3828709 -0.6613949 0.5867912 -0.5576388 -0.5871244 -0.6309378 -0.290367 -0.7194474 -0.7118714 -0.6648413 0.2263297 0.6474842 -0.4014215 -0.6477847 -0.6200675 -0.1943114 -0.7601048 0.6910167 -0.2115392 -0.6911925 -0.6111838 -0.09786948 -0.7854145 -0.6004802 9.843276e-06 -0.7996396 0.7070315 1.67839e-05 -0.7071821 -0.1719187 -0.9700499 0.1716019 -0.2273311 -0.9467727 0.227908 -0.6979598 -0.6164791 0.364425 -0.6813108 -0.5502815 0.4827068 -0.285481 -0.9150105 0.2850549 -0.3457502 -0.872267 0.3458426 -0.6621255 -0.4703447 0.5834087 -0.4740706 -0.7423836 0.4734169 -0.408843 -0.8159058 0.4088339 -0.6449084 -0.3834667 0.6610949 -0.5396467 -0.6455893 0.5403665 -0.6030123 -0.5236128 0.6018353 -0.6311515 -0.2898576 0.7194653 -0.6199067 -0.1944805 0.7601928 -0.6562169 -0.3720413 0.656479 -0.6090932 -0.09768825 0.7870594 -0.6937288 -0.1936019 0.693728 -0.7071638 -1.59629e-05 0.7070498 -0.6026528 0.5232525 0.6025085 -0.6565212 0.3714709 0.6564978 -0.6193833 0.1943053 0.760664 -0.3457671 0.8722459 0.3458789 -0.4088503 0.8158826 0.4088729 -0.6622228 0.4708946 0.5828544 -0.5397356 0.6461512 0.5396056 -0.6450067 0.3831971 0.6611553 -0.4740978 0.7423431 0.4734533 -0.711936 0.664936 0.225848 -0.7193966 0.6902483 0.07762656 -0.1179529 0.9860057 0.117813 -0.6980328 0.6161458 0.3648487 -0.2273705 0.9467619 0.2279135 -0.2854909 0.9149948 0.2850956 -0.7121271 0.6646369 -0.2261256 0.1452836 0.978616 -0.1456138 0.09183445 0.9915648 -0.09146392 -0.7191097 0.6904936 -0.07810161 -0.01306644 0.9998311 0.01292174 -0.6619249 0.470969 -0.5831325 0.3191102 0.8923356 -0.319227 -0.6812194 0.5500419 -0.4831087 0.2585151 0.9306647 -0.2589075 0.2009869 0.9588082 -0.2007263 -0.6977778 0.6163477 -0.3649953 -0.6305949 0.2897882 -0.7199812 0.5187424 0.6790549 -0.5194138 -0.6451834 0.3824281 -0.6614281 0.4500781 0.7714465 -0.4497778 -0.6203262 0.1943291 -0.7598892 0.5864231 0.5581226 -0.5870324 0.6476105 0.4022728 -0.6471301 -0.6112165 0.09795689 -0.7853782 0.691016 0.2115615 -0.6911863 -0.1719488 0.970041 0.1716217 0.3829126 0.8405212 -0.383278 0.03908008 0.9984654 -0.03923672 -0.06507666 0.9957457 0.06523399 -0.6811406 0.5500767 0.4831802 -0.6312471 0.2903143 0.7191973 0.002271812 0.6993236 0.7148016 -0.1763064 0.6856229 0.7062842 -0.8834923 -0.03908291 0.4668124 -0.8801725 0.03939061 0.4730166 0.1848265 0.6839104 0.7057661 0.3555474 0.640263 0.680918 0.5015632 0.5775123 0.6441381 0.6183534 0.5014308 0.6051498 0.7101207 0.4193867 0.565547 0.778106 0.3346693 0.531552 0.8283606 0.2502732 0.5011806 0.8602742 0.1654017 0.4822558 0.8783415 0.08229463 0.4708968 0.8836109 -2.660268e-05 0.4682219 -0.3401462 0.646136 0.6832341 -0.481316 0.5881635 0.649922 -0.5970498 0.5175318 0.6129375 -0.6900544 0.4409492 0.573924 -0.7600911 0.3603439 0.540753 -0.8132048 0.2792823 0.5105873 -0.8497841 0.1985026 0.4883275 -0.8718631 0.1182374 0.4752626 -0.8136941 -0.278817 0.5100617 -0.8503015 -0.1981841 0.4875555 -0.8725142 -0.1180091 0.4741231 -0.6907545 -0.4402466 0.573621 -0.5975654 -0.5172689 0.612657 -0.7606845 -0.3598572 0.5402424 -0.3400163 -0.6461648 0.6832715 -0.1761792 -0.6856992 0.7062418 -0.4816762 -0.5878775 0.6499139 0.3554977 -0.6403916 0.680823 0.002346805 -0.699363 0.7147628 0.6173478 -0.5019447 0.6057502 0.5008987 -0.5776811 0.6445037 0.7780037 -0.335059 0.5314562 0.7099012 -0.4200392 0.5653382 0.828033 -0.2504987 0.5016092 0.8596808 -0.1653471 0.4833313 0.8771597 -0.08234944 0.4730851 0.1852848 -0.6837145 0.7058357 0.4392609 -0.6929978 0.5716677 0.5101249 -0.6926603 0.5098964 0.5101249 0.6926603 0.5098964 0.43927 0.6930178 0.5716364 0.6967068 0.6926558 0.1866214 0.6967068 -0.6926558 0.1866214 0.7151149 -0.6926629 0.09396177 0.3604165 -0.6934743 0.6238536 0.2758066 -0.6934867 0.6655877 0.1869315 -0.6935656 0.6957179 0.3603839 0.6934985 0.6238456 0.0940179 -0.6936525 0.7141476 6.588646e-05 -0.6935743 0.7203851 0.5723451 -0.6926755 0.4388868 0.5723451 0.6926755 0.4388868 0.6246935 -0.6926954 0.3604596 0.7151149 0.6926629 0.09396177 0.6663473 -0.6926986 0.2759529 0.6663473 0.6926986 0.2759529 0.6663296 -0.6926583 -0.2760964 0.6966508 0.6926864 -0.1867171 0.6966508 -0.6926864 -0.1867171 0.7150364 -0.6926998 -0.09428658 0.7212451 0.6926799 -0.0002277908 0.7212451 -0.6926799 -0.0002277908 0.5720639 0.6926797 -0.4392467 0.5098931 -0.6927085 -0.5100627 0.5098931 0.6927085 -0.5100627 0.6663296 0.6926583 -0.2760964 0.6245318 -0.692666 -0.3607961 0.6245318 0.692666 -0.3607961 0.1865647 -0.6927228 -0.6966554 0.2758156 0.6926673 -0.6664366 0.2758156 -0.6926673 -0.6664366 0.3605393 -0.6926573 -0.6246898 0.4390464 0.6926749 -0.5722235 0.4390464 -0.6926749 -0.5722235 4.91092e-18 0.6926565 -0.7212676 1.043571e-17 -0.6926565 -0.7212676 -0.09427982 -0.6926586 -0.7150772 0.1865647 0.6927228 -0.6966554 0.09420154 -0.6926814 -0.7150654 0.09420154 0.6926814 -0.7150654 -0.360667 -0.6927064 -0.6245616 -0.360667 0.6927064 -0.6245616 -0.2761924 0.6926908 -0.6662562 -0.2761924 -0.6926908 -0.6662562 -0.1868903 0.6926715 -0.6966192 -0.1868903 -0.6926715 -0.6966192 -0.5723451 0.6926755 -0.4388868 -0.5723451 -0.6926755 -0.4388868 -0.6246935 -0.6926954 -0.3604596 -0.4391078 0.6926584 -0.5721963 -0.5101249 -0.6926603 -0.5098964 -0.5101249 0.6926603 -0.5098964 -0.7151149 -0.6926629 -0.09396177 -0.7151149 0.6926629 -0.09396177 -0.6967068 0.6926558 -0.1866214 -0.6663473 -0.6926986 -0.2759529 -0.6663473 0.6926986 -0.2759529 -0.6246935 0.6926954 -0.3604596 -0.6966508 -0.6926864 0.1867171 -0.7150364 0.6926998 0.09428658 -0.7150364 -0.6926998 0.09428658 -0.2756643 0.6934584 0.6656761 -0.6663296 -0.6926583 0.2760964 -0.6966508 0.6926864 0.1867171 -0.3601612 0.6933743 0.6241122 -0.6245318 0.692666 0.3607961 -0.6245318 -0.692666 0.3607961 -0.5720639 -0.6926797 0.4392467 -0.4392178 0.6930504 0.5716371 -0.4392266 -0.6930694 0.5716072 -0.5098931 0.6927085 0.5100627 -0.3601482 -0.6934252 0.6240631 -0.275643 -0.6935221 0.6656185 -0.1864134 -0.6937348 0.6956882 -0.09400164 -0.6937276 0.7140769 -0.5720639 0.6926797 0.4392467 -0.5098931 -0.6927085 0.5100627 -0.1864399 0.6936807 0.695735 -0.6663296 0.6926583 0.2760964 -0.7212451 -0.6926799 0.0002277908 -0.7212451 0.6926799 0.0002277908 -0.09402227 0.6936985 0.7141023 3.937421e-05 0.693578 0.7203815 -0.6967068 -0.6926558 -0.1866214 -0.4391078 -0.6926584 -0.5721963 -0.09427982 0.6926586 -0.7150772 0.3605393 0.6926573 -0.6246898 0.5720639 -0.6926797 -0.4392467 0.7150364 0.6926998 -0.09428658 0.6246935 0.6926954 0.3604596 0.275816 0.6935034 0.6655663 0.1869349 0.6936082 0.6956745 0.09399636 0.6936913 0.7141128 -0.7132373 -0.6977945 0.06614683 1.472614e-17 -0.696805 -0.7172606 -1.533972e-18 0.696805 -0.7172606 0.06621347 0.6968986 -0.7141065 -0.7041296 -0.6977114 0.1319101 -0.7162543 0.6978393 0.0001857821 -0.7041264 0.6977135 0.1319164 -0.7132378 0.6977953 0.06613302 -0.6890047 0.6976302 0.1964297 -0.6684336 -0.6970765 0.2593854 -0.6419416 -0.6968636 0.3198315 -0.6684336 0.6970766 0.2593855 -0.6419416 0.6968636 0.3198315 -0.609731 -0.6968852 0.3775965 -0.5723051 -0.696809 0.4323472 -0.609731 0.6968852 0.3775965 -0.529881 -0.6968938 0.4832858 -0.5723051 0.696809 0.4323472 -0.529881 0.6968938 0.4832858 -0.4831433 -0.6968609 0.5300541 -0.4320477 -0.6967912 0.5725529 -0.4831433 0.6968609 0.5300541 -0.3772046 -0.69688 0.6099795 -0.4320477 0.6967912 0.5725529 -0.3772046 0.69688 0.6099795 -0.3195486 -0.6969226 0.6420184 -0.2591592 -0.6968552 0.6687521 -0.3195486 0.6969226 0.6420184 -0.1962947 -0.6968429 0.6898393 -0.2591592 0.6968552 0.6687521 -0.1962947 0.6968429 0.6898393 -0.1317277 -0.6968492 0.7050171 -0.06620789 -0.6968969 0.7141087 -0.1317277 0.6968492 0.7050171 -1.963484e-17 -0.6968085 0.7172572 -0.06620789 0.6968969 0.7141087 0 0.6968085 0.7172572 -0.7132888 0.6977581 -0.06597559 -0.7041035 0.6977962 -0.1316003 -0.6891731 0.6975303 -0.1961934 -0.6684592 0.6971731 -0.2590595 -0.6684592 -0.6971731 -0.2590595 -0.6421756 0.6967778 -0.3195485 -0.6891798 -0.6975253 -0.1961879 -0.6097562 0.6968686 -0.3775865 -0.6421756 -0.6967778 -0.3195485 -0.5724288 0.6969284 -0.4319908 -0.6097562 -0.6968686 -0.3775865 -0.5724288 -0.6969284 -0.4319908 -0.5301793 0.6967548 -0.483159 -0.4831993 0.69696 -0.5298728 -0.5301793 -0.6967548 -0.483159 -0.4322729 0.6967102 -0.5724814 -0.4831993 -0.69696 -0.5298728 -0.4322729 -0.6967102 -0.5724814 -0.3775349 0.697041 -0.6095911 -0.320113 0.6967857 -0.6418857 -0.3775349 -0.697041 -0.6095911 -0.2593209 0.6968752 -0.6686686 -0.320113 -0.6967857 -0.6418857 -0.2593209 -0.6968752 -0.6686686 -0.1962278 0.6967377 -0.6899647 -0.1317397 0.6969964 -0.7048693 -0.1962278 -0.6967377 -0.6899647 -0.06648045 0.6968191 -0.7141593 -0.1317397 -0.6969964 -0.7048693 -0.06648045 -0.6968191 -0.7141593 0.1317277 -0.6968492 -0.7050171 0.06621347 -0.6968986 -0.7141065 0.1317277 0.6968492 -0.7050171 0.3195444 -0.6969209 -0.6420223 0.2591535 -0.6968569 -0.6687525 0.3195444 0.6969209 -0.6420223 0.1962949 -0.6968429 -0.6898393 0.1962949 0.6968429 -0.6898393 0.2591535 0.6968569 -0.6687525 0.4320356 -0.6968083 -0.5725412 0.4831274 0.696852 -0.5300804 0.4831274 -0.696852 -0.5300804 0.3772316 0.6968718 -0.6099722 0.4320356 0.6968083 -0.5725412 0.3772316 -0.6968718 -0.6099722 0.6097299 0.6968872 -0.3775946 0.6097299 -0.6968872 -0.3775946 0.5723081 -0.6968077 -0.4323454 0.5723081 0.6968077 -0.4323454 0.5298805 -0.696894 -0.4832861 0.5298805 0.696894 -0.4832861 0.6897248 -0.6969274 -0.1963973 0.6687951 -0.6968185 -0.2591467 0.6897248 0.6969274 -0.1963973 0.6419413 -0.6968626 -0.3198342 0.6419413 0.6968626 -0.3198342 0.6687951 0.6968185 -0.2591467 0.7141455 -0.6968568 -0.06623317 0.7171751 0.696893 -0.0001675074 0.7171751 -0.696893 -0.0001675074 0.7050025 0.6968105 -0.1320102 0.7141455 0.6968568 -0.06623317 0.7050025 -0.6968105 -0.1320102 0.6898885 0.6968345 0.1961518 0.6898885 -0.6968345 0.1961518 0.7049778 -0.6968954 0.1316932 0.7049778 0.6968954 0.1316932 0.7142074 -0.6968101 0.06605654 0.7142074 0.6968101 0.06605654 0.6097556 -0.6968672 0.37759 0.6421752 -0.6967782 0.3195483 0.6097556 0.6968672 0.37759 0.6688145 -0.6969193 0.2588256 0.6688145 0.6969193 0.2588256 0.6421752 0.6967782 0.3195483 0.5301793 -0.6967548 0.483159 0.4831996 0.6969601 0.5298724 0.4831996 -0.6969601 0.5298724 0.5724256 0.6969296 0.4319932 0.5301793 0.6967548 0.483159 0.5724256 -0.6969296 0.4319932 0.4322734 -0.6967101 0.5724813 0.4322734 0.6967101 0.5724813 0.3775349 0.697041 0.6095911 0.3775349 -0.697041 0.6095911 0.3201168 0.6967873 0.6418822 0.3201168 -0.6967873 0.6418822 0.2593263 -0.6968738 0.668668 0.2593263 0.6968738 0.668668 0.196228 0.6967376 0.6899647 0.196228 -0.6967376 0.6899647 0.1317397 0.6969964 0.7048693 0.1317397 -0.6969964 0.7048693 0.06647487 -0.6968174 0.7141615 0.06647487 0.6968174 0.7141615 -0.7041143 -0.6977855 -0.1315998 -0.7132971 -0.6977489 -0.06598263 -0.716252 -0.6978417 0.0001753684 -0.6890038 -0.6976311 0.1964295 0.4210326 -0.7222019 -0.5487768 0.3460495 -0.7220049 -0.5991315 -0.5489173 -0.7220502 -0.4211095 0.179096 -0.7223027 -0.6679846 -0.6681511 -0.7221342 -0.1791544 -0.09001856 -0.7219481 -0.6860668 2.728995e-05 -0.7222056 -0.6916784 -0.5989715 -0.7220668 -0.3461974 -0.1786611 -0.7222693 -0.6681372 -0.4210819 -0.7219573 -0.5490607 -0.3459291 -0.7222077 -0.5989566 -0.4889182 -0.7222808 -0.4891517 -0.2647274 -0.7220938 -0.63914 0.09022672 -0.7220204 -0.6859633 -0.6389327 -0.7221811 -0.2649896 0.2652447 -0.7220829 -0.6389379 -0.6858127 -0.7221515 -0.09032235 -0.6917936 -0.7220953 -5.733073e-05 0.4893379 -0.722173 -0.4888912 -0.6859067 -0.7220935 0.09007248 0.5489856 -0.722018 -0.4210757 -0.6681934 -0.72217 0.1788524 -0.6390989 -0.722142 0.2646952 0.5990307 -0.7222008 -0.3458152 -0.5990632 -0.7221262 0.3459146 -0.5492212 -0.7219442 0.4208952 -0.4891468 -0.722346 0.4888268 0.6392102 -0.7221137 -0.2645035 -0.4212774 -0.7219527 0.5489168 0.6682651 -0.7220689 -0.1789924 0.6858089 -0.7221571 -0.09030635 0.6917186 -0.7221672 0.0001894878 -0.1791283 -0.7220357 0.6682645 0.6858103 -0.722119 0.09060071 -0.09052668 -0.7221445 0.6857932 0.6682716 -0.7220327 0.1791142 0 -0.7221898 0.691695 0.5989345 -0.7222101 0.3459625 0.09032662 -0.7220763 0.6858914 0.2646515 -0.7222377 0.6390088 0.5487414 -0.7220729 0.4213 0.4887835 -0.7222471 0.4893362 0.4209019 -0.7219958 0.5491481 0.3460323 -0.7220665 0.5990673 0.1788166 -0.7220898 0.6682895 0.6391289 -0.7221584 0.264578 -0.2646734 -0.7221803 0.6390647 -0.346121 -0.7222115 0.5988412 0.3459291 0.7222077 -0.5989567 0.4210819 0.7219573 -0.5490607 -0.5489856 0.722018 -0.4210757 0.1786611 0.7222693 -0.6681372 -0.668265 0.7220692 -0.1789914 -0.09022661 0.7220203 -0.6859634 -2.73525e-05 0.7222057 -0.6916784 -0.5990307 0.7222008 -0.3458152 -0.1790958 0.7223028 -0.6679846 -0.421032 0.7222021 -0.548777 -0.3460496 0.7220046 -0.5991319 -0.4893379 0.722173 -0.4888912 -0.265245 0.722083 -0.6389376 0.09001855 0.7219481 -0.6860668 -0.6392102 0.7221137 -0.2645035 0.2647274 0.7220938 -0.63914 -0.6858094 0.7221567 -0.09030547 -0.6917186 0.7221671 0.0001894879 0.4889182 0.7222808 -0.4891517 -0.6858107 0.7221186 0.09059983 0.5489173 0.7220502 -0.4211095 -0.6682715 0.722033 0.1791132 -0.6391288 0.7221585 0.264578 0.5989715 0.7220668 -0.3461974 -0.5989345 0.7222101 0.3459625 -0.5487407 0.7220731 0.4213004 -0.4887838 0.7222466 0.4893366 0.6389327 0.7221811 -0.2649896 -0.4209023 0.721996 0.5491476 0.6681512 0.7221338 -0.1791555 0.6858121 0.7221521 -0.09032224 0.6917939 0.722095 -5.638089e-05 -0.1788166 0.7220898 0.6682895 0.6859067 0.7220934 0.09007249 -0.09032662 0.7220763 0.6858914 0.6681934 0.7221699 0.1788524 3.775015e-17 0.7221898 0.691695 0.5990627 0.7221268 0.3459143 0.09052668 0.7221445 0.6857932 0.2646734 0.7221803 0.6390647 0.5492209 0.7219439 0.4208959 0.4891468 0.722346 0.4888268 0.4212774 0.7219527 0.5489169 0.346121 0.7222115 0.5988412 0.1791283 0.7220357 0.6682645 0.6390995 0.7221417 0.2646945 -0.2646515 0.7222377 0.6390088 -0.3460323 0.7220665 0.5990673</float_array>
          <technique_common>
            <accessor count="459" source="#normals-array-array" stride="3">
              <param type="float" name="X" />
              <param type="float" name="Y" />
              <param type="float" name="Z" />
            </accessor>
          </technique_common>
        </source>
        <vertices id="verts-array-vertices">
          <input semantic="POSITION" source="#verts-array" />
        </vertices>
        <triangles count="918" material="material0">
          <input offset="0" semantic="VERTEX" source="#verts-array-vertices" />
          <input offset="1" semantic="NORMAL" source="#normals-array" />
          <p>0 0 1 1 2 2 3 3 4 4 5 5 6 6 7 7 2 2 2 2 1 1 6 6 8 8 9 9 7 7 8 8 7 7 6 6 10 10 9 9 11 11 9 9 10 10 7 7 12 12 13 13 11 11 10 10 11 11 13 13 14 14 15 15 13 13 13 13 12 12 14 14 15 15 16 16 17 17 16 16 15 15 14 14 17 17 18 18 19 19 16 16 18 18 17 17 20 20 21 21 19 19 17 17 19 19 21 21 20 20 22 22 23 23 23 23 21 21 20 20 0 0 2 2 24 24 25 25 26 26 22 22 23 23 22 22 26 26 25 25 27 27 28 28 28 28 26 26 25 25 27 27 29 29 28 28 27 27 30 30 29 29 24 24 31 31 0 0 32 32 31 31 33 33 24 24 33 33 31 31 33 33 34 34 35 35 35 35 32 32 33 33 36 36 34 34 37 37 34 34 36 36 35 35 37 37 38 38 39 39 36 36 37 37 39 39 38 38 40 40 41 41 40 40 38 38 37 37 42 42 41 41 43 43 40 40 43 43 41 41 44 44 45 45 42 42 42 42 43 43 44 44 45 45 46 46 47 47 46 46 45 45 44 44 48 48 47 47 3 3 46 46 3 3 47 47 49 49 50 50 51 51 52 52 53 53 54 54 55 55 56 56 57 57 58 58 59 59 60 60 61 61 62 62 63 63 64 64 65 65 66 66 67 67 68 68 59 59 69 69 70 70 71 71 72 72 73 73 74 74 75 75 76 76 77 77 78 78 77 77 76 76 75 75 79 79 80 80 80 80 76 76 75 75 81 81 79 79 82 82 79 79 81 81 80 80 29 29 83 83 82 82 81 81 82 82 83 83 30 30 83 83 29 29 61 61 84 84 62 62 77 77 78 78 69 69 64 64 66 66 67 67 69 69 85 85 70 70 78 78 85 85 69 69 70 70 72 72 71 71 73 73 65 65 74 74 71 71 72 72 74 74 74 74 65 65 64 64 67 67 86 86 68 68 66 66 86 86 67 67 59 59 87 87 60 60 87 87 59 59 68 68 61 61 58 58 84 84 84 84 58 58 60 60 52 52 88 88 63 63 63 63 88 88 61 61 54 54 53 53 57 57 54 54 88 88 52 52 89 89 56 56 55 55 56 56 54 54 57 57 89 89 49 49 51 51 49 49 89 89 55 55 4 4 50 50 5 5 4 4 51 51 50 50 5 5 48 48 3 3 90 90 91 91 87 87 92 92 48 48 93 93 90 90 68 68 86 86 87 87 68 68 90 90 66 66 94 94 86 86 90 90 86 86 94 94 66 66 65 65 95 95 95 95 94 94 66 66 95 95 73 73 96 96 73 73 95 95 65 65 97 97 96 96 72 72 73 73 72 72 96 96 85 85 97 97 70 70 97 97 72 72 70 70 85 85 78 78 98 98 98 98 97 97 85 85 99 99 78 78 76 76 78 78 99 99 98 98 80 80 100 100 76 76 99 99 76 76 100 100 100 100 80 80 101 101 91 91 60 60 87 87 102 102 101 101 81 81 80 80 81 81 101 101 83 83 103 103 102 102 102 102 81 81 83 83 30 30 103 103 83 83 104 104 60 60 91 91 62 62 84 84 104 104 104 104 84 84 60 60 105 105 63 63 62 62 62 62 104 104 105 105 63 63 106 106 52 52 106 106 63 63 105 105 53 53 52 52 107 107 106 106 107 107 52 52 107 107 108 108 57 57 57 57 53 53 107 107 55 55 108 108 109 109 108 108 55 55 57 57 110 110 49 49 109 109 55 55 109 109 49 49 110 110 111 111 50 50 50 50 49 49 110 110 5 5 111 111 93 93 111 111 5 5 50 50 5 5 93 93 48 48 112 112 42 42 113 113 114 114 45 45 47 47 36 36 115 115 116 116 41 41 117 117 38 38 118 118 119 119 0 0 118 118 32 32 120 120 11 11 9 9 121 121 8 8 6 6 122 122 18 18 16 16 123 123 12 12 124 124 14 14 20 20 19 19 125 125 126 126 125 125 19 19 127 127 22 22 20 20 20 20 125 125 127 127 22 22 128 128 25 25 128 128 22 22 127 127 27 27 25 25 129 129 128 128 129 129 25 25 103 103 30 30 27 27 27 27 129 129 103 103 126 126 19 19 18 18 32 32 118 118 31 31 130 130 9 9 8 8 14 14 123 123 16 16 18 18 123 123 126 126 12 12 121 121 124 124 14 14 124 124 123 123 130 130 121 121 9 9 12 12 11 11 121 121 1 1 122 122 6 6 8 8 122 122 130 130 119 119 1 1 0 0 1 1 119 119 122 122 31 31 118 118 0 0 116 116 120 120 35 35 35 35 120 120 32 32 115 115 36 36 39 39 116 116 35 35 36 36 38 38 117 117 115 115 115 115 39 39 38 38 41 41 42 42 112 112 117 117 41 41 112 112 113 113 45 45 114 114 113 113 42 42 45 45 48 48 92 92 47 47 92 92 114 114 47 47 128 128 131 131 129 129 132 132 133 133 134 134 135 135 136 136 137 137 138 138 126 126 139 139 138 138 128 128 127 127 102 102 103 103 134 134 140 140 123 123 124 124 123 123 140 140 139 139 103 103 131 131 134 134 141 141 100 100 101 101 142 142 140 140 121 121 124 124 121 121 140 140 134 134 131 131 132 132 99 99 100 100 141 141 130 130 143 143 142 142 142 142 121 121 130 130 133 133 132 132 144 144 122 122 143 143 130 130 98 98 99 99 141 141 126 126 123 123 139 139 125 125 126 126 138 138 138 138 131 131 128 128 138 138 127 127 125 125 129 129 131 131 103 103 145 145 144 144 146 146 135 135 137 137 147 147 148 148 136 136 149 149 150 150 151 151 152 152 153 153 154 154 155 155 156 156 157 157 158 158 159 159 160 160 161 161 162 162 163 163 164 164 165 165 166 166 167 167 168 168 169 169 170 170 171 171 172 172 173 173 174 174 175 175 176 176 177 177 178 178 179 179 180 180 181 181 182 182 183 183 184 184 185 185 186 186 187 187 188 188 189 189 190 190 191 191 192 192 193 193 194 194 107 107 195 195 108 108 192 192 196 196 197 197 198 198 110 110 109 109 199 199 200 200 201 201 110 110 202 202 111 111 202 202 110 110 198 198 203 203 92 92 202 202 202 202 204 204 203 203 203 203 114 114 92 92 202 202 92 92 93 93 113 113 203 203 205 205 203 203 113 113 114 114 205 205 117 117 112 112 113 113 205 205 112 112 117 117 206 206 115 115 206 206 117 117 205 205 207 207 116 116 206 206 115 115 206 206 116 116 120 120 207 207 118 118 120 120 116 116 207 207 119 119 118 118 208 208 207 207 208 208 118 118 143 143 122 122 119 119 119 119 208 208 143 143 93 93 111 111 202 202 209 209 210 210 204 204 204 204 210 210 203 203 211 211 195 195 106 106 209 209 199 199 201 201 209 209 201 201 210 210 200 200 199 199 212 212 109 109 108 108 198 198 196 196 200 200 212 212 108 108 195 195 198 198 195 195 107 107 106 106 196 196 212 212 197 197 197 197 193 193 192 192 213 213 194 194 214 214 214 214 194 194 193 193 211 211 106 106 105 105 213 213 214 214 187 187 215 215 211 211 104 104 105 105 104 104 211 211 91 91 216 216 215 215 215 215 104 104 91 91 187 187 186 186 213 213 90 90 216 216 91 91 186 186 188 188 217 217 189 189 217 217 190 190 188 188 190 190 217 217 180 180 182 182 191 191 191 191 182 182 189 189 185 185 184 184 181 181 180 180 185 185 181 181 183 183 175 175 218 218 184 184 183 183 218 218 176 176 177 177 174 174 175 175 174 174 218 218 178 178 219 219 179 179 176 176 178 178 177 177 168 168 170 170 219 219 179 179 219 219 170 170 173 173 172 172 169 169 168 168 173 173 169 169 171 171 163 163 162 162 172 172 171 171 162 162 164 164 220 220 165 165 164 164 163 163 220 220 166 166 158 158 167 167 220 220 166 166 165 165 157 157 156 156 221 221 167 167 158 158 157 157 161 161 160 160 221 221 221 221 156 156 161 161 159 159 151 151 150 150 160 160 159 159 150 150 152 152 222 222 153 153 152 152 151 151 222 222 154 154 147 147 155 155 222 222 154 154 153 153 135 135 149 149 136 136 155 155 147 147 137 137 146 146 148 148 223 223 223 223 148 148 149 149 144 144 145 145 133 133 146 146 223 223 145 145 98 98 224 224 97 97 96 96 225 225 95 95 96 96 97 97 225 225 226 226 94 94 95 95 94 94 216 216 90 90 226 226 216 216 94 94 225 225 226 226 95 95 225 225 97 97 224 224 141 141 224 224 98 98 141 141 101 101 134 134 134 134 101 101 102 102 150 150 143 143 208 208 140 140 155 155 139 139 155 155 137 137 139 139 153 153 140 140 142 142 148 148 131 131 138 138 136 136 138 138 137 137 131 131 146 146 132 132 144 144 132 132 146 146 136 136 148 148 138 138 148 148 146 146 131 131 153 153 155 155 140 140 137 137 138 138 139 139 152 152 153 153 142 142 150 150 152 152 143 143 142 142 143 143 152 152 207 207 160 160 208 208 208 208 160 160 150 150 207 207 206 206 221 221 221 221 160 160 207 207 157 157 206 206 205 205 206 206 157 157 221 221 203 203 167 167 205 205 157 157 205 205 167 167 165 165 167 167 203 203 165 165 210 210 164 164 210 210 165 165 203 203 162 162 164 164 201 201 210 210 201 201 164 164 200 200 162 162 201 201 172 172 200 200 196 196 200 200 172 172 162 162 192 192 169 169 196 196 172 172 196 196 169 169 213 213 186 186 177 177 192 192 194 194 170 170 184 184 182 182 181 181 174 174 217 217 189 189 189 189 182 182 218 218 184 184 218 218 182 182 186 186 217 217 174 174 189 189 218 218 174 174 179 179 213 213 177 177 177 177 186 186 174 174 194 194 179 179 170 170 179 179 194 194 213 213 170 170 169 169 192 192 159 159 215 215 216 216 225 225 224 224 154 154 154 154 224 224 147 147 222 222 226 226 225 225 149 149 141 141 134 134 135 135 147 147 141 141 134 134 133 133 223 223 145 145 223 223 133 133 135 135 141 141 149 149 149 149 134 134 223 223 222 222 225 225 154 154 147 147 224 224 141 141 151 151 226 226 222 222 159 159 216 216 151 151 226 226 151 151 216 216 211 211 215 215 161 161 215 215 159 159 161 161 211 211 156 156 195 195 156 156 211 211 161 161 158 158 198 198 195 195 195 195 156 156 158 158 202 202 198 198 166 166 158 158 166 166 198 198 220 220 202 202 166 166 220 220 163 163 204 204 204 204 202 202 220 220 171 171 209 209 163 163 204 204 163 163 209 209 199 199 209 209 171 171 173 173 212 212 199 199 199 199 171 171 173 173 197 197 212 212 168 168 173 173 168 168 212 212 214 214 176 176 187 187 197 197 219 219 193 193 185 185 180 180 191 191 175 175 190 190 188 188 190 190 183 183 191 191 185 185 191 191 183 183 187 187 175 175 188 188 190 190 175 175 183 183 178 178 176 176 214 214 176 176 175 175 187 187 193 193 219 219 178 178 178 178 214 214 193 193 219 219 197 197 168 168 227 227 24 24 2 2 228 228 229 229 230 230 33 33 231 231 34 34 67 67 59 59 232 232 88 88 54 54 233 233 234 234 58 58 61 61 235 235 89 89 51 51 56 56 233 233 54 54 236 236 237 237 238 238 51 51 4 4 235 235 239 239 237 237 240 240 237 237 239 239 238 238 241 241 242 242 240 240 239 239 240 240 242 242 241 241 243 243 244 244 244 244 242 242 241 241 245 245 243 243 246 246 243 243 245 245 244 244 247 247 248 248 246 246 245 245 246 246 248 248 247 247 249 249 250 250 250 250 248 248 247 247 251 251 249 249 252 252 249 249 251 251 250 250 253 253 254 254 252 252 251 251 252 252 254 254 253 253 255 255 256 256 256 256 254 254 253 253 257 257 255 255 258 258 255 255 257 257 256 256 259 259 260 260 258 258 257 257 258 258 260 260 259 259 261 261 262 262 262 262 260 260 259 259 261 261 263 263 262 262 67 67 264 264 64 64 265 265 71 71 74 74 74 74 64 64 264 264 77 77 266 266 75 75 265 265 69 69 71 71 266 266 267 267 29 29 75 75 266 266 79 79 268 268 267 267 269 269 268 268 270 270 29 29 271 271 272 272 269 269 268 268 269 269 272 272 271 271 273 273 274 274 274 274 272 272 271 271 275 275 273 273 276 276 273 273 275 275 274 274 277 277 278 278 276 276 275 275 276 276 278 278 277 277 279 279 280 280 280 280 278 278 277 277 281 281 279 279 282 282 279 279 281 281 280 280 283 283 284 284 282 282 281 281 282 282 284 284 283 283 285 285 286 286 286 286 284 284 283 283 287 287 285 285 288 288 285 285 287 287 286 286 289 289 290 290 288 288 287 287 288 288 290 290 289 289 291 291 292 292 292 292 290 290 289 289 293 293 291 291 229 229 291 291 293 293 292 292 294 294 295 295 296 296 293 293 229 229 228 228 297 297 298 298 299 299 300 300 301 301 302 302 303 303 304 304 305 305 306 306 307 307 308 308 309 309 310 310 311 311 312 312 313 313 314 314 315 315 316 316 317 317 318 318 319 319 320 320 321 321 322 322 323 323 324 324 325 325 326 326 327 327 328 328 329 329 330 330 331 331 332 332 333 333 334 334 335 335 336 336 337 337 338 338 339 339 340 340 341 341 342 342 343 343 344 344 345 345 341 341 346 346 340 340 346 346 341 341 347 347 348 348 345 345 345 345 346 346 347 347 348 348 349 349 350 350 349 349 348 348 347 347 351 351 350 350 352 352 349 349 352 352 350 350 353 353 354 354 351 351 351 351 352 352 353 353 354 354 355 355 356 356 355 355 354 354 353 353 357 357 356 356 358 358 355 355 358 358 356 356 263 263 261 261 357 357 357 357 358 358 263 263 343 343 339 339 344 344 343 343 340 340 339 339 333 333 335 335 342 342 333 333 342 342 344 344 334 334 336 336 338 338 334 334 338 338 335 335 337 337 328 328 327 327 336 336 328 328 337 337 330 330 329 329 331 331 327 327 329 329 330 330 322 322 332 332 323 323 332 332 331 331 323 323 326 326 325 325 321 321 325 325 322 322 321 321 315 315 317 317 324 324 315 315 324 324 326 326 316 316 318 318 320 320 316 316 320 320 317 317 319 319 310 310 309 309 318 318 310 310 319 319 312 312 311 311 313 313 309 309 311 311 312 312 304 304 314 314 305 305 314 314 313 313 305 305 308 308 307 307 303 303 307 307 304 304 303 303 297 297 299 299 306 306 297 297 306 306 308 308 298 298 300 300 302 302 298 298 302 302 299 299 301 301 294 294 296 296 300 300 294 294 301 301 230 230 295 295 228 228 296 296 295 295 230 230 268 268 29 29 267 267 79 79 266 266 82 82 266 266 29 29 82 82 270 270 23 23 26 26 21 21 359 359 17 17 266 266 77 77 265 265 15 15 17 17 359 359 265 265 77 77 69 69 10 10 13 13 360 360 265 265 74 74 264 264 13 13 15 15 359 359 2 2 7 7 361 361 264 264 67 67 232 232 7 7 10 10 360 360 58 58 234 234 59 59 234 234 232 232 59 59 227 227 33 33 24 24 88 88 233 233 61 61 233 233 234 234 61 61 231 231 37 37 34 34 43 43 40 40 362 362 233 233 56 56 235 235 40 40 37 37 231 231 44 44 43 43 362 362 235 235 56 56 89 89 238 238 3 3 236 236 4 4 3 3 235 235 235 235 3 3 238 238 46 46 362 362 3 3 362 362 236 236 3 3 362 362 46 46 44 44 231 231 362 362 40 40 231 231 33 33 227 227 227 227 2 2 361 361 360 360 361 361 7 7 359 359 360 360 13 13 359 359 21 21 270 270 270 270 21 21 23 23 29 29 270 270 28 28 270 270 26 26 28 28 249 249 363 363 364 364 365 365 344 344 339 339 366 366 255 255 253 253 329 329 328 328 367 367 368 368 357 357 369 369 333 333 370 370 334 334 356 356 371 371 354 354 372 372 341 341 345 345 348 348 372 372 345 345 373 373 348 348 350 350 339 339 341 341 374 374 350 350 351 351 375 375 368 368 356 356 357 357 375 375 351 351 354 354 333 333 365 365 370 370 259 259 369 369 261 261 376 376 259 259 258 258 377 377 336 336 334 334 366 366 258 258 255 255 252 252 378 378 253 253 367 367 328 328 336 336 379 379 331 331 329 329 252 252 249 249 364 364 363 363 247 247 246 246 323 323 331 331 380 380 246 246 243 243 381 381 380 380 382 382 321 321 241 241 383 383 243 243 315 315 326 326 384 384 240 240 383 383 241 241 384 384 385 385 316 316 237 237 386 386 240 240 318 318 385 385 387 387 388 388 311 311 310 310 389 389 313 313 388 388 237 237 236 236 390 390 305 305 391 391 303 303 390 390 236 236 392 392 231 231 227 227 393 393 362 362 231 231 392 392 394 394 393 393 227 227 360 360 394 394 361 361 300 300 298 298 395 395 396 396 360 360 359 359 395 395 397 397 294 294 359 359 270 270 398 398 399 399 228 228 295 295 272 272 274 274 400 400 293 293 399 399 401 401 402 402 286 286 287 287 274 274 403 403 400 400 280 280 404 404 278 278 326 326 321 321 382 382 284 284 405 405 281 281 402 402 406 406 286 286 406 406 405 405 284 284 286 286 406 406 284 284 402 402 290 290 407 407 402 402 287 287 290 290 275 275 278 278 403 403 407 407 290 290 292 292 292 292 293 293 401 401 401 401 407 407 292 292 398 398 270 270 268 268 268 268 272 272 408 408 293 293 228 228 399 399 409 409 298 298 297 297 391 391 410 410 308 308 405 405 404 404 280 280 405 405 280 280 281 281 404 404 403 403 278 278 275 275 403 403 274 274 400 400 408 408 272 272 408 408 398 398 268 268 398 398 396 396 359 359 396 396 394 394 360 360 361 361 394 394 227 227 393 393 392 392 231 231 362 362 392 392 236 236 390 390 386 386 237 237 386 386 383 383 240 240 383 383 381 381 243 243 381 381 363 363 246 246 247 247 363 363 249 249 364 364 378 378 252 252 378 378 366 366 253 253 366 366 376 376 258 258 376 376 369 369 259 259 261 261 369 369 357 357 368 368 371 371 356 356 371 371 375 375 354 354 375 375 373 373 350 350 373 373 372 372 348 348 372 372 374 374 341 341 374 374 365 365 339 339 344 344 365 365 333 333 370 370 377 377 334 334 377 377 367 367 336 336 367 367 379 379 329 329 379 379 380 380 331 331 323 323 380 380 321 321 315 315 384 384 316 316 382 382 384 384 326 326 316 316 385 385 318 318 318 318 387 387 310 310 313 313 311 311 388 388 310 310 387 387 388 388 305 305 313 313 389 389 391 391 308 308 303 303 391 391 305 305 389 389 410 410 297 297 308 308 409 409 395 395 298 298 410 410 409 409 297 297 300 300 395 395 294 294 294 294 397 397 295 295 399 399 295 295 397 397 251 251 411 411 412 412 413 413 343 343 342 342 414 414 256 256 257 257 330 330 415 415 327 327 416 416 417 417 358 358 335 335 338 338 418 418 355 355 353 353 419 419 420 420 346 346 340 340 347 347 346 346 420 420 421 421 349 349 347 347 343 343 422 422 340 340 349 349 423 423 352 352 416 416 358 358 355 355 423 423 353 353 352 352 335 335 418 418 413 413 262 262 263 263 417 417 424 424 260 260 262 262 425 425 338 338 337 337 414 414 257 257 260 260 254 254 256 256 426 426 415 415 337 337 327 327 427 427 330 330 332 332 254 254 411 411 251 251 412 412 248 248 250 250 322 322 428 428 332 332 248 248 429 429 245 245 428 428 325 325 430 430 244 244 245 245 431 431 317 317 432 432 324 324 242 242 244 244 431 431 432 432 320 320 433 433 239 239 242 242 434 434 319 319 435 435 433 433 436 436 309 309 312 312 437 437 436 436 314 314 239 239 438 438 238 238 304 304 307 307 439 439 438 438 440 440 238 238 233 233 441 441 234 234 235 235 440 440 233 233 442 442 234 234 441 441 264 264 232 232 442 442 301 301 443 443 302 302 444 444 265 265 264 264 443 443 296 296 445 445 265 265 446 446 266 266 447 447 230 230 229 229 269 269 448 448 271 271 291 291 449 449 447 447 450 450 285 285 283 283 271 271 448 448 451 451 277 277 276 276 452 452 324 324 430 430 325 325 282 282 279 279 453 453 450 450 283 283 454 454 454 454 282 282 453 453 283 283 282 282 454 454 450 450 455 455 288 288 450 450 288 288 285 285 273 273 451 451 276 276 455 455 289 289 288 288 289 289 449 449 291 291 449 449 289 289 455 455 446 446 267 267 266 266 267 267 456 456 269 269 291 291 447 447 229 229 457 457 299 299 302 302 439 439 306 306 458 458 453 453 277 277 452 452 453 453 279 279 277 277 452 452 276 276 451 451 273 273 271 271 451 451 448 448 269 269 456 456 456 456 267 267 446 446 446 446 265 265 444 444 444 444 264 264 442 442 232 232 234 234 442 442 441 441 233 233 440 440 235 235 238 238 440 440 438 438 239 239 434 434 434 434 242 242 431 431 431 431 245 245 429 429 429 429 248 248 412 412 250 250 251 251 412 412 411 411 254 254 426 426 426 426 256 256 414 414 414 414 260 260 424 424 424 424 262 262 417 417 263 263 358 358 417 417 416 416 355 355 419 419 419 419 353 353 423 423 423 423 349 349 421 421 421 421 347 347 420 420 420 420 340 340 422 422 422 422 343 343 413 413 342 342 335 335 413 413 418 418 338 338 425 425 425 425 337 337 415 415 415 415 330 330 427 427 427 427 332 332 428 428 322 322 325 325 428 428 317 317 320 320 432 432 430 430 324 324 432 432 320 320 319 319 433 433 319 319 309 309 435 435 314 314 436 436 312 312 309 309 436 436 435 435 304 304 437 437 314 314 439 439 307 307 306 306 439 439 437 437 304 304 458 458 306 306 299 299 457 457 302 302 443 443 458 458 299 299 457 457 301 301 296 296 443 443 296 296 230 230 445 445 447 447 445 445 230 230 445 445 447 447 399 399 458 458 457 457 409 409 443 443 397 397 395 395 389 389 436 436 437 437 410 410 391 391 439 439 433 433 385 385 432 432 435 435 388 388 387 387 427 427 428 428 380 380 382 382 430 430 384 384 377 377 418 418 425 425 379 379 367 367 415 415 422 422 374 374 420 420 413 413 370 370 365 365 419 419 423 423 375 375 373 373 421 421 372 372 369 369 424 424 417 417 371 371 368 368 416 416 426 426 378 378 411 411 414 414 376 376 366 366 431 431 429 429 381 381 363 363 412 412 364 364 390 390 440 440 438 438 383 383 386 386 434 434 442 442 394 394 444 444 441 441 392 392 393 393 396 396 446 446 444 444 444 444 394 394 396 396 456 456 446 446 398 398 396 396 398 398 446 446 456 456 408 408 448 448 408 408 456 456 398 398 400 400 451 451 448 448 448 448 408 408 400 400 452 452 451 451 403 403 400 400 403 403 451 451 452 452 404 404 453 453 404 404 452 452 403 403 405 405 454 454 453 453 453 453 404 404 405 405 450 450 454 454 406 406 405 405 406 406 454 454 450 450 402 402 455 455 402 402 450 450 406 406 407 407 449 449 455 455 455 455 402 402 407 407 447 447 449 449 401 401 407 407 401 401 449 449 399 399 447 447 401 401 441 441 393 393 442 442 442 442 393 393 394 394 390 390 392 392 440 440 440 440 392 392 441 441 386 386 438 438 434 434 386 386 390 390 438 438 383 383 431 431 381 381 383 383 434 434 431 431 429 429 412 412 363 363 381 381 429 429 363 363 411 411 378 378 364 364 412 412 411 411 364 364 414 414 366 366 426 426 426 426 366 366 378 378 369 369 376 376 424 424 424 424 376 376 414 414 368 368 417 417 416 416 368 368 369 369 417 417 371 371 419 419 375 375 371 371 416 416 419 419 423 423 421 421 373 373 375 375 423 423 373 373 420 420 374 374 372 372 421 421 420 420 372 372 413 413 365 365 422 422 422 422 365 365 374 374 377 377 370 370 418 418 418 418 370 370 413 413 367 367 425 425 415 415 367 367 377 377 425 425 379 379 427 427 380 380 379 379 415 415 427 427 428 428 430 430 382 382 380 380 428 428 382 382 432 432 385 385 384 384 430 430 432 432 384 384 435 435 387 387 433 433 433 433 387 387 385 385 389 389 388 388 436 436 436 436 388 388 435 435 391 391 437 437 439 439 391 391 389 389 437 437 410 410 458 458 409 409 410 410 439 439 458 458 457 457 443 443 395 395 409 409 457 457 395 395 445 445 399 399 397 397 443 443 445 445 397 397</p>
        </triangles>
      </mesh>
    </geometry>
  </library_geometries>
  <library_materials>
    <material id="bef754dae9e3421ea31c75f135427abe" name="defaultmaterial">
      <instance_effect url="#373eae0cc64a4689aa22c803e4b4d769" />
    </material>
  </library_materials>
  <library_visual_scenes>
    <visual_scene id="scene">
      <node id="node0" name="node0">
        <instance_geometry url="#db00b41d56814b7c91f420d5899b41af">
          <bind_material>
            <technique_common>
              <instance_material symbol="material0" target="#bef754dae9e3421ea31c75f135427abe" />
            </technique_common>
          </bind_material>
        </instance_geometry>
      </node>
    </visual_scene>
  </library_visual_scenes>
  <scene>
    <instance_visual_scene url="#scene" />
  </scene>
</COLLADA>