<COLLADA xmlns="http://www.collada.org/2005/11/COLLADASchema" version="1.4.1">
  <asset>
    <created>2026-02-10T22:53:39.119031</created>
    <modified>2026-02-10T22:53:39.119039</modified>
    <up_axis>Y_UP</up_axis>
  </asset>
  <library_effects>
    <effect id="7364b7e8171a42599fb7d0bfd3ea3ed3" name="7364b7e8171a42599fb7d0bfd3ea3ed3">
      <profile_COMMON>
        <technique sid="common">
          <phong>
            <emission>
              <color>0.0 0.0 0.0 1.0</color>
            </emission>
            <ambient>
              <color>0.300000 0.300000 0.300000 1.0</color>
            </ambient>
            <diffuse>
              <color>1.000000 1.000000 1.000000 1.0</color>
            </diffuse>
            <specular>
              <color>0.196000 0.196000 0.196000 1.0</color>
            </specular>
            <shininess>
              <float>20.0</float>
            </shininess>
            <reflective>
              <color>0.0 0.0 0.0 1.0</color>
            </reflective>
            <reflectivity>
              <float>0.0</float>
            </reflectivity>
            <transparent>
              <color>0.0 0.0 0.0 1.0</color>
            </transparent>
            <transparency>
              <float>1.0</float>
            </transparency>
          </phong>
        </technique>
        <extra>
          <technique profile="GOOGLEEARTH">
            <double_sided>0</double_sided>
          </technique>
        </extra>
      </profile_COMMON>
    </effect>
  </library_effects>
  <library_geometries>
    <geometry id="3fd320b39b284c4fb7850d9f71d86d8d" name="45c1cfbbb59d4600bd9280afc0c63ec7">
      <mesh>
        <source id="verts-array">
          <float_array count="1125" id="verts-array-array">0.007 0.000254418 -0.00298919 0.0974477 0.000497234 -0.00295849 0.0974605 3.31633e-07 -0.00299965 0.007 0.000755934 -0.0029032 0.0974105 0.000978329 -0.00283572 0.0973538 0.00143161 -0.00263638 0.007 0.0012357 -0.00273369 0.007 0.00167992 -0.00248553 0.0972839 0.00184406 -0.00236603 0.007 0.00207582 -0.00216587 0.0972087 0.00220659 -0.00203248 0.097136 0.00250944 -0.00164351 0.007 0.00241199 -0.0017839 0.007 0.00267878 -0.00135061 0.0970733 0.00274567 -0.00120883 0.007 0.0028685 -0.000878468 0.0970274 0.00290702 -0.000739739 0.0970031 0.00298968 -0.000248289 0.007 0.0029757 -0.000381053 0.007 0.0029973 0.000127324 0.0970031 0.00298929 0.000249629 0.007 0.00293267 0.000632038 0.0970275 0.00290704 0.00074096 0.0970734 0.00274512 0.00120951 0.007 0.00278367 0.00111857 0.007 0.00255459 0.00157292 0.0971361 0.00250931 0.00164418 0.007 0.00225202 0.00198202 0.0972088 0.00220616 0.00203261 0.0972841 0.00184378 0.00236652 0.007 0.00188466 0.00233411 0.007 0.00146308 0.00261904 0.0973538 0.00143088 0.00263644 0.007 0.000999419 0.00282863 0.0974107 0.00097737 0.0028363 0.0974476 0.000496224 0.00295842 0.007 0.000507002 0.00295685 0.007 -7.34788e-19 0.003 0.0974606 1.06581e-17 0.003 0.007 -0.000254418 -0.00298919 0.0974477 -0.000495888 -0.00295872 0.007 -0.000755934 -0.0029032 0.0974105 -0.000977869 -0.00283579 0.007 -0.0012357 -0.00273369 0.007 -0.00167992 -0.00248553 0.0973538 -0.0014312 -0.0026366 0.097284 -0.00184395 -0.00236609 0.007 -0.00207582 -0.00216587 0.0972087 -0.00220654 -0.00203253 0.007 -0.00241199 -0.0017839 0.007 -0.00267878 -0.00135061 0.097136 -0.00250938 -0.00164368 0.0970734 -0.00274539 -0.00120948 0.007 -0.0028685 -0.000878468 0.0970274 -0.00290695 -0.000740253 0.007 -0.0029757 -0.000381053 0.007 -0.0029973 0.000127324 0.0970031 -0.00298958 -0.000249707 0.0970031 -0.00298931 0.000248992 0.007 -0.00293267 0.000632038 0.0970274 -0.00290733 0.000739874 0.007 -0.00278367 0.00111857 0.007 -0.00255459 0.00157292 0.0970734 -0.00274519 0.00120915 0.0971361 -0.00250946 0.00164396 0.007 -0.00225202 0.00198202 0.0972087 -0.00220622 0.00203254 0.007 -0.00188466 0.00233411 0.007 -0.00146308 0.00261904 0.097284 -0.0018439 0.00236644 0.0973538 -0.00143109 0.00263638 0.007 -0.000999419 0.00282863 0.0974106 -0.000978129 0.00283606 0.007 -0.000507002 0.00295685 0.0974476 -0.000496435 0.0029583 0 0.00895024 -0.00445966 0 0.009324 -0.00361412 -1.69309e-18 1.22465e-18 -0.01 0 0.00961752 -0.00273848 0 0.00982917 -0.00183989 0 0.00999983 -2.81569e-06 0 0.00995717 -0.000923474 0 0.00995738 0.000922244 0 0.00983004 0.00183464 0 0.00961858 0.00273539 0 0.00895247 0.00445554 0 0.00932542 0.00360997 0 0.00850293 0.00526275 0 0.00798162 0.00602422 0 0.00739033 0.00673661 0 0.00673894 0.00738802 0 0.00602687 0.00797977 0 0.0052666 0.00850049 0 0.00445869 0.00895094 0 0.00361455 0.00932365 0 0.0027387 0.00961758 0 0.0018389 0.00982931 0 0.000925328 0.00995695 -2.21337e-18 0 0.01 0 0.00850158 -0.00526523 0 0.00797827 -0.00602852 0 0.00738994 -0.00673712 0 0.00673481 -0.00739182 0 0.00526229 -0.00850331 0 0.00602535 -0.00798076 0 0.00445532 -0.00895242 0 0.00361084 -0.00932528 0 0.00183663 -0.00982988 0 0.00273392 -0.00961879 0 0.000925328 -0.00995695 0 -0.00445869 -0.00895094 0 -0.0027387 -0.00961758 0 -0.0018389 -0.00982931 0 -0.00850293 -0.00526275 0 -0.00895247 -0.00445554 0 -0.00673894 -0.00738802 0 -0.00739033 -0.00673661 0 -0.00995717 0.000923474 0 -0.00999983 2.81569e-06 0 -0.00983004 -0.00183464 0 -0.00961858 -0.00273539 0 -0.00797827 0.00602852 0 -0.00961752 0.00273848 0 -0.009324 0.00361412 0 -0.00526229 0.00850331 0 -0.00445532 0.00895242 0 -0.00602535 0.00798076 0 -0.00673481 0.00739182 0 -0.00361084 0.00932528 0 -0.00273392 0.00961879 0 -0.000925328 0.00995695 0 -0.00183663 0.00982988 0 -0.00738994 0.00673712 0 -0.00850158 0.00526523 0 -0.00895024 0.00445966 0 -0.00982917 0.00183989 0 -0.00995738 -0.000922244 0 -0.00932542 -0.00360997 0 -0.00798162 -0.00602422 0 -0.00602687 -0.00797977 0 -0.0052666 -0.00850049 0 -0.00361455 -0.00932365 0 -0.000925328 -0.00995695 0.117 -0.006 -2.81569e-06 0.117 0.006 -2.81569e-06 0.116957 0.006 0.000922244 0.106075 -0.006 -0.00995695 0.107 0.006 -0.01 0.107 -0.006 -0.01 0.11683 0.006 0.00183464 0.116957 -0.006 0.000922244 0.116619 0.006 0.00273539 0.11683 -0.006 0.00183464 0.116619 -0.006 0.00273539 0.116325 0.006 0.00360997 0.115952 0.006 0.00445554 0.116325 -0.006 0.00360997 0.115503 0.006 0.00526275 0.115952 -0.006 0.00445554 0.115503 -0.006 0.00526275 0.114982 0.006 0.00602422 0.11439 0.006 0.00673661 0.114982 -0.006 0.00602422 0.113739 0.006 0.00738802 0.11439 -0.006 0.00673661 0.113739 -0.006 0.00738802 0.113027 0.006 0.00797977 0.112267 0.006 0.00850049 0.113027 -0.006 0.00797977 0.111459 0.006 0.00895094 0.112267 -0.006 0.00850049 0.111459 -0.006 0.00895094 0.110615 0.006 0.00932365 0.109739 0.006 0.00961758 0.110615 -0.006 0.00932365 0.108839 0.006 0.00982931 0.109739 -0.006 0.00961758 0.108839 -0.006 0.00982931 0.107925 0.006 0.00995695 0.107 0.006 0.01 0.107925 -0.006 0.00995695 0.107 -0.006 0.01 0.116957 -0.006 -0.000923474 0.116957 0.006 -0.000923474 0.116829 -0.006 -0.00183989 0.116618 -0.006 -0.00273848 0.116829 0.006 -0.00183989 0.116324 -0.006 -0.00361412 0.116618 0.006 -0.00273848 0.116324 0.006 -0.00361412 0.11595 -0.006 -0.00445966 0.115502 -0.006 -0.00526523 0.11595 0.006 -0.00445966 0.114978 -0.006 -0.00602852 0.115502 0.006 -0.00526523 0.114978 0.006 -0.00602852 0.11439 -0.006 -0.00673712 0.113735 -0.006 -0.00739182 0.11439 0.006 -0.00673712 0.113025 -0.006 -0.00798076 0.113735 0.006 -0.00739182 0.113025 0.006 -0.00798076 0.112262 -0.006 -0.00850331 0.111455 -0.006 -0.00895242 0.112262 0.006 -0.00850331 0.110611 -0.006 -0.00932528 0.111455 0.006 -0.00895242 0.110611 0.006 -0.00932528 0.109734 -0.006 -0.00961879 0.108837 -0.006 -0.00982988 0.109734 0.006 -0.00961879 0.107925 -0.006 -0.00995695 0.108837 0.006 -0.00982988 0.107925 0.006 -0.00995695 0.103385 -0.006 -0.00932365 0.104261 0.006 -0.00961758 0.104261 -0.006 -0.00961758 0.105161 -0.006 -0.00982931 0.105161 0.006 -0.00982931 0.106075 0.006 -0.00995695 0.101733 0.006 -0.00850049 0.101733 -0.006 -0.00850049 0.100973 -0.006 -0.00797977 0.103385 0.006 -0.00932365 0.102541 -0.006 -0.00895094 0.102541 0.006 -0.00895094 0.0996097 -0.006 -0.00673661 0.0990184 -0.006 -0.00602422 0.0996097 0.006 -0.00673661 0.100261 -0.006 -0.00738802 0.100261 0.006 -0.00738802 0.100973 0.006 -0.00797977 0.0976746 -0.006 -0.00360997 0.0980475 0.006 -0.00445554 0.0980475 -0.006 -0.00445554 0.0984971 0.006 -0.00526275 0.0990184 0.006 -0.00602422 0.0984971 -0.006 -0.00526275 0.0970426 -0.006 -0.000922244 0.0973814 -0.006 -0.00273539 0.0971708 -0.006 0.00183989 0.0970426 0.006 -0.000922244 0.0980498 -0.006 0.00445966 0.097676 0.006 0.00361412 0.097676 -0.006 0.00361412 0.0973825 -0.006 0.00273848 0.0990217 0.006 0.00602852 0.0990217 -0.006 0.00602852 0.0996101 -0.006 0.00673712 0.0980498 0.006 0.00445966 0.0984984 -0.006 0.00526523 0.0984984 0.006 0.00526523 0.100265 0.006 0.00739182 0.100265 -0.006 0.00739182 0.100975 -0.006 0.00798076 0.0996101 0.006 0.00673712 0.101738 -0.006 0.00850331 0.100975 0.006 0.00798076 0.102545 -0.006 0.00895242 0.101738 0.006 0.00850331 0.102545 0.006 0.00895242 0.103389 -0.006 0.00932528 0.104266 -0.006 0.00961879 0.103389 0.006 0.00932528 0.105163 -0.006 0.00982988 0.104266 0.006 0.00961879 0.105163 0.006 0.00982988 0.106075 -0.006 0.00995695 0.106075 0.006 0.00995695 0.0973825 0.006 0.00273848 0.0970428 -0.006 0.000923474 0.09717 0.006 -0.00183464 0.0970002 -0.006 2.81569e-06 0.09717 -0.006 -0.00183464 0.0976746 0.006 -0.00360997 0.0971708 0.006 0.00183989 0.0970428 0.006 0.000923474 0.0970002 0.006 2.81569e-06 0.0973814 0.006 -0.00273539 0.103955 -0.006 0.00396574 0.104499 -0.006 0.00432936 0.110966 -0.006 0.00304433 0.105706 -0.006 0.00482951 0.111829 -0.006 0.00129487 0.107652 -0.006 0.00495732 0.106998 -0.006 0.0049999 0.111329 -0.006 0.00250124 0.108294 -0.006 0.00482967 0.110043 -0.006 0.00396749 0.109499 -0.006 0.00433081 0.110535 -0.006 0.00353588 0.108912 -0.006 0.00461972 0.106346 -0.006 0.00495692 0.111619 -0.006 0.00191472 0.105086 -0.006 0.0046191 0.111957 -0.006 0.00065279 0.112 -0.006 1.33061e-06 0.103464 -0.006 0.00353488 0.111957 -0.006 -0.000651088 0.103033 -0.006 0.00304347 0.11183 -0.006 -0.00129304 0.111619 -0.006 -0.00191318 0.102669 -0.006 0.00249893 0.111331 -0.006 -0.00249905 0.110968 -0.006 -0.0030425 0.110536 -0.006 -0.00353456 0.10238 -0.006 0.00191193 0.110044 -0.006 -0.0039664 0.10217 -0.006 0.00129291 0.102043 -0.006 0.000652547 0.102 -0.006 -9.54561e-07 0.108295 -0.006 -0.00482917 0.102043 -0.006 -0.000654107 0.107654 -0.006 -0.00495708 0.102171 -0.006 -0.00129544 0.107 -0.006 -0.005 0.10267 -0.006 -0.00250056 0.106346 -0.006 -0.00495708 0.105088 -0.006 -0.00461979 0.103034 -0.006 -0.00304484 0.103466 -0.006 -0.00353654 0.103957 -0.006 -0.00396725 0.1045 -0.006 -0.00433029 0.105707 -0.006 -0.00482993 0.102381 -0.006 -0.00191382 0.108915 -0.006 -0.00461872 0.1095 -0.006 -0.00432977 0.104501 0.006 0.00433081 0.103957 0.006 0.00396749 0.110967 0.006 0.00304347 0.105706 0.006 0.00482967 0.11183 0.006 0.00129291 0.107654 0.006 0.00495692 0.107002 0.006 0.0049999 0.111331 0.006 0.00249893 0.108294 0.006 0.00482951 0.110045 0.006 0.00396574 0.109501 0.006 0.00432936 0.110536 0.006 0.00353488 0.108914 0.006 0.0046191 0.106348 0.006 0.00495732 0.11162 0.006 0.00191193 0.105088 0.006 0.00461972 0.111957 0.006 0.000652547 0.112 0.006 -9.54561e-07 0.103465 0.006 0.00353588 0.111957 0.006 -0.000654107 0.103034 0.006 0.00304433 0.111829 0.006 -0.00129544 0.111619 0.006 -0.00191382 0.102671 0.006 0.00250124 0.11133 0.006 -0.00250056 0.110966 0.006 -0.00304484 0.110534 0.006 -0.00353654 0.102381 0.006 0.00191472 0.110043 0.006 -0.00396725 0.102171 0.006 0.00129487 0.102043 0.006 0.00065279 0.102 0.006 1.33061e-06 0.108293 0.006 -0.00482993 0.102043 0.006 -0.000651088 0.107654 0.006 -0.00495708 0.10217 0.006 -0.00129304 0.107 0.006 -0.005 0.102669 0.006 -0.00249905 0.106346 0.006 -0.00495708 0.105085 0.006 -0.00461872 0.103032 0.006 -0.0030425 0.103464 0.006 -0.00353456 0.103956 0.006 -0.0039664 0.1045 0.006 -0.00432977 0.105705 0.006 -0.00482917 0.102381 0.006 -0.00191318 0.108912 0.006 -0.00461979 0.1095 0.006 -0.00433029</float_array>
          <technique_common>
            <accessor count="375" source="#verts-array-array" stride="3">
              <param type="float" name="X" />
              <param type="float" name="Y" />
              <param type="float" name="Z" />
            </accessor>
          </technique_common>
        </source>
        <source id="normals-array">
          <float_array count="1125" id="normals-array-array">0.3912783 0.0780557 -0.9169562 -0.6107098 0.09775823 -0.7857969 -0.6000849 0.0001018776 -0.7999363 0.3912112 0.2319347 -0.8905953 -0.6200497 0.1945459 -0.7600594 -0.6314013 0.2898318 -0.7192565 0.3910775 0.3791648 -0.8386253 0.3908746 0.5155098 -0.7625396 -0.6451314 0.3831649 -0.6610523 0.3909989 0.6366973 -0.6646325 -0.6622454 0.4706366 -0.5830371 -0.6813728 0.5500048 -0.4829345 0.3912752 0.7398876 -0.5472386 0.3912892 0.8217354 -0.414299 -0.6982075 0.6161629 -0.3644854 0.3912347 0.8799645 -0.2694398 -0.7121087 0.6647374 -0.2258879 -0.7196134 0.6900215 -0.07763233 0.3911128 0.9128969 -0.1168337 0.3909247 0.9195893 0.03915814 -0.7192998 0.6903058 0.07801123 0.3910265 0.899762 0.193718 -0.712354 0.6643677 0.2262021 -0.6979381 0.6163053 0.3647603 0.3912797 0.8539178 0.3431101 0.3913051 0.7836246 0.4825068 -0.6815608 0.5496558 0.4830666 0.3912638 0.690804 0.6080316 -0.6620712 0.4706735 0.5832051 -0.645457 0.3828262 0.6609306 0.3911581 0.5781116 0.7160882 0.3909824 0.448786 0.8035695 -0.6310413 0.2898861 0.7195505 0.3910659 0.3067695 0.8677326 -0.6206466 0.1942928 0.7596368 -0.6091224 0.09772564 0.7870322 0.3912969 0.1555543 0.9070224 0.3913322 -1.897523e-07 0.9202495 -0.6004773 -5.992963e-05 0.7996418 0.3912754 -0.07805815 -0.9169572 -0.6093483 -0.0975989 -0.786873 0.390975 -0.2321485 -0.8906434 -0.6201656 -0.1944417 -0.7599915 0.3908365 -0.3790418 -0.8387933 0.3910486 -0.5153178 -0.7625802 -0.6313478 -0.2897262 -0.719346 -0.6452825 -0.3831413 -0.6609185 0.3911966 -0.6367605 -0.6644556 -0.6621351 -0.470584 -0.5832047 0.391272 -0.7398895 -0.5472383 0.3912833 -0.8217382 -0.4142991 -0.6813567 -0.5499664 -0.4830011 -0.6981874 -0.6161069 -0.3646185 0.3912273 -0.8799676 -0.2694406 -0.7120794 -0.6646715 -0.226174 0.3910569 -0.9129256 -0.1167957 0.3910297 -0.9195524 0.03897583 -0.7195972 -0.6900152 -0.07783892 -0.7193045 -0.6903324 0.07773204 0.3911862 -0.8996666 0.1938386 -0.712375 -0.6644049 0.2260265 0.3912763 -0.853919 0.3431111 0.3913013 -0.7836261 0.4825075 -0.6979337 -0.6163713 0.3646573 -0.681683 -0.5497039 0.4828393 0.3912601 -0.6908053 0.6080325 -0.6620652 -0.4707462 0.5831532 0.3910678 -0.5780782 0.7161645 0.3910169 -0.4489369 0.8034684 -0.6453374 -0.3828678 0.6610234 -0.6311367 -0.2899464 0.7194425 0.3911901 -0.3066514 0.8677184 -0.6204431 -0.1942928 0.759803 0.3912972 -0.1555546 0.9070222 -0.6097895 -0.09778605 0.7865079 -0.3734518 0.8303363 -0.4136126 -0.3733857 0.8649278 -0.3353848 -0.3733719 9.448238e-16 -0.9276817 -0.3734164 0.8922489 -0.2538743 -0.3733819 0.9118062 -0.1708666 -0.3733713 0.9276818 -0.0004932028 -0.3733375 0.9237521 -0.08544675 -0.3732388 0.9237521 0.08587689 -0.3733271 0.9120048 0.1699239 -0.3733665 0.8922815 0.253833 -0.3733963 0.8304993 0.4133354 -0.3734434 0.8651097 0.334851 -0.3734272 0.7887866 0.4882293 -0.373421 0.7404698 0.5588034 -0.373368 0.685546 0.6249984 -0.3734376 0.6252176 0.6853082 -0.3733067 0.5589738 0.7403988 -0.373406 0.4887245 0.7884899 -0.3732498 0.4133527 0.8305565 -0.373332 0.3356291 0.8648562 -0.3733787 0.2539424 0.8922453 -0.3734064 0.170724 0.9118229 -0.3734346 0.08577619 0.9236823 -0.3733453 -1.516034e-15 0.9276924 -0.3733861 0.7886489 -0.4884832 -0.3734484 0.7401395 -0.5592225 -0.3733746 0.685565 -0.6249736 -0.3732829 0.6245354 -0.6860142 -0.3733176 0.4879252 -0.7890266 -0.3732719 0.5593023 -0.7401682 -0.3733723 0.4136178 -0.8303695 -0.3733496 0.3347507 -0.865189 -0.373406 0.1703561 -0.9118918 -0.3734297 0.2538729 -0.8922437 -0.3734368 0.08576656 -0.9236823 -0.3732835 -0.4139697 -0.830234 -0.3732242 -0.2545056 -0.8921494 -0.3734309 -0.1705026 -0.9118543 -0.3734507 -0.7887966 -0.4881952 -0.3733705 -0.830543 -0.4132709 -0.3734128 -0.6249543 -0.6855618 -0.3733943 -0.6857107 -0.624802 -0.3733664 -0.9236931 0.08595666 -0.3733421 -0.9276937 -0.0001292613 -0.373443 -0.9118536 -0.1704795 -0.3733389 -0.8923735 -0.25355 -0.3734713 -0.7402224 0.5590975 -0.373441 -0.8921594 0.2541524 -0.3733594 -0.865003 0.3352201 -0.3732855 -0.488492 0.788691 -0.3733998 -0.413121 0.8306044 -0.3733054 -0.5586792 0.7406218 -0.3734179 -0.6249214 0.685589 -0.3733205 -0.3351639 0.8650416 -0.3734537 -0.2535542 0.8923243 -0.37346 -0.0856539 0.9236834 -0.3733806 -0.1705752 0.9118613 -0.3733476 -0.685398 0.6251728 -0.37336 -0.788637 0.4885222 -0.3734744 -0.8302965 0.4136721 -0.3733547 -0.9118908 0.1704743 -0.3732731 -0.923806 -0.08514515 -0.3734664 -0.8650336 -0.3350219 -0.3733961 -0.7403914 -0.558924 -0.3733364 -0.5593464 -0.7401024 -0.3733784 -0.4882321 -0.788808 -0.3732994 -0.3348818 -0.8651599 -0.3734103 -0.08589088 -0.9236815 0.717285 -0.6967799 -7.95202e-05 0.717285 0.6967799 -7.95202e-05 0.714094 0.696917 0.06615458 -0.06633836 -0.6968749 -0.7141181 1.341495e-07 0.6967912 -0.717274 1.341495e-07 -0.6967912 -0.717274 0.7050121 0.6969245 0.1313554 0.714094 -0.696917 0.06615458 0.6900134 0.6966623 0.1963241 0.7050121 -0.6969245 0.1313554 0.6900134 -0.6966623 0.1963241 0.6685838 0.6969945 0.2592187 0.6421467 0.6968827 0.3193778 0.6685838 -0.6969945 0.2592187 0.6099994 0.6968558 0.3772171 0.6421467 -0.6968827 0.3193778 0.6099994 -0.6968558 0.3772171 0.5724645 0.6967575 0.4322192 0.5299581 0.6969323 0.4831458 0.5724645 -0.6967575 0.4322192 0.4833684 0.6968705 0.5298362 0.5299581 -0.6969323 0.4831458 0.4833684 -0.6968705 0.5298362 0.4323862 0.6968224 0.5722593 0.3776908 0.6968883 0.6096691 0.4323862 -0.6968224 0.5722593 0.3198381 0.6968223 0.6419831 0.3776908 -0.6968883 0.6096691 0.3198381 -0.6968223 0.6419831 0.2592013 0.6968894 0.6687001 0.1964149 0.6968278 0.6898204 0.2592013 -0.6968894 0.6687001 0.1318581 0.696869 0.7049731 0.1964149 -0.6968278 0.6898204 0.1318581 -0.696869 0.7049731 0.06633849 0.6968749 0.714118 1.341495e-07 0.6967912 0.717274 0.06633849 -0.6968749 0.714118 1.341495e-07 -0.6967912 0.717274 0.7140973 -0.6968899 -0.06640389 0.7140973 0.6968899 -0.06640389 0.7049528 -0.6969175 -0.1317104 0.6899051 -0.6967605 -0.196356 0.7049528 0.6969175 -0.1317104 0.6686367 -0.6968452 -0.2594835 0.6899051 0.6967605 -0.196356 0.6686367 0.6968452 -0.2594835 0.6418968 -0.697001 -0.3196217 0.6098678 -0.6966758 -0.377762 0.6418968 0.697001 -0.3196217 0.5720867 -0.6970064 -0.4323181 0.6098678 0.6966758 -0.377762 0.5720867 0.6970064 -0.4323181 0.5300969 -0.6967951 -0.4831914 0.4830006 -0.6968257 -0.5302304 0.5300969 0.6967951 -0.4831914 0.4320071 -0.6969045 -0.5724456 0.4830006 0.6968257 -0.5302304 0.4320071 0.6969045 -0.5724456 0.3774332 -0.6968294 -0.6098958 0.3196058 -0.6969195 -0.6419932 0.3774332 0.6968294 -0.6098958 0.2590276 -0.6967886 -0.6688724 0.3196058 0.6969195 -0.6419932 0.2590276 0.6967886 -0.6688724 0.1961477 -0.69692 -0.6898033 0.13178 -0.6968271 -0.7050291 0.1961477 0.69692 -0.6898033 0.06622361 -0.6969091 -0.7140953 0.13178 0.6968271 -0.7050291 0.06622361 0.6969091 -0.7140953 -0.2592013 -0.6968894 -0.6687001 -0.1964155 0.696828 -0.6898201 -0.1964155 -0.696828 -0.6898201 -0.1318588 -0.6968688 -0.7049732 -0.1318588 0.6968688 -0.7049732 -0.06633836 0.6968749 -0.7141181 -0.3776908 0.6968883 -0.6096691 -0.3776908 -0.6968883 -0.6096691 -0.4323862 -0.6968224 -0.5722593 -0.2592013 0.6968894 -0.6687001 -0.3198381 -0.6968223 -0.6419831 -0.3198381 0.6968223 -0.6419831 -0.5301069 -0.6968437 -0.4831102 -0.5724588 -0.6968509 -0.4320762 -0.5301069 0.6968437 -0.4831102 -0.4832914 -0.6968955 -0.5298736 -0.4832914 0.6968955 -0.5298736 -0.4323862 0.6968224 -0.5722593 -0.6684241 -0.6971656 -0.2591706 -0.6421346 0.6968106 -0.3195592 -0.6421346 -0.6968106 -0.3195592 -0.6098153 0.6968875 -0.3774561 -0.5724588 0.6968509 -0.4320762 -0.6098153 -0.6968875 -0.3774561 -0.7133006 -0.6977424 -0.0660136 -0.6892198 -0.6974859 -0.1961873 -0.7041126 -0.6977328 0.1318875 -0.7133041 0.6977393 -0.06600857 -0.641911 -0.6969175 0.3197754 -0.6684076 0.6970628 0.2594894 -0.6684076 -0.6970628 0.2594894 -0.6890402 -0.697593 0.1964374 -0.5722291 0.6969028 0.4322966 -0.5722291 -0.6969028 0.4322966 -0.5300043 -0.6968398 0.4832284 -0.641911 0.6969175 0.3197754 -0.6097711 -0.6968049 0.37768 -0.6097711 0.6968049 0.37768 -0.4830264 0.6968165 0.5302191 -0.4830264 -0.6968165 0.5302191 -0.4320053 -0.6969051 0.5724463 -0.5300043 0.6968398 0.4832284 -0.3774332 -0.6968294 0.6098958 -0.4320053 0.6969051 0.5724463 -0.3196058 -0.6969195 0.6419932 -0.3774332 0.6968294 0.6098958 -0.3196058 0.6969195 0.6419932 -0.2590276 -0.6967886 0.6688724 -0.1961477 -0.69692 0.6898033 -0.2590276 0.6967886 0.6688724 -0.1317803 -0.6968272 0.7050289 -0.1961477 0.69692 0.6898033 -0.1317803 0.6968272 0.7050289 -0.06622389 -0.696909 0.7140954 -0.06622389 0.696909 0.7140954 -0.6890445 0.6975897 0.1964339 -0.7132523 -0.6977773 0.06616634 -0.7040845 0.6978231 -0.1315596 -0.7162503 -0.6978435 0.0001701903 -0.7040867 -0.69782 -0.131564 -0.6684241 0.6971656 -0.2591706 -0.7041121 0.6977318 0.1318956 -0.7132488 0.6977811 0.06616466 -0.7162521 0.6978416 0.0001631178 -0.6892158 0.6974889 -0.1961907 0.4212436 -0.7221379 -0.5486991 0.3460565 -0.7220953 -0.5990187 -0.5488243 -0.722093 -0.4211575 0.1790798 -0.7220997 -0.6682084 -0.6683318 -0.7219989 -0.1790258 -0.09011625 -0.7221669 -0.6858237 0.000280347 -0.722114 -0.691774 -0.5989789 -0.7220069 -0.3463096 -0.179088 -0.7221684 -0.6681319 -0.4210702 -0.7221724 -0.5487868 -0.3455568 -0.7221916 -0.599191 -0.4892128 -0.7221207 -0.4890936 -0.264595 -0.7220063 -0.6392937 0.09048188 -0.722097 -0.6858491 -0.6388721 -0.7223104 -0.2647832 0.2647896 -0.7221745 -0.639023 -0.6858157 -0.7221152 -0.09058905 -0.6916586 -0.7222246 -3.647324e-05 0.4892423 -0.722088 -0.4891124 -0.6860546 -0.7219523 0.09007758 0.5487671 -0.7221207 -0.4211845 -0.6680126 -0.7223283 0.1788882 -0.6394016 -0.7218965 0.2646338 0.5990647 -0.7222278 -0.3456999 -0.5992096 -0.7222536 0.3453947 -0.5486602 -0.7222098 0.421171 -0.4892049 -0.7220125 0.4892612 0.6392704 -0.7220732 -0.2644685 -0.4211493 -0.7221916 0.5487008 0.6682038 -0.722178 -0.1787808 0.6859585 -0.7220281 -0.09020179 0.69169 -0.7221945 1.850324e-05 -0.1792652 -0.7220494 0.668213 0.6857634 -0.7221642 0.09059509 -0.09051614 -0.722185 0.6857519 0.6681799 -0.7220648 0.1793267 2.455284e-18 -0.7221479 0.6917387 0.5990077 -0.7222236 0.3458074 0.09034398 -0.7221263 0.6858364 0.2645541 -0.7220457 0.6392661 0.5484884 -0.7221789 0.4214476 0.4890471 -0.722004 0.4894314 0.4212276 -0.7221176 0.548738 0.345725 -0.7222369 0.5990393 0.1790742 -0.7221255 0.668182 0.6392193 -0.7220573 0.2646353 -0.2648873 -0.7221976 0.6389565 -0.346081 -0.7220271 0.5990866 0.3455553 0.7221908 -0.5991928 0.4210696 0.722174 -0.5487851 -0.5487669 0.7221209 -0.4211844 0.179088 0.7221684 -0.6681319 -0.6682037 0.7221781 -0.1787809 -0.09048161 0.7220971 -0.685849 -0.0002798322 0.722114 -0.691774 -0.5990646 0.7222279 -0.3457 -0.1790798 0.7220997 -0.6682084 -0.4212413 0.7221387 -0.5486998 -0.3460569 0.7220939 -0.59902 -0.4892423 0.722088 -0.4891123 -0.2647909 0.7221751 -0.6390219 0.09011651 0.7221668 -0.6858237 -0.6392704 0.7220733 -0.2644683 0.264595 0.7220063 -0.6392937 -0.6859585 0.7220281 -0.09020179 -0.69169 0.7221945 1.850324e-05 0.4892138 0.7221188 -0.4890953 -0.6857617 0.7221654 0.09059862 0.5488216 0.7220941 -0.4211591 -0.6681825 0.7220621 0.1793277 -0.6392195 0.7220586 0.2646314 0.5989795 0.7220083 -0.3463058 -0.5990052 0.7222247 0.3458096 -0.5484875 0.7221776 0.421451 -0.4890472 0.7220039 0.4894316 0.6388742 0.7223081 -0.2647844 -0.4212298 0.7221168 0.5487374 0.6683292 0.7220015 -0.1790249 0.6858175 0.722114 -0.09058552 0.6916586 0.7222246 -3.647324e-05 -0.1790738 0.7221248 0.6681829 0.6860546 0.7219523 0.09007758 -0.09034471 0.7221266 0.685836 0.6680127 0.7223282 0.1788881 2.010263e-17 0.7221479 0.6917387 0.5992096 0.7222536 0.3453947 0.09051611 0.722185 0.6857519 0.2648873 0.7221976 0.6389565 0.5486604 0.7222097 0.4211709 0.489205 0.7220123 0.4892613 0.4211494 0.7221914 0.5487009 0.346081 0.7220271 0.5990867 0.1792652 0.7220494 0.668213 0.6394016 0.7218964 0.264634 -0.2645528 0.7220461 0.6392662 -0.3457265 0.7222377 0.5990375</float_array>
          <technique_common>
            <accessor count="375" source="#normals-array-array" stride="3">
              <param type="float" name="X" />
              <param type="float" name="Y" />
              <param type="float" name="Z" />
            </accessor>
          </technique_common>
        </source>
        <vertices id="verts-array-vertices">
          <input semantic="POSITION" source="#verts-array" />
        </vertices>
        <triangles count="750" material="material0">
          <input offset="0" semantic="VERTEX" source="#verts-array-vertices" />
          <input offset="1" semantic="NORMAL" source="#normals-array" />
          <p>0 0 1 1 2 2 1 1 3 3 4 4 3 3 1 1 0 0 5 5 4 4 6 6 3 3 6 6 4 4 7 7 8 8 5 5 5 5 6 6 7 7 8 8 9 9 10 10 9 9 8 8 7 7 11 11 10 10 12 12 9 9 12 12 10 10 13 13 14 14 11 11 11 11 12 12 13 13 14 14 15 15 16 16 15 15 14 14 13 13 17 17 16 16 18 18 15 15 18 18 16 16 19 19 20 20 17 17 17 17 18 18 19 19 20 20 21 21 22 22 21 21 20 20 19 19 23 23 22 22 24 24 21 21 24 24 22 22 25 25 26 26 23 23 23 23 24 24 25 25 26 26 27 27 28 28 27 27 26 26 25 25 29 29 28 28 30 30 27 27 30 30 28 28 31 31 32 32 29 29 29 29 30 30 31 31 32 32 33 33 34 34 33 33 32 32 31 31 35 35 34 34 36 36 33 33 36 36 34 34 37 37 38 38 35 35 35 35 36 36 37 37 0 0 2 2 39 39 40 40 41 41 39 39 39 39 2 2 40 40 41 41 42 42 43 43 42 42 41 41 40 40 44 44 43 43 45 45 42 42 45 45 43 43 46 46 47 47 44 44 44 44 45 45 46 46 47 47 48 48 49 49 48 48 47 47 46 46 50 50 49 49 51 51 48 48 51 51 49 49 52 52 53 53 50 50 50 50 51 51 52 52 53 53 54 54 55 55 54 54 53 53 52 52 56 56 55 55 57 57 54 54 57 57 55 55 58 58 59 59 56 56 56 56 57 57 58 58 59 59 60 60 61 61 60 60 59 59 58 58 62 62 61 61 63 63 60 60 63 63 61 61 64 64 65 65 62 62 62 62 63 63 64 64 65 65 66 66 67 67 66 66 65 65 64 64 68 68 67 67 69 69 66 66 69 69 67 67 70 70 71 71 68 68 68 68 69 69 70 70 71 71 72 72 73 73 72 72 71 71 70 70 37 37 73 73 74 74 72 72 74 74 73 73 37 37 74 74 38 38 75 75 76 76 13 13 39 39 77 77 0 0 15 15 76 76 78 78 76 76 15 15 13 13 18 18 15 15 79 79 78 78 79 79 15 15 80 80 18 18 81 81 18 18 79 79 81 81 80 80 82 82 19 19 19 19 18 18 80 80 19 19 83 83 21 21 83 83 19 19 82 82 24 24 21 21 84 84 83 83 84 84 21 21 85 85 24 24 86 86 24 24 84 84 86 86 85 85 87 87 25 25 25 25 24 24 85 85 25 25 88 88 27 27 88 88 25 25 87 87 27 27 89 89 90 90 88 88 89 89 27 27 91 91 30 30 90 90 27 27 90 90 30 30 92 92 31 31 30 30 30 30 91 91 92 92 93 93 94 94 31 31 93 93 31 31 92 92 33 33 94 94 95 95 94 94 33 33 31 31 96 96 36 36 95 95 33 33 95 95 36 36 97 97 37 37 36 36 36 36 96 96 97 97 98 98 37 37 97 97 99 99 75 75 13 13 99 99 12 12 100 100 12 12 99 99 13 13 9 9 101 101 12 12 100 100 12 12 101 101 9 9 7 7 102 102 102 102 101 101 9 9 103 103 104 104 7 7 7 7 104 104 102 102 6 6 105 105 103 103 103 103 7 7 6 6 106 106 6 6 3 3 6 6 106 106 105 105 3 3 107 107 108 108 106 106 3 3 108 108 107 107 0 0 109 109 0 0 107 107 3 3 109 109 0 0 77 77 44 44 110 110 43 43 41 41 111 111 112 112 113 113 50 50 114 114 115 115 47 47 116 116 56 56 117 117 118 118 53 53 119 119 120 120 121 121 62 62 65 65 122 122 61 61 123 123 124 124 68 68 125 125 67 67 126 126 127 127 128 128 125 125 71 71 68 68 71 71 125 125 71 71 73 73 129 129 129 129 128 128 71 71 130 130 131 131 73 73 73 73 131 131 129 129 37 37 98 98 130 130 130 130 73 73 37 37 67 67 68 68 126 126 68 68 124 124 126 126 132 132 65 65 127 127 65 65 67 67 127 127 133 133 62 62 121 121 121 121 65 65 132 132 62 62 134 134 61 61 134 134 62 62 133 133 122 122 59 59 61 61 134 134 123 123 61 61 59 59 135 135 117 117 122 122 135 135 59 59 118 118 136 136 56 56 59 59 117 117 56 56 119 119 55 55 136 136 56 56 136 136 55 55 53 53 120 120 137 137 53 53 55 55 119 119 137 137 114 114 50 50 50 50 53 53 137 137 138 138 49 49 113 113 49 49 50 50 113 113 49 49 116 116 47 47 116 116 49 49 138 138 139 139 44 44 47 47 139 139 47 47 115 115 44 44 140 140 110 110 139 139 140 140 44 44 141 141 111 111 43 43 110 110 141 141 43 43 41 41 112 112 39 39 43 43 111 111 41 41 77 77 39 39 142 142 39 39 112 112 142 142 131 131 130 130 75 75 82 82 94 94 83 83 96 96 79 79 97 97 78 78 76 76 98 98 92 92 83 83 93 93 95 95 80 80 81 81 86 86 92 92 90 90 83 83 92 92 86 86 86 86 87 87 85 85 86 86 90 90 87 87 84 84 83 83 86 86 88 88 87 87 90 90 92 92 91 91 90 90 90 90 89 89 88 88 82 82 80 80 94 94 83 83 94 94 93 93 80 80 95 95 94 94 81 81 79 79 96 96 81 81 96 96 95 95 78 78 98 98 97 97 78 78 97 97 79 79 75 75 130 130 76 76 130 130 98 98 76 76 129 129 131 131 99 99 131 131 75 75 99 99 129 129 100 100 128 128 100 100 129 129 99 99 101 101 125 125 128 128 128 128 100 100 101 101 124 124 125 125 102 102 101 101 102 102 125 125 124 124 104 104 126 126 104 104 124 124 102 102 126 126 104 104 103 103 105 105 127 127 103 103 126 126 103 103 127 127 132 132 105 105 106 106 105 105 132 132 127 127 106 106 108 108 121 121 121 121 132 132 106 106 108 108 133 133 121 121 133 133 107 107 134 134 107 107 133 133 108 108 109 109 123 123 134 134 134 134 107 107 109 109 122 122 123 123 77 77 109 109 77 77 123 123 117 117 111 111 118 118 135 135 142 142 112 112 115 115 137 137 140 140 136 136 118 118 141 141 137 137 120 120 119 119 137 137 119 119 140 140 113 113 114 114 137 137 116 116 138 138 115 115 115 115 113 113 137 137 115 115 138 138 113 113 119 119 110 110 140 140 140 140 139 139 115 115 141 141 119 119 136 136 119 119 141 141 110 110 112 112 111 111 117 117 118 118 111 111 141 141 142 142 135 135 122 122 112 112 117 117 135 135 122 122 77 77 142 142 143 143 144 144 145 145 146 146 147 147 148 148 149 149 150 150 145 145 143 143 145 145 150 150 149 149 151 151 152 152 152 152 150 150 149 149 153 153 151 151 154 154 151 151 153 153 152 152 155 155 156 156 154 154 153 153 154 154 156 156 155 155 157 157 158 158 158 158 156 156 155 155 159 159 157 157 160 160 157 157 159 159 158 158 161 161 162 162 160 160 159 159 160 160 162 162 161 161 163 163 164 164 164 164 162 162 161 161 165 165 163 163 166 166 163 163 165 165 164 164 167 167 168 168 166 166 165 165 166 166 168 168 167 167 169 169 170 170 170 170 168 168 167 167 171 171 169 169 172 172 169 169 171 171 170 170 173 173 174 174 172 172 171 171 172 172 174 174 173 173 175 175 176 176 176 176 174 174 173 173 177 177 175 175 178 178 175 175 177 177 176 176 179 179 180 180 178 178 177 177 178 178 180 180 181 181 180 180 179 179 182 182 144 144 143 143 183 183 182 182 184 184 182 182 183 183 144 144 185 185 186 186 184 184 183 183 184 184 186 186 185 185 187 187 188 188 188 188 186 186 185 185 189 189 187 187 190 190 187 187 189 189 188 188 191 191 192 192 190 190 189 189 190 190 192 192 191 191 193 193 194 194 194 194 192 192 191 191 195 195 193 193 196 196 193 193 195 195 194 194 197 197 198 198 196 196 195 195 196 196 198 198 197 197 199 199 200 200 200 200 198 198 197 197 201 201 199 199 202 202 199 199 201 201 200 200 203 203 204 204 202 202 201 201 202 202 204 204 203 203 205 205 206 206 206 206 204 204 203 203 207 207 205 205 208 208 205 205 207 207 206 206 209 209 210 210 208 208 207 207 208 208 210 210 209 209 211 211 212 212 212 212 210 210 209 209 213 213 211 211 148 148 211 211 213 213 212 212 213 213 148 148 147 147 214 214 215 215 216 216 217 217 218 218 219 219 220 220 221 221 222 222 223 223 224 224 225 225 226 226 227 227 228 228 229 229 230 230 231 231 232 232 233 233 234 234 235 235 236 236 237 237 238 238 54 54 52 52 239 239 45 45 42 42 64 64 63 63 240 240 16 16 17 17 241 241 242 242 243 243 244 244 70 70 245 245 72 72 246 246 247 247 248 248 249 249 250 250 251 251 252 252 253 253 254 254 253 253 252 252 255 255 256 256 257 257 254 254 252 252 254 254 257 257 256 256 258 258 259 259 259 259 257 257 256 256 260 260 258 258 261 261 258 258 260 260 259 259 262 262 263 263 261 261 260 260 261 261 263 263 262 262 264 264 265 265 265 265 263 263 262 262 266 266 264 264 267 267 264 264 266 266 265 265 181 181 268 268 267 267 266 266 267 267 268 268 179 179 268 268 181 181 255 255 246 246 248 248 248 248 253 253 255 255 251 251 250 250 247 247 251 251 247 247 246 246 249 249 243 243 242 242 249 249 242 242 250 250 243 243 38 38 244 244 269 269 38 38 243 243 66 66 64 64 240 240 69 69 245 245 70 70 60 60 58 58 270 270 63 63 60 60 270 270 271 271 11 11 14 14 58 58 57 57 272 272 273 273 48 48 46 46 273 273 51 51 48 48 274 274 233 233 232 232 239 239 42 42 40 40 234 234 235 235 237 237 233 233 235 235 234 234 227 227 236 236 228 228 237 237 236 236 227 227 229 229 226 226 230 230 226 226 228 228 230 230 220 220 222 222 231 231 222 222 229 229 231 231 225 225 224 224 221 221 225 225 221 221 220 220 223 223 215 215 214 214 223 223 214 214 224 224 216 216 218 218 217 217 215 215 218 218 216 216 146 146 219 219 147 147 217 217 219 219 146 146 74 74 245 245 38 38 245 245 244 244 38 38 32 32 34 34 269 269 245 245 74 74 72 72 29 29 275 275 28 28 245 245 69 69 240 240 26 26 28 28 275 275 240 240 69 69 66 66 22 22 23 23 276 276 240 240 63 63 270 270 23 23 26 26 275 275 17 17 20 20 277 277 270 270 58 58 272 272 20 20 22 22 276 276 54 54 238 238 57 57 238 238 272 272 57 57 241 241 14 14 16 16 51 51 273 273 52 52 273 273 238 238 52 52 271 271 10 10 11 11 5 5 8 8 278 278 273 273 46 46 239 239 8 8 10 10 271 271 4 4 5 5 278 278 239 239 46 46 45 45 232 232 2 2 274 274 40 40 2 2 239 239 239 239 2 2 232 232 1 1 278 278 2 2 278 278 274 274 2 2 278 278 1 1 4 4 271 271 278 278 8 8 271 271 14 14 241 241 241 241 17 17 277 277 276 276 277 277 20 20 275 275 276 276 23 23 275 275 29 29 269 269 269 269 29 29 32 32 38 38 269 269 35 35 269 269 34 34 35 35 256 256 279 279 280 280 281 281 162 162 164 164 282 282 262 262 261 261 152 152 153 153 283 283 284 284 180 180 285 285 159 159 286 286 158 158 177 177 287 287 176 176 288 288 165 165 168 168 170 170 288 288 168 168 289 289 170 170 171 171 164 164 165 165 290 290 171 171 174 174 291 291 284 284 177 177 180 180 291 291 174 174 176 176 159 159 281 281 286 286 267 267 285 285 181 181 292 292 267 267 264 264 293 293 156 156 158 158 282 282 264 264 262 262 258 258 294 294 261 261 283 283 153 153 156 156 295 295 150 150 152 152 258 258 256 256 280 280 279 279 254 254 253 253 143 143 150 150 296 296 253 253 248 248 297 297 296 296 298 298 182 182 247 247 299 299 248 248 185 185 184 184 300 300 250 250 299 299 247 247 300 300 301 301 187 187 242 242 302 302 250 250 190 190 301 301 303 303 304 304 193 193 191 191 305 305 196 196 304 304 242 242 244 244 306 306 197 197 307 307 199 199 306 306 244 244 308 308 240 240 270 270 309 309 245 245 240 240 308 308 310 310 309 309 270 270 238 238 310 310 272 272 208 208 205 205 311 311 312 312 238 238 273 273 311 311 313 313 209 209 273 273 239 239 314 314 315 315 148 148 211 211 234 234 237 237 316 316 146 146 315 315 317 317 318 318 224 224 214 214 237 237 319 319 316 316 229 229 320 320 226 226 184 184 182 182 298 298 221 221 321 321 222 222 318 318 322 322 224 224 322 322 321 321 221 221 224 224 322 322 221 221 318 318 216 216 323 323 318 318 214 214 216 216 227 227 226 226 319 319 323 323 216 216 217 217 217 217 146 146 317 317 317 317 323 323 217 217 314 314 239 239 232 232 232 232 234 234 324 324 146 146 148 148 315 315 325 325 205 205 203 203 307 307 326 326 202 202 321 321 320 320 229 229 321 321 229 229 222 222 320 320 319 319 226 226 227 227 319 319 237 237 316 316 324 324 234 234 324 324 314 314 232 232 314 314 312 312 273 273 312 312 310 310 238 238 272 272 310 310 270 270 309 309 308 308 240 240 245 245 308 308 244 244 306 306 302 302 242 242 302 302 299 299 250 250 299 299 297 297 248 248 297 297 279 279 253 253 254 254 279 279 256 256 280 280 294 294 258 258 294 294 282 282 261 261 282 282 292 292 264 264 292 292 285 285 267 267 181 181 285 285 180 180 284 284 287 287 177 177 287 287 291 291 176 176 291 291 289 289 171 171 289 289 288 288 170 170 288 288 290 290 165 165 290 290 281 281 164 164 162 162 281 281 159 159 286 286 293 293 158 158 293 293 283 283 156 156 283 283 295 295 152 152 295 295 296 296 150 150 143 143 296 296 182 182 185 185 300 300 187 187 298 298 300 300 184 184 187 187 301 301 190 190 190 190 303 303 191 191 196 196 193 193 304 304 191 191 303 303 304 304 197 197 196 196 305 305 307 307 202 202 199 199 307 307 197 197 305 305 326 326 203 203 202 202 325 325 311 311 205 205 326 326 325 325 203 203 208 208 311 311 209 209 209 209 313 313 211 211 315 315 211 211 313 313 259 259 327 327 328 328 329 329 161 161 160 160 330 330 263 263 265 265 149 149 331 331 151 151 332 332 333 333 178 178 157 157 155 155 334 334 175 175 173 173 335 335 336 336 166 166 163 163 167 167 166 166 336 336 337 337 169 169 167 167 161 161 338 338 163 163 169 169 339 339 172 172 332 332 178 178 175 175 339 339 173 173 172 172 157 157 334 334 329 329 268 268 179 179 333 333 340 340 266 266 268 268 341 341 155 155 154 154 330 330 265 265 266 266 260 260 263 263 342 342 331 331 154 154 151 151 343 343 149 149 145 145 260 260 327 327 259 259 328 328 252 252 257 257 144 144 344 344 145 145 252 252 345 345 255 255 344 344 183 183 346 346 246 246 255 255 347 347 188 188 348 348 186 186 251 251 246 246 347 347 348 348 189 189 349 349 249 249 251 251 350 350 192 192 351 351 349 349 352 352 194 194 195 195 353 353 352 352 198 198 249 249 354 354 243 243 200 200 201 201 355 355 354 354 356 356 243 243 275 275 357 357 276 276 269 269 356 356 275 275 358 358 276 276 357 357 241 241 277 277 358 358 210 210 359 359 207 207 360 360 271 271 241 241 359 359 212 212 361 361 271 271 362 362 278 278 363 363 213 213 147 147 233 233 364 364 235 235 219 219 365 365 363 363 366 366 223 223 225 225 235 235 364 364 367 367 230 230 228 228 368 368 186 186 346 346 183 183 220 220 231 231 369 369 366 366 225 225 370 370 370 370 220 220 369 369 225 225 220 220 370 370 366 366 371 371 215 215 366 366 215 215 223 223 236 236 367 367 228 228 371 371 218 218 215 215 218 218 365 365 219 219 365 365 218 218 371 371 362 362 274 274 278 278 274 274 372 372 233 233 219 219 363 363 147 147 373 373 206 206 207 207 355 355 204 204 374 374 369 369 230 230 368 368 369 369 231 231 230 230 368 368 228 228 367 367 236 236 235 235 367 367 364 364 233 233 372 372 372 372 274 274 362 362 362 362 271 271 360 360 360 360 241 241 358 358 277 277 276 276 358 358 357 357 275 275 356 356 269 269 243 243 356 356 354 354 249 249 350 350 350 350 251 251 347 347 347 347 255 255 345 345 345 345 252 252 328 328 257 257 259 259 328 328 327 327 260 260 342 342 342 342 263 263 330 330 330 330 266 266 340 340 340 340 268 268 333 333 179 179 178 178 333 333 332 332 175 175 335 335 335 335 173 173 339 339 339 339 169 169 337 337 337 337 167 167 336 336 336 336 163 163 338 338 338 338 161 161 329 329 160 160 157 157 329 329 334 334 155 155 341 341 341 341 154 154 331 331 331 331 149 149 343 343 343 343 145 145 344 344 144 144 183 183 344 344 188 188 189 189 348 348 346 346 186 186 348 348 189 189 192 192 349 349 192 192 194 194 351 351 198 198 352 352 195 195 194 194 352 352 351 351 200 200 353 353 198 198 355 355 201 201 204 204 355 355 353 353 200 200 374 374 204 204 206 206 373 373 207 207 359 359 374 374 206 206 373 373 210 210 212 212 359 359 212 212 213 213 361 361 363 363 361 361 213 213 361 361 363 363 315 315 374 374 373 373 325 325 359 359 313 313 311 311 305 305 352 352 353 353 326 326 307 307 355 355 349 349 301 301 348 348 351 351 304 304 303 303 343 343 344 344 296 296 298 298 346 346 300 300 293 293 334 334 341 341 295 295 283 283 331 331 338 338 290 290 336 336 329 329 286 286 281 281 335 335 339 339 291 291 289 289 337 337 288 288 285 285 340 340 333 333 287 287 284 284 332 332 342 342 294 294 327 327 330 330 292 292 282 282 347 347 345 345 297 297 279 279 328 328 280 280 306 306 356 356 354 354 299 299 302 302 350 350 358 358 310 310 360 360 357 357 308 308 309 309 312 312 362 362 360 360 360 360 310 310 312 312 372 372 362 362 314 314 312 312 314 314 362 362 372 372 324 324 364 364 324 324 372 372 314 314 316 316 367 367 364 364 364 364 324 324 316 316 368 368 367 367 319 319 316 316 319 319 367 367 368 368 320 320 369 369 320 320 368 368 319 319 321 321 370 370 369 369 369 369 320 320 321 321 366 366 370 370 322 322 321 321 322 322 370 370 366 366 318 318 371 371 318 318 366 366 322 322 323 323 365 365 371 371 371 371 318 318 323 323 363 363 365 365 317 317 323 323 317 317 365 365 315 315 363 363 317 317 357 357 309 309 358 358 358 358 309 309 310 310 306 306 308 308 356 356 356 356 308 308 357 357 302 302 354 354 350 350 302 302 306 306 354 354 299 299 347 347 297 297 299 299 350 350 347 347 345 345 328 328 279 279 297 297 345 345 279 279 327 327 294 294 280 280 328 328 327 327 280 280 330 330 282 282 342 342 342 342 282 282 294 294 285 285 292 292 340 340 340 340 292 292 330 330 284 284 333 333 332 332 284 284 285 285 333 333 287 287 335 335 291 291 287 287 332 332 335 335 339 339 337 337 289 289 291 291 339 339 289 289 336 336 290 290 288 288 337 337 336 336 288 288 329 329 281 281 338 338 338 338 281 281 290 290 293 293 286 286 334 334 334 334 286 286 329 329 283 283 341 341 331 331 283 283 293 293 341 341 295 295 343 343 296 296 295 295 331 331 343 343 344 344 346 346 298 298 296 296 344 344 298 298 348 348 301 301 300 300 346 346 348 348 300 300 351 351 303 303 349 349 349 349 303 303 301 301 305 305 304 304 352 352 352 352 304 304 351 351 307 307 353 353 355 355 307 307 305 305 353 353 326 326 374 374 325 325 326 326 355 355 374 374 373 373 359 359 311 311 325 325 373 373 311 311 361 361 315 315 313 313 359 359 361 361 313 313</p>
        </triangles>
      </mesh>
    </geometry>
  </library_geometries>
  <library_materials>
    <material id="97b003b3fee44e2a974574637d1a8a9b" name="defaultmaterial">
      <instance_effect url="#7364b7e8171a42599fb7d0bfd3ea3ed3" />
    </material>
  </library_materials>
  <library_visual_scenes>
    <visual_scene id="scene">
      <node id="node0" name="node0">
        <instance_geometry url="#3fd320b39b284c4fb7850d9f71d86d8d">
          <bind_material>
            <technique_common>
              <instance_material symbol="material0" target="#97b003b3fee44e2a974574637d1a8a9b" />
            </technique_common>
          </bind_material>
        </instance_geometry>
      </node>
    </visual_scene>
  </library_visual_scenes>
  <scene>
    <instance_visual_scene url="#scene" />
  </scene>
</COLLADA>