<COLLADA xmlns="http://www.collada.org/2005/11/COLLADASchema" version="1.4.1">
  <asset>
    <created>2026-02-10T22:53:39.043489</created>
    <modified>2026-02-10T22:53:39.043495</modified>
    <up_axis>Y_UP</up_axis>
  </asset>
  <library_effects>
    <effect id="25bfd442c03e4836922850a06dc1beba" name="25bfd442c03e4836922850a06dc1beba">
      <profile_COMMON>
        <technique sid="common">
          <phong>
            <emission>
              <color>0.0 0.0 0.0 1.0</color>
            </emission>
            <ambient>
              <color>0.300000 0.300000 0.300000 1.0</color>
            </ambient>
            <diffuse>
              <color>1.000000 1.000000 1.000000 1.0</color>
            </diffuse>
            <specular>
              <color>0.196000 0.196000 0.196000 1.0</color>
            </specular>
            <shininess>
              <float>20.0</float>
            </shininess>
            <reflective>
              <color>0.0 0.0 0.0 1.0</color>
            </reflective>
            <reflectivity>
              <float>0.0</float>
            </reflectivity>
            <transparent>
              <color>0.0 0.0 0.0 1.0</color>
            </transparent>
            <transparency>
              <float>1.0</float>
            </transparency>
          </phong>
        </technique>
        <extra>
          <technique profile="GOOGLEEARTH">
            <double_sided>0</double_sided>
          </technique>
        </extra>
      </profile_COMMON>
    </effect>
  </library_effects>
  <library_geometries>
    <geometry id="bc0861c57a7849e88cf3947999f6d065" name="3e75d98671f3440eb7b12ba36c0c63ae">
      <mesh>
        <source id="verts-array">
          <float_array count="1122" id="verts-array-array">0.00298919 0.000254418 0.007 0.00295849 0.000497234 0.0672977 0.00299965 3.31633e-07 0.0673105 0.0029032 0.000755934 0.007 0.00283572 0.000978329 0.0672605 0.00263638 0.00143161 0.0672038 0.00273369 0.0012357 0.007 0.00248553 0.00167992 0.007 0.00236603 0.00184406 0.0671339 0.00216587 0.00207582 0.007 0.00203248 0.00220659 0.0670587 0.00164351 0.00250944 0.066986 0.0017839 0.00241199 0.007 0.00135061 0.00267878 0.007 0.00120883 0.00274567 0.0669233 0.000878468 0.0028685 0.007 0.000739739 0.00290702 0.0668774 0.000248289 0.00298968 0.0668531 0.000381053 0.0029757 0.007 -0.000127324 0.0029973 0.007 -0.000249629 0.00298929 0.0668531 -0.000632038 0.00293267 0.007 -0.00074096 0.00290704 0.0668775 -0.00120951 0.00274512 0.0669234 -0.00111857 0.00278367 0.007 -0.00157292 0.00255459 0.007 -0.00164418 0.00250931 0.0669861 -0.00198202 0.00225202 0.007 -0.00203261 0.00220616 0.0670588 -0.00236652 0.00184378 0.0671341 -0.00233411 0.00188466 0.007 -0.00261904 0.00146308 0.007 -0.00263644 0.00143088 0.0672038 -0.00282863 0.000999419 0.007 -0.0028363 0.00097737 0.0672607 -0.00295842 0.000496224 0.0672976 -0.00295685 0.000507002 0.007 -0.003 -5.51091e-19 0.007 -0.003 -1.04744e-17 0.0673106 0.00298919 -0.000254418 0.007 0.00295872 -0.000495888 0.0672977 0.0029032 -0.000755934 0.007 0.00283579 -0.000977869 0.0672605 0.00273369 -0.0012357 0.007 0.00248553 -0.00167992 0.007 0.0026366 -0.0014312 0.0672038 0.00236609 -0.00184395 0.0671339 0.00216587 -0.00207582 0.007 0.00203253 -0.00220654 0.0670587 0.0017839 -0.00241199 0.007 0.00135061 -0.00267878 0.007 0.00164368 -0.00250938 0.066986 0.00120948 -0.00274539 0.0669234 0.000878468 -0.0028685 0.007 0.000740253 -0.00290695 0.0668774 0.000381053 -0.0029757 0.007 -0.000127324 -0.0029973 0.007 0.000249707 -0.00298958 0.0668531 -0.000248992 -0.00298931 0.0668531 -0.000632038 -0.00293267 0.007 -0.000739874 -0.00290733 0.0668774 -0.00111857 -0.00278367 0.007 -0.00157292 -0.00255459 0.007 -0.00120915 -0.00274519 0.0669234 -0.00164396 -0.00250946 0.0669861 -0.00198202 -0.00225202 0.007 -0.00203254 -0.00220622 0.0670587 -0.00233411 -0.00188466 0.007 -0.00261904 -0.00146308 0.007 -0.00236644 -0.0018439 0.067134 -0.00263638 -0.00143109 0.0672038 -0.00282863 -0.000999419 0.007 -0.00283606 -0.000978129 0.0672606 -0.00295685 -0.000507002 0.007 -0.0029583 -0.000496435 0.0672976 0.00628559 -0.00777754 0 0.00698589 -0.0071549 0 0.00762512 -0.00646956 0 0.00819814 -0.00572604 0 0.00869745 -0.00493466 0 0.00912265 -0.00409601 0 0.00946493 -0.00322653 0 0.00972619 -0.00232398 0 0.00990055 -0.00140498 0 0.00998888 0.000466212 0 0.00998888 -0.000470451 0 0.00990146 0.00139967 0 0.00972663 0.00232145 0 0.00946693 0.00322088 0 0.00870041 0.00492936 0 0.00912276 0.00409568 0 0.00819939 0.00572449 0 0.00762864 0.0064652 0 0.00698876 0.00715238 0 0.00628905 0.00777449 0 0.00553311 0.00832965 0 0.00472846 0.00881121 0 0.0038834 0.00921501 0 0.00300147 0.00953884 0 0.00209736 0.00977738 0 0.00117003 0.00993131 0 0.000237529 0.00999694 0 -0.000701462 0.00997534 0 -0.00163094 0.00986584 0 -0.00254845 0.00966975 0 -0.00344255 0.00938852 0 -0.00430622 0.00902518 0 -0.00513375 0.00858149 0 -0.0059132 0.00806415 0 -0.00664453 0.0074733 0 -0.00731301 0.00682021 0 -0.00845653 0.00533685 0 -0.00792095 0.00610394 0 -0.00891981 0.00452061 0 -0.00930355 0.00366594 0 -0.00960606 0.00277874 0 -0.00995562 0.000939299 0 -0.0098242 0.00186598 0 -0.01 -1.13311e-17 7.10543e-18 0.00552876 -0.00833233 0 0.00472583 -0.00881284 0 0.00387795 -0.0092172 0 0.0030005 -0.00953923 0 0.0020914 -0.00977866 0 0.00116867 -0.00993137 0 0.00023174 -0.00999718 0 -0.000704782 -0.00997491 0 -0.00255303 -0.00966834 0 -0.00163586 -0.00986521 0 -0.00344598 -0.00938747 0 -0.00431132 -0.00902262 0 -0.00513526 -0.00858073 0 -0.00591809 -0.00806053 0 -0.00664502 -0.00747279 0 -0.00731712 -0.00681592 0 -0.00792254 -0.00610159 0 -0.00892163 -0.00451657 0 -0.00845947 -0.0053325 0 -0.00930521 -0.00366227 0 -0.00960745 -0.00277342 0 -0.00982477 -0.00186377 0 -0.00995562 -0.000939299 0 0.00999983 -0.006 0.0768472 0.00999983 0.006 0.0768472 0.00995738 0.006 0.0777722 -0.000925328 -0.006 0.066893 0.00983004 0.006 0.0786846 0.00995738 -0.006 0.0777722 0.00961858 0.006 0.0795854 0.00983004 -0.006 0.0786846 0.00961858 -0.006 0.0795854 0.00932542 0.006 0.08046 0.00895247 0.006 0.0813055 0.00932542 -0.006 0.08046 0.00850293 0.006 0.0821127 0.00895247 -0.006 0.0813055 0.00850293 -0.006 0.0821127 0.00798162 0.006 0.0828742 0.00739033 0.006 0.0835866 0.00798162 -0.006 0.0828742 0.00673894 0.006 0.084238 0.00739033 -0.006 0.0835866 0.00673894 -0.006 0.084238 0.00602687 0.006 0.0848298 0.0052666 0.006 0.0853505 0.00602687 -0.006 0.0848298 0.00445869 0.006 0.0858009 0.0052666 -0.006 0.0853505 0.00445869 -0.006 0.0858009 0.00361455 0.006 0.0861737 0.0027387 0.006 0.0864676 0.00361455 -0.006 0.0861737 0.0018389 0.006 0.0866793 0.0027387 -0.006 0.0864676 0.0018389 -0.006 0.0866793 0.000925328 0.006 0.086807 0 0.006 0.08685 0.000925328 -0.006 0.086807 0 -0.006 0.08685 0.00995717 -0.006 0.0759265 0.00995717 0.006 0.0759265 0.00982917 -0.006 0.0750101 0.00961752 -0.006 0.0741115 0.00982917 0.006 0.0750101 0.009324 -0.006 0.0732359 0.00961752 0.006 0.0741115 0.009324 0.006 0.0732359 0.00895024 -0.006 0.0723903 0.00850158 -0.006 0.0715848 0.00895024 0.006 0.0723903 0.00797827 -0.006 0.0708215 0.00850158 0.006 0.0715848 0.00797827 0.006 0.0708215 0.00738994 -0.006 0.0701129 0.00673481 -0.006 0.0694582 0.00738994 0.006 0.0701129 0.00602535 -0.006 0.0688692 0.00673481 0.006 0.0694582 0.00602535 0.006 0.0688692 0.00526229 -0.006 0.0683467 0.00445532 -0.006 0.0678976 0.00526229 0.006 0.0683467 0.00361084 -0.006 0.0675247 0.00445532 0.006 0.0678976 0.00273392 -0.006 0.0672312 0.00361084 0.006 0.0675247 0.00183663 -0.006 0.0670201 0.000925328 -0.006 0.066893 1.22465e-18 -0.006 0.06685 0.00183663 0.006 0.0670201 0.000925328 0.006 0.066893 -0.00361455 0.006 0.0675263 -0.00361455 -0.006 0.0675263 -0.0018389 -0.006 0.0670207 -0.0052666 0.006 0.0683495 -0.0052666 -0.006 0.0683495 -0.00602687 -0.006 0.0688702 -0.00445869 -0.006 0.0678991 -0.00445869 0.006 0.0678991 -0.00739033 -0.006 0.0701134 -0.00798162 -0.006 0.0708258 -0.00739033 0.006 0.0701134 -0.00673894 -0.006 0.069462 -0.00673894 0.006 0.069462 -0.00602687 0.006 0.0688702 -0.00932542 -0.006 0.07324 -0.00895247 0.006 0.0723945 -0.00895247 -0.006 0.0723945 -0.00850293 0.006 0.0715872 -0.00798162 0.006 0.0708258 -0.00850293 -0.006 0.0715872 -0.00983004 0.006 0.0750154 -0.00983004 -0.006 0.0750154 -0.00995738 -0.006 0.0759278 -0.00932542 0.006 0.07324 -0.00961858 -0.006 0.0741146 -0.00961858 0.006 0.0741146 -0.00995717 -0.006 0.0777735 -0.00982917 -0.006 0.0786899 -0.00995717 0.006 0.0777735 -0.00999983 -0.006 0.0768528 -0.00999983 0.006 0.0768528 -0.00995738 0.006 0.0759278 -0.00895024 -0.006 0.0813097 -0.009324 0.006 0.0804641 -0.009324 -0.006 0.0804641 -0.00961752 0.006 0.0795885 -0.00982917 0.006 0.0786899 -0.00961752 -0.006 0.0795885 -0.00797827 0.006 0.0828785 -0.00797827 -0.006 0.0828785 -0.00738994 -0.006 0.0835871 -0.00895024 0.006 0.0813097 -0.00850158 -0.006 0.0821152 -0.00850158 0.006 0.0821152 -0.00673481 0.006 0.0842418 -0.00673481 -0.006 0.0842418 -0.00602535 -0.006 0.0848308 -0.00738994 0.006 0.0835871 -0.00526229 -0.006 0.0853533 -0.00602535 0.006 0.0848308 -0.00445532 -0.006 0.0858024 -0.00526229 0.006 0.0853533 -0.00445532 0.006 0.0858024 -0.00361084 -0.006 0.0861753 -0.00273392 -0.006 0.0864688 -0.00361084 0.006 0.0861753 -0.00183663 -0.006 0.0866799 -0.00273392 0.006 0.0864688 -0.00183663 0.006 0.0866799 -0.000925328 -0.006 0.086807 -0.000925328 0.006 0.086807 -0.0027387 0.006 0.0672324 -0.0027387 -0.006 0.0672324 -0.0018389 0.006 0.0670207 -0.000925328 0.006 0.066893 1.22465e-18 0.006 0.06685 0.00273392 0.006 0.0672312 -0.00304494 -0.006 0.0808157 -0.00250118 -0.006 0.0811794 0.00396627 -0.006 0.0798943 -0.00129439 -0.006 0.0816795 0.0048294 -0.006 0.0781449 0.000651613 -0.006 0.0818073 -1.52482e-06 -0.006 0.0818499 0.00432926 -0.006 0.0793512 0.00129393 -0.006 0.0816797 0.00304277 -0.006 0.0808175 0.00249859 -0.006 0.0811808 0.00353517 -0.006 0.0803859 0.00191234 -0.006 0.0814697 -0.000653987 -0.006 0.0818069 0.00461877 -0.006 0.0787647 -0.00191409 -0.006 0.0814691 0.00495718 -0.006 0.0775028 0.00499987 -0.006 0.0768513 -0.00353606 -0.006 0.0803849 0.00495732 -0.006 0.0761989 -0.00396702 -0.006 0.0798935 0.00482987 -0.006 0.075557 0.00461949 -0.006 0.0749368 -0.00433069 -0.006 0.0793489 0.00433055 -0.006 0.0743509 0.00396762 -0.006 0.0738075 0.00353642 -0.006 0.0733154 -0.00461989 -0.006 0.0787619 0.00304426 -0.006 0.0728836 -0.00482982 -0.006 0.0781429 -0.00495724 -0.006 0.0775025 -0.00499997 -0.006 0.076849 0.0012955 -0.006 0.0720208 -0.00495694 -0.006 0.0761959 0.000653504 -0.006 0.0718929 -0.00482913 -0.006 0.0755546 0 -0.006 0.07185 -0.00432978 -0.006 0.0743494 -0.000653504 -0.006 0.0718929 -0.00191234 -0.006 0.0722302 -0.00396589 -0.006 0.0738052 -0.00353435 -0.006 0.0733135 -0.003043 -0.006 0.0728827 -0.00249971 -0.006 0.0725197 -0.00129256 -0.006 0.0720201 -0.00461917 -0.006 0.0749362 0.00191473 -0.006 0.0722313 0.00250048 -0.006 0.0725202 -0.00249859 0.006 0.0811808 -0.00304277 0.006 0.0808175 0.00396702 0.006 0.0798935 -0.00129393 0.006 0.0816797 0.00482982 0.006 0.0781429 0.000653987 0.006 0.0818069 1.52482e-06 0.006 0.0818499 0.00433069 0.006 0.0793489 0.00129439 0.006 0.0816795 0.00304494 0.006 0.0808157 0.00250118 0.006 0.0811794 0.00353606 0.006 0.0803849 0.00191409 0.006 0.0814691 -0.000651613 0.006 0.0818073 0.00461989 0.006 0.0787619 -0.00191234 0.006 0.0814697 0.00495724 0.006 0.0775025 0.00499997 0.006 0.076849 -0.00353517 0.006 0.0803859 0.00495694 0.006 0.0761959 -0.00396627 0.006 0.0798943 0.00482913 0.006 0.0755546 0.00461917 0.006 0.0749362 -0.00432926 0.006 0.0793512 0.00432978 0.006 0.0743494 0.00396589 0.006 0.0738052 0.00353435 0.006 0.0733135 -0.00461877 0.006 0.0787647 0.003043 0.006 0.0728827 -0.0048294 0.006 0.0781449 -0.00495718 0.006 0.0775028 -0.00499987 0.006 0.0768513 0.00129256 0.006 0.0720201 -0.00495732 0.006 0.0761989 0.000653504 0.006 0.0718929 -0.00482987 0.006 0.075557 0 0.006 0.07185 -0.00433055 0.006 0.0743509 -0.000653504 0.006 0.0718929 -0.00191473 0.006 0.0722313 -0.00396762 0.006 0.0738075 -0.00353642 0.006 0.0733154 -0.00304426 0.006 0.0728836 -0.00250048 0.006 0.0725202 -0.0012955 0.006 0.0720208 -0.00461949 0.006 0.0749368 0.00191234 0.006 0.0722302 0.00249971 0.006 0.0725197</float_array>
          <technique_common>
            <accessor count="374" source="#verts-array-array" stride="3">
              <param type="float" name="X" />
              <param type="float" name="Y" />
              <param type="float" name="Z" />
            </accessor>
          </technique_common>
        </source>
        <source id="normals-array">
          <float_array count="1122" id="normals-array-array">0.9171545 0.07818619 0.390787 0.7861535 0.09778475 -0.6102465 0.7998654 0.0001018515 -0.6001795 0.8907895 0.2316648 0.390929 0.7601356 0.1945729 -0.6199478 0.7192998 0.2898615 -0.6313383 0.8385916 0.3790617 0.3912497 0.7624569 0.5153732 0.3912159 0.6610808 0.383176 -0.6450956 0.6644004 0.6368818 0.391093 0.5830241 0.4706189 -0.6622695 0.4829188 0.5499943 -0.6813924 0.5472295 0.7401067 0.3908734 0.4145591 0.8217514 0.39098 0.3644732 0.6161771 -0.6982013 0.269492 0.8799399 0.3912542 0.225881 0.6647723 -0.7120783 0.07767388 0.6900382 -0.719593 0.1168714 0.9128331 0.3912503 -0.03912191 0.9194933 0.3911541 -0.07803686 0.6903155 -0.7192877 -0.1940142 0.8997254 0.3909638 -0.2262065 0.6643904 -0.7123314 -0.3647649 0.6163166 -0.6979258 -0.3430209 0.8540681 0.3910298 -0.4824877 0.7836596 0.3912585 -0.4830832 0.549674 -0.6815344 -0.6080091 0.6908118 0.3912851 -0.5832141 0.4706894 -0.6620519 -0.6609167 0.3828277 -0.6454705 -0.7160611 0.5781028 0.3912208 -0.8035418 0.4487677 0.3910602 -0.7195335 0.2898748 -0.6310659 -0.8677406 0.3067167 0.3910897 -0.7596201 0.194278 -0.6206717 -0.7868312 0.09771013 -0.6093844 -0.9070299 0.1555667 0.3912746 -0.9202525 -2.846283e-07 0.3913251 -0.7997059 -5.992475e-05 -0.6003919 0.9170682 -0.07796111 0.3910345 0.7872379 -0.09762577 -0.6088725 0.8906276 -0.2318484 0.3911889 0.7600676 -0.1944688 -0.6200638 0.8385916 -0.3790614 0.3912501 0.7624569 -0.5153733 0.3912159 0.7193991 -0.2897346 -0.6312834 0.6610556 -0.3831555 -0.6451335 0.6643797 -0.6369481 0.3910201 0.5830736 -0.4705742 -0.6622576 0.5473776 -0.7399411 0.3909794 0.4143845 -0.8217518 0.3911643 0.4829826 -0.5499584 -0.6813763 0.3646029 -0.6161182 -0.6981855 0.2694921 -0.8799399 0.391254 0.2261735 -0.6647069 -0.7120465 0.1168712 -0.9128332 0.3912501 -0.03924893 -0.9195502 0.3910075 0.0778806 -0.6900317 -0.7195769 -0.07776299 -0.690343 -0.719291 -0.1938051 -0.8997857 0.3909287 -0.2260286 -0.6644236 -0.7123569 -0.34309 -0.8539899 0.3911401 -0.4824875 -0.7836594 0.3912591 -0.3646587 -0.6163848 -0.6979211 -0.4828483 -0.5497226 -0.6816616 -0.6080091 -0.6908118 0.391285 -0.5831792 -0.4707637 -0.6620299 -0.716252 -0.5780165 0.3909988 -0.8035015 -0.4489941 0.3908831 -0.6610021 -0.3828673 -0.6453595 -0.7194363 -0.2899344 -0.6311493 -0.8677364 -0.3066821 0.3911261 -0.759765 -0.1942789 -0.620494 -0.9070295 -0.1555664 0.3912757 -0.7863079 -0.09777112 -0.6100497 0.5834081 -0.7213897 -0.3731379 0.6479034 -0.6640275 -0.373214 0.7075111 -0.6000909 -0.3732545 0.7604793 -0.531362 -0.3732635 0.8069167 -0.457734 -0.3733161 0.8463102 -0.3800807 -0.3732261 0.8780906 -0.2992801 -0.3733475 0.9023685 -0.2155274 -0.3732011 0.9184876 -0.1304457 -0.3733154 0.9267374 0.04298904 -0.3732422 0.9267542 -0.04338918 -0.3731542 0.9186005 0.1302921 -0.3730912 0.9025378 0.214952 -0.3731236 0.8782401 0.2988995 -0.3733008 0.807115 0.4573621 -0.3733433 0.8464023 0.3798638 -0.3732381 0.7606761 0.5311173 -0.3732109 0.7077647 0.5997456 -0.3733288 0.6482436 0.6637208 -0.3731687 0.5836336 0.7211394 -0.373269 0.5130375 0.7730345 -0.373109 0.4390437 0.8173058 -0.3731646 0.3601683 0.85495 -0.3732818 0.2785877 0.8849133 -0.3732523 0.19451 0.9070769 -0.3733328 0.1085636 0.9213691 -0.3732196 0.02205048 0.9274337 -0.3733369 -0.06524141 0.9254608 -0.3731835 -0.15114 0.91532 -0.3732907 -0.2367631 0.897061 -0.3731284 -0.3190751 0.8711572 -0.3731973 -0.3996327 0.8372376 -0.3732653 -0.4761409 0.7962197 -0.3732613 -0.5486344 0.7480854 -0.373321 -0.6163952 0.6933686 -0.3732251 -0.67846 0.6326977 -0.3733438 -0.7844715 0.4952236 -0.373307 -0.7349361 0.5662092 -0.373197 -0.8276887 0.4191582 -0.3731459 -0.8630426 0.3403796 -0.3732282 -0.8912405 0.2576393 -0.3732457 -0.9236128 0.08705881 -0.3733098 -0.9113977 0.1732868 -0.3732639 -0.9277488 -5.097663e-15 -0.3732053 0.5128015 -0.7730995 -0.3732985 0.4385592 -0.8175546 -0.3731893 0.3597679 -0.8550925 -0.3733416 0.2783312 -0.8850067 -0.3732223 0.1940917 -0.9071681 -0.3733288 0.1082781 -0.9213882 -0.3732556 0.02162526 -0.9274691 -0.3732738 -0.06575318 -0.9254253 -0.3731815 -0.2370409 -0.8969245 -0.3732801 -0.1514183 -0.9153437 -0.3731198 -0.3195286 -0.8709998 -0.3731766 -0.400003 -0.8370307 -0.3733325 -0.4764126 -0.7960784 -0.3732161 -0.5489741 -0.7478274 -0.3733383 -0.6165798 -0.6931939 -0.3732448 -0.6787596 -0.6324071 -0.3732917 -0.7353008 -0.5657699 -0.373145 -0.8278148 -0.4188104 -0.3732566 -0.7846509 -0.4950957 -0.3730995 -0.8632229 -0.339995 -0.3731618 -0.8913297 -0.2572201 -0.3733218 -0.9114378 -0.1731255 -0.3732409 -0.923614 -0.08693655 -0.3733351 0.7171837 -0.6968842 -0.0001579848 0.7171837 0.6968842 -0.0001579848 0.7142017 0.6968134 0.06608372 -0.0662737 -0.6977848 -0.713235 0.7049686 0.6969128 0.1316507 0.7142017 -0.6968134 0.06608372 0.689916 0.6968083 0.1961482 0.7049686 -0.6969128 0.1316507 0.689916 -0.6968083 0.1961482 0.6687825 0.6969016 0.2589556 0.6421179 0.6968249 0.3195616 0.6687825 -0.6969016 0.2589556 0.6098309 0.6968831 0.3774389 0.6421179 -0.6968249 0.3195616 0.6098309 -0.6968831 0.3774389 0.5724646 0.6968515 0.4320675 0.5300995 0.6968331 0.4831336 0.5724646 -0.6968515 0.4320675 0.4832633 0.6969034 0.5298888 0.5300995 -0.6968331 0.4831336 0.4832633 -0.6969034 0.5298888 0.4323421 0.6968027 0.5723166 0.377624 0.6969091 0.6096867 0.4323421 -0.6968027 0.5723166 0.3198464 0.6968248 0.6419762 0.377624 -0.6969091 0.6096867 0.3198464 -0.6968248 0.6419762 0.2592184 0.6968893 0.6686937 0.1964302 0.6968272 0.6898167 0.2592184 -0.6968893 0.6686937 0.1319062 0.6968804 0.7049528 0.1964302 -0.6968272 0.6898167 0.1319062 -0.6968804 0.7049528 0.06636116 0.6968544 0.714136 0 0.6968053 0.7172603 0.06636116 -0.6968544 0.714136 -3.067945e-19 -0.6968053 0.7172603 0.7141485 -0.6968496 -0.06627675 0.7141485 0.6968496 -0.06627675 0.7049788 -0.696843 -0.131965 0.6897664 -0.6968876 -0.1963925 0.7049788 0.696843 -0.131965 0.6687543 -0.696821 -0.2592453 0.6897664 0.6968876 -0.1963925 0.6687543 0.696821 -0.2592453 0.6419202 -0.696901 -0.3197929 0.6097456 -0.696815 -0.3777025 0.6419202 0.696901 -0.3197929 0.5722367 -0.6969088 -0.4322769 0.6097456 0.696815 -0.3777025 0.5722367 0.6969088 -0.4322769 0.5299929 -0.6968142 -0.4832778 0.4830485 -0.6968824 -0.5301123 0.5299929 0.6968142 -0.4832778 0.4321362 -0.6968498 -0.5724147 0.4830485 0.6968824 -0.5301123 0.4321362 0.6968498 -0.5724147 0.3774057 -0.6968389 -0.609902 0.3195623 -0.6969005 -0.6420356 0.3774057 0.6968389 -0.609902 0.2592042 -0.6970631 -0.668518 0.3195623 0.6969005 -0.6420356 0.1961667 -0.6976057 -0.6891045 0.2592042 0.6970631 -0.6685179 0.1317077 -0.6977381 -0.704141 0.06616905 -0.6978175 -0.7132127 -2.553876e-06 -0.6977423 -0.7163489 0.1317094 0.697738 -0.7041408 0.06616341 0.6978148 -0.7132159 -0.2594481 0.697139 -0.6683442 -0.2594481 -0.697139 -0.6683442 -0.1318114 -0.697775 -0.7040851 -0.377624 0.6969091 -0.6096867 -0.377624 -0.6969091 -0.6096867 -0.4323421 -0.6968027 -0.5723166 -0.3198464 -0.6968248 -0.6419762 -0.3198464 0.6968248 -0.6419762 -0.5300995 -0.6968331 -0.4831336 -0.5724454 -0.6968585 -0.4320817 -0.5300995 0.6968331 -0.4831336 -0.4832633 -0.6969034 -0.5298888 -0.4832633 0.6969034 -0.5298888 -0.4323421 0.6968027 -0.5723166 -0.6687831 -0.6969014 -0.2589549 -0.6421212 0.6968305 -0.3195429 -0.6421212 -0.6968305 -0.3195429 -0.6098389 0.6968706 -0.3774492 -0.5724454 0.6968585 -0.4320817 -0.6098389 -0.6968706 -0.3774492 -0.7049686 0.6969128 -0.1316507 -0.7049686 -0.6969128 -0.1316507 -0.7142017 -0.6968134 -0.06608372 -0.6687831 0.6969014 -0.2589549 -0.689916 -0.6968086 -0.1961472 -0.689916 0.6968086 -0.1961472 -0.7141483 -0.6968497 0.06627647 -0.7049789 -0.6968429 0.1319646 -0.7141483 0.6968497 0.06627647 -0.7171837 -0.6968841 0.0001581189 -0.7171837 0.6968841 0.0001581189 -0.7142017 0.6968134 -0.06608372 -0.6419202 -0.696901 0.3197929 -0.6687543 0.696821 0.2592453 -0.6687543 -0.696821 0.2592453 -0.6897664 0.6968876 0.1963925 -0.7049789 0.6968429 0.1319646 -0.6897664 -0.6968876 0.1963925 -0.5722367 0.6969088 0.4322769 -0.5722367 -0.6969088 0.4322769 -0.5299929 -0.6968142 0.4832778 -0.6419202 0.696901 0.3197929 -0.6097456 -0.696815 0.3777025 -0.6097456 0.696815 0.3777025 -0.4830485 0.6968824 0.5301123 -0.4830485 -0.6968824 0.5301123 -0.4321362 -0.6968498 0.5724147 -0.5299929 0.6968142 0.4832778 -0.3774057 -0.6968389 0.609902 -0.4321362 0.6968498 0.5724147 -0.3195623 -0.6969005 0.6420356 -0.3774057 0.6968389 0.609902 -0.3195623 0.6969005 0.6420356 -0.2589703 -0.6968089 0.6688735 -0.196134 -0.696911 0.6898163 -0.2589703 0.6968089 0.6688735 -0.1318012 -0.6968491 0.7050034 -0.196134 0.696911 0.6898163 -0.1318012 0.6968491 0.7050034 -0.06625109 -0.6968871 0.7141142 -0.06625109 0.6968871 0.7141142 -0.1964688 0.6975158 -0.6891094 -0.196472 -0.6975188 -0.6891054 -0.1318191 0.6977742 -0.7040844 -0.06627203 0.6977887 -0.7132314 4.597214e-06 0.6977404 -0.7163507 0.1961662 0.6976049 -0.6891054 0.4213094 -0.7220803 -0.5487244 0.3460811 -0.7221493 -0.5989393 -0.5488034 -0.7221066 -0.4211614 0.1790663 -0.7221308 -0.6681784 -0.6681224 -0.7221559 -0.1791743 -0.09010119 -0.7221325 -0.6858618 0.0002347796 -0.7221283 -0.6917591 -0.5990227 -0.7220931 -0.3460541 -0.1789866 -0.7221708 -0.6681565 -0.4209353 -0.7221385 -0.5489349 -0.3456865 -0.7221097 -0.5992148 -0.489068 -0.722161 -0.4891789 -0.2646849 -0.7220783 -0.6391751 0.09043395 -0.7220829 -0.6858702 -0.6390078 -0.7221273 -0.2649552 0.2648105 -0.7221496 -0.6390426 -0.6858259 -0.7221399 -0.09031538 -0.6918048 -0.7220846 -0.0001090364 0.4891872 -0.7221117 -0.4891324 -0.6858806 -0.7221191 0.09006541 0.5488362 -0.7221621 -0.4210235 -0.6682261 -0.7221398 0.1788517 -0.6391039 -0.7221542 0.2646497 0.599187 -0.7221357 -0.3456803 -0.5991407 -0.7221013 0.3458325 -0.5489655 -0.7220976 0.4209655 -0.4892848 -0.7221485 0.4889804 0.639207 -0.72211 -0.2645216 -0.4211862 -0.7221429 0.5487365 0.6682522 -0.7220857 -0.1789727 0.6858205 -0.7221525 -0.09025573 0.6917397 -0.7221469 0.0001695929 -0.179278 -0.7221398 0.6681119 0.6858116 -0.7221258 0.09053585 -0.09042365 -0.7221491 0.6858019 0.6681903 -0.722087 0.1791986 0 -0.7221525 0.6917339 0.5989899 -0.7221632 0.3459646 0.09036905 -0.7221305 0.6858287 0.2645181 -0.7221469 0.6391666 0.5486616 -0.7221272 0.4213108 0.4890513 -0.7220915 0.4892982 0.4210854 -0.7221145 0.5488513 0.3457978 -0.7221506 0.5991013 0.1789545 -0.7220616 0.6682831 0.6390981 -0.7221212 0.2647539 -0.2649029 -0.7220779 0.6390853 -0.3459177 -0.7221293 0.5990578 0.3456865 0.7221097 -0.5992148 0.4209353 0.7221385 -0.5489349 -0.5488362 0.7221621 -0.4210235 0.1789866 0.7221708 -0.6681565 -0.6682522 0.7220857 -0.1789727 -0.09043395 0.7220829 -0.6858702 -0.0002347796 0.7221283 -0.6917591 -0.599187 0.7221357 -0.3456803 -0.1790663 0.7221308 -0.6681784 -0.4213094 0.7220803 -0.5487244 -0.3460811 0.7221493 -0.5989393 -0.4891872 0.7221117 -0.4891324 -0.2648105 0.7221496 -0.6390426 0.09010119 0.7221325 -0.6858618 -0.639207 0.72211 -0.2645216 0.2646849 0.7220783 -0.6391751 -0.6858205 0.7221525 -0.09025573 -0.6917397 0.7221469 0.0001695929 0.489068 0.722161 -0.4891789 -0.6858116 0.7221258 0.09053585 0.5488034 0.7221066 -0.4211614 -0.6681903 0.722087 0.1791986 -0.6390981 0.7221212 0.2647539 0.5990227 0.7220931 -0.3460541 -0.5989899 0.7221632 0.3459646 -0.5486616 0.7221272 0.4213108 -0.4890513 0.7220915 0.4892982 0.6390078 0.7221273 -0.2649552 -0.4210854 0.7221145 0.5488513 0.6681224 0.7221559 -0.1791743 0.6858259 0.7221399 -0.09031538 0.6918048 0.7220846 -0.0001090364 -0.1789545 0.7220616 0.6682831 0.6858806 0.7221191 0.09006541 -0.09036905 0.7221305 0.6858287 0.6682261 0.7221398 0.1788517 3.283943e-17 0.7221525 0.6917339 0.5991407 0.7221013 0.3458325 0.09042365 0.7221491 0.6858019 0.2649029 0.7220779 0.6390853 0.5489655 0.7220976 0.4209655 0.4892848 0.7221485 0.4889804 0.4211862 0.7221429 0.5487365 0.3459177 0.7221293 0.5990578 0.179278 0.7221398 0.6681119 0.6391039 0.7221542 0.2646497 -0.2645181 0.7221469 0.6391666 -0.3457978 0.7221506 0.5991013</float_array>
          <technique_common>
            <accessor count="374" source="#normals-array-array" stride="3">
              <param type="float" name="X" />
              <param type="float" name="Y" />
              <param type="float" name="Z" />
            </accessor>
          </technique_common>
        </source>
        <vertices id="verts-array-vertices">
          <input semantic="POSITION" source="#verts-array" />
        </vertices>
        <triangles count="748" material="material0">
          <input offset="0" semantic="VERTEX" source="#verts-array-vertices" />
          <input offset="1" semantic="NORMAL" source="#normals-array" />
          <p>0 0 1 1 2 2 1 1 3 3 4 4 3 3 1 1 0 0 5 5 4 4 6 6 3 3 6 6 4 4 7 7 8 8 5 5 5 5 6 6 7 7 8 8 9 9 10 10 9 9 8 8 7 7 11 11 10 10 12 12 9 9 12 12 10 10 13 13 14 14 11 11 11 11 12 12 13 13 14 14 15 15 16 16 15 15 14 14 13 13 17 17 16 16 18 18 15 15 18 18 16 16 19 19 20 20 17 17 17 17 18 18 19 19 20 20 21 21 22 22 21 21 20 20 19 19 23 23 22 22 24 24 21 21 24 24 22 22 25 25 26 26 23 23 23 23 24 24 25 25 26 26 27 27 28 28 27 27 26 26 25 25 29 29 28 28 30 30 27 27 30 30 28 28 31 31 32 32 29 29 29 29 30 30 31 31 32 32 33 33 34 34 33 33 32 32 31 31 35 35 34 34 36 36 33 33 36 36 34 34 37 37 38 38 35 35 35 35 36 36 37 37 0 0 2 2 39 39 40 40 41 41 39 39 39 39 2 2 40 40 41 41 42 42 43 43 42 42 41 41 40 40 44 44 43 43 45 45 42 42 45 45 43 43 46 46 47 47 44 44 44 44 45 45 46 46 47 47 48 48 49 49 48 48 47 47 46 46 50 50 49 49 51 51 48 48 51 51 49 49 52 52 53 53 50 50 50 50 51 51 52 52 53 53 54 54 55 55 54 54 53 53 52 52 56 56 55 55 57 57 54 54 57 57 55 55 58 58 59 59 56 56 56 56 57 57 58 58 59 59 60 60 61 61 60 60 59 59 58 58 62 62 61 61 63 63 60 60 63 63 61 61 64 64 65 65 62 62 62 62 63 63 64 64 65 65 66 66 67 67 66 66 65 65 64 64 68 68 67 67 69 69 66 66 69 69 67 67 70 70 71 71 68 68 68 68 69 69 70 70 71 71 72 72 73 73 72 72 71 71 70 70 37 37 73 73 74 74 72 72 74 74 73 73 37 37 74 74 38 38 75 75 76 76 49 49 47 47 76 76 77 77 76 76 47 47 49 49 78 78 44 44 77 77 47 47 77 77 44 44 79 79 43 43 44 44 44 44 78 78 79 79 80 80 81 81 43 43 80 80 43 43 79 79 41 41 81 81 82 82 81 81 41 41 43 43 39 39 41 41 83 83 82 82 83 83 41 41 84 84 39 39 85 85 39 39 83 83 85 85 84 84 86 86 0 0 0 0 39 39 84 84 0 0 87 87 3 3 87 87 0 0 86 86 6 6 3 3 88 88 87 87 88 88 3 3 89 89 6 6 90 90 6 6 88 88 90 90 89 89 91 91 7 7 7 7 6 6 89 89 7 7 92 92 9 9 92 92 7 7 91 91 9 9 93 93 94 94 92 92 93 93 9 9 95 95 12 12 94 94 9 9 94 94 12 12 96 96 13 13 12 12 12 12 95 95 96 96 13 13 97 97 15 15 97 97 13 13 96 96 15 15 98 98 99 99 97 97 98 98 15 15 100 100 18 18 99 99 15 15 99 99 18 18 101 101 19 19 18 18 18 18 100 100 101 101 102 102 103 103 19 19 102 102 19 19 101 101 21 21 103 103 104 104 103 103 21 21 19 19 24 24 21 21 105 105 104 104 105 105 21 21 106 106 25 25 24 24 24 24 105 105 106 106 107 107 108 108 25 25 107 107 25 25 106 106 27 27 108 108 109 109 108 108 27 27 25 25 30 30 27 27 110 110 109 109 110 110 27 27 111 111 30 30 112 112 30 30 110 110 112 112 111 111 113 113 31 31 31 31 30 30 111 111 31 31 114 114 33 33 114 114 31 31 113 113 36 36 33 33 115 115 114 114 115 115 33 33 116 116 36 36 117 117 36 36 115 115 117 117 116 116 118 118 37 37 37 37 36 36 116 116 119 119 75 75 49 49 119 119 50 50 120 120 50 50 119 119 49 49 53 53 121 121 50 50 120 120 50 50 121 121 122 122 53 53 123 123 122 122 121 121 53 53 124 124 123 123 55 55 53 53 55 55 123 123 55 55 56 56 125 125 125 125 124 124 55 55 126 126 56 56 59 59 56 56 126 126 125 125 59 59 127 127 128 128 126 126 59 59 128 128 127 127 61 61 129 129 61 61 127 127 59 59 62 62 130 130 61 61 129 129 61 61 130 130 131 131 62 62 132 132 131 131 130 130 62 62 133 133 132 132 65 65 62 62 65 65 132 132 65 65 67 67 134 134 134 134 133 133 65 65 135 135 67 67 68 68 67 67 135 135 134 134 68 68 136 136 137 137 135 135 68 68 137 137 136 136 71 71 138 138 71 71 136 136 68 68 73 73 139 139 71 71 138 138 71 71 139 139 140 140 73 73 141 141 140 140 139 139 73 73 73 73 37 37 141 141 141 141 37 37 118 118 131 131 132 132 130 130 80 80 106 106 105 105 136 136 135 135 137 137 139 139 136 136 138 138 135 135 132 132 134 134 132 132 133 133 134 134 132 132 136 136 130 130 136 136 132 132 135 135 129 129 130 130 127 127 139 139 130 130 136 136 139 139 127 127 130 130 128 128 127 127 140 140 139 139 140 140 127 127 128 128 141 141 126 126 141 141 128 128 140 140 118 118 125 125 126 126 126 126 141 141 118 118 123 123 117 117 115 115 124 124 125 125 116 116 111 111 120 120 113 113 114 114 121 121 122 122 110 110 109 109 76 76 119 119 112 112 75 75 79 79 107 107 106 106 78 78 77 77 108 108 103 103 82 82 104 104 105 105 81 81 80 80 101 101 100 100 84 84 83 83 102 102 85 85 89 89 88 88 97 97 86 86 100 100 99 99 95 95 94 94 96 96 96 96 89 89 97 97 89 89 90 90 88 88 91 91 89 89 92 92 94 94 93 93 92 92 96 96 94 94 89 89 94 94 92 92 89 89 98 98 88 88 99 99 97 97 88 88 98 98 86 86 99 99 87 87 99 99 88 88 87 87 84 84 85 85 101 101 100 100 86 86 84 84 83 83 103 103 102 102 85 85 102 102 101 101 81 81 104 104 82 82 82 82 103 103 83 83 79 79 106 106 80 80 105 105 104 104 81 81 107 107 78 78 108 108 79 79 78 78 107 107 77 77 76 76 109 109 77 77 109 109 108 108 75 75 112 112 110 110 75 75 110 110 76 76 111 111 112 112 119 119 121 121 113 113 120 120 120 120 111 111 119 119 115 115 114 114 122 122 114 114 113 113 121 121 117 117 123 123 124 124 115 115 122 122 123 123 125 125 118 118 116 116 117 117 124 124 116 116 142 142 143 143 144 144 58 58 145 145 60 60 146 146 147 147 144 144 142 142 144 144 147 147 146 146 148 148 149 149 149 149 147 147 146 146 150 150 148 148 151 151 148 148 150 150 149 149 152 152 153 153 151 151 150 150 151 151 153 153 152 152 154 154 155 155 155 155 153 153 152 152 156 156 154 154 157 157 154 154 156 156 155 155 158 158 159 159 157 157 156 156 157 157 159 159 158 158 160 160 161 161 161 161 159 159 158 158 162 162 160 160 163 163 160 160 162 162 161 161 164 164 165 165 163 163 162 162 163 163 165 165 164 164 166 166 167 167 167 167 165 165 164 164 168 168 166 166 169 169 166 166 168 168 167 167 170 170 171 171 169 169 168 168 169 169 171 171 170 170 172 172 173 173 173 173 171 171 170 170 174 174 172 172 175 175 172 172 174 174 173 173 176 176 177 177 175 175 174 174 175 175 177 177 178 178 177 177 176 176 179 179 143 143 142 142 180 180 179 179 181 181 179 179 180 180 143 143 182 182 183 183 181 181 180 180 181 181 183 183 182 182 184 184 185 185 185 185 183 183 182 182 186 186 184 184 187 187 184 184 186 186 185 185 188 188 189 189 187 187 186 186 187 187 189 189 188 188 190 190 191 191 191 191 189 189 188 188 192 192 190 190 193 193 190 190 192 192 191 191 194 194 195 195 193 193 192 192 193 193 195 195 194 194 196 196 197 197 197 197 195 195 194 194 198 198 196 196 199 199 196 196 198 198 197 197 200 200 201 201 199 199 198 198 199 199 201 201 200 200 202 202 203 203 203 203 201 201 200 200 204 204 42 42 40 40 202 202 205 205 203 203 46 46 206 206 48 48 204 204 45 45 42 42 54 54 52 52 207 207 48 48 206 206 51 51 208 208 58 58 57 57 11 11 14 14 209 209 210 210 16 16 17 17 211 211 38 38 212 212 66 66 64 64 213 213 214 214 215 215 216 216 211 211 217 217 218 218 219 219 220 220 221 221 222 222 223 223 224 224 225 225 226 226 227 227 228 228 229 229 230 230 231 231 232 232 233 233 234 234 235 235 236 236 237 237 238 238 239 239 240 240 241 241 242 242 243 243 244 244 245 245 246 246 247 247 248 248 249 249 250 250 251 251 252 252 253 253 254 254 255 255 256 256 257 257 256 256 255 255 258 258 259 259 260 260 257 257 255 255 257 257 260 260 259 259 261 261 262 262 262 262 260 260 259 259 263 263 261 261 264 264 261 261 263 263 262 262 265 265 266 266 264 264 263 263 264 264 266 266 265 265 267 267 268 268 268 268 266 266 265 265 269 269 267 267 270 270 267 267 269 269 268 268 178 178 271 271 270 270 269 269 270 270 271 271 176 176 271 271 178 178 258 258 249 249 251 251 251 251 256 256 258 258 254 254 253 253 250 250 254 254 250 250 249 249 252 252 244 244 243 243 252 252 243 243 253 253 245 245 246 246 248 248 244 244 246 246 245 245 238 238 247 247 239 239 248 248 247 247 238 238 240 240 237 237 241 241 237 237 239 239 241 241 231 231 233 233 242 242 233 233 240 240 242 242 236 236 235 235 232 232 236 236 232 232 231 231 234 234 226 226 225 225 234 234 225 225 235 235 227 227 228 228 230 230 226 226 228 228 227 227 220 220 229 229 221 221 230 230 229 229 220 220 222 222 219 219 223 223 219 219 221 221 223 223 214 214 216 216 224 224 216 216 222 222 224 224 218 218 217 217 215 215 218 218 215 215 214 214 272 272 38 38 211 211 211 211 212 212 217 217 69 69 273 273 70 70 70 70 273 273 72 72 63 63 60 60 145 145 63 63 213 213 64 64 74 74 273 273 38 38 273 273 212 212 38 38 32 32 34 34 272 272 273 273 74 74 72 72 29 29 274 274 28 28 273 273 69 69 213 213 26 26 28 28 274 274 213 213 69 69 66 66 22 22 23 23 275 275 213 213 63 63 145 145 23 23 26 26 274 274 17 17 20 20 276 276 145 145 58 58 208 208 20 20 22 22 275 275 54 54 207 207 57 57 207 207 208 208 57 57 210 210 14 14 16 16 51 51 206 206 52 52 206 206 207 207 52 52 209 209 10 10 11 11 5 5 8 8 277 277 206 206 46 46 204 204 8 8 10 10 209 209 4 4 5 5 277 277 204 204 46 46 45 45 202 202 2 2 205 205 40 40 2 2 204 204 204 204 2 2 202 202 1 1 277 277 2 2 277 277 205 205 2 2 277 277 1 1 4 4 209 209 277 277 8 8 209 209 14 14 210 210 210 210 17 17 276 276 275 275 276 276 20 20 274 274 275 275 23 23 274 274 29 29 272 272 272 272 29 29 32 32 38 38 272 272 35 35 272 272 34 34 35 35 259 259 278 278 279 279 280 280 159 159 161 161 281 281 265 265 264 264 149 149 150 150 282 282 283 283 177 177 284 284 156 156 285 285 155 155 174 174 286 286 173 173 287 287 162 162 165 165 167 167 287 287 165 165 288 288 167 167 168 168 161 161 162 162 289 289 168 168 171 171 290 290 283 283 174 174 177 177 290 290 171 171 173 173 156 156 280 280 285 285 270 270 284 284 178 178 291 291 270 270 267 267 292 292 153 153 155 155 281 281 267 267 265 265 261 261 293 293 264 264 282 282 150 150 153 153 294 294 147 147 149 149 261 261 259 259 279 279 278 278 257 257 256 256 142 142 147 147 295 295 256 256 251 251 296 296 295 295 297 297 179 179 250 250 298 298 251 251 182 182 181 181 299 299 253 253 298 298 250 250 299 299 300 300 184 184 243 243 301 301 253 253 187 187 300 300 302 302 303 303 190 190 188 188 304 304 193 193 303 303 243 243 245 245 305 305 194 194 306 306 196 196 305 305 245 245 307 307 238 238 237 237 308 308 248 248 238 238 307 307 309 309 308 308 237 237 233 233 309 309 240 240 204 204 202 202 310 310 311 311 233 233 232 232 310 310 312 312 206 206 232 232 235 235 313 313 314 314 208 208 207 207 227 227 230 230 315 315 145 145 314 314 316 316 317 317 217 217 212 212 230 230 318 318 315 315 222 222 319 319 219 219 181 181 179 179 297 297 215 215 320 320 216 216 317 317 321 321 217 217 321 321 320 320 215 215 217 217 321 321 215 215 317 317 273 273 322 322 317 317 212 212 273 273 220 220 219 219 318 318 322 322 273 273 213 213 213 213 145 145 316 316 316 316 322 322 213 213 313 313 235 235 225 225 225 225 227 227 323 323 145 145 208 208 314 314 324 324 202 202 200 200 306 306 325 325 199 199 320 320 319 319 222 222 320 320 222 222 216 216 319 319 318 318 219 219 220 220 318 318 230 230 315 315 323 323 227 227 323 323 313 313 225 225 313 313 311 311 232 232 311 311 309 309 233 233 240 240 309 309 237 237 308 308 307 307 238 238 248 248 307 307 245 245 305 305 301 301 243 243 301 301 298 298 253 253 298 298 296 296 251 251 296 296 278 278 256 256 257 257 278 278 259 259 279 279 293 293 261 261 293 293 281 281 264 264 281 281 291 291 267 267 291 291 284 284 270 270 178 178 284 284 177 177 283 283 286 286 174 174 286 286 290 290 173 173 290 290 288 288 168 168 288 288 287 287 167 167 287 287 289 289 162 162 289 289 280 280 161 161 159 159 280 280 156 156 285 285 292 292 155 155 292 292 282 282 153 153 282 282 294 294 149 149 294 294 295 295 147 147 142 142 295 295 179 179 182 182 299 299 184 184 297 297 299 299 181 181 184 184 300 300 187 187 187 187 302 302 188 188 193 193 190 190 303 303 188 188 302 302 303 303 194 194 193 193 304 304 306 306 199 199 196 196 306 306 194 194 304 304 325 325 200 200 199 199 324 324 310 310 202 202 325 325 324 324 200 200 204 204 310 310 206 206 206 206 312 312 207 207 314 314 207 207 312 312 262 262 326 326 327 327 328 328 158 158 157 157 329 329 266 266 268 268 146 146 330 330 148 148 331 331 332 332 175 175 154 154 152 152 333 333 172 172 170 170 334 334 335 335 163 163 160 160 164 164 163 163 335 335 336 336 166 166 164 164 158 158 337 337 160 160 166 166 338 338 169 169 331 331 175 175 172 172 338 338 170 170 169 169 154 154 333 333 328 328 271 271 176 176 332 332 339 339 269 269 271 271 340 340 152 152 151 151 329 329 268 268 269 269 263 263 266 266 341 341 330 330 151 151 148 148 342 342 146 146 144 144 263 263 326 326 262 262 327 327 255 255 260 260 143 143 343 343 144 144 255 255 344 344 258 258 343 343 180 180 345 345 249 249 258 258 346 346 185 185 347 347 183 183 254 254 249 249 346 346 347 347 186 186 348 348 252 252 254 254 349 349 189 189 350 350 348 348 351 351 191 191 192 192 352 352 351 351 195 195 252 252 353 353 244 244 197 197 198 198 354 354 353 353 355 355 244 244 247 247 356 356 239 239 246 246 355 355 247 247 357 357 239 239 356 356 242 242 241 241 357 357 277 277 358 358 205 205 359 359 231 231 242 242 358 358 209 209 360 360 231 231 361 361 236 236 362 362 210 210 276 276 226 226 363 363 228 228 275 275 364 364 362 362 365 365 211 211 218 218 228 228 363 363 366 366 223 223 221 221 367 367 183 183 345 345 180 180 214 214 224 224 368 368 365 365 218 218 369 369 369 369 214 214 368 368 218 218 214 214 369 369 365 365 370 370 272 272 365 365 272 272 211 211 229 229 366 366 221 221 370 370 274 274 272 272 274 274 364 364 275 275 364 364 274 274 370 370 361 361 234 234 236 236 234 234 371 371 226 226 275 275 362 362 276 276 372 372 203 203 205 205 354 354 201 201 373 373 368 368 223 223 367 367 368 368 224 224 223 223 367 367 221 221 366 366 229 229 228 228 366 366 363 363 226 226 371 371 371 371 234 234 361 361 361 361 231 231 359 359 359 359 242 242 357 357 241 241 239 239 357 357 356 356 247 247 355 355 246 246 244 244 355 355 353 353 252 252 349 349 349 349 254 254 346 346 346 346 258 258 344 344 344 344 255 255 327 327 260 260 262 262 327 327 326 326 263 263 341 341 341 341 266 266 329 329 329 329 269 269 339 339 339 339 271 271 332 332 176 176 175 175 332 332 331 331 172 172 334 334 334 334 170 170 338 338 338 338 166 166 336 336 336 336 164 164 335 335 335 335 160 160 337 337 337 337 158 158 328 328 157 157 154 154 328 328 333 333 152 152 340 340 340 340 151 151 330 330 330 330 146 146 342 342 342 342 144 144 343 343 143 143 180 180 343 343 185 185 186 186 347 347 345 345 183 183 347 347 186 186 189 189 348 348 189 189 191 191 350 350 195 195 351 351 192 192 191 191 351 351 350 350 197 197 352 352 195 195 354 354 198 198 201 201 354 354 352 352 197 197 373 373 201 201 203 203 372 372 205 205 358 358 373 373 203 203 372 372 277 277 209 209 358 358 209 209 210 210 360 360 362 362 360 360 210 210 360 360 362 362 314 314 373 373 372 372 324 324 358 358 312 312 310 310 304 304 351 351 352 352 325 325 306 306 354 354 348 348 300 300 347 347 350 350 303 303 302 302 342 342 343 343 295 295 297 297 345 345 299 299 292 292 333 333 340 340 294 294 282 282 330 330 337 337 289 289 335 335 328 328 285 285 280 280 334 334 338 338 290 290 288 288 336 336 287 287 284 284 339 339 332 332 286 286 283 283 331 331 341 341 293 293 326 326 329 329 291 291 281 281 346 346 344 344 296 296 278 278 327 327 279 279 305 305 355 355 353 353 298 298 301 301 349 349 357 357 309 309 359 359 356 356 307 307 308 308 311 311 361 361 359 359 359 359 309 309 311 311 371 371 361 361 313 313 311 311 313 313 361 361 371 371 323 323 363 363 323 323 371 371 313 313 315 315 366 366 363 363 363 363 323 323 315 315 367 367 366 366 318 318 315 315 318 318 366 366 367 367 319 319 368 368 319 319 367 367 318 318 320 320 369 369 368 368 368 368 319 319 320 320 365 365 369 369 321 321 320 320 321 321 369 369 365 365 317 317 370 370 317 317 365 365 321 321 322 322 364 364 370 370 370 370 317 317 322 322 362 362 364 364 316 316 322 322 316 316 364 364 314 314 362 362 316 316 356 356 308 308 357 357 357 357 308 308 309 309 305 305 307 307 355 355 355 355 307 307 356 356 301 301 353 353 349 349 301 301 305 305 353 353 298 298 346 346 296 296 298 298 349 349 346 346 344 344 327 327 278 278 296 296 344 344 278 278 326 326 293 293 279 279 327 327 326 326 279 279 329 329 281 281 341 341 341 341 281 281 293 293 284 284 291 291 339 339 339 339 291 291 329 329 283 283 332 332 331 331 283 283 284 284 332 332 286 286 334 334 290 290 286 286 331 331 334 334 338 338 336 336 288 288 290 290 338 338 288 288 335 335 289 289 287 287 336 336 335 335 287 287 328 328 280 280 337 337 337 337 280 280 289 289 292 292 285 285 333 333 333 333 285 285 328 328 282 282 340 340 330 330 282 282 292 292 340 340 294 294 342 342 295 295 294 294 330 330 342 342 343 343 345 345 297 297 295 295 343 343 297 297 347 347 300 300 299 299 345 345 347 347 299 299 350 350 302 302 348 348 348 348 302 302 300 300 304 304 303 303 351 351 351 351 303 303 350 350 306 306 352 352 354 354 306 306 304 304 352 352 325 325 373 373 324 324 325 325 354 354 373 373 372 372 358 358 310 310 324 324 372 372 310 310 360 360 314 314 312 312 358 358 360 360 312 312</p>
        </triangles>
      </mesh>
    </geometry>
  </library_geometries>
  <library_materials>
    <material id="6cf7de6ef13b4806b4842220d50e9192" name="defaultmaterial">
      <instance_effect url="#25bfd442c03e4836922850a06dc1beba" />
    </material>
  </library_materials>
  <library_visual_scenes>
    <visual_scene id="scene">
      <node id="node0" name="node0">
        <instance_geometry url="#bc0861c57a7849e88cf3947999f6d065">
          <bind_material>
            <technique_common>
              <instance_material symbol="material0" target="#6cf7de6ef13b4806b4842220d50e9192" />
            </technique_common>
          </bind_material>
        </instance_geometry>
      </node>
    </visual_scene>
  </library_visual_scenes>
  <scene>
    <instance_visual_scene url="#scene" />
  </scene>
</COLLADA>