<COLLADA xmlns="http://www.collada.org/2005/11/COLLADASchema" version="1.4.1">
  <asset>
    <created>2026-02-10T22:53:39.141534</created>
    <modified>2026-02-10T22:53:39.141543</modified>
    <up_axis>Y_UP</up_axis>
  </asset>
  <library_effects>
    <effect id="05165b54bc8d4c9ebf2e1532cc686262" name="05165b54bc8d4c9ebf2e1532cc686262">
      <profile_COMMON>
        <technique sid="common">
          <phong>
            <emission>
              <color>0.0 0.0 0.0 1.0</color>
            </emission>
            <ambient>
              <color>0.300000 0.300000 0.300000 1.0</color>
            </ambient>
            <diffuse>
              <color>1.000000 1.000000 1.000000 1.0</color>
            </diffuse>
            <specular>
              <color>0.196000 0.196000 0.196000 1.0</color>
            </specular>
            <shininess>
              <float>20.0</float>
            </shininess>
            <reflective>
              <color>0.0 0.0 0.0 1.0</color>
            </reflective>
            <reflectivity>
              <float>0.0</float>
            </reflectivity>
            <transparent>
              <color>0.0 0.0 0.0 1.0</color>
            </transparent>
            <transparency>
              <float>1.0</float>
            </transparency>
          </phong>
        </technique>
        <extra>
          <technique profile="GOOGLEEARTH">
            <double_sided>0</double_sided>
          </technique>
        </extra>
      </profile_COMMON>
    </effect>
  </library_effects>
  <library_geometries>
    <geometry id="9870838d4e5647a8baa833145976393b" name="a009448e53fe40c1890d3668a5a26e3a">
      <mesh>
        <source id="verts-array">
          <float_array count="729" id="verts-array-array">0.038025 -0.00130165 -0.00270291 0.00409976 -0.000900113 -0.00286188 0.038025 -0.000830507 -0.00288275 0.00402661 0.000458531 -0.00296439 0.038025 0.000168211 -0.00299528 0.004 2.86268e-07 -0.003 0.038025 -0.000335893 -0.00298114 0.00402625 -0.000457627 -0.0029646 0.00410066 0.00090097 -0.00286134 0.038025 0.000667563 -0.00292478 0.038025 0.00114805 -0.00277164 0.00421172 0.00131646 -0.00269536 0.038025 0.0015961 -0.00254017 0.00434584 0.00169758 -0.00247339 0.038025 0.00199904 -0.00223693 0.00487351 0.00278427 0.00111625 0.038025 0.00281921 0.00102567 0.00495285 0.00292069 0.000683864 0.038025 0.00234549 -0.00187047 0.00463323 0.00233751 -0.00188056 0.0047644 0.00258783 -0.0015176 0.038025 0.00283165 -0.000990837 0.00495303 0.00292073 -0.000684249 0.038025 0.00295761 -0.000502519 0.00487396 0.00278465 -0.00111631 0.00499467 0.00299106 -0.000230896 0.038025 0.003 3.67394e-19 0.038025 0.00295446 0.000520735 0.00499469 0.00299083 0.000229199 0.038025 0.00262567 -0.00145116 0.038025 0.00259834 0.00149949 0.00476332 0.0025867 0.00151883 0.00463184 0.00233612 0.00188205 0.038025 0.00229855 0.00192781 0.00449018 0.00203906 -0.00220048 0.00448858 0.00203744 0.00220195 0.00434436 0.00169631 0.00247447 0.038025 0.0019289 0.00229762 0.00410002 0.000901252 0.00286152 0.038025 0.0010266 0.00281882 0.00421046 0.00131556 0.00269616 0.038025 0.00150059 0.00259767 0.00402637 0.000458063 0.00296443 0.004 4.59428e-18 0.003 0.038025 0 0.003 0.038025 0.000521292 0.00295432 0.00421017 -0.00131467 -0.00269661 0.038025 -0.00173601 -0.00244668 0.00434388 -0.00169508 -0.0024753 0.00448821 -0.00203662 -0.00220272 0.038025 -0.00212132 -0.00212132 0.00463143 -0.00233527 -0.00188305 0.038025 -0.00244668 -0.00173601 0.00476305 -0.00258619 -0.00151969 0.038025 -0.00270291 -0.00130165 0.00487317 -0.00278377 -0.00111782 0.00495267 -0.00292025 -0.000685052 0.038025 -0.00288275 -0.000830507 0.038025 -0.00298114 -0.000335893 0.00499464 -0.00299091 -0.000230325 0.038025 -0.00299528 0.000168211 0.00499474 -0.00299103 0.000229416 0.00495318 -0.00292105 0.000683227 0.038025 -0.00292478 0.000667563 0.038025 -0.00277164 0.00114805 0.00487426 -0.00278513 0.00111493 0.00476471 -0.00258843 0.00151665 0.038025 -0.00254017 0.0015961 0.038025 -0.00223693 0.00199904 0.00463368 -0.00233837 0.00187943 0.038025 -0.00187047 0.00234549 0.00449058 -0.00203997 0.00219967 0.00434628 -0.00169867 0.00247261 0.038025 -0.00145116 0.00262567 0.038025 -0.000990837 0.00283165 0.00421198 -0.00131749 0.00269496 0.038025 -0.000502519 0.00295761 0.0041011 -0.000902653 0.00286072 0.00402687 -0.000458914 0.00296404 0.00461921 0.006 -0.00191384 -0.000653371 0.006 0.00495711 0 0.006 0.005 0.00129533 0.006 0.00482923 0.00191469 0.006 0.00461875 0.00499991 0.006 -1.40784e-06 0.00495732 0.006 0.000651632 0.00495694 0.006 -0.000653927 0.000653371 0.006 0.00495711 0.00461961 0.006 0.00191268 0.00250078 0.006 0.00432956 0.00304393 0.006 0.00396667 0.00482971 0.006 0.00129379 0.00353614 0.006 0.00353489 0.00433072 0.006 0.00249874 0.00396753 0.006 0.00304268 0.00482943 0.006 -0.00129461 -0.00129267 0.006 0.0048299 0.00432953 0.006 -0.00250094 0.00396582 0.006 -0.00304489 -0.00191228 0.006 0.00461981 0.00353458 0.006 -0.00353632 -0.00249947 0.006 0.00433042 -0.00304355 0.006 0.00396692 0.00304355 0.006 -0.00396692 0.00249947 0.006 -0.00433042 0.00191228 0.006 -0.00461981 -0.00353458 0.006 0.00353632 0.00129267 0.006 -0.0048299 -0.00396582 0.006 0.00304489 -0.00432953 0.006 0.00250094 0.000653371 0.006 -0.00495711 -0.00461921 0.006 0.00191384 -0.00482943 0.006 0.00129461 6.12323e-19 0.006 -0.005 -0.00499991 0.006 1.40784e-06 -0.00191469 0.006 -0.00461875 -0.00495732 0.006 -0.000651632 -0.000653371 0.006 -0.00495711 -0.00495694 0.006 0.000653927 -0.00353614 0.006 -0.00353489 -0.00396753 0.006 -0.00304268 -0.00433072 0.006 -0.00249874 -0.00250078 0.006 -0.00432956 -0.00461961 0.006 -0.00191268 -0.00482971 0.006 -0.00129379 -0.00304393 0.006 -0.00396667 -0.00129533 0.006 -0.00482923 -0.000653371 -0.006 -0.00495711 6.12323e-19 -0.006 -0.005 0.00499991 -0.006 -1.40784e-06 0.00495732 -0.006 0.000651632 0.00396753 -0.006 0.00304268 0.00353614 -0.006 0.00353489 0.00304393 -0.006 0.00396667 0.00250078 -0.006 0.00432956 0.00191469 -0.006 0.00461875 0.00129533 -0.006 0.00482923 0.000653371 -0.006 0.00495711 0 -0.006 0.005 0.00495694 -0.006 -0.000653927 0.00461921 -0.006 -0.00191384 0.00432953 -0.006 -0.00250094 0.00396582 -0.006 -0.00304489 0.00353458 -0.006 -0.00353632 0.00304355 -0.006 -0.00396692 0.00249947 -0.006 -0.00433042 0.00191228 -0.006 -0.00461981 0.00129267 -0.006 -0.0048299 0.000653371 -0.006 -0.00495711 -0.00250078 -0.006 -0.00432956 -0.00191469 -0.006 -0.00461875 -0.00129533 -0.006 -0.00482923 -0.00353614 -0.006 -0.00353489 -0.00396753 -0.006 -0.00304268 -0.00304393 -0.006 -0.00396667 -0.00461961 -0.006 -0.00191268 -0.00482971 -0.006 -0.00129379 -0.00433072 -0.006 -0.00249874 -0.00495694 -0.006 0.000653927 -0.00499991 -0.006 1.40784e-06 -0.00495732 -0.006 -0.000651632 -0.00461921 -0.006 0.00191384 -0.00432953 -0.006 0.00250094 -0.00482943 -0.006 0.00129461 -0.00353458 -0.006 0.00353632 -0.00304355 -0.006 0.00396692 -0.00396582 -0.006 0.00304489 -0.00249947 -0.006 0.00433042 -0.00191228 -0.006 0.00461981 -0.00129267 -0.006 0.0048299 -0.000653371 -0.006 0.00495711 0.00433072 -0.006 0.00249874 0.00461961 -0.006 0.00191268 0.00482971 -0.006 0.00129379 0.00482943 -0.006 -0.00129461 0.045025 -0.00445554 0.00895247 0.045025 -0.00360997 0.00932542 0.045025 -0.01 1.22465e-18 0.045025 -0.00273539 0.00961858 0.045025 -0.00183464 0.00983004 0.045025 -0.000922244 0.00995738 0.045025 2.81569e-06 0.00999983 0.045025 0.000923474 0.00995717 0.045025 0.00183989 0.00982917 0.045025 0.00273848 0.00961752 0.045025 0.00445966 0.00895024 0.045025 0.00361412 0.009324 0.045025 0.00526523 0.00850158 0.045025 0.00602852 0.00797827 0.045025 0.00673712 0.00738994 0.045025 0.00739182 0.00673481 0.045025 0.00798076 0.00602535 0.045025 0.00850331 0.00526229 0.045025 0.00895242 0.00445532 0.045025 0.00932528 0.00361084 0.045025 0.00961879 0.00273392 0.045025 0.00982988 0.00183663 0.045025 0.00995695 0.000925328 0.045025 0.01 0 0.045025 -0.00526275 0.00850293 0.045025 -0.00602422 0.00798162 0.045025 -0.00673661 0.00739033 0.045025 -0.00738802 0.00673894 0.045025 -0.00797977 0.00602687 0.045025 -0.00895094 0.00445869 0.045025 -0.00850049 0.0052666 0.045025 -0.00932365 0.00361455 0.045025 -0.00961758 0.0027387 0.045025 -0.00982931 0.0018389 0.045025 -0.00995695 0.000925328 0.045025 -0.00850331 -0.00526229 0.045025 -0.00961879 -0.00273392 0.045025 -0.00982988 -0.00183663 0.045025 -0.00526523 -0.00850158 0.045025 -0.00445966 -0.00895024 0.045025 -0.00673712 -0.00738994 0.045025 0.000922244 -0.00995738 0.045025 -0.00183989 -0.00982917 0.045025 0.00602422 -0.00798162 0.045025 0.00273539 -0.00961858 0.045025 0.00360997 -0.00932542 0.045025 0.00850049 -0.0052666 0.045025 0.00895094 -0.00445869 0.045025 0.00797977 -0.00602687 0.045025 0.00738802 -0.00673894 0.045025 0.00932365 -0.00361455 0.045025 0.00961758 -0.0027387 0.045025 0.00995695 -0.000925328 0.045025 0.00982931 -0.0018389 0.045025 0.00673661 -0.00739033 0.045025 0.00526275 -0.00850293 0.045025 0.00445554 -0.00895247 0.045025 0.00183464 -0.00983004 0.045025 -2.81569e-06 -0.00999983 0.045025 -0.000923474 -0.00995717 0.045025 -0.00273848 -0.00961752 0.045025 -0.00361412 -0.009324 0.045025 -0.00602852 -0.00797827 0.045025 -0.00739182 -0.00673481 0.045025 -0.00798076 -0.00602535 0.045025 -0.00895242 -0.00445532 0.045025 -0.00932528 -0.00361084 0.045025 -0.00995695 -0.000925328</float_array>
          <technique_common>
            <accessor count="243" source="#verts-array-array" stride="3">
              <param type="float" name="X" />
              <param type="float" name="Y" />
              <param type="float" name="Z" />
            </accessor>
          </technique_common>
        </source>
        <source id="normals-array">
          <float_array count="729" id="normals-array-array">-0.3911605 -0.399347 -0.8291656 0.4808421 -0.1578469 -0.862482 -0.3911575 -0.2547822 -0.8843539 0.469901 0.07872694 -0.8792014 -0.3906444 0.05149662 -0.9191001 0.4661478 8.986135e-05 -0.8847069 -0.3908102 -0.102807 -0.914712 0.471367 -0.07855885 -0.8784313 0.4799336 0.1581626 -0.8629301 -0.3908745 0.2047311 -0.8973864 -0.3910325 0.3521681 -0.8503359 0.4969685 0.2392007 -0.8341495 -0.3911221 0.4896447 -0.7792763 0.5248623 0.3195254 -0.7889379 -0.3911518 0.6132878 -0.6862057 0.6677517 0.6189079 0.4135947 -0.3914425 0.8647271 0.3146741 0.6959914 0.6689708 0.26091 -0.3909099 0.7197387 -0.5737296 0.5936681 0.4794916 -0.6462553 0.6313519 0.553977 -0.5426825 -0.390958 0.8687336 -0.3040621 0.6958842 0.6691446 -0.2607503 -0.3910634 0.9073532 -0.1542064 0.6678928 0.619119 -0.4130507 0.7125985 0.6958386 -0.08951012 -0.3912828 0.9202694 0.001400168 -0.3914608 0.9062211 0.1597557 0.7123683 0.6960675 0.08956232 -0.3907857 0.805567 -0.4453633 -0.3912522 0.796975 0.4601658 0.6312684 0.5537198 0.543042 0.5935169 0.4792305 0.6465878 -0.3911308 0.7051972 0.5913659 0.5567822 0.4006314 -0.7276593 0.5566914 0.4004014 0.7278553 0.5249807 0.3193756 0.7889198 -0.3912272 0.5917605 0.7048126 0.4808791 0.1579128 0.8624493 -0.3914255 0.3149225 0.8646444 0.4974313 0.2390406 0.8339195 -0.3913266 0.4603367 0.7968398 0.4714581 0.07863135 0.878376 0.4665653 -0.0001720611 0.8844867 -0.3913955 0.001473449 0.9202214 -0.3915205 0.1599291 0.9061647 0.4974319 -0.2388076 -0.8339859 -0.3910376 -0.5326336 -0.7505938 0.5249882 -0.3190689 -0.7890389 0.5566092 -0.4001173 -0.7280744 -0.3908093 -0.6509362 -0.6508073 0.5933524 -0.4790616 -0.6468639 -0.3908569 -0.7505846 -0.5327792 0.631033 -0.5535798 -0.5434581 -0.3910833 -0.8291985 -0.399354 0.6676924 -0.6187475 -0.4139305 0.6957864 -0.6690141 -0.2613454 -0.3911184 -0.884375 -0.2547691 -0.391086 -0.9145727 -0.1029973 0.7125316 -0.6958362 -0.09005936 -0.3909715 -0.9189491 0.0517082 0.7125575 -0.6959364 0.0890749 0.6961243 -0.6690794 0.2602762 -0.3907725 -0.8973815 0.2049472 -0.3908858 -0.8504734 0.3519991 0.6680005 -0.6192985 0.4126072 0.6314756 -0.5541892 0.5423218 -0.3911351 -0.779284 0.4896221 -0.3911002 -0.6862382 0.6132844 0.5936673 -0.4798465 0.6459926 -0.3909979 -0.5738064 0.7196297 0.5568331 -0.4008809 0.727483 0.5248653 -0.3198502 0.7888044 -0.3908369 -0.4451569 0.8056562 -0.3909103 -0.3041121 0.8687376 0.4971539 -0.2393139 0.8340065 -0.3911483 -0.1541799 0.9073211 0.4800657 -0.1581226 0.8628639 0.469932 -0.07887614 0.8791715 0.6654503 0.6936335 -0.2757688 -0.09420154 0.6926814 0.7150654 4.91092e-18 0.6926565 0.7212676 0.1868903 0.6926715 0.6966192 0.2761924 0.6926908 0.6662562 0.7202 0.6937665 -0.0002234215 0.7141847 0.6936182 0.09398957 0.7140795 0.6936873 -0.09427768 0.09427982 0.6926586 0.7150772 0.6655278 0.6936059 0.2756514 0.360667 0.6927064 0.6245616 0.4391078 0.6926584 0.5721963 0.6958737 0.693564 0.1863566 0.5101249 0.6926603 0.5098964 0.6239597 0.6934993 0.3601847 0.571785 0.6930346 0.4390501 0.6957609 0.6936572 -0.186431 -0.1865647 0.6927228 0.6966554 0.6237439 0.6935242 -0.3605104 0.5714735 0.6930579 -0.4394187 -0.2758156 0.6926673 0.6664366 0.5098931 0.6927085 -0.5100627 -0.3605393 0.6926573 0.6246898 -0.4390464 0.6926749 0.5722235 0.4390464 0.6926749 -0.5722235 0.3605393 0.6926573 -0.6246898 0.2758156 0.6926673 -0.6664366 -0.5098931 0.6927085 0.5100627 0.1865647 0.6927228 -0.6966554 -0.5720639 0.6926797 0.4392467 -0.6245318 0.692666 0.3607961 0.09420154 0.6926814 -0.7150654 -0.6663296 0.6926583 0.2760964 -0.6966508 0.6926864 0.1867171 0 0.6926565 -0.7212676 -0.7212451 0.6926799 0.0002277908 -0.2761924 0.6926908 -0.6662562 -0.7151149 0.6926629 -0.09396177 -0.09427982 0.6926586 -0.7150772 -0.7150364 0.6926998 0.09428658 -0.5101249 0.6926603 -0.5098964 -0.5723451 0.6926755 -0.4388868 -0.6246935 0.6926954 -0.3604596 -0.360667 0.6927064 -0.6245616 -0.6663473 0.6926986 -0.2759529 -0.6967068 0.6926558 -0.1866214 -0.4391078 0.6926584 -0.5721963 -0.1868903 0.6926715 -0.6966192 -0.09427982 -0.6926586 -0.7150772 1.04664e-16 -0.6926565 -0.7212676 0.7202 -0.6937664 -0.0002334632 0.7141594 -0.6936487 0.09395683 0.5717503 -0.6930566 0.4390606 0.5101249 -0.6926603 0.5098964 0.4391078 -0.6926584 0.5721963 0.360667 -0.6927064 0.6245616 0.2761924 -0.6926908 0.6662562 0.1868903 -0.6926715 0.6966192 0.09427982 -0.6926586 0.7150772 -4.603988e-18 -0.6926565 0.7212676 0.7141053 -0.6936564 -0.09431032 0.6655095 -0.6935651 -0.2757978 0.6238007 -0.6934657 -0.3605248 0.5715079 -0.6930361 -0.4394083 0.5098931 -0.6927085 -0.5100627 0.4390464 -0.6926749 -0.5722235 0.3605393 -0.6926573 -0.6246898 0.2758156 -0.6926673 -0.6664366 0.1865647 -0.6927228 -0.6966554 0.09420154 -0.6926814 -0.7150654 -0.360667 -0.6927064 -0.6245616 -0.2761924 -0.6926908 -0.6662562 -0.1868903 -0.6926715 -0.6966192 -0.5101249 -0.6926603 -0.5098964 -0.5723451 -0.6926755 -0.4388868 -0.4391078 -0.6926584 -0.5721963 -0.6663473 -0.6926986 -0.2759529 -0.6967068 -0.6926558 -0.1866214 -0.6246935 -0.6926954 -0.3604596 -0.7150364 -0.6926998 0.09428658 -0.7212451 -0.6926799 0.0002277908 -0.7151149 -0.6926629 -0.09396177 -0.6663296 -0.6926583 0.2760964 -0.6245318 -0.692666 0.3607961 -0.6966508 -0.6926864 0.1867171 -0.5098931 -0.6927085 0.5100627 -0.4390464 -0.6926749 0.5722235 -0.5720639 -0.6926797 0.4392467 -0.3605393 -0.6926573 0.6246898 -0.2758156 -0.6926673 0.6664366 -0.1865647 -0.6927228 0.6966554 -0.09420154 -0.6926814 0.7150654 0.6239022 -0.6935584 0.3601705 0.6654678 -0.6936751 0.275622 0.69582 -0.6936238 0.1863346 0.6958143 -0.6935979 -0.1864522 0.3732797 -0.4130142 0.8307115 0.3733551 -0.3352752 0.8649835 0.3733386 -0.9276951 -0.0001832971 0.3733602 -0.2535492 0.8923648 0.3734426 -0.1704238 0.9118642 0.3733874 -0.08541923 0.9237345 0.3734302 0.000210232 0.9276582 0.3734105 0.08568641 0.9237004 0.3733846 0.1707691 0.9118234 0.3734367 0.2539185 0.8922278 0.3734335 0.4134856 0.8304078 0.373344 0.3354688 0.8649133 0.3733117 0.4887246 0.7885345 0.3734055 0.5589629 0.7403572 0.3732784 0.6253304 0.685292 0.3733381 0.6855048 0.6250615 0.3732761 0.7406668 0.558639 0.3732523 0.7886801 0.488535 0.3734236 0.8305653 0.4131781 0.3733434 0.86506 0.3350908 0.3734562 0.8923121 0.2535935 0.3733864 0.9118659 0.1705381 0.3734519 0.9236854 0.08566777 0.3733453 0.9276925 0 0.3733978 -0.4884154 0.7886853 0.3733655 -0.5586983 0.7405771 0.3733956 -0.6249764 0.685551 0.3734381 -0.6853665 0.6251533 0.3733873 -0.7402233 0.5591524 0.3733795 -0.8302974 0.4137559 0.3734547 -0.7886418 0.4884421 0.3733002 -0.8651482 0.3349112 0.3732377 -0.8921413 0.2545142 0.3733521 -0.9119209 0.1703189 0.3733471 -0.9236854 0.08612302 0.3733919 -0.7889169 -0.4880457 0.3734535 -0.8922907 -0.2536724 0.3734132 -0.9118565 -0.1705295 0.3733677 -0.4883819 -0.7887203 0.373444 -0.413744 -0.8302743 0.3733247 -0.6248898 -0.6856686 0.3732841 0.08578895 -0.923742 0.3734132 -0.1707581 -0.9118137 0.3734282 0.5588464 -0.7404337 0.3733421 0.2539046 -0.8922713 0.3734244 0.3347748 -0.8651474 0.3733345 0.7884473 -0.4888478 0.3733101 0.8304863 -0.4134394 0.3732325 0.740494 -0.5588972 0.373454 0.6853362 -0.6251772 0.3733932 0.8648711 -0.3355226 0.3733765 0.8922494 -0.253931 0.3734369 0.9236818 -0.08577229 0.3734038 0.9118217 -0.1707361 0.3733783 0.6249506 -0.685584 0.3734251 0.4881678 -0.7888256 0.3733899 0.4133938 -0.8304731 0.3733774 0.1699887 -0.9119721 0.3732732 -0.000658688 -0.9277212 0.3732332 -0.08530662 -0.9238072 0.3734353 -0.2540005 -0.8922051 0.3733943 -0.3352754 -0.8649665 0.3734092 -0.5593575 -0.7400573 0.3733168 -0.6859838 -0.6245485 0.3732968 -0.7401962 -0.5592487 0.3734327 -0.8304341 -0.4134335 0.3733923 -0.8651124 -0.334901 0.3734207 -0.9237089 -0.08555</float_array>
          <technique_common>
            <accessor count="243" source="#normals-array-array" stride="3">
              <param type="float" name="X" />
              <param type="float" name="Y" />
              <param type="float" name="Z" />
            </accessor>
          </technique_common>
        </source>
        <vertices id="verts-array-vertices">
          <input semantic="POSITION" source="#verts-array" />
        </vertices>
        <triangles count="482" material="material0">
          <input offset="0" semantic="VERTEX" source="#verts-array-vertices" />
          <input offset="1" semantic="NORMAL" source="#normals-array" />
          <p>0 0 1 1 2 2 3 3 4 4 5 5 6 6 2 2 7 7 3 3 8 8 9 9 9 9 4 4 3 3 10 10 8 8 11 11 8 8 10 10 9 9 4 4 6 6 5 5 12 12 10 10 11 11 12 12 13 13 14 14 13 13 12 12 11 11 15 15 16 16 17 17 18 18 19 19 20 20 21 21 22 22 23 23 24 24 22 22 21 21 25 25 26 26 23 23 25 25 23 23 22 22 27 27 26 26 28 28 28 28 26 26 25 25 16 16 27 27 17 17 28 28 17 17 27 27 29 29 20 20 24 24 21 21 29 29 24 24 20 20 29 29 18 18 16 16 15 15 30 30 31 31 32 32 30 30 30 30 15 15 31 31 33 33 30 30 32 32 18 18 34 34 19 19 34 34 14 14 13 13 34 34 18 18 14 14 32 32 35 35 33 33 36 36 37 37 35 35 33 33 35 35 37 37 38 38 39 39 40 40 41 41 36 36 40 40 42 42 43 43 44 44 45 45 42 42 44 44 39 39 38 38 45 45 45 45 38 38 42 42 36 36 41 41 37 37 39 39 41 41 40 40 7 7 5 5 6 6 1 1 0 0 46 46 2 2 1 1 7 7 0 0 47 47 48 48 48 48 46 46 0 0 49 49 47 47 50 50 47 47 49 49 48 48 49 49 50 50 51 51 52 52 53 53 51 51 51 51 50 50 52 52 53 53 54 54 55 55 54 54 53 53 52 52 56 56 55 55 57 57 54 54 57 57 55 55 58 58 59 59 56 56 56 56 57 57 58 58 59 59 60 60 61 61 60 60 59 59 58 58 62 62 61 61 63 63 60 60 63 63 61 61 63 63 64 64 65 65 65 65 62 62 63 63 66 66 64 64 67 67 64 64 66 66 65 65 68 68 69 69 67 67 66 66 67 67 69 69 68 68 70 70 71 71 71 71 69 69 68 68 72 72 70 70 73 73 70 70 72 72 71 71 74 74 75 75 73 73 72 72 73 73 75 75 74 74 76 76 77 77 77 77 75 75 74 74 78 78 76 76 44 44 76 76 78 78 77 77 78 78 44 44 43 43 79 79 80 80 81 81 82 82 83 83 84 84 84 84 83 83 85 85 86 86 87 87 82 82 88 88 89 89 90 90 91 91 85 85 89 89 90 90 92 92 93 93 94 94 93 93 92 92 91 91 89 89 88 88 88 88 90 90 93 93 86 86 82 82 84 84 85 85 83 83 89 89 95 95 87 87 86 86 79 79 81 81 95 95 87 87 95 95 81 81 96 96 80 80 97 97 80 80 79 79 97 97 96 96 98 98 99 99 98 98 96 96 97 97 100 100 101 101 99 99 99 99 98 98 100 100 102 102 101 101 103 103 100 100 103 103 101 101 104 104 102 102 103 103 104 104 105 105 106 106 106 106 102 102 104 104 107 107 108 108 105 105 106 106 105 105 108 108 109 109 108 108 107 107 110 110 111 111 109 109 109 109 107 107 110 110 112 112 111 111 113 113 110 110 113 113 111 111 114 114 115 115 116 116 112 112 117 117 118 118 119 119 120 120 121 121 122 122 123 123 124 124 123 123 125 125 121 121 119 119 121 121 125 125 116 116 122 122 124 124 123 123 122 122 125 125 126 126 115 115 114 114 115 115 122 122 116 116 118 118 117 117 126 126 126 126 114 114 118 118 117 117 112 112 113 113 17 17 28 28 85 85 127 127 113 113 128 128 91 91 31 31 15 15 129 129 59 59 61 61 31 31 88 88 32 32 65 65 130 130 62 62 36 36 35 35 93 93 32 32 88 88 35 35 131 131 78 78 43 43 40 40 36 36 93 93 92 92 131 131 94 94 40 40 94 94 38 38 92 92 90 90 132 132 132 132 131 131 92 92 133 133 90 90 89 89 90 90 133 133 132 132 83 83 134 134 89 89 133 133 89 89 134 134 83 83 82 82 135 135 135 135 134 134 83 83 136 136 82 82 87 87 82 82 136 136 135 135 81 81 137 137 87 87 136 136 87 87 137 137 138 138 137 137 81 81 59 59 139 139 56 56 22 22 86 86 25 25 28 28 25 25 84 84 140 140 51 51 53 53 86 86 22 22 24 24 49 49 141 141 48 48 20 20 95 95 24 24 11 11 97 97 13 13 19 19 34 34 79 79 98 98 142 142 143 143 98 98 97 97 11 11 144 144 100 100 143 143 98 98 143 143 100 100 144 144 145 145 103 103 103 103 100 100 144 144 104 104 145 145 146 146 145 145 104 104 103 103 147 147 105 105 146 146 104 104 146 146 105 105 147 147 148 148 107 107 107 107 105 105 147 147 110 110 148 148 128 128 148 148 110 110 107 107 110 110 128 128 113 113 149 149 115 115 150 150 151 151 126 126 117 117 119 119 152 152 153 153 122 122 154 154 125 125 155 155 156 156 123 123 157 157 121 121 120 120 158 158 114 114 159 159 116 116 124 124 160 160 111 111 161 161 162 162 118 118 163 163 112 112 164 164 165 165 106 106 166 166 108 108 109 109 102 102 165 165 167 167 165 165 102 102 106 106 168 168 101 101 167 167 102 102 167 167 101 101 168 168 169 169 99 99 99 99 101 101 168 168 96 96 169 169 170 170 169 169 96 96 99 99 138 138 80 80 170 170 96 96 170 170 80 80 81 81 80 80 138 138 166 166 164 164 108 108 164 164 106 106 108 108 111 111 162 162 109 109 162 162 166 166 109 109 112 112 163 163 161 161 112 112 161 161 111 111 118 118 114 114 158 158 118 118 158 158 163 163 159 159 116 116 160 160 114 114 116 116 159 159 156 156 124 124 123 123 160 160 124 124 156 156 157 157 155 155 121 121 155 155 123 123 121 121 119 119 153 153 120 120 153 153 157 157 120 120 125 125 154 154 152 152 125 125 152 152 119 119 122 122 115 115 149 149 122 122 149 149 154 154 150 150 126 126 151 151 115 115 126 126 150 150 127 127 117 117 113 113 151 151 117 117 127 127 94 94 131 131 43 43 131 131 171 171 75 75 94 94 42 42 38 38 94 94 43 43 42 42 75 75 171 171 72 72 94 94 40 40 93 93 69 69 71 71 172 172 93 93 35 35 88 88 71 71 72 72 171 171 65 65 66 66 173 173 88 88 31 31 91 91 66 66 69 69 172 172 17 17 85 85 15 15 85 85 91 91 15 15 130 130 61 61 62 62 84 84 85 85 28 28 86 86 84 84 25 25 53 53 55 55 174 174 86 86 24 24 95 95 55 55 56 56 139 139 19 19 79 79 20 20 79 79 95 95 20 20 140 140 49 49 51 51 13 13 97 97 34 34 97 97 79 79 34 34 46 46 48 48 141 141 7 7 1 1 142 142 98 98 11 11 8 8 46 46 141 141 142 142 5 5 7 7 142 142 5 5 98 98 3 3 98 98 8 8 3 3 142 142 98 98 5 5 142 142 1 1 46 46 140 140 141 141 49 49 174 174 140 140 53 53 139 139 174 174 55 55 129 129 139 139 59 59 130 130 129 129 61 61 173 173 130 130 65 65 172 172 173 173 66 66 171 171 172 172 71 71 131 131 75 75 77 77 131 131 77 77 78 78 140 140 138 138 170 170 136 136 129 129 135 135 129 129 130 130 135 135 139 139 136 136 137 137 172 172 133 133 134 134 173 173 134 134 130 130 133 133 171 171 132 132 131 131 132 132 171 171 173 173 172 172 134 134 172 172 171 171 133 133 139 139 129 129 136 136 130 130 134 134 135 135 174 174 139 139 137 137 140 140 174 174 138 138 137 137 138 138 174 174 169 169 141 141 170 170 170 170 141 141 140 140 169 169 168 168 142 142 142 142 141 141 169 169 143 143 168 168 167 167 168 168 143 143 142 142 165 165 144 144 167 167 143 143 167 167 144 144 145 145 144 144 165 165 145 145 164 164 146 146 164 164 145 145 165 165 147 147 146 146 166 166 164 164 166 166 146 146 162 162 147 147 166 166 148 148 162 162 161 161 162 162 148 148 147 147 163 163 128 128 161 161 148 148 161 161 128 128 159 159 160 160 150 150 163 163 158 158 127 127 152 152 157 157 153 153 149 149 156 156 155 155 155 155 157 157 154 154 152 152 154 154 157 157 160 160 156 156 149 149 155 155 154 154 149 149 151 151 159 159 150 150 150 150 160 160 149 149 158 158 151 151 127 127 151 151 158 158 159 159 127 127 128 128 163 163 175 175 176 176 73 73 58 58 177 177 60 60 74 74 176 176 178 178 176 176 74 74 73 73 179 179 76 76 178 178 74 74 178 178 76 76 180 180 44 44 76 76 76 76 179 179 180 180 181 181 182 182 44 44 181 181 44 44 180 180 45 45 182 182 183 183 182 182 45 45 44 44 39 39 45 45 184 184 183 183 184 184 45 45 185 185 39 39 186 186 39 39 184 184 186 186 185 185 187 187 41 41 41 41 39 39 185 185 41 41 188 188 37 37 188 188 41 41 187 187 37 37 189 189 190 190 188 188 189 189 37 37 191 191 33 33 190 190 37 37 190 190 33 33 192 192 30 30 33 33 33 33 191 191 192 192 30 30 193 193 16 16 193 193 30 30 192 192 16 16 194 194 195 195 193 193 194 194 16 16 196 196 27 27 195 195 16 16 195 195 27 27 197 197 26 26 27 27 27 27 196 196 197 197 198 198 26 26 197 197 199 199 175 175 73 73 199 199 70 70 200 200 70 70 199 199 73 73 68 68 201 201 70 70 200 200 70 70 201 201 202 202 68 68 203 203 202 202 201 201 68 68 68 68 67 67 203 203 67 67 204 204 205 205 203 203 67 67 205 205 204 204 64 64 206 206 64 64 204 204 67 67 207 207 206 206 63 63 64 64 63 63 206 206 63 63 60 60 208 208 208 208 207 207 63 63 177 177 209 209 60 60 60 60 209 209 208 208 52 52 210 210 54 54 57 57 211 211 212 212 213 213 0 0 214 214 50 50 47 47 215 215 9 9 216 216 4 4 6 6 217 217 2 2 218 218 12 12 14 14 219 219 10 10 220 220 221 221 29 29 222 222 18 18 223 223 224 224 225 225 222 222 21 21 29 29 21 21 222 222 21 21 23 23 226 226 226 226 225 225 21 21 227 227 228 228 23 23 23 23 228 228 226 226 26 26 198 198 227 227 227 227 23 23 26 26 18 18 29 29 223 223 29 29 221 221 223 223 229 229 14 14 224 224 14 14 18 18 224 224 230 230 12 12 218 218 218 218 14 14 229 229 12 12 231 231 10 10 231 231 12 12 230 230 219 219 9 9 10 10 231 231 220 220 10 10 9 9 232 232 216 216 219 219 232 232 9 9 233 233 234 234 4 4 216 216 233 233 4 4 217 217 6 6 234 234 4 4 234 234 6 6 2 2 235 235 236 236 2 2 217 217 235 235 236 236 214 214 0 0 0 0 2 2 236 236 237 237 47 47 213 213 47 47 0 0 213 213 238 238 50 50 215 215 215 215 47 47 237 237 50 50 239 239 52 52 239 239 50 50 238 238 210 210 240 240 54 54 239 239 210 210 52 52 57 57 54 54 241 241 240 240 241 241 54 54 57 57 212 212 58 58 57 57 241 241 211 211 177 177 58 58 242 242 58 58 212 212 242 242 215 215 237 237 238 238 176 176 198 198 178 178 238 238 237 237 214 214 235 235 214 214 236 236 235 235 238 238 214 214 213 213 214 214 237 237 235 235 210 210 239 239 239 239 238 238 235 235 240 240 235 235 217 217 235 235 240 240 210 210 217 217 234 234 240 240 233 233 241 241 240 240 240 240 234 234 233 233 211 211 233 233 216 216 233 233 211 211 241 241 212 212 211 211 232 232 216 216 232 232 211 211 232 232 219 219 242 242 242 242 212 212 232 232 177 177 219 219 220 220 219 219 177 177 242 242 230 230 207 207 208 208 208 208 209 209 231 231 205 205 204 204 224 224 206 206 218 218 229 229 202 202 222 222 201 201 223 223 221 221 203 203 227 227 175 175 228 228 226 226 200 200 225 225 179 179 178 178 197 197 176 176 227 227 198 198 194 194 193 193 181 181 195 195 180 180 179 179 192 192 184 184 193 193 190 190 189 189 188 188 191 191 190 190 184 184 186 186 184 184 185 185 188 188 185 185 190 190 190 190 185 185 184 184 188 188 187 187 185 185 184 184 183 183 193 193 192 192 191 191 184 184 193 193 182 182 181 181 183 183 182 182 193 193 180 180 195 195 181 181 181 181 195 195 194 194 179 179 197 197 196 196 179 179 196 196 195 195 176 176 175 175 227 227 197 197 178 178 198 198 199 199 226 226 228 228 175 175 199 199 228 228 201 201 225 225 200 200 200 200 226 226 199 199 202 202 221 221 222 222 201 201 222 222 225 225 202 202 203 203 221 221 205 205 224 224 223 223 203 203 205 205 223 223 204 204 206 206 229 229 224 224 204 204 229 229 218 218 207 207 230 230 218 218 206 206 207 207 209 209 220 220 231 231 231 231 230 230 208 208 220 220 209 209 177 177</p>
        </triangles>
      </mesh>
    </geometry>
  </library_geometries>
  <library_materials>
    <material id="bb56f248694c4b1d83eb6a2c92432731" name="defaultmaterial">
      <instance_effect url="#05165b54bc8d4c9ebf2e1532cc686262" />
    </material>
  </library_materials>
  <library_visual_scenes>
    <visual_scene id="scene">
      <node id="node0" name="node0">
        <instance_geometry url="#9870838d4e5647a8baa833145976393b">
          <bind_material>
            <technique_common>
              <instance_material symbol="material0" target="#bb56f248694c4b1d83eb6a2c92432731" />
            </technique_common>
          </bind_material>
        </instance_geometry>
      </node>
    </visual_scene>
  </library_visual_scenes>
  <scene>
    <instance_visual_scene url="#scene" />
  </scene>
</COLLADA>