<COLLADA xmlns="http://www.collada.org/2005/11/COLLADASchema" version="1.4.1">
  <asset>
    <created>2026-02-10T22:53:39.174183</created>
    <modified>2026-02-10T22:53:39.174190</modified>
    <up_axis>Y_UP</up_axis>
  </asset>
  <library_effects>
    <effect id="4dd1705a8b05493eb36249257a458ecd" name="4dd1705a8b05493eb36249257a458ecd">
      <profile_COMMON>
        <technique sid="common">
          <phong>
            <emission>
              <color>0.0 0.0 0.0 1.0</color>
            </emission>
            <ambient>
              <color>0.300000 0.300000 0.300000 1.0</color>
            </ambient>
            <diffuse>
              <color>1.000000 1.000000 1.000000 1.0</color>
            </diffuse>
            <specular>
              <color>0.196000 0.196000 0.196000 1.0</color>
            </specular>
            <shininess>
              <float>20.0</float>
            </shininess>
            <reflective>
              <color>0.0 0.0 0.0 1.0</color>
            </reflective>
            <reflectivity>
              <float>0.0</float>
            </reflectivity>
            <transparent>
              <color>0.0 0.0 0.0 1.0</color>
            </transparent>
            <transparency>
              <float>1.0</float>
            </transparency>
          </phong>
        </technique>
        <extra>
          <technique profile="GOOGLEEARTH">
            <double_sided>0</double_sided>
          </technique>
        </extra>
      </profile_COMMON>
    </effect>
  </library_effects>
  <library_geometries>
    <geometry id="1bb21699373f4878a8248efeccadf2c8" name="743e81092f0642abb919ddfa9763fd62">
      <mesh>
        <source id="verts-array">
          <float_array count="2253" id="verts-array-array">0.0420103 0.0052574 -0.0107518 0.042015 0.000299831 -0.0107002 0.0420602 0.000598136 -0.0104019 0.0432956 0.00246919 -0.00853085 0.0431548 0.00497202 -0.00863484 0.0430112 0.0022464 -0.00875362 0.0422542 0.00518456 -0.00979146 0.0420928 0.00523205 -0.0102612 0.0421361 0.000893316 -0.0101067 0.0425565 0.00174067 -0.00925934 0.0427929 0.0050469 -0.00896814 0.0424898 0.00512044 -0.00935757 0.042383 0.00146688 -0.00953314 0.0427654 0.00200186 -0.00899819 0.0431563 -0.00737112 -0.00863365 0.0432955 -0.00246822 -0.0085318 0.0430113 -0.00224568 -0.00875436 0.0436184 -0.00266241 -0.00833763 0.0435691 -0.00730263 -0.00836336 0.0422433 0.0011836 -0.00981643 0.043619 0.00266361 -0.00833643 0.0435679 0.00490336 -0.00836405 0.0423831 -0.00146658 -0.00953345 0.0424908 -0.00751958 -0.00935603 0.0425566 -0.00174027 -0.00925974 0.0440206 0.00484833 -0.0081647 0.042 0 -0.011 0.0445056 -0.00721508 -0.00805109 0.0447869 -0.00299213 -0.00800791 0.0443714 -0.00293293 -0.0080671 0.0447892 0.00299256 -0.00800746 0.0445048 0.00481513 -0.00805121 0.0443733 0.002934 -0.00806606 0.0439799 0.00282157 -0.00817846 0.0420106 -0.00765726 -0.0112481 0.0420107 -0.00765713 -0.0107496 0.042015 -0.000299792 -0.0107002 0.0422544 -0.00758446 -0.0122084 0.042255 0.00518398 -0.0122098 0.0424905 0.00511987 -0.0126438 0.0420926 -0.00763207 -0.0117391 0.042093 0.00523174 -0.011741 0.04249 -0.00752032 -0.012643 0.0427937 0.0050463 -0.0130325 0.0427931 -0.00744675 -0.0130319 0.043569 0.00490286 -0.0136364 0.0440232 0.00484832 -0.0138344 0.0435684 -0.00730313 -0.0136361 0.0431558 0.00497143 -0.0133662 0.0431554 -0.00737178 -0.0133658 0.0440215 -0.00724806 -0.0138359 0.044504 0.00481259 -0.0139575 0.0445038 -0.0072126 -0.0139574 0.045 0.0048 -0.014 0.0420108 0.00525716 -0.0112504 0.045 -0.0072 -0.014 0.0452131 0.00299213 -0.00800791 0.0449996 0.00480296 -0.00801007 0.0456267 -0.002934 -0.00806606 0.0459794 -0.00724833 -0.0081647 0.0460201 -0.00282157 -0.00817846 0.0460213 0.00282027 -0.00817978 0.0459747 0.00485027 -0.00817323 0.0456286 0.00293293 -0.0080671 0.0454944 0.00481508 -0.00805109 0.0468452 -0.00737202 -0.00863484 0.0469888 -0.0022464 -0.00875362 0.0467044 -0.00246919 -0.00853085 0.0463816 0.00266241 -0.00833763 0.0472071 -0.0074469 -0.00896814 0.0472346 -0.00200186 -0.00899819 0.0467045 0.00246822 -0.0085318 0.0464309 0.00490263 -0.00836336 0.0472346 0.00200132 -0.00899871 0.0472064 0.00504609 -0.00896747 0.0469887 0.00224568 -0.00875436 0.0468437 0.00497112 -0.00863365 0.0477458 -0.00758456 -0.00979146 0.0477567 -0.0011836 -0.00981643 0.047617 -0.00146688 -0.00953314 0.0474434 0.00174027 -0.00925974 0.047745 0.00518383 -0.00979019 0.0476169 0.00146658 -0.00953345 0.0477567 0.00118335 -0.00981666 0.0475092 0.00511958 -0.00935603 0.0479398 0.000598007 -0.010402 0.0479067 0.00523155 -0.010259 0.0478639 0.000893133 -0.0101069 0.048 0 -0.011 0.0479897 -0.0076574 -0.0107518 0.0479892 -0.00765716 -0.0112504 0.0479893 0.00525713 -0.0107496 0.047907 -0.00763174 -0.011741 0.0479894 0.00525726 -0.0112481 0.047745 -0.00758398 -0.0122098 0.0479074 0.00523206 -0.0117391 0.0477456 0.00518446 -0.0122084 0.0475095 -0.00751987 -0.0126438 0.0472063 -0.0074463 -0.0130325 0.04751 0.00512032 -0.012643 0.0468442 -0.00737143 -0.0133662 0.0472069 0.00504676 -0.0130319 0.0468446 0.00497178 -0.0133658 0.046431 -0.00730286 -0.0136364 0.0459768 -0.00724832 -0.0138344 0.0464316 0.00490313 -0.0136361 0.045496 -0.00721259 -0.0139575 0.0459785 0.00484806 -0.0138359 0.0454962 0.0048126 -0.0139574 0.0421361 -0.000893133 -0.0101069 0.0420602 -0.000598007 -0.010402 0.0420933 -0.00763155 -0.010259 0.042255 -0.00758383 -0.00979019 0.0422433 -0.00118335 -0.00981666 0.0427936 -0.00744609 -0.00896747 0.0427654 -0.00200132 -0.00899871 0.0439787 -0.00282027 -0.00817978 0.0440253 -0.00725027 -0.00817323 0.0452108 -0.00299256 -0.00800746 0.0450004 -0.00720296 -0.00801007 0.0454952 -0.00721513 -0.00805121 0.046381 -0.00266361 -0.00833643 0.0464321 -0.00730336 -0.00836405 0.0474435 -0.00174067 -0.00925934 0.0475102 -0.00752044 -0.00935757 0.0479398 -0.000598136 -0.0104019 0.0478639 -0.000893316 -0.0101067 0.0479072 -0.00763205 -0.0102612 0.047985 -0.000299831 -0.0107002 0.047985 0.000299792 -0.0107002 0.0453113 0.00298379 0.000311281 0.007 0.00298975 0.000247738 0.0456209 0.00293503 0.000620872 0.0479679 -0.000437826 0.00296781 0.007 -9.64874e-19 0.003 0.007 -0.000493921 0.00295906 0.007 0.00298975 -0.000247738 0.045 0.003 2.5453e-13 0.0443791 0.00293503 -0.000620944 0.0446887 0.0029838 -0.000311321 0.0440729 0.00285316 -0.000927049 0.007 0.0029082 -0.000736456 0.007 0.00274732 -0.00120509 0.0437724 0.00273731 -0.0012276 0.007 0.0025115 -0.00164084 0.0434797 0.00258626 -0.00152024 0.043198 0.00239845 -0.00180202 0.007 0.00220717 -0.00203184 0.0429307 0.00217208 -0.00206924 0.0426828 0.00190538 -0.00231718 0.007 0.00184264 -0.00236742 0.0424604 0.00159695 -0.00253957 0.0422714 0.00124684 -0.00272857 0.007 0.00142784 -0.00263842 0.007 0.000974098 -0.00283745 0.007 0.0029082 0.000736456 0.007 0.000493784 -0.00295908 0.0421253 0.000857923 -0.00287467 0.0420321 0.000437826 -0.00296781 0.007 0 -0.003 0.042 0 -0.003 0.045927 0.00285318 0.000926963 0.0462275 0.00273735 0.00122751 0.007 0.00274732 0.00120509 0.007 0.0025115 0.00164084 0.0465202 0.00258631 0.00152014 0.046802 0.00239852 0.00180195 0.007 0.00220717 0.00203184 0.0473171 0.00190549 0.00231709 0.0470692 0.00217217 0.00206917 0.007 0.00184264 0.00236742 0.0475395 0.00159712 0.0025395 0.0477285 0.00124705 0.00272846 0.007 0.00142784 0.00263842 0.007 0.000974098 0.00283745 0.0478746 0.00085818 0.00287459 0.007 0.000493784 0.00295908 0.0479678 0.000438031 0.00296777 0.048 -9.64874e-19 0.003 0.0473172 -0.00190538 0.00231718 0.0475396 -0.00159695 0.00253957 0.007 -0.00184305 0.00236708 0.007 -0.000974359 0.00283736 0.0477286 -0.00124684 0.00272857 0.0478747 -0.000857923 0.00287467 0.0465203 -0.00258626 0.00152024 0.007 -0.00274762 0.0012043 0.0462276 -0.00273731 0.0012276 0.0470693 -0.00217208 0.00206924 0.007 -0.0022076 0.00203135 0.046802 -0.00239845 0.00180202 0.007 -0.0029896 -0.000248736 0.0446887 -0.00298379 -0.000311281 0.045 -0.003 -3.30365e-13 0.007 -0.00298977 0.000246763 0.0456209 -0.00293503 0.000620944 0.007 -0.00290838 0.000735554 0.007 -0.0025109 -0.0016416 0.0434798 -0.00258631 -0.00152014 0.007 -0.00274684 -0.00120597 0.044073 -0.00285318 -0.000926963 0.007 -0.00290788 -0.000737425 0.0424605 -0.00159712 -0.0025395 0.0426829 -0.00190549 -0.00231709 0.007 -0.00184197 -0.00236784 0.0429308 -0.00217217 -0.00206917 0.007 -0.00220651 -0.00203244 0.007 -0.00142724 -0.00263867 0.0422715 -0.00124705 -0.00272846 0.007 -0.000973636 -0.00283755 0.0421254 -0.00085818 -0.00287459 0.0420322 -0.000438031 -0.00296777 0.007 -0.000493921 -0.00295906 0.0459271 -0.00285316 0.000927049 0.0443791 -0.00293503 -0.000620872 0.043198 -0.00239852 -0.00180195 0.0437725 -0.00273735 -0.00122751 0.0453113 -0.0029838 0.000311321 0.007 -0.00251189 0.0016402 0.007 -0.0014282 0.00263822 0 -0.00777754 -0.00628559 0 -0.00881284 -0.00472583 0 -0.00833233 -0.00552876 0 -0.0092172 -0.00387795 0 -0.00953923 -0.0030005 0 -0.00977866 -0.0020914 0 -0.00999718 -0.00023174 0 -0.00993137 -0.00116867 0 -0.00997491 0.000704782 0 -0.00986521 0.00163586 0 -0.00938747 0.00344598 0 -0.00966834 0.00255303 0 -0.00902262 0.00431132 0 -0.00806053 0.00591809 0 -0.00858073 0.00513526 0 -0.00747279 0.00664502 0 -0.00681592 0.00731712 0 -0.00610159 0.00792254 0 -0.0053325 0.00845947 0 -0.00451657 0.00892163 0 -0.00366227 0.00930521 0 -0.00277342 0.00960745 0 -0.000939299 0.00995562 0 -0.00186377 0.00982477 -5.32907e-18 -1.13311e-17 0.01 0 -0.0071549 -0.00698589 0 -0.00646956 -0.00762512 0 -0.00572604 -0.00819814 0 -0.00493466 -0.00869745 0 -0.00409601 -0.00912265 0 -0.00322653 -0.00946493 0 -0.00232398 -0.00972619 0 -0.00140498 -0.00990055 0 -0.000470451 -0.00998888 0 0.000466212 -0.00998888 0 0.00139967 -0.00990146 0 0.00232145 -0.00972663 0 0.00322088 -0.00946693 0 0.00409568 -0.00912276 0 0.00492936 -0.00870041 0 0.00572449 -0.00819939 0 0.00715238 -0.00698876 0 0.0064652 -0.00762864 0 0.00777449 -0.00628905 0 0.00832965 -0.00553311 0 0.00881121 -0.00472846 0 0.00953884 -0.00300147 0 0.00921501 -0.0038834 0 0.00977738 -0.00209736 0 0.00993131 -0.00117003 0 0.00999694 -0.000237529 0 0.00986584 0.00163094 0 0.00997534 0.000701462 0 0.00966975 0.00254845 0 0.00938852 0.00344255 0 0.00902518 0.00430622 0 0.00858149 0.00513375 0 0.00806415 0.0059132 0 0.0074733 0.00664453 0 0.00682021 0.00731301 0 0.00610394 0.00792095 0 0.00533685 0.00845653 0 0.00452061 0.00891981 0 0.00366594 0.00930355 0 0.00277874 0.00960606 0 0.00186598 0.0098242 0 0.000939299 0.00995562 0.0440778 0.00484262 -0.005 0.035 0.0148 -0.017 0.035 0.0148 -0.005 0.035043 0.0157253 -0.005 0.0459235 0.00484283 -0.005 0.0450028 0.00480017 -0.005 0.0468399 0.00497083 -0.005 0.0477385 0.00518248 -0.005 0.0486141 0.005476 -0.017 0.0494597 0.00584976 -0.017 0.0486141 0.005476 -0.005 0.0494597 0.00584976 -0.005 0.0502652 0.00629842 -0.017 0.0510285 0.00682174 -0.017 0.0502652 0.00629842 -0.005 0.0517371 0.00741006 -0.017 0.0510285 0.00682174 -0.005 0.0517371 0.00741006 -0.005 0.0523918 0.00806519 -0.017 0.0529808 0.00877465 -0.017 0.0523918 0.00806519 -0.005 0.0535033 0.00953771 -0.017 0.0529808 0.00877465 -0.005 0.0535033 0.00953771 -0.005 0.0539524 0.0103447 -0.017 0.0543253 0.0111892 -0.017 0.0539524 0.0103447 -0.005 0.0546188 0.0120661 -0.017 0.0543253 0.0111892 -0.005 0.0546188 0.0120661 -0.005 0.0548299 0.0129634 -0.017 0.054957 0.0138747 -0.017 0.0548299 0.0129634 -0.005 0.055 0.0148 -0.017 0.054957 0.0138747 -0.005 0.055 0.0148 -0.005 0.0440778 0.00484262 -0.017 0.0450028 0.00480017 -0.017 0.0431654 0.00496996 -0.017 0.0422646 0.00518142 -0.017 0.04139 0.00547458 -0.017 0.04139 0.00547458 -0.005 0.0405445 0.00584753 -0.005 0.0397373 0.00629707 -0.005 0.0405445 0.00584753 -0.017 0.0389758 0.00681838 -0.005 0.0397373 0.00629707 -0.017 0.0389758 0.00681838 -0.017 0.0382634 0.00740967 -0.005 0.037612 0.00806106 -0.005 0.0382634 0.00740967 -0.017 0.0370202 0.00877313 -0.005 0.037612 0.00806106 -0.017 0.0370202 0.00877313 -0.017 0.0364995 0.0095334 -0.005 0.0360491 0.0103413 -0.005 0.0364995 0.0095334 -0.017 0.0356763 0.0111854 -0.005 0.0360491 0.0103413 -0.017 0.0356763 0.0111854 -0.017 0.0353824 0.0120613 -0.005 0.0351707 0.0129611 -0.005 0.0353824 0.0120613 -0.017 0.035043 0.0138747 -0.005 0.0351707 0.0129611 -0.017 0.035043 0.0138747 -0.017 0.0351701 0.0166366 -0.017 0.035043 0.0157253 -0.017 0.0351701 0.0166366 -0.005 0.0360476 0.0192553 -0.017 0.0356747 0.0184108 -0.017 0.0360476 0.0192553 -0.005 0.0353812 0.0175339 -0.017 0.0353812 0.0175339 -0.005 0.0356747 0.0184108 -0.005 0.0370192 0.0208254 -0.017 0.0376082 0.0215348 -0.005 0.0376082 0.0215348 -0.017 0.0364967 0.0200623 -0.005 0.0370192 0.0208254 -0.005 0.0364967 0.0200623 -0.017 0.0397348 0.0233016 -0.005 0.0397348 0.0233016 -0.017 0.0389715 0.0227783 -0.017 0.0389715 0.0227783 -0.005 0.0382629 0.0221899 -0.017 0.0382629 0.0221899 -0.005 0.0422615 0.0244175 -0.017 0.0413859 0.024124 -0.017 0.0422615 0.0244175 -0.005 0.0405403 0.0237502 -0.017 0.0405403 0.0237502 -0.005 0.0413859 0.024124 -0.005 0.0440765 0.0247572 -0.017 0.0449972 0.0247998 -0.005 0.0449972 0.0247998 -0.017 0.0431601 0.0246292 -0.005 0.0440765 0.0247572 -0.005 0.0431601 0.0246292 -0.017 0.0477354 0.0244186 -0.005 0.0477354 0.0244186 -0.017 0.0468346 0.02463 -0.017 0.0468346 0.02463 -0.005 0.0459222 0.0247574 -0.017 0.0459222 0.0247574 -0.005 0.0502627 0.0233029 -0.017 0.0494555 0.0237525 -0.017 0.0502627 0.0233029 -0.005 0.04861 0.0241254 -0.017 0.04861 0.0241254 -0.005 0.0494555 0.0237525 -0.005 0.0517366 0.0221903 -0.017 0.052388 0.0215389 -0.005 0.052388 0.0215389 -0.017 0.0510242 0.0227816 -0.005 0.0517366 0.0221903 -0.005 0.0510242 0.0227816 -0.017 0.0529798 0.0208269 -0.017 0.0529798 0.0208269 -0.005 0.0535005 0.0200666 -0.005 0.0535005 0.0200666 -0.017 0.0539509 0.0192587 -0.005 0.0539509 0.0192587 -0.017 0.0543237 0.0184146 -0.017 0.0543237 0.0184146 -0.005 0.0546176 0.0175387 -0.005 0.0546176 0.0175387 -0.017 0.0548293 0.0166389 -0.005 0.0548293 0.0166389 -0.017 0.054957 0.0157253 -0.017 0.054957 0.0157253 -0.005 0.0459235 0.00484283 -0.017 0.0431654 0.00496996 -0.005 0.0422646 0.00518142 -0.005 0.0468399 0.00497083 -0.017 0.0477385 0.00518248 -0.017 0.0430873 0.0194196 -0.017 0.0414637 0.0112654 -0.017 0.0437062 0.0196297 -0.017 0.0456539 0.0197569 -0.017 0.0450014 0.0197999 -0.017 0.0443484 0.0197573 -0.017 0.0419573 0.0187675 -0.017 0.0425013 0.0191307 -0.017 0.0462946 0.0196294 -0.017 0.0414651 0.0183361 -0.017 0.0410333 0.0178439 -0.017 0.0469138 0.0194192 -0.017 0.0475009 0.0191295 -0.017 0.0406704 0.0173008 -0.017 0.0403813 0.0167147 -0.017 0.0480449 0.0187658 -0.017 0.0401708 0.0160953 -0.017 0.0485363 0.0183346 -0.017 0.0400429 0.0154534 -0.017 0.04 0.0148 -0.017 0.0400429 0.0141466 -0.017 0.0401701 0.0135073 -0.017 0.0498299 0.0160927 -0.017 0.0496198 0.0167123 -0.017 0.0406696 0.0123005 -0.017 0.0403802 0.0128877 -0.017 0.05 0.0148 -0.017 0.0499571 0.0154534 -0.017 0.0496187 0.0128853 -0.017 0.0498292 0.0135047 -0.017 0.0419551 0.0108342 -0.017 0.0493296 0.0122992 -0.017 0.0480427 0.0108325 -0.017 0.0424991 0.0104705 -0.017 0.0474987 0.0104693 -0.017 0.0462938 0.00997029 -0.017 0.0469127 0.0101804 -0.017 0.0443461 0.00984306 -0.017 0.0456516 0.00984268 -0.017 0.0449986 0.00980009 -0.017 0.0437054 0.00997057 -0.017 0.0430862 0.0101808 -0.017 0.0489667 0.0117561 -0.017 0.0485349 0.0112639 -0.017 0.0410331 0.0117564 -0.017 0.0499571 0.0141466 -0.017 0.0489669 0.0178436 -0.017 0.0493304 0.0172995 -0.017 0.0437051 0.0196294 -0.005 0.0414651 0.0112639 -0.005 0.0443472 0.0197572 -0.005 0.0456511 0.0197573 -0.005 0.0449987 0.0197999 -0.005 0.0430853 0.0194188 -0.005 0.046293 0.0196299 -0.005 0.0424988 0.0191293 -0.005 0.0419557 0.0187663 -0.005 0.0469132 0.0194195 -0.005 0.047499 0.0191305 -0.005 0.0414641 0.0183352 -0.005 0.0480425 0.0187676 -0.005 0.0410325 0.0178428 -0.005 0.0485346 0.0183364 -0.005 0.0406692 0.0172986 -0.005 0.0401703 0.0160939 -0.005 0.0403803 0.0167123 -0.005 0.0400001 0.0147985 -0.005 0.0493298 0.0173005 -0.005 0.0401705 0.0135056 -0.005 0.0496187 0.0167147 -0.005 0.0498292 0.0160955 -0.005 0.05 0.0148 -0.005 0.0403809 0.0128859 -0.005 0.0419565 0.010833 -0.005 0.0489673 0.011757 -0.005 0.0425011 0.0104693 -0.005 0.0485365 0.0112656 -0.005 0.0480448 0.0108341 -0.005 0.0469138 0.0101808 -0.005 0.0475006 0.0104702 -0.005 0.0443475 0.00984276 -0.005 0.0462954 0.00997087 -0.005 0.045001 0.00980003 -0.005 0.0456541 0.00984306 -0.005 0.0437071 0.00997018 -0.005 0.0430881 0.0101801 -0.005 0.0493303 0.0123003 -0.005 0.0496198 0.0128877 -0.005 0.0498299 0.0135074 -0.005 0.0410343 0.0117551 -0.005 0.0499571 0.0141465 -0.005 0.0499571 0.0154535 -0.005 0.0406706 0.0122988 -0.005 0.0400431 0.014146 -0.005 0.0400427 0.0154516 -0.005 0.0489664 0.0178443 -0.005 0.0459235 -0.0271572 -0.017 0.0450028 -0.0271998 -0.005 0.0450028 -0.0271998 -0.017 0.035 -0.0172 -0.017 0.035 -0.0172 -0.005 0.035043 -0.0162747 -0.005 0.0468399 -0.0270292 -0.017 0.0459235 -0.0271572 -0.005 0.0468399 -0.0270292 -0.005 0.0477385 -0.0268175 -0.017 0.0486141 -0.026524 -0.017 0.0477385 -0.0268175 -0.005 0.0494597 -0.0261502 -0.017 0.0486141 -0.026524 -0.005 0.0494597 -0.0261502 -0.005 0.0502652 -0.0257016 -0.017 0.0510285 -0.0251783 -0.017 0.0502652 -0.0257016 -0.005 0.0517371 -0.0245899 -0.017 0.0510285 -0.0251783 -0.005 0.0517371 -0.0245899 -0.005 0.0523918 -0.0239348 -0.017 0.0529808 -0.0232254 -0.017 0.0523918 -0.0239348 -0.005 0.0535033 -0.0224623 -0.017 0.0529808 -0.0232254 -0.005 0.0535033 -0.0224623 -0.005 0.0539524 -0.0216553 -0.017 0.0543253 -0.0208108 -0.017 0.0539524 -0.0216553 -0.005 0.0546188 -0.0199339 -0.017 0.0543253 -0.0208108 -0.005 0.0546188 -0.0199339 -0.005 0.0548299 -0.0190366 -0.017 0.054957 -0.0181253 -0.017 0.0548299 -0.0190366 -0.005 0.055 -0.0172 -0.017 0.054957 -0.0181253 -0.005 0.055 -0.0172 -0.005 0.0440778 -0.0271574 -0.005 0.0440778 -0.0271574 -0.017 0.0431654 -0.02703 -0.005 0.0422646 -0.0268186 -0.005 0.0431654 -0.02703 -0.017 0.04139 -0.0265254 -0.005 0.0422646 -0.0268186 -0.017 0.04139 -0.0265254 -0.017 0.0405445 -0.0261525 -0.005 0.0397373 -0.0257029 -0.005 0.0405445 -0.0261525 -0.017 0.0389758 -0.0251816 -0.005 0.0397373 -0.0257029 -0.017 0.0389758 -0.0251816 -0.017 0.0382634 -0.0245903 -0.005 0.037612 -0.0239389 -0.005 0.0382634 -0.0245903 -0.017 0.0370202 -0.0232269 -0.005 0.037612 -0.0239389 -0.017 0.0370202 -0.0232269 -0.017 0.0364995 -0.0224666 -0.005 0.0360491 -0.0216587 -0.005 0.0364995 -0.0224666 -0.017 0.0356763 -0.0208146 -0.005 0.0360491 -0.0216587 -0.017 0.0356763 -0.0208146 -0.017 0.0353824 -0.0199387 -0.005 0.0351707 -0.0190389 -0.005 0.0353824 -0.0199387 -0.017 0.035043 -0.0181253 -0.005 0.0351707 -0.0190389 -0.017 0.035043 -0.0181253 -0.017 0.0351701 -0.0153634 -0.017 0.035043 -0.0162747 -0.017 0.0351701 -0.0153634 -0.005 0.0360476 -0.0127447 -0.017 0.0356747 -0.0135892 -0.017 0.0360476 -0.0127447 -0.005 0.0353812 -0.0144661 -0.017 0.0353812 -0.0144661 -0.005 0.0356747 -0.0135892 -0.005 0.0370192 -0.0111746 -0.017 0.0376082 -0.0104652 -0.005 0.0376082 -0.0104652 -0.017 0.0364967 -0.0119377 -0.005 0.0370192 -0.0111746 -0.005 0.0364967 -0.0119377 -0.017 0.0397348 -0.00869842 -0.005 0.0397348 -0.00869842 -0.017 0.0389715 -0.00922174 -0.017 0.0389715 -0.00922174 -0.005 0.0382629 -0.00981006 -0.017 0.0382629 -0.00981006 -0.005 0.0422615 -0.00758248 -0.005 0.0405403 -0.00824976 -0.017 0.0405403 -0.00824976 -0.005 0.0413859 -0.007876 -0.005 0.0440765 -0.00724283 -0.005 0.0449972 -0.00720017 -0.005 0.0468346 -0.00736996 -0.017 0.0459222 -0.00724262 -0.017 0.0502627 -0.00869707 -0.017 0.0494555 -0.00824753 -0.017 0.0502627 -0.00869707 -0.005 0.04861 -0.00787458 -0.017 0.04861 -0.00787458 -0.005 0.0494555 -0.00824753 -0.005 0.0517366 -0.00980967 -0.017 0.052388 -0.0104611 -0.005 0.052388 -0.0104611 -0.017 0.0510242 -0.00921838 -0.005 0.0517366 -0.00980967 -0.005 0.0510242 -0.00921838 -0.017 0.0529798 -0.0111731 -0.017 0.0529798 -0.0111731 -0.005 0.0535005 -0.0119334 -0.005 0.0535005 -0.0119334 -0.017 0.0539509 -0.0127413 -0.005 0.0539509 -0.0127413 -0.017 0.0543237 -0.0135854 -0.017 0.0543237 -0.0135854 -0.005 0.0546176 -0.0144613 -0.005 0.0546176 -0.0144613 -0.017 0.0548293 -0.0153611 -0.005 0.0548293 -0.0153611 -0.017 0.054957 -0.0162747 -0.017 0.054957 -0.0162747 -0.005 0.0477354 -0.00758142 -0.017 0.0459222 -0.00724262 -0.005 0.0449972 -0.00720017 -0.017 0.0431601 -0.00737083 -0.005 0.0413859 -0.007876 -0.017 0.0440765 -0.00724283 -0.017 0.0468346 -0.00736996 -0.005 0.0477354 -0.00758142 -0.005 0.0431601 -0.00737083 -0.017 0.0422615 -0.00758248 -0.017 0.0430873 -0.0125804 -0.017 0.0414637 -0.0207346 -0.017 0.0437062 -0.0123703 -0.017 0.0456539 -0.0122431 -0.017 0.0450014 -0.0122001 -0.017 0.0443484 -0.0122427 -0.017 0.0419573 -0.0132325 -0.017 0.0425013 -0.0128693 -0.017 0.0462946 -0.0123706 -0.017 0.0414651 -0.0136639 -0.017 0.0410333 -0.0141561 -0.017 0.0469138 -0.0125808 -0.017 0.0475009 -0.0128705 -0.017 0.0406704 -0.0146992 -0.017 0.0403813 -0.0152853 -0.017 0.0480449 -0.0132342 -0.017 0.0401708 -0.0159047 -0.017 0.0485363 -0.0136654 -0.017 0.0400429 -0.0165466 -0.017 0.04 -0.0172 -0.017 0.0400429 -0.0178534 -0.017 0.0401701 -0.0184927 -0.017 0.0498299 -0.0159073 -0.017 0.0496198 -0.0152877 -0.017 0.0406696 -0.0196995 -0.017 0.0403802 -0.0191123 -0.017 0.05 -0.0172 -0.017 0.0499571 -0.0165466 -0.017 0.0496187 -0.0191147 -0.017 0.0498292 -0.0184953 -0.017 0.0419551 -0.0211658 -0.017 0.0493296 -0.0197008 -0.017 0.0480427 -0.0211675 -0.017 0.0424991 -0.0215295 -0.017 0.0474987 -0.0215307 -0.017 0.0462938 -0.0220297 -0.017 0.0469127 -0.0218196 -0.017 0.0443461 -0.0221569 -0.017 0.0456516 -0.0221573 -0.017 0.0449986 -0.0221999 -0.017 0.0437054 -0.0220294 -0.017 0.0430862 -0.0218192 -0.017 0.0489667 -0.0202439 -0.017 0.0485349 -0.0207361 -0.017 0.0410331 -0.0202436 -0.017 0.0499571 -0.0178534 -0.017 0.0489669 -0.0141564 -0.017 0.0493304 -0.0147005 -0.017 0.0437051 -0.0123706 -0.005 0.0414651 -0.0207361 -0.005 0.0443472 -0.0122428 -0.005 0.0456511 -0.0122427 -0.005 0.0449987 -0.0122001 -0.005 0.0430853 -0.0125812 -0.005 0.046293 -0.0123701 -0.005 0.0424988 -0.0128707 -0.005 0.0419557 -0.0132337 -0.005 0.0469132 -0.0125805 -0.005 0.047499 -0.0128695 -0.005 0.0414641 -0.0136648 -0.005 0.0480425 -0.0132324 -0.005 0.0410325 -0.0141572 -0.005 0.0485346 -0.0136636 -0.005 0.0406692 -0.0147014 -0.005 0.0401703 -0.0159061 -0.005 0.0403803 -0.0152877 -0.005 0.0400001 -0.0172015 -0.005 0.0493298 -0.0146995 -0.005 0.0401705 -0.0184944 -0.005 0.0496187 -0.0152853 -0.005 0.0498292 -0.0159045 -0.005 0.05 -0.0172 -0.005 0.0403809 -0.0191141 -0.005 0.0419565 -0.021167 -0.005 0.0489673 -0.020243 -0.005 0.0425011 -0.0215307 -0.005 0.0485365 -0.0207344 -0.005 0.0480448 -0.0211659 -0.005 0.0469138 -0.0218192 -0.005 0.0475006 -0.0215298 -0.005 0.0443475 -0.0221572 -0.005 0.0462954 -0.0220291 -0.005 0.045001 -0.0222 -0.005 0.0456541 -0.0221569 -0.005 0.0437071 -0.0220298 -0.005 0.0430881 -0.0218199 -0.005 0.0493303 -0.0196997 -0.005 0.0496198 -0.0191123 -0.005 0.0498299 -0.0184926 -0.005 0.0410343 -0.0202449 -0.005 0.0499571 -0.0178535 -0.005 0.0499571 -0.0165465 -0.005 0.0406706 -0.0197012 -0.005 0.0400431 -0.017854 -0.005 0.0400427 -0.0165484 -0.005 0.0489664 -0.0141557 -0.005</float_array>
          <technique_common>
            <accessor count="751" source="#verts-array-array" stride="3">
              <param type="float" name="X" />
              <param type="float" name="Y" />
              <param type="float" name="Z" />
            </accessor>
          </technique_common>
        </source>
        <source id="normals-array">
          <float_array count="2253" id="normals-array-array">-0.7983938 -0.6002037 0.04819528 -0.9985796 0.03752799 0.03782057 -0.9921878 0.0886959 0.08772916 -0.7122585 0.4959673 0.4966933 -0.536303 -0.6707807 0.5122815 -0.7938297 0.4300074 0.4300326 -0.7422076 -0.6248456 0.2422723 -0.7743372 -0.6156426 0.1462398 -0.9801831 0.1398605 0.1402863 -0.9014672 0.3059922 0.3061465 -0.6255015 -0.6523329 0.4280298 -0.6930141 -0.6370641 0.3374622 -0.9364205 0.2481505 0.2480685 -0.8553065 0.3669306 0.3658043 -0.5356517 0.6714838 0.5120418 -0.712312 -0.4962179 0.4963663 -0.7935343 -0.4303707 0.4302143 -0.6055588 -0.563114 0.5623176 -0.4187797 0.6925018 0.5874222 -0.9621012 0.1928656 0.1927803 -0.6054182 0.5629424 0.5626407 -0.4261979 -0.6892768 0.5858778 -0.9363314 -0.2483689 0.2481863 -0.6928304 0.6372933 0.3374066 -0.9014843 -0.3061099 0.3059786 -0.2915051 -0.7067493 0.6446163 -0.9999596 -8.053408e-07 -0.008989602 -0.1525742 0.7158179 0.6814146 -0.1047797 -0.7038033 0.7026252 -0.3005064 -0.6752038 0.6736436 -0.1022215 0.7046109 0.7021925 -0.1451817 -0.7126409 0.686342 -0.2979099 0.675496 0.6745033 -0.4691243 0.6251768 0.6237599 -0.7977495 0.6010386 -0.04845931 -0.798344 0.6002387 0.04858409 -0.9985813 -0.03757807 0.03772655 -0.7416902 0.6254712 -0.2422425 -0.7418055 -0.6252123 -0.2425577 -0.692322 -0.6380876 -0.3369488 -0.7735944 0.6166398 -0.1459691 -0.7742738 -0.6157177 -0.1462595 -0.6924378 0.6380828 -0.3367198 -0.6247377 -0.6531504 -0.4278987 -0.6248522 0.6531701 -0.4277015 -0.4244187 -0.6907157 -0.5854747 -0.2963562 -0.7057688 -0.6434776 -0.426096 0.6901597 -0.5849118 -0.5353509 -0.6722651 -0.5113306 -0.5355231 0.6722268 -0.5112006 -0.2968164 0.706373 -0.642602 -0.1544002 -0.7167307 -0.6800424 -0.1529078 0.7164127 -0.6807144 4.955767e-05 -0.7212191 -0.6927071 -0.7986919 -0.5997526 -0.04886796 -4.923819e-05 0.7212188 -0.6927073 0.1048076 0.7043306 0.7020924 -0.0001049444 -0.7174746 0.6965846 0.2983456 -0.6751508 0.6746564 0.2906268 0.7076077 0.644071 0.4688539 -0.6249885 0.6241518 0.469918 0.6265354 0.6217962 0.2900537 -0.7037275 0.6485649 0.3006637 0.6758195 0.6729557 0.1530037 -0.7139648 0.6832599 0.5359944 0.6713826 0.5118158 0.7938071 -0.4300443 0.4300375 0.7123528 -0.4960873 0.4964382 0.6049642 0.5633733 0.5626978 0.625181 0.6527717 0.4278292 0.85526 -0.3667389 0.366105 0.7122243 0.4958343 0.4968752 0.4188204 -0.6920398 0.5879374 0.8552256 0.3669081 0.3660159 0.6253831 -0.6522411 0.4283427 0.7935678 0.4300883 0.4304349 0.5359263 -0.6709282 0.5124825 0.7419613 0.6251711 0.242187 0.9620826 -0.1929018 0.1928366 0.9364148 -0.2481294 0.2481109 0.9014287 0.3059109 0.3063409 0.7425491 -0.624272 0.2427043 0.9363341 0.2482264 0.2483185 0.9620639 0.1930475 0.1927841 0.6930397 -0.6369415 0.3376412 0.9921862 0.08860922 0.08783425 0.7751932 -0.6144906 0.1465498 0.9801779 0.139822 0.1403606 0.9999599 4.196415e-06 -0.008952247 0.7982169 0.6004404 0.04817814 0.7986076 0.5998749 -0.04874306 0.798522 -0.6000004 0.04860178 0.7742736 0.6157179 -0.1462595 0.7978341 -0.6009162 -0.04858492 0.7418054 0.6252124 -0.2425577 0.7736431 -0.6165792 -0.1459674 0.7416715 -0.6254926 -0.2422444 0.692322 0.6380877 -0.3369486 0.6247382 0.65315 -0.4278987 0.692437 -0.6380831 -0.3367209 0.5353509 0.6722651 -0.5113307 0.6248407 -0.6531802 -0.4277029 0.5355344 -0.6722184 -0.5111998 0.4244185 0.6907156 -0.5854749 0.2963565 0.7057688 -0.6434775 0.4260958 -0.6901597 -0.584912 0.1544014 0.7167309 -0.680042 0.2968162 -0.7063733 -0.6426017 0.1529081 -0.7164124 -0.6807146 -0.9801862 -0.1399353 0.1401897 -0.9921784 -0.08866302 0.08786833 -0.7749948 0.6147527 0.1464995 -0.7423057 0.6245941 0.2426201 -0.9620642 -0.1929309 0.1928993 -0.6250807 0.6526541 0.428155 -0.8551689 -0.3669704 0.366086 -0.4695947 -0.6255934 0.6229878 -0.2889881 0.7048199 0.647854 0.102177 -0.7040301 0.7027812 0.0001231356 0.7194921 0.6945007 0.1446286 0.7144131 0.6846141 0.6056801 -0.5627865 0.5625149 0.4261778 0.6897657 0.5853168 0.9015289 -0.3059252 0.3060317 0.6927951 0.637427 0.3372265 0.992185 -0.08852785 0.08792985 0.9802015 -0.1398586 0.1401592 0.7741371 0.6159055 0.1461924 0.9985806 -0.0375607 0.03776151 0.9985783 0.03756769 0.03781716 0.06518441 0.99574 0.06521449 0.3909274 0.91728 0.07598153 0.1179201 0.9860076 0.1178297 0.693566 -0.1938501 0.6938216 0.3910155 -7.816352e-06 0.9203841 0.3909246 -0.1515898 0.9078538 0.3907577 0.9173396 -0.07613465 0.01284923 0.9998307 0.01316766 -0.09175597 0.9915532 -0.09166876 -0.03934634 0.9984644 -0.03899594 -0.1454161 0.9786208 -0.1454492 0.390754 0.8923584 -0.2258492 0.3909156 0.8429158 -0.3696997 -0.201184 0.9587856 -0.200637 0.3909344 0.770532 -0.503439 -0.2589173 0.930722 -0.2582989 -0.3195353 0.8922839 -0.3189463 0.3907433 0.6771151 -0.6235662 -0.3832657 0.8405934 -0.3827665 -0.450319 0.7714327 -0.4495601 0.3907065 0.5655065 -0.726327 -0.5192869 0.6792076 -0.5186697 -0.5872119 0.5576339 -0.5867083 0.3908798 0.4381318 -0.8094773 0.3909477 0.2988369 -0.8705495 0.3909416 0.8922477 0.2259616 0.3907336 0.1512918 -0.9079857 -0.6477585 0.4017245 -0.6473225 -0.691349 0.2118181 -0.6907747 0.3906874 0.0001279944 -0.9205234 -0.7074684 -9.096371e-05 -0.706745 0.1717041 0.9700284 0.1719378 0.2272301 0.9468493 0.2276904 0.3908022 0.8429056 0.3698428 0.3907758 0.7706372 0.5034009 0.2851548 0.9150045 0.2854007 0.3456282 0.8723009 0.345879 0.3909245 0.6772009 0.6233595 0.4738349 0.7420581 0.4741626 0.408629 0.8159194 0.4090206 0.3909685 0.5653288 0.7263243 0.5396122 0.645992 0.5399194 0.6024799 0.5233455 0.6026006 0.3908391 0.4380195 0.8095577 0.3906017 0.2987599 0.8707312 0.6562882 0.3717632 0.6565653 0.3907232 0.151726 0.9079177 0.6935251 0.1939517 0.693834 0.7069079 8.354608e-05 0.7073056 0.4738571 -0.7420012 0.4742295 0.5396442 -0.6459577 0.5399284 0.3909728 -0.5654635 0.7262171 0.3906739 -0.2990925 0.8705846 0.6024818 -0.5232951 0.6026425 0.6562921 -0.3717137 0.6565894 0.2852109 -0.914965 0.2854712 0.3907529 -0.8430189 0.3696368 0.2272098 -0.9468417 0.227742 0.4086288 -0.8159181 0.4090236 0.3909333 -0.6773358 0.6232073 0.3455588 -0.8722967 0.345959 0.3907828 -0.9173036 -0.07643848 -0.03933869 -0.9984632 -0.03903341 0.01281139 -0.9998314 0.0131578 0.3909365 -0.917302 0.07566871 0.1178786 -0.9860052 0.1178918 0.3909488 -0.8923172 0.2256748 0.3909418 -0.7703738 -0.5036753 -0.2588322 -0.9307392 -0.2583224 0.3909175 -0.8427884 -0.3699882 -0.145388 -0.9786237 -0.1454578 0.390775 -0.8922651 -0.2261812 -0.5192411 -0.6792713 -0.5186321 -0.4502581 -0.7714653 -0.4495652 0.3905683 -0.5651494 -0.7266791 -0.3832858 -0.8405823 -0.3827707 0.3908388 -0.676955 -0.6236801 0.3906451 -0.4381993 -0.809554 -0.5871613 -0.5576702 -0.5867245 0.3909392 -0.2987945 -0.8705678 -0.6477438 -0.4017872 -0.6472983 -0.6913623 -0.2119151 -0.6907316 0.3909006 -0.1514485 -0.9078877 0.1716882 -0.9700208 0.1719964 -0.09168773 -0.9915556 -0.09171111 -0.3193973 -0.8923223 -0.3189769 -0.2011086 -0.9587956 -0.2006647 0.06514617 -0.9957399 0.06525368 0.3907321 -0.7708175 0.5031588 0.3907195 -0.4380738 0.8095861 -0.3732511 -0.7216442 -0.5830208 -0.3732572 -0.8176154 -0.4383881 -0.3733188 -0.772937 -0.5130316 -0.3733116 -0.8551097 -0.3597581 -0.3732303 -0.8849729 -0.2784278 -0.373241 -0.9072635 -0.1938147 -0.373273 -0.9274757 -0.02135665 -0.3732011 -0.9213677 -0.1086394 -0.3732927 -0.9254141 0.06527926 -0.3732712 -0.9152191 0.1517979 -0.3732391 -0.8709369 0.3196272 -0.3733157 -0.8969555 0.2368676 -0.3732445 -0.8369889 0.4001727 -0.3733104 -0.7477474 0.5491021 -0.3731474 -0.7962135 0.4762405 -0.3732313 -0.6933179 0.6164485 -0.3733072 -0.6323083 0.6788431 -0.3732909 -0.5660243 0.7350309 -0.3732652 -0.494781 0.7847706 -0.373214 -0.4187718 0.8278536 -0.373127 -0.3400673 0.8632094 -0.3733118 -0.257191 0.8913423 -0.3733414 -0.08692608 0.9236125 -0.3732321 -0.1731615 0.9114345 -0.3732053 -3.934169e-15 0.9277488 -0.3732644 -0.6636084 -0.6483036 -0.3732129 -0.6004136 -0.7072592 -0.3731419 -0.5309449 -0.7608303 -0.373144 -0.4581437 -0.8067639 -0.3732607 -0.3800428 -0.8463119 -0.3733234 -0.2991963 -0.8781294 -0.3732525 -0.2157637 -0.9022907 -0.3732965 -0.1300599 -0.91855 -0.3732064 -0.04391614 -0.9267083 -0.3732067 0.04367668 -0.9267195 -0.373129 0.1294887 -0.9186988 -0.3733148 0.2154313 -0.9023444 -0.3732768 0.2988086 -0.8782812 -0.3732745 0.3798296 -0.8464015 -0.3732979 0.4575443 -0.8070327 -0.3732187 0.5308594 -0.7608522 -0.3731327 0.6633166 -0.648678 -0.373241 0.6001473 -0.7074704 -0.3733411 0.7213641 -0.5833098 -0.373232 0.7727309 -0.5134052 -0.3733351 0.8174207 -0.4386847 -0.3732635 0.8848801 -0.2786783 -0.3732541 0.8549633 -0.3601653 -0.3732372 0.9071784 -0.1942196 -0.3731581 0.9213494 -0.1089413 -0.3733358 0.9274406 -0.02177746 -0.3733605 0.9152513 0.1513838 -0.3732134 0.9254718 0.06491248 -0.3732256 0.8970976 0.2364709 -0.3733217 0.8710312 0.3192736 -0.3732065 0.8372091 0.3997472 -0.3732222 0.7963165 0.4760096 -0.3732921 0.7480051 0.5487634 -0.3732111 0.6934941 0.6162624 -0.3733591 0.6325976 0.678545 -0.3732212 0.5663191 0.7348392 -0.3733495 0.4951216 0.7845156 -0.3731906 0.4192478 0.8276231 -0.3732815 0.3402892 0.8630551 -0.3731288 0.2574375 0.8913478 -0.3731496 0.17352 0.9114001 -0.3733159 0.08704843 0.9236113 -0.06589168 -0.7133281 0.6977258 -0.7172598 2.454356e-18 -0.6968059 -0.7172598 1.68737e-18 0.6968059 -0.7141146 0.06625024 0.6968868 0.06603969 -0.7132742 0.697767 0.0001599977 -0.716412 0.6976774 0.1319069 -0.7040027 0.6978401 0.1964507 -0.6890117 0.6976173 0.2594808 -0.6683965 -0.6970766 0.3197931 -0.6419205 -0.6969006 0.2594834 -0.6683928 0.6970792 0.3197931 -0.6419205 0.6969006 0.3777053 -0.6097444 -0.6968145 0.4322763 -0.5722355 -0.6969101 0.3777053 -0.6097444 0.6968145 0.4832758 -0.5299952 -0.6968139 0.4322763 -0.5722355 0.6969101 0.4832758 -0.5299952 0.6968139 0.5301119 -0.4830494 -0.6968821 0.5724147 -0.4321361 -0.6968499 0.5301119 -0.4830494 0.6968821 0.6099049 -0.3774032 -0.6968378 0.5724147 -0.4321361 0.6968499 0.6099049 -0.3774032 0.6968378 0.6420385 -0.319556 -0.6969006 0.668873 -0.258968 -0.6968102 0.6420385 -0.319556 0.6969006 0.689816 -0.1961356 -0.6969108 0.668873 -0.258968 0.6968102 0.689816 -0.1961356 0.6969108 0.7050034 -0.1318018 -0.696849 0.7141146 -0.06625029 -0.6968868 0.7050034 -0.1318018 0.696849 0.7172598 -4.908711e-18 -0.6968059 0.7141146 -0.06625029 0.6968868 0.7172598 0 0.6968059 -0.06604751 -0.7131625 -0.6978804 0.000160997 -0.7161108 -0.6979867 -0.1315859 -0.7040149 -0.6978884 -0.1962045 -0.6891718 -0.6975285 -0.2591908 -0.6684253 -0.6971569 -0.2591888 -0.6684281 0.697155 -0.3195622 -0.6421181 0.6968244 -0.3774403 -0.6098299 0.6968833 -0.3195622 -0.6421181 -0.6968244 -0.4320679 -0.572464 0.6968517 -0.3774403 -0.6098299 -0.6968833 -0.4320679 -0.572464 -0.6968517 -0.4831325 -0.5301 0.6968335 -0.5298885 -0.4832643 0.696903 -0.4831325 -0.5301 -0.6968335 -0.5723165 -0.432342 0.6968029 -0.5298885 -0.4832643 -0.696903 -0.5723165 -0.432342 -0.6968029 -0.6096862 -0.3776246 0.6969092 -0.6419708 -0.3198527 0.6968269 -0.6096862 -0.3776246 -0.6969092 -0.6686978 -0.25922 0.6968847 -0.6419708 -0.3198527 -0.6968269 -0.6686978 -0.25922 -0.6968847 -0.6898166 -0.1964224 0.6968295 -0.7049529 -0.1319061 0.6968803 -0.6898166 -0.1964224 -0.6968295 -0.7141363 -0.06636016 0.6968541 -0.7049529 -0.1319061 -0.6968803 -0.7141363 -0.06636016 -0.6968541 -0.7050034 0.1318019 -0.6968489 -0.7141146 0.06625024 -0.6968868 -0.7050034 0.1318019 0.6968489 -0.6420388 0.3195541 -0.6969013 -0.668873 0.2589682 -0.6968102 -0.6420388 0.3195541 0.6969013 -0.689816 0.1961356 -0.6969108 -0.689816 0.1961356 0.6969108 -0.668873 0.2589682 0.6968102 -0.5724167 0.4321449 -0.6968428 -0.5300952 0.483065 0.696884 -0.5300952 0.483065 -0.696884 -0.6099088 0.377393 0.6968398 -0.5724167 0.4321449 0.6968428 -0.6099088 0.377393 -0.6968398 -0.3776847 0.6097617 0.6968105 -0.3776847 0.6097617 -0.6968105 -0.4322956 0.5722323 -0.6969008 -0.4322956 0.5722323 0.6969008 -0.4832809 0.5299775 -0.6968238 -0.4832809 0.5299775 0.6968238 -0.1964013 0.6897557 -0.6968956 -0.2592529 0.668758 -0.6968147 -0.1964013 0.6897557 0.6968956 -0.3197833 0.6419142 -0.6969109 -0.3197833 0.6419142 0.6969109 -0.2592529 0.668758 0.6968147 -0.06625404 0.7141578 -0.6968422 -0.000154042 0.7171707 0.6968975 -0.000154042 0.7171707 -0.6968975 -0.1319851 0.7049806 0.6968373 -0.06625404 0.7141578 0.6968422 -0.1319851 0.7049806 -0.6968373 0.1961427 0.6899283 0.6967977 0.1961427 0.6899283 -0.6967977 0.1316494 0.7049553 -0.6969264 0.1316494 0.7049553 0.6969264 0.06608797 0.7142141 -0.6968003 0.06608797 0.7142141 0.6968003 0.3774512 0.6098151 -0.6968904 0.3195703 0.6421263 -0.6968132 0.3774512 0.6098151 0.6968904 0.2589486 0.6687756 -0.6969109 0.2589486 0.6687756 0.6969109 0.3195703 0.6421263 0.6968132 0.4831367 0.5300963 -0.6968334 0.5298742 0.483271 0.6969092 0.5298742 0.483271 -0.6969092 0.4320685 0.5724657 0.6968499 0.4831367 0.5300963 0.6968334 0.4320685 0.5724657 -0.6968499 0.5723157 0.432355 -0.6967955 0.5723157 0.432355 0.6967955 0.609688 0.3776178 0.6969112 0.609688 0.3776178 -0.6969112 0.6419708 0.3198527 0.6968269 0.6419708 0.3198527 -0.6968269 0.6686978 0.25922 -0.6968847 0.6686978 0.25922 0.6968847 0.6898166 0.1964223 0.6968294 0.6898166 0.1964223 -0.6968294 0.7049529 0.1319061 0.6968804 0.7049529 0.1319061 -0.6968804 0.7141363 0.06636022 -0.6968541 0.7141363 0.06636022 0.6968541 0.06624414 -0.7131102 -0.6979152 -0.1315923 -0.7040501 0.6978517 -0.1961905 -0.6891965 0.6975081 0.1319189 -0.7040458 -0.6977943 0.1964319 -0.6890447 -0.69759 0.2646998 -0.6391335 -0.7221097 0.4892483 0.4891011 -0.7220915 0.1789705 -0.6681808 -0.7221523 -0.09044894 -0.6858593 -0.7220914 -0.0002278334 -0.6917589 -0.7221285 0.09011497 -0.6858571 -0.7221352 0.4209348 -0.5489425 -0.722133 0.3457524 -0.5991969 -0.7220931 -0.1790782 -0.6681908 -0.7221164 0.489029 -0.489253 -0.7221372 0.5487577 -0.4211576 -0.7221435 -0.2647964 -0.639045 -0.7221526 -0.3460293 -0.5989939 -0.7221289 0.5990712 -0.3459179 -0.722118 0.6390765 -0.2648808 -0.7220938 -0.4212706 -0.548694 -0.722126 0.6681296 -0.1792689 -0.7221257 -0.4892488 -0.4891042 -0.7220891 0.6857996 -0.09043862 -0.7221494 0.6917324 1.551946e-06 -0.7221539 0.6858392 0.09035198 -0.7221227 0.6682599 0.1789565 -0.7220825 -0.6682621 -0.1789576 -0.7220803 -0.6391689 -0.2645448 -0.7221351 0.59912 0.3457799 -0.7221437 0.6391709 0.2645419 -0.7221345 -0.6917314 -1.196763e-07 -0.7221548 -0.685841 -0.09035033 -0.7221211 -0.6390781 0.2648825 -0.7220917 -0.6681306 0.1792664 -0.7221254 0.421272 0.5486939 -0.7221253 -0.5990701 0.3459193 -0.7221183 -0.4209371 0.5489427 -0.7221314 0.3460315 0.5989958 -0.7221262 -0.3457511 0.5991983 -0.7220925 -0.1789807 0.6681761 -0.7221541 -0.2647029 0.6391317 -0.7221102 0.09043955 0.6858511 -0.7221003 -0.09011558 0.6858538 -0.7221383 0.0002179192 0.6917667 -0.722121 0.1790951 0.66818 -0.7221222 0.2648099 0.6390468 -0.722146 -0.5487556 0.4211572 -0.7221454 -0.4890299 0.4892513 -0.7221377 0.5488152 0.4210945 -0.7221366 -0.6857979 0.09043793 -0.7221511 -0.5488181 -0.4210925 -0.7221356 -0.5991186 -0.3457784 -0.7221456 0.1791735 -0.6681321 0.7221471 0.4891253 0.4891682 0.7221294 0.09032861 -0.6858228 0.7221411 -0.09006745 -0.6858967 0.7221036 8.699128e-05 -0.6917925 0.7220964 0.2649363 -0.6390088 0.7221333 -0.1788323 -0.668217 0.7221531 0.3460493 -0.5990196 0.7220979 0.4211631 -0.5488005 0.7221078 -0.2647 -0.6390671 0.7221684 -0.3458573 -0.5991653 0.722069 0.489181 -0.4890688 0.7221591 -0.4209247 -0.5489783 0.7221116 0.5489375 -0.4209271 0.7221413 -0.4889718 -0.4893063 0.7221398 0.5992213 -0.3456698 0.7221123 0.668158 -0.1789918 0.7221681 0.6391805 -0.2646783 0.722076 0.6917594 0.000233714 0.722128 -0.5990655 -0.3459019 0.7221305 0.6681783 0.1790661 0.7221309 -0.6390917 -0.2649007 0.722073 -0.6681091 -0.1792848 0.7221407 -0.6917337 -1.196586e-07 0.7221527 0.6390454 0.2648121 0.7221465 0.4210241 0.5488531 0.7221488 -0.5488675 0.4210728 0.7221095 0.3456888 0.5991768 0.7221402 -0.4892893 0.4890417 0.7221041 -0.4213075 0.5486721 0.7221212 -0.2647406 0.6390936 0.72213 -0.3459717 0.5989846 0.7221641 0.09025663 0.6858206 0.7221522 -0.1791867 0.6681977 0.7220831 -0.0001698351 0.691741 0.7221457 -0.09053639 0.685812 0.7221253 0.1789692 0.6682531 0.7220857 0.2645158 0.6392063 0.7221126 -0.5991054 0.3457884 0.7221517 -0.6391704 0.2645253 0.7221409 -0.668273 0.1789643 0.7220685 0.5487411 0.4213115 0.7220663 -0.6858296 0.09036699 0.7221298 -0.6858016 -0.09042458 0.7221493 0.5989254 0.3460918 0.7221557 0.6858675 0.09042997 0.722086 0.6858615 -0.09010253 0.7221327 -0.5487198 -0.4211906 0.7221531 0.06625404 -0.7141578 -0.6968422 0.000154042 -0.7171707 0.6968975 0.000154042 -0.7171707 -0.6968975 -0.7172598 -3.347755e-08 -0.6968059 -0.7172598 -3.347755e-08 0.6968059 -0.7141146 0.06625028 0.6968868 0.1319843 -0.7049805 -0.6968375 0.06625404 -0.7141578 0.6968422 0.1319843 -0.7049805 0.6968375 0.1964014 -0.6897561 -0.6968952 0.2592534 -0.6687575 -0.6968149 0.1964014 -0.6897561 0.6968952 0.3197833 -0.6419142 -0.6969109 0.2592534 -0.6687575 0.6968149 0.3197833 -0.6419142 0.6969109 0.3776847 -0.6097617 -0.6968105 0.4322956 -0.5722323 -0.6969008 0.3776847 -0.6097617 0.6968105 0.4832809 -0.5299775 -0.6968238 0.4322956 -0.5722323 0.6969008 0.4832809 -0.5299775 0.6968238 0.5300947 -0.4830653 -0.6968841 0.5724169 -0.4321451 -0.6968425 0.5300947 -0.4830653 0.6968841 0.6099087 -0.3773928 -0.6968401 0.5724169 -0.4321451 0.6968425 0.6099087 -0.3773928 0.6968401 0.6420389 -0.3195542 -0.6969011 0.668873 -0.2589679 -0.6968103 0.6420389 -0.3195542 0.6969011 0.689816 -0.1961356 -0.6969108 0.668873 -0.2589679 0.6968103 0.689816 -0.1961356 0.6969108 0.7050034 -0.1318019 -0.6968489 0.7141146 -0.06625026 -0.6968868 0.7050034 -0.1318019 0.6968489 0.7172598 -3.347755e-08 -0.6968059 0.7141146 -0.06625026 0.6968868 0.7172598 -3.347755e-08 0.6968059 -0.06608797 -0.7142141 0.6968003 -0.06608797 -0.7142141 -0.6968003 -0.1316494 -0.7049553 0.6969264 -0.1961432 -0.6899283 0.6967975 -0.1316494 -0.7049553 -0.6969264 -0.2589477 -0.6687754 0.6969114 -0.1961432 -0.6899283 -0.6967975 -0.2589477 -0.6687754 -0.6969114 -0.31957 -0.6421271 0.6968126 -0.377451 -0.6098148 0.6968907 -0.31957 -0.6421271 -0.6968126 -0.4320687 -0.572466 0.6968496 -0.377451 -0.6098148 -0.6968907 -0.4320687 -0.572466 -0.6968496 -0.483137 -0.5300958 0.6968336 -0.5298742 -0.483271 0.6969092 -0.483137 -0.5300958 -0.6968336 -0.5723157 -0.432355 0.6967955 -0.5298742 -0.483271 -0.6969092 -0.5723157 -0.432355 -0.6967955 -0.609688 -0.3776178 0.6969112 -0.6419708 -0.3198527 0.6968269 -0.609688 -0.3776178 -0.6969112 -0.6686978 -0.25922 0.6968847 -0.6419708 -0.3198527 -0.6968269 -0.6686978 -0.25922 -0.6968847 -0.6898165 -0.1964225 0.6968295 -0.7049529 -0.1319062 0.6968803 -0.6898165 -0.1964225 -0.6968295 -0.7141363 -0.06636013 0.6968541 -0.7049529 -0.1319062 -0.6968803 -0.7141363 -0.06636013 -0.6968541 -0.7050034 0.1318019 -0.6968489 -0.7141146 0.06625028 -0.6968868 -0.7050034 0.1318019 0.6968489 -0.6420388 0.3195542 -0.6969012 -0.6688731 0.2589679 -0.6968102 -0.6420388 0.3195542 0.6969012 -0.689816 0.1961355 -0.6969109 -0.689816 0.1961355 0.6969109 -0.6688731 0.2589679 0.6968102 -0.5724167 0.4321452 -0.6968426 -0.5300997 0.483055 0.6968875 -0.5300997 0.483055 -0.6968875 -0.6099087 0.3773929 0.69684 -0.5724167 0.4321452 0.6968426 -0.6099087 0.3773929 -0.69684 -0.3777054 0.6097443 0.6968145 -0.3777054 0.6097443 -0.6968145 -0.4322764 0.5722353 -0.6969102 -0.4322764 0.5722353 0.6969102 -0.4832783 0.5299939 -0.6968131 -0.4832783 0.5299939 0.6968131 -0.1964509 0.6890118 0.6976173 -0.3197929 0.6419207 -0.6969005 -0.3197929 0.6419207 0.6969005 -0.2594833 0.6683927 0.6970793 -0.06603988 0.7132741 0.697767 -0.0001599643 0.7164121 0.6976773 0.1315857 0.7040149 -0.6978884 0.06604765 0.7131624 -0.6978804 0.3774401 0.60983 -0.6968833 0.3195627 0.6421177 -0.6968246 0.3774401 0.60983 0.6968833 0.2591911 0.6684254 -0.6971567 0.2591892 0.6684282 0.6971547 0.3195627 0.6421177 0.6968246 0.4831431 0.5300948 -0.6968301 0.529878 0.4832633 0.6969117 0.529878 0.4832633 -0.6969117 0.4320679 0.5724641 0.6968516 0.4831431 0.5300948 0.6968301 0.4320679 0.5724641 -0.6968516 0.5723157 0.432355 -0.6967955 0.5723157 0.432355 0.6967955 0.609688 0.3776178 0.6969112 0.609688 0.3776178 -0.6969112 0.6419707 0.3198529 0.696827 0.6419707 0.3198529 -0.696827 0.6686979 0.2592201 -0.6968846 0.6686979 0.2592201 0.6968846 0.6898166 0.1964223 0.6968295 0.6898166 0.1964223 -0.6968295 0.7049529 0.1319062 0.6968803 0.7049529 0.1319062 -0.6968803 0.7141363 0.0663602 -0.6968541 0.7141363 0.0663602 0.6968541 0.1962041 0.6891719 -0.6975286 0.06589184 0.713328 0.6977259 -0.0001610107 0.7161109 -0.6979865 -0.1319069 0.7040027 0.6978401 -0.2594806 0.6683964 -0.6970768 -0.0662443 0.7131101 -0.6979152 0.1315921 0.70405 0.6978517 0.19619 0.6891966 0.6975081 -0.1319183 0.7040455 -0.6977947 -0.1964325 0.6890442 -0.6975904 0.2646998 -0.6391334 -0.7221097 0.4892481 0.489101 -0.7220918 0.17897 -0.6681808 -0.7221525 -0.09044943 -0.6858594 -0.7220912 -0.0002278338 -0.6917585 -0.7221289 0.09011501 -0.6858575 -0.7221349 0.4209352 -0.5489424 -0.7221328 0.3457526 -0.5991965 -0.7220932 -0.1790783 -0.6681908 -0.7221163 0.489029 -0.489253 -0.7221372 0.5487576 -0.4211579 -0.7221434 -0.2647961 -0.6390453 -0.7221524 -0.3460288 -0.5989939 -0.722129 0.599071 -0.3459181 -0.7221181 0.6390765 -0.2648808 -0.7220938 -0.4212706 -0.548694 -0.722126 0.6681296 -0.1792689 -0.7221257 -0.489249 -0.4891039 -0.7220892 0.6857996 -0.09043859 -0.7221494 0.6917324 1.616407e-06 -0.7221539 0.6858392 0.09035192 -0.7221226 0.6682599 0.1789564 -0.7220826 -0.6682623 -0.1789577 -0.7220801 -0.6391691 -0.2645445 -0.7221351 0.5991198 0.3457801 -0.7221438 0.6391709 0.2645419 -0.7221345 -0.6917314 -5.633753e-08 -0.7221548 -0.6858409 -0.09035048 -0.7221212 -0.639078 0.2648828 -0.7220917 -0.6681305 0.1792664 -0.7221255 0.4212718 0.5486942 -0.7221252 -0.5990703 0.3459194 -0.7221181 -0.4209373 0.5489429 -0.7221312 0.346032 0.5989957 -0.722126 -0.3457514 0.5991979 -0.7220927 -0.1789705 0.6681785 -0.7221544 -0.2646965 0.6391319 -0.7221123 0.09045169 0.6858575 -0.7220928 -0.09011823 0.6858575 -0.7221345 0.0002294354 0.6917593 -0.7221281 0.1790762 0.6681889 -0.7221186 0.264794 0.6390474 -0.7221514 -0.548756 0.4211567 -0.7221453 -0.4890297 0.4892511 -0.722138 0.5488154 0.4210946 -0.7221364 -0.6857979 0.09043787 -0.7221511 -0.5488183 -0.4210926 -0.7221354 -0.5991184 -0.3457784 -0.7221457 0.179174 -0.6681321 0.7221469 0.4891253 0.4891682 0.7221295 0.09032903 -0.6858226 0.7221413 -0.09006751 -0.6858971 0.7221032 8.651668e-05 -0.6917923 0.7220966 0.2649363 -0.6390089 0.7221333 -0.1788323 -0.6682166 0.7221534 0.3460493 -0.5990196 0.7220979 0.4211631 -0.5488005 0.7221078 -0.2647001 -0.6390674 0.7221681 -0.3458571 -0.5991651 0.7220693 0.4891808 -0.4890691 0.722159 -0.4209251 -0.5489782 0.7221115 0.5489372 -0.4209273 0.7221414 -0.4889718 -0.4893064 0.7221398 0.5992214 -0.3456696 0.7221124 0.6681579 -0.1789919 0.7221682 0.6391806 -0.2646783 0.7220758 0.6917594 0.0002336808 0.722128 -0.5990652 -0.3459021 0.7221306 0.6681783 0.1790661 0.7221309 -0.6390917 -0.2649007 0.722073 -0.6681091 -0.1792847 0.7221407 -0.6917337 -1.185402e-07 0.7221527 0.6390454 0.2648121 0.7221464 0.4210241 0.5488531 0.7221489 -0.5488672 0.4210729 0.7221097 0.3456888 0.5991768 0.7221402 -0.4892891 0.489042 0.7221039 -0.4213075 0.5486721 0.7221212 -0.2647246 0.6390942 0.7221354 -0.3459722 0.5989845 0.722164 0.090284 0.6858334 0.7221367 -0.179168 0.6682067 0.7220794 -0.0001687853 0.6917147 0.7221709 -0.09056968 0.6858232 0.7221105 0.1789491 0.6682582 0.722086 0.2645047 0.6392069 0.7221163 -0.5991054 0.3457884 0.7221517 -0.6391704 0.2645252 0.722141 -0.6682731 0.1789643 0.7220685 0.5487412 0.4213112 0.7220664 -0.6858296 0.09036708 0.7221299 -0.6858016 -0.0904245 0.7221493 0.5989256 0.3460916 0.7221556 0.6858675 0.09042997 0.722086 0.6858615 -0.09010247 0.7221326 -0.5487197 -0.4211909 0.722153</float_array>
          <technique_common>
            <accessor count="751" source="#normals-array-array" stride="3">
              <param type="float" name="X" />
              <param type="float" name="Y" />
              <param type="float" name="Z" />
            </accessor>
          </technique_common>
        </source>
        <vertices id="verts-array-vertices">
          <input semantic="POSITION" source="#verts-array" />
        </vertices>
        <triangles count="1506" material="material0">
          <input offset="0" semantic="VERTEX" source="#verts-array-vertices" />
          <input offset="1" semantic="NORMAL" source="#normals-array" />
          <p>0 0 1 1 2 2 3 3 4 4 5 5 6 6 7 7 8 8 9 9 10 10 11 11 9 9 11 11 12 12 10 10 13 13 5 5 14 14 15 15 16 16 17 17 15 15 18 18 12 12 6 6 19 19 3 3 20 20 21 21 22 22 23 23 24 24 25 25 21 21 20 20 8 8 7 7 2 2 1 1 0 0 26 26 27 27 28 28 29 29 30 30 31 31 32 32 33 33 32 32 25 25 34 34 35 35 26 26 26 26 35 35 36 36 37 37 38 38 39 39 38 38 40 40 41 41 42 42 43 43 44 44 45 45 46 46 47 47 44 44 48 48 49 49 44 44 43 43 48 48 39 39 43 43 42 42 48 48 45 45 49 49 37 37 39 39 42 42 47 47 49 49 45 45 38 38 37 37 40 40 46 46 50 50 47 47 51 51 52 52 50 50 50 50 46 46 51 51 52 52 51 51 53 53 40 40 34 34 41 41 41 41 34 34 54 54 52 52 53 53 55 55 30 30 56 56 57 57 58 58 59 59 60 60 61 61 62 62 63 63 56 56 63 63 64 64 65 65 66 66 67 67 62 62 61 61 68 68 66 66 69 69 70 70 71 71 72 72 68 68 73 73 74 74 75 75 71 71 75 75 76 76 77 77 78 78 79 79 74 74 73 73 80 80 81 81 82 82 83 83 82 82 84 84 80 80 85 85 86 86 87 87 83 83 87 87 81 81 88 88 89 89 90 90 91 91 86 86 85 85 92 92 93 93 90 90 88 88 90 90 93 93 92 92 94 94 95 95 95 95 93 93 92 92 96 96 94 94 97 97 94 94 96 96 95 95 98 98 99 99 97 97 96 96 97 97 99 99 98 98 100 100 101 101 101 101 99 99 98 98 102 102 100 100 103 103 100 100 102 102 101 101 104 104 105 105 103 103 102 102 103 103 105 105 104 104 106 106 107 107 107 107 105 105 104 104 108 108 106 106 55 55 106 106 108 108 107 107 108 108 55 55 53 53 0 0 54 54 26 26 54 54 34 34 26 26 109 109 110 110 111 111 0 0 2 2 7 7 110 110 36 36 35 35 112 112 113 113 109 109 6 6 8 8 19 19 112 112 22 22 113 113 11 11 6 6 12 12 114 114 115 115 24 24 10 10 9 9 13 13 114 114 16 16 115 115 4 4 10 10 5 5 21 21 4 4 3 3 116 116 17 17 117 117 25 25 20 20 33 33 117 117 29 29 116 116 31 31 25 25 32 32 118 118 28 28 119 119 57 57 31 31 30 30 58 58 118 118 120 120 64 64 57 57 56 56 62 62 64 64 63 63 67 67 121 121 122 122 62 62 68 68 72 72 121 121 60 60 59 59 76 76 72 72 71 71 74 74 76 76 75 75 79 79 123 123 124 124 74 74 80 80 84 84 123 123 70 70 69 69 81 81 84 84 82 82 125 125 126 126 127 127 81 81 87 87 86 86 126 126 78 78 77 77 89 89 128 128 125 125 91 91 85 85 129 129 89 89 88 88 128 128 93 93 91 91 88 88 129 129 88 88 91 91 127 127 89 89 125 125 77 77 127 127 126 126 124 124 77 77 79 79 69 69 124 124 123 123 65 65 69 69 66 66 122 122 65 65 67 67 59 59 122 122 121 121 120 120 59 59 58 58 119 119 120 120 118 118 27 27 119 119 28 28 117 117 27 27 29 29 117 117 17 17 18 18 14 14 18 18 15 15 114 114 14 14 16 16 23 23 114 114 24 24 112 112 23 23 22 22 111 111 112 112 109 109 35 35 111 111 110 110 130 130 131 131 132 132 133 133 134 134 135 135 136 136 131 131 137 137 130 130 137 137 131 131 138 138 136 136 139 139 136 136 137 137 139 139 138 138 140 140 141 141 141 141 136 136 138 138 142 142 140 140 143 143 140 140 142 142 141 141 144 144 142 142 145 145 143 143 145 145 142 142 146 146 147 147 144 144 144 144 145 145 146 146 148 148 149 149 147 147 148 148 147 147 146 146 150 150 149 149 151 151 149 149 150 150 147 147 152 152 153 153 151 151 150 150 151 151 153 153 153 153 152 152 154 154 131 131 155 155 132 132 156 156 154 154 157 157 152 152 157 157 154 154 158 158 159 159 156 156 156 156 157 157 158 158 160 160 159 159 158 158 155 155 161 161 132 132 162 162 161 161 163 163 155 155 163 163 161 161 163 163 164 164 165 165 165 165 162 162 163 163 166 166 164 164 167 167 164 164 166 166 165 165 167 167 168 168 169 169 166 166 167 167 169 169 168 168 170 170 171 171 170 170 168 168 167 167 172 172 171 171 173 173 170 170 173 173 171 171 174 174 175 175 172 172 172 172 173 173 174 174 175 175 176 176 177 177 176 176 175 175 174 174 176 176 134 134 177 177 177 177 134 134 178 178 179 179 180 180 181 181 182 182 183 183 184 184 185 185 186 186 187 187 188 188 189 189 190 190 191 191 192 192 193 193 194 194 195 195 196 196 197 197 198 198 199 199 200 200 201 201 199 199 202 202 203 203 204 204 205 205 206 206 203 203 207 207 208 208 202 202 202 202 204 204 207 207 208 208 209 209 210 210 209 209 208 208 207 207 211 211 210 210 212 212 209 209 212 212 210 210 159 159 160 160 211 211 211 211 212 212 159 159 203 203 206 206 204 204 213 213 187 187 186 186 191 191 201 201 214 214 215 215 206 206 205 205 197 197 215 215 198 198 215 215 197 197 206 206 198 198 216 216 199 199 214 214 201 201 200 200 216 216 200 200 199 199 193 193 194 194 191 191 214 214 192 192 191 191 194 194 217 217 195 195 193 193 217 217 194 194 186 186 196 196 213 213 213 213 196 196 195 195 190 190 218 218 185 185 185 185 218 218 186 186 189 189 188 188 179 179 189 189 218 218 190 190 219 219 181 181 180 180 181 181 189 189 179 179 219 219 183 183 182 182 183 183 219 219 180 180 135 135 184 184 133 133 135 135 182 182 184 184 133 133 178 178 134 134 121 121 187 187 60 60 67 67 190 190 185 185 185 185 121 121 67 67 70 70 179 179 188 188 188 188 190 190 66 66 79 79 183 183 180 180 180 180 179 179 123 123 133 133 125 125 128 128 184 184 78 78 126 126 172 172 175 175 83 83 129 129 178 178 88 88 161 161 63 63 132 132 165 165 71 71 68 68 3 3 146 146 145 145 137 137 130 130 56 56 30 30 137 137 56 56 139 139 32 32 138 138 61 61 161 161 162 162 130 130 132 132 63 63 165 165 166 166 71 71 162 162 165 165 68 68 73 73 75 75 169 169 75 75 71 71 166 166 80 80 171 171 82 82 169 169 168 168 73 73 175 175 85 85 87 87 172 172 82 82 171 171 162 162 68 68 61 61 130 130 63 63 56 56 61 61 63 63 161 161 138 138 32 32 140 140 30 30 139 139 137 137 20 20 143 143 33 33 33 33 143 143 140 140 5 5 146 146 3 3 20 20 3 3 145 145 146 146 5 5 148 148 143 143 20 20 145 145 13 13 148 148 5 5 140 140 32 32 33 33 30 30 32 32 139 139 13 13 149 149 148 148 151 151 149 149 9 9 13 13 9 9 149 149 12 12 152 152 151 151 151 151 9 9 12 12 152 152 19 19 157 157 19 19 152 152 12 12 157 157 8 8 2 2 19 19 8 8 157 157 1 1 158 158 2 2 157 157 2 2 158 158 1 1 26 26 160 160 160 160 158 158 1 1 166 166 169 169 75 75 80 80 168 168 171 171 73 73 168 168 80 80 175 175 87 87 83 83 82 82 172 172 83 83 129 129 85 85 177 177 177 177 85 85 175 175 128 128 88 88 178 178 129 129 177 177 178 178 184 184 125 125 133 133 133 133 128 128 178 178 184 184 183 183 78 78 184 184 126 126 125 125 79 79 180 180 123 123 78 78 183 183 79 79 123 123 179 179 70 70 70 70 188 188 66 66 66 66 190 190 67 67 187 187 121 121 185 185 187 187 213 213 60 60 195 195 58 58 213 213 60 60 213 213 58 58 217 217 118 118 58 58 58 58 195 195 217 217 193 193 118 118 217 217 28 28 193 193 192 192 193 193 28 28 118 118 214 214 29 29 192 192 28 28 192 192 29 29 200 200 116 116 29 29 29 29 214 214 200 200 116 116 216 216 17 17 216 216 116 116 200 200 15 15 17 17 198 198 216 216 198 198 17 17 215 215 16 16 15 15 15 15 198 198 215 215 16 16 205 205 115 115 205 205 16 16 215 215 24 24 115 115 203 203 205 205 203 203 115 115 202 202 22 22 24 24 24 24 203 203 202 202 22 22 208 208 113 113 208 208 22 22 202 202 109 109 113 113 210 210 208 208 210 210 113 113 210 210 211 211 110 110 110 110 109 109 210 210 36 36 211 211 160 160 211 211 36 36 110 110 36 36 160 160 26 26 220 220 206 206 197 197 197 197 221 221 222 222 220 220 197 197 222 222 221 221 199 199 223 223 199 199 221 221 197 197 201 201 224 224 199 199 223 223 199 199 224 224 201 201 191 191 225 225 225 225 224 224 201 201 226 226 227 227 191 191 191 191 227 227 225 225 194 194 228 228 226 226 226 226 191 191 194 194 229 229 194 194 196 196 194 194 229 229 228 228 196 196 230 230 231 231 229 229 196 196 231 231 186 186 230 230 196 196 232 232 186 186 218 218 186 186 232 232 230 230 218 218 233 233 234 234 232 232 218 218 234 234 233 233 189 189 235 235 189 189 233 233 218 218 181 181 236 236 189 189 235 235 189 189 236 236 237 237 181 181 238 238 237 237 236 236 181 181 239 239 238 238 219 219 181 181 219 219 238 238 182 182 240 240 239 239 239 239 219 219 182 182 241 241 182 182 135 135 182 182 241 241 240 240 135 135 242 242 243 243 241 241 135 135 243 243 134 134 242 242 135 135 134 134 244 244 242 242 220 220 245 245 206 206 246 246 204 204 206 206 206 206 245 245 246 246 247 247 248 248 204 204 247 247 204 204 246 246 207 207 248 248 249 249 248 248 207 207 204 204 250 250 209 209 249 249 207 207 249 249 209 209 251 251 212 212 209 209 209 209 250 250 251 251 252 252 253 253 212 212 252 252 212 212 251 251 159 159 253 253 254 254 253 253 159 159 212 212 156 156 159 159 255 255 254 254 255 255 159 159 256 256 154 154 156 156 156 156 255 255 256 256 257 257 258 258 154 154 257 257 154 154 256 256 153 153 258 258 259 259 258 258 153 153 154 154 150 150 153 153 260 260 259 259 260 260 153 153 261 261 150 150 262 262 150 150 260 260 262 262 261 261 263 263 147 147 147 147 150 150 261 261 144 144 263 263 264 264 263 263 144 144 147 147 142 142 144 144 265 265 264 264 265 265 144 144 266 266 142 142 267 267 142 142 265 265 267 267 266 266 268 268 141 141 141 141 142 142 266 266 141 141 269 269 136 136 269 269 141 141 268 268 131 131 136 136 270 270 269 269 270 270 136 136 271 271 131 131 272 272 131 131 270 270 272 272 271 271 273 273 155 155 155 155 131 131 271 271 155 155 274 274 163 163 274 274 155 155 273 273 163 163 275 275 276 276 274 274 275 275 163 163 277 277 164 164 276 276 163 163 276 276 164 164 277 277 278 278 167 167 167 167 164 164 277 277 167 167 279 279 170 170 279 279 167 167 278 278 170 170 280 280 281 281 279 279 280 280 170 170 282 282 173 173 281 281 170 170 281 281 173 173 283 283 174 174 173 173 173 173 282 282 283 283 284 284 285 285 174 174 284 284 174 174 283 283 176 176 285 285 286 286 285 285 176 176 174 174 176 176 286 286 134 134 134 134 286 286 244 244 260 260 233 233 262 262 263 263 261 261 236 236 231 231 230 230 257 257 232 232 259 259 258 258 226 226 254 254 253 253 229 229 231 231 256 256 225 225 251 251 250 250 226 226 253 253 252 252 248 248 247 247 245 245 222 222 223 223 248 248 245 245 247 247 246 246 248 248 245 245 222 222 220 220 222 222 245 245 223 223 224 224 225 225 222 222 221 221 223 223 250 250 248 248 223 223 250 250 249 249 248 248 252 252 251 251 225 225 250 250 223 223 225 225 226 226 252 252 227 227 252 252 225 225 227 227 228 228 255 255 254 254 226 226 228 228 254 254 256 256 255 255 229 229 228 228 229 229 255 255 256 256 231 231 257 257 230 230 232 232 258 258 230 230 258 258 257 257 234 234 260 260 259 259 234 234 259 259 232 232 233 233 235 235 262 262 234 234 233 233 260 260 261 261 235 235 236 236 235 235 261 261 262 262 237 237 263 263 236 236 237 237 238 238 264 264 264 264 263 263 237 237 239 239 265 265 238 238 264 264 238 238 265 265 267 267 239 239 240 240 239 239 267 267 265 265 240 240 241 241 266 266 266 266 267 267 240 240 243 243 268 268 241 241 266 266 241 241 268 268 269 269 243 243 242 242 243 243 269 269 268 268 242 242 244 244 270 270 270 270 269 269 242 242 270 270 286 286 272 272 274 274 284 284 283 283 272 272 286 286 271 271 277 277 276 276 281 281 283 283 275 275 274 274 281 281 280 280 279 279 277 277 281 281 279 279 276 276 275 275 281 281 277 277 279 279 278 278 281 281 283 283 282 282 283 283 281 281 275 275 284 284 273 273 285 285 284 284 274 274 273 273 271 271 286 286 285 285 285 285 273 273 271 271 244 244 286 286 270 270 25 25 31 31 287 287 288 288 289 289 290 290 62 62 291 291 64 64 64 64 292 292 57 57 72 72 76 76 293 293 291 291 62 62 72 72 294 294 84 84 81 81 74 74 293 293 76 76 295 295 296 296 297 297 81 81 86 86 294 294 298 298 296 296 299 299 296 296 298 298 297 297 300 300 301 301 299 299 298 298 299 299 301 301 300 300 302 302 303 303 303 303 301 301 300 300 304 304 302 302 305 305 302 302 304 304 303 303 306 306 307 307 305 305 304 304 305 305 307 307 306 306 308 308 309 309 309 309 307 307 306 306 310 310 308 308 311 311 308 308 310 310 309 309 312 312 313 313 311 311 310 310 311 311 313 313 312 312 314 314 315 315 315 315 313 313 312 312 316 316 314 314 317 317 314 314 316 316 315 315 318 318 319 319 317 317 316 316 317 317 319 319 318 318 320 320 321 321 321 321 319 319 318 318 320 320 322 322 321 321 31 31 57 57 292 292 51 51 46 46 323 323 324 324 53 53 51 51 325 325 45 45 48 48 45 45 323 323 46 46 38 38 326 326 39 39 48 48 43 43 325 325 327 327 328 328 329 329 326 326 38 38 41 41 330 330 331 331 329 329 327 327 329 329 331 331 330 330 332 332 333 333 333 333 331 331 330 330 334 334 332 332 335 335 332 332 334 334 333 333 336 336 337 337 335 335 334 334 335 335 337 337 336 336 338 338 339 339 339 339 337 337 336 336 340 340 338 338 341 341 338 338 340 340 339 339 342 342 343 343 341 341 340 340 341 341 343 343 342 342 344 344 345 345 345 345 343 343 342 342 346 346 344 344 347 347 344 344 346 346 345 345 348 348 349 349 347 347 346 346 347 347 349 349 348 348 350 350 351 351 351 351 349 349 348 348 352 352 350 350 289 289 350 350 352 352 351 351 353 353 354 354 355 355 352 352 289 289 288 288 356 356 357 357 358 358 359 359 360 360 361 361 362 362 363 363 364 364 365 365 366 366 367 367 368 368 369 369 370 370 371 371 372 372 373 373 374 374 375 375 376 376 377 377 378 378 379 379 380 380 381 381 382 382 383 383 384 384 385 385 386 386 387 387 388 388 389 389 390 390 391 391 392 392 393 393 394 394 395 395 396 396 397 397 398 398 399 399 400 400 401 401 402 402 403 403 404 404 400 400 405 405 399 399 405 405 400 400 406 406 407 407 404 404 404 404 405 405 406 406 407 407 408 408 409 409 408 408 407 407 406 406 410 410 409 409 411 411 408 408 411 411 409 409 412 412 413 413 410 410 410 410 411 411 412 412 413 413 414 414 415 415 414 414 413 413 412 412 416 416 415 415 417 417 414 414 417 417 415 415 322 322 320 320 416 416 416 416 417 417 322 322 402 402 398 398 403 403 402 402 399 399 398 398 392 392 394 394 401 401 392 392 401 401 403 403 393 393 395 395 397 397 393 393 397 397 394 394 396 396 387 387 386 386 395 395 387 387 396 396 389 389 388 388 390 390 386 386 388 388 389 389 381 381 391 391 382 382 391 391 390 390 382 382 385 385 384 384 380 380 384 384 381 381 380 380 374 374 376 376 383 383 374 374 383 383 385 385 375 375 377 377 379 379 375 375 379 379 376 376 378 378 369 369 368 368 377 377 369 369 378 378 371 371 370 370 372 372 368 368 370 370 371 371 363 363 373 373 364 364 373 373 372 372 364 364 367 367 366 366 362 362 366 366 363 363 362 362 356 356 358 358 365 365 356 356 365 365 367 367 357 357 359 359 361 361 357 357 361 361 358 358 360 360 353 353 355 355 359 359 353 353 360 360 290 290 354 354 288 288 355 355 354 354 290 290 107 107 108 108 418 418 64 64 291 291 292 292 324 324 51 51 323 323 4 4 21 21 419 419 323 323 45 45 325 325 21 21 25 25 287 287 10 10 420 420 11 11 325 325 43 43 326 326 6 6 11 11 420 420 326 326 43 43 39 39 41 41 54 54 326 326 7 7 6 6 420 420 327 327 54 54 0 0 326 326 54 54 327 327 420 420 328 328 0 0 327 327 0 0 328 328 420 420 0 0 7 7 420 420 10 10 419 419 419 419 10 10 4 4 287 287 419 419 21 21 292 292 287 287 31 31 108 108 53 53 324 324 102 102 105 105 421 421 291 291 72 72 293 293 105 105 107 107 418 418 101 101 422 422 99 99 293 293 74 74 294 294 96 96 99 99 422 422 294 294 74 74 84 84 86 86 91 91 294 294 95 95 422 422 93 93 295 295 297 297 91 91 294 294 91 91 297 297 422 422 295 295 93 93 295 295 91 91 93 93 422 422 95 95 96 96 422 422 101 101 421 421 421 421 101 101 102 102 418 418 421 421 105 105 324 324 418 418 108 108 375 375 374 374 423 423 339 339 424 424 337 337 374 374 385 385 425 425 388 388 426 426 390 390 427 427 382 382 390 390 380 380 427 427 428 428 369 369 429 429 370 370 423 423 430 430 377 377 388 388 387 387 431 431 372 372 429 429 432 432 387 387 395 395 431 431 362 362 364 364 433 433 393 393 434 434 395 395 435 435 393 393 392 392 436 436 367 367 433 433 437 437 356 356 436 436 438 438 435 435 392 392 438 438 403 403 398 398 439 439 359 359 437 437 400 400 440 440 398 398 441 441 353 353 439 439 442 442 443 443 352 352 442 442 352 352 288 288 346 346 349 349 444 444 410 410 445 445 446 446 447 447 345 345 448 448 449 449 450 450 416 416 451 451 312 312 311 311 314 314 452 452 317 317 337 337 453 453 334 334 454 454 311 311 308 308 300 300 299 299 455 455 453 453 456 456 333 333 457 457 299 299 296 296 421 421 458 458 422 422 295 295 422 422 459 459 460 460 323 323 325 325 461 461 421 421 418 418 324 324 323 323 462 462 418 418 462 462 461 461 326 326 463 463 325 325 296 296 295 295 459 459 464 464 327 327 331 331 463 463 326 326 327 327 331 331 333 333 456 456 300 300 455 455 302 302 306 306 305 305 465 465 302 302 466 466 305 305 467 467 339 339 340 340 465 465 454 454 308 308 314 314 451 451 452 452 340 340 343 343 467 467 343 343 345 345 447 447 343 343 447 447 467 467 318 318 449 449 320 320 317 317 468 468 318 318 346 346 448 448 345 345 416 416 450 450 415 415 346 346 444 444 448 448 349 349 351 351 444 444 413 413 415 415 445 445 352 352 443 443 351 351 404 404 469 469 400 400 469 469 404 404 407 407 354 354 442 442 288 288 446 446 409 409 410 410 443 443 444 444 351 351 380 380 428 428 385 385 467 467 424 424 339 339 424 424 453 453 337 337 334 334 453 453 333 333 456 456 464 464 331 331 464 464 463 463 327 327 463 463 460 460 325 325 460 460 462 462 323 323 324 324 462 462 418 418 461 461 458 458 421 421 458 458 459 459 422 422 459 459 457 457 296 296 457 457 455 455 299 299 455 455 466 466 302 302 466 466 465 465 305 305 306 306 465 465 308 308 454 454 451 451 311 311 312 312 451 451 314 314 452 452 468 468 317 317 468 468 449 449 318 318 320 320 449 449 416 416 450 450 445 445 415 415 413 413 445 445 410 410 446 446 470 470 409 409 470 470 469 469 407 407 470 470 407 407 409 409 469 469 440 440 400 400 440 440 438 438 398 398 403 403 438 438 392 392 435 435 434 434 393 393 434 434 431 431 395 395 431 431 426 426 388 388 426 426 427 427 390 390 382 382 427 427 380 380 425 425 423 423 374 374 428 428 425 425 385 385 375 375 423 423 377 377 377 377 430 430 369 369 372 372 370 370 429 429 369 369 430 430 429 429 364 364 372 372 432 432 433 433 367 367 362 362 433 433 364 364 432 432 436 436 356 356 367 367 437 437 357 357 356 356 359 359 439 439 353 353 357 357 437 437 359 359 353 353 441 441 354 354 442 442 354 354 441 441 471 471 383 383 376 376 335 335 472 472 336 336 384 384 383 383 473 473 391 391 474 474 389 389 475 475 391 391 381 381 475 475 384 384 473 473 476 476 379 379 378 378 379 379 476 476 376 376 389 389 477 477 386 386 368 368 478 478 378 378 477 477 396 396 386 386 479 479 368 368 371 371 480 480 397 397 396 396 394 394 397 397 481 481 371 371 373 373 479 479 482 482 373 373 363 363 481 481 483 483 394 394 402 402 401 401 483 483 363 363 366 366 484 484 485 485 399 399 402 402 486 486 484 484 365 365 360 360 487 487 488 488 358 358 361 361 488 488 489 489 290 290 289 289 408 408 406 406 490 490 347 347 491 491 348 348 411 411 492 492 493 493 417 417 494 494 322 322 344 344 342 342 495 495 496 496 335 335 332 332 321 321 322 322 494 494 307 307 309 309 497 497 330 330 498 498 496 496 499 499 500 500 304 304 501 501 294 294 297 297 501 501 298 298 502 502 287 287 503 503 419 419 293 293 294 294 504 504 292 292 505 505 287 287 506 506 505 505 291 291 420 420 419 419 507 507 500 500 301 301 303 303 329 329 328 328 508 508 420 420 507 507 328 328 330 330 329 329 498 498 509 509 497 497 310 310 510 510 316 316 511 511 509 509 313 313 510 510 512 512 338 338 336 336 511 511 319 319 513 513 494 494 417 417 514 514 512 512 341 341 338 338 495 495 491 491 344 344 515 515 342 342 341 341 493 493 412 412 411 411 493 493 414 414 412 412 516 516 350 350 348 348 408 408 492 492 411 411 489 489 350 350 516 516 517 517 355 355 290 290 490 490 492 492 408 408 406 406 518 518 490 490 487 487 360 360 355 355 506 506 291 291 293 293 405 405 518 518 406 406 486 486 365 365 358 358 514 514 414 414 493 493 414 414 514 514 417 417 518 518 399 399 485 485 518 518 405 405 399 399 485 485 402 402 483 483 401 401 394 394 483 483 481 481 397 397 480 480 480 480 396 396 477 477 477 477 389 389 474 474 474 474 391 391 475 475 381 381 384 384 475 475 473 473 383 383 471 471 471 471 376 376 476 476 476 476 378 378 478 478 478 478 368 368 479 479 479 479 373 373 482 482 482 482 363 363 484 484 366 366 365 365 484 484 486 486 358 358 488 488 361 361 360 360 488 488 487 487 355 355 517 517 517 517 290 290 489 489 289 289 350 350 489 489 516 516 348 348 491 491 347 347 344 344 491 491 495 495 342 342 515 515 515 515 341 341 512 512 512 512 336 336 472 472 472 472 335 335 496 496 332 332 330 330 496 496 498 498 329 329 508 508 508 508 328 328 507 507 507 507 419 419 503 503 503 503 287 287 505 505 292 292 291 291 505 505 504 504 294 294 501 501 506 506 293 293 504 504 297 297 298 298 501 501 298 298 301 301 502 502 304 304 500 500 303 303 301 301 500 500 502 502 307 307 499 499 304 304 497 497 309 309 310 310 497 497 499 499 307 307 509 509 310 310 313 313 510 510 313 313 315 315 316 316 319 319 511 511 315 315 316 316 510 510 319 319 321 321 513 513 494 494 513 513 321 321 519 519 520 520 521 521 522 522 523 523 524 524 519 519 525 525 526 526 526 526 520 520 519 519 527 527 525 525 528 528 525 525 527 527 526 526 529 529 530 530 528 528 527 527 528 528 530 530 529 529 531 531 532 532 532 532 530 530 529 529 533 533 531 531 534 534 531 531 533 533 532 532 535 535 536 536 534 534 533 533 534 534 536 536 535 535 537 537 538 538 538 538 536 536 535 535 539 539 537 537 540 540 537 537 539 539 538 538 541 541 542 542 540 540 539 539 540 540 542 542 541 541 543 543 544 544 544 544 542 542 541 541 545 545 543 543 546 546 543 543 545 545 544 544 547 547 548 548 546 546 545 545 546 546 548 548 547 547 549 549 550 550 550 550 548 548 547 547 551 551 549 549 552 552 549 549 551 551 550 550 553 553 554 554 552 552 551 551 552 552 554 554 553 553 555 555 556 556 556 556 554 554 553 553 555 555 557 557 556 556 558 558 521 521 520 520 559 559 558 558 560 560 558 558 559 559 521 521 561 561 562 562 560 560 559 559 560 560 562 562 561 561 563 563 564 564 564 564 562 562 561 561 565 565 563 563 566 566 563 563 565 565 564 564 567 567 568 568 566 566 565 565 566 566 568 568 567 567 569 569 570 570 570 570 568 568 567 567 571 571 569 569 572 572 569 569 571 571 570 570 573 573 574 574 572 572 571 571 572 572 574 574 573 573 575 575 576 576 576 576 574 574 573 573 577 577 575 575 578 578 575 575 577 577 576 576 579 579 580 580 578 578 577 577 578 578 580 580 579 579 581 581 582 582 582 582 580 580 579 579 583 583 581 581 584 584 581 581 583 583 582 582 585 585 586 586 584 584 583 583 584 584 586 586 585 585 587 587 588 588 588 588 586 586 585 585 589 589 587 587 523 523 587 587 589 589 588 588 590 590 591 591 592 592 589 589 523 523 522 522 593 593 594 594 595 595 596 596 597 597 598 598 599 599 600 600 601 601 602 602 603 603 604 604 605 605 606 606 607 607 608 608 609 609 610 610 112 112 611 611 23 23 612 612 613 613 614 614 615 615 616 616 27 27 117 117 18 18 615 615 617 617 100 100 98 98 618 618 106 106 104 104 619 619 620 620 621 621 622 622 623 623 624 624 625 625 626 626 627 627 628 628 629 629 630 630 631 631 627 627 632 632 626 626 632 632 627 627 633 633 634 634 631 631 631 631 632 632 633 633 634 634 635 635 636 636 635 635 634 634 633 633 637 637 636 636 638 638 635 635 638 638 636 636 639 639 640 640 637 637 637 637 638 638 639 639 640 640 641 641 642 642 641 641 640 640 639 639 643 643 642 642 644 644 641 641 644 644 642 642 557 557 555 555 643 643 643 643 644 644 557 557 629 629 625 625 630 630 629 629 626 626 625 625 619 619 621 621 628 628 619 619 628 628 630 630 620 620 622 622 624 624 620 620 624 624 621 621 645 645 97 97 94 94 94 94 92 92 645 645 618 618 104 104 103 103 617 617 103 103 100 100 59 59 120 120 646 646 647 647 55 55 106 106 615 615 27 27 117 117 27 27 616 616 119 119 648 648 14 14 114 114 648 648 18 18 14 14 649 649 612 612 614 614 611 611 112 112 111 111 613 613 606 606 605 605 612 612 606 606 613 613 608 608 607 607 609 609 605 605 607 607 608 608 600 600 610 610 601 601 610 610 609 609 601 601 604 604 603 603 599 599 603 603 600 600 599 599 593 593 595 595 602 602 593 593 602 602 604 604 594 594 596 596 598 598 594 594 598 598 595 595 597 597 590 590 592 592 596 596 590 590 597 597 524 524 591 591 522 522 592 592 591 591 524 524 616 616 120 120 119 119 52 52 650 650 50 50 647 647 106 106 618 618 65 65 122 122 651 651 618 618 103 103 617 617 122 122 59 59 646 646 69 69 652 652 124 124 617 617 98 98 645 645 77 77 124 124 652 652 645 645 98 98 97 97 92 92 90 90 645 645 127 127 77 77 652 652 622 622 90 90 89 89 645 645 90 90 622 622 652 652 623 623 89 89 622 622 89 89 623 623 652 652 89 89 127 127 652 652 69 69 651 651 651 651 69 69 65 65 646 646 651 651 122 122 616 616 646 646 120 120 52 52 55 55 647 647 49 49 47 47 653 653 615 615 18 18 648 648 47 47 50 50 650 650 44 44 654 654 42 42 648 648 114 114 611 611 37 37 42 42 654 654 611 611 114 114 23 23 111 111 35 35 611 611 40 40 654 654 34 34 649 649 614 614 35 35 611 611 35 35 614 614 654 654 649 649 34 34 649 649 35 35 34 34 654 654 40 40 37 37 654 654 44 44 653 653 653 653 44 44 49 49 650 650 653 653 47 47 647 647 650 650 52 52 649 649 654 654 655 655 576 576 656 656 574 574 654 654 653 653 657 657 617 617 658 658 618 618 659 659 647 647 618 618 650 650 659 659 660 660 606 606 661 661 607 607 655 655 662 662 612 612 617 617 645 645 663 663 609 609 661 661 664 664 645 645 622 622 663 663 599 599 601 601 665 665 620 620 666 666 622 622 667 667 620 620 619 619 668 668 604 604 665 665 669 669 593 593 668 668 670 670 667 667 619 619 670 670 630 630 625 625 671 671 596 596 669 669 627 627 672 672 625 625 673 673 590 590 671 671 674 674 675 675 589 589 674 674 589 589 522 522 583 583 586 586 676 676 637 637 677 677 678 678 679 679 582 582 680 680 681 681 682 682 643 643 683 683 547 547 546 546 549 549 684 684 552 552 574 574 685 685 571 571 686 686 546 546 543 543 535 535 534 534 687 687 685 685 688 688 570 570 689 689 534 534 531 531 525 525 690 690 528 528 529 529 528 528 691 691 692 692 559 559 562 562 693 693 525 525 519 519 521 521 559 559 694 694 519 519 694 694 693 693 564 564 695 695 562 562 531 531 529 529 691 691 696 696 565 565 568 568 695 695 564 564 565 565 568 568 570 570 688 688 535 535 687 687 537 537 541 541 540 540 697 697 537 537 698 698 540 540 699 699 576 576 577 577 697 697 686 686 543 543 549 549 683 683 684 684 577 577 580 580 699 699 580 580 582 582 679 679 580 580 679 679 699 699 553 553 681 681 555 555 552 552 700 700 553 553 583 583 680 680 582 582 643 643 682 682 642 642 583 583 676 676 680 680 586 586 588 588 676 676 640 640 642 642 677 677 589 589 675 675 588 588 631 631 701 701 627 627 701 701 631 631 634 634 591 591 674 674 522 522 678 678 636 636 637 637 675 675 676 676 588 588 650 650 660 660 653 653 699 699 656 656 576 576 656 656 685 685 574 574 571 571 685 685 570 570 688 688 696 696 568 568 696 696 695 695 565 565 695 695 692 692 562 562 692 692 694 694 559 559 521 521 694 694 519 519 693 693 690 690 525 525 690 690 691 691 528 528 691 691 689 689 531 531 689 689 687 687 534 534 687 687 698 698 537 537 698 698 697 697 540 540 541 541 697 697 543 543 686 686 683 683 546 546 547 547 683 683 549 549 684 684 700 700 552 552 700 700 681 681 553 553 555 555 681 681 643 643 682 682 677 677 642 642 640 640 677 677 637 637 678 678 702 702 636 636 702 702 701 701 634 634 702 702 634 634 636 636 701 701 672 672 627 627 672 672 670 670 625 625 630 630 670 670 619 619 667 667 666 666 620 620 666 666 663 663 622 622 663 663 658 658 617 617 658 658 659 659 618 618 647 647 659 659 650 650 657 657 655 655 654 654 660 660 657 657 653 653 649 649 655 655 612 612 612 612 662 662 606 606 609 609 607 607 661 661 606 606 662 662 661 661 601 601 609 609 664 664 665 665 604 604 599 599 665 665 601 601 664 664 668 668 593 593 604 604 669 669 594 594 593 593 596 596 671 671 590 590 594 594 669 669 596 596 590 590 673 673 591 591 674 674 591 591 673 673 703 703 648 648 611 611 572 572 704 704 573 573 615 615 648 648 705 705 646 646 706 706 651 651 707 707 646 646 616 616 707 707 615 615 705 705 708 708 614 614 613 613 614 614 708 708 611 611 651 651 709 709 652 652 605 605 710 710 613 613 709 709 623 623 652 652 711 711 605 605 608 608 712 712 624 624 623 623 621 621 624 624 713 713 608 608 610 610 711 711 714 714 610 610 600 600 713 713 715 715 621 621 629 629 628 628 715 715 600 600 603 603 716 716 717 717 626 626 629 629 718 718 716 716 602 602 597 597 719 719 720 720 595 595 598 598 720 720 721 721 524 524 523 523 635 635 633 633 722 722 584 584 723 723 585 585 638 638 724 724 725 725 644 644 726 726 557 557 581 581 579 579 727 727 728 728 572 572 569 569 556 556 557 557 726 726 542 542 544 544 729 729 567 567 730 730 728 728 731 731 732 732 539 539 733 733 530 530 532 532 733 733 533 533 734 734 558 558 735 735 560 560 527 527 530 530 736 736 520 520 737 737 558 558 738 738 737 737 526 526 561 561 560 560 739 739 732 732 536 536 538 538 566 566 563 563 740 740 561 561 739 739 563 563 567 567 566 566 730 730 741 741 729 729 545 545 742 742 551 551 743 743 741 741 548 548 742 742 744 744 575 575 573 573 743 743 554 554 745 745 726 726 644 644 746 746 744 744 578 578 575 575 727 727 723 723 581 581 747 747 579 579 578 578 725 725 639 639 638 638 725 725 641 641 639 639 748 748 587 587 585 585 635 635 724 724 638 638 721 721 587 587 748 748 749 749 592 592 524 524 722 722 724 724 635 635 633 633 750 750 722 722 719 719 597 597 592 592 738 738 526 526 527 527 632 632 750 750 633 633 718 718 602 602 595 595 746 746 641 641 725 725 641 641 746 746 644 644 750 750 626 626 717 717 750 750 632 632 626 626 717 717 629 629 715 715 628 628 621 621 715 715 713 713 624 624 712 712 712 712 623 623 709 709 709 709 651 651 706 706 706 706 646 646 707 707 616 616 615 615 707 707 705 705 648 648 703 703 703 703 611 611 708 708 708 708 613 613 710 710 710 710 605 605 711 711 711 711 610 610 714 714 714 714 600 600 716 716 603 603 602 602 716 716 718 718 595 595 720 720 598 598 597 597 720 720 719 719 592 592 749 749 749 749 524 524 721 721 523 523 587 587 721 721 748 748 585 585 723 723 584 584 581 581 723 723 727 727 579 579 747 747 747 747 578 578 744 744 744 744 573 573 704 704 704 704 572 572 728 728 569 569 567 567 728 728 730 730 566 566 740 740 740 740 563 563 739 739 739 739 560 560 735 735 735 735 558 558 737 737 520 520 526 526 737 737 736 736 530 530 733 733 738 738 527 527 736 736 532 532 533 533 733 733 533 533 536 536 734 734 539 539 732 732 538 538 536 536 732 732 734 734 542 542 731 731 539 539 729 729 544 544 545 545 729 729 731 731 542 542 741 741 545 545 548 548 742 742 548 548 550 550 551 551 554 554 743 743 550 550 551 551 742 742 554 554 556 556 745 745 726 726 745 745 556 556 737 737 693 693 694 694 674 674 749 749 721 721 690 690 693 693 738 738 737 737 738 738 693 693 690 690 736 736 691 691 736 736 690 690 738 738 733 733 689 689 691 691 691 691 736 736 733 733 687 687 689 689 734 734 733 733 734 734 689 689 687 687 732 732 698 698 732 732 687 687 734 734 731 731 697 697 698 698 698 698 732 732 731 731 686 686 697 697 729 729 731 731 729 729 697 697 686 686 741 741 683 683 741 741 686 686 729 729 742 742 684 684 683 683 683 683 741 741 742 742 700 700 684 684 743 743 742 742 743 743 684 684 700 700 745 745 681 681 745 745 700 700 743 743 681 681 745 745 726 726 735 735 737 737 694 694 735 735 692 692 739 739 692 692 735 735 694 694 695 695 740 740 739 739 739 739 692 692 695 695 730 730 740 740 696 696 695 695 696 696 740 740 730 730 688 688 728 728 688 688 730 730 696 696 685 685 704 704 728 728 728 728 688 688 685 685 744 744 704 704 656 656 685 685 656 656 704 704 744 744 699 699 747 747 699 699 744 744 656 656 679 679 727 727 747 747 747 747 699 699 679 679 723 723 727 727 680 680 679 679 680 680 727 727 723 723 676 676 748 748 676 676 723 723 680 680 675 675 721 721 748 748 748 748 676 676 675 675 671 671 719 719 673 673 675 675 674 674 721 721 665 665 716 716 668 668 669 669 718 718 720 720 661 661 662 662 710 710 714 714 664 664 711 711 705 705 657 657 660 660 703 703 708 708 655 655 663 663 709 709 658 658 659 659 706 706 707 707 667 667 670 670 715 715 712 712 666 666 713 713 672 672 701 701 750 750 750 750 717 717 672 672 702 702 722 722 701 701 750 750 701 701 722 722 724 724 702 702 678 678 702 702 724 724 722 722 678 678 677 677 725 725 725 725 724 724 678 678 682 682 746 746 677 677 725 725 677 677 746 746 726 726 682 682 681 681 682 682 726 726 746 746 670 670 717 717 715 715 717 717 670 670 672 672 666 666 667 667 713 713 713 713 667 667 715 715 663 663 712 712 709 709 663 663 666 666 712 712 658 658 706 706 659 659 658 658 709 709 706 706 707 707 705 705 660 660 659 659 707 707 660 660 703 703 655 655 657 657 705 705 703 703 657 657 710 710 662 662 708 708 708 708 662 662 655 655 664 664 661 661 711 711 711 711 661 661 710 710 665 665 714 714 716 716 665 665 664 664 714 714 668 668 718 718 669 669 668 668 716 716 718 718 720 720 719 719 671 671 669 669 720 720 671 671 749 749 674 674 673 673 719 719 749 749 673 673 505 505 461 461 462 462 442 442 517 517 489 489 458 458 461 461 506 506 505 505 506 506 461 461 458 458 504 504 459 459 504 504 458 458 506 506 501 501 457 457 459 459 459 459 504 504 501 501 455 455 457 457 502 502 501 501 502 502 457 457 455 455 500 500 466 466 500 500 455 455 502 502 499 499 465 465 466 466 466 466 500 500 499 499 454 454 465 465 497 497 499 499 497 497 465 465 454 454 509 509 451 451 509 509 454 454 497 497 510 510 452 452 451 451 451 451 509 509 510 510 468 468 452 452 511 511 510 510 511 511 452 452 468 468 513 513 449 449 513 513 468 468 511 511 449 449 513 513 494 494 503 503 505 505 462 462 503 503 460 460 507 507 460 460 503 503 462 462 463 463 508 508 507 507 507 507 460 460 463 463 498 498 508 508 464 464 463 463 464 464 508 508 498 498 456 456 496 496 456 456 498 498 464 464 453 453 472 472 496 496 496 496 456 456 453 453 512 512 472 472 424 424 453 453 424 424 472 472 512 512 467 467 515 515 467 467 512 512 424 424 447 447 495 495 515 515 515 515 467 467 447 447 491 491 495 495 448 448 447 447 448 448 495 495 491 491 444 444 516 516 444 444 491 491 448 448 443 443 489 489 516 516 516 516 444 444 443 443 439 439 487 487 441 441 443 443 442 442 489 489 433 433 484 484 436 436 437 437 486 486 488 488 429 429 430 430 478 478 482 482 432 432 479 479 473 473 425 425 428 428 471 471 476 476 423 423 431 431 477 477 426 426 427 427 474 474 475 475 435 435 438 438 483 483 480 480 434 434 481 481 440 440 469 469 518 518 518 518 485 485 440 440 470 470 490 490 469 469 518 518 469 469 490 490 492 492 470 470 446 446 470 470 492 492 490 490 446 446 445 445 493 493 493 493 492 492 446 446 450 450 514 514 445 445 493 493 445 445 514 514 494 494 450 450 449 449 450 450 494 494 514 514 438 438 485 485 483 483 485 485 438 438 440 440 434 434 435 435 481 481 481 481 435 435 483 483 431 431 480 480 477 477 431 431 434 434 480 480 426 426 474 474 427 427 426 426 477 477 474 474 475 475 473 473 428 428 427 427 475 475 428 428 471 471 423 423 425 425 473 473 471 471 425 425 478 478 430 430 476 476 476 476 430 430 423 423 432 432 429 429 479 479 479 479 429 429 478 478 433 433 482 482 484 484 433 433 432 432 482 482 436 436 486 486 437 437 436 436 484 484 486 486 488 488 487 487 439 439 437 437 488 488 439 439 517 517 442 442 441 441 487 487 517 517 441 441</p>
        </triangles>
      </mesh>
    </geometry>
  </library_geometries>
  <library_materials>
    <material id="dd8f1c7c3176415492889cdd4f996660" name="defaultmaterial">
      <instance_effect url="#4dd1705a8b05493eb36249257a458ecd" />
    </material>
  </library_materials>
  <library_visual_scenes>
    <visual_scene id="scene">
      <node id="node0" name="node0">
        <instance_geometry url="#1bb21699373f4878a8248efeccadf2c8">
          <bind_material>
            <technique_common>
              <instance_material symbol="material0" target="#dd8f1c7c3176415492889cdd4f996660" />
            </technique_common>
          </bind_material>
        </instance_geometry>
      </node>
    </visual_scene>
  </library_visual_scenes>
  <scene>
    <instance_visual_scene url="#scene" />
  </scene>
</COLLADA>